<svg width="119" height="90" viewBox="0 0 119 90" fill="none" xmlns="http://www.w3.org/2000/svg">
<path d="M0.00533154 69.4505C0.00533154 66.2174 0.00533154 62.9896 0.00533154 59.7566C0.074574 59.2719 0.154464 58.7818 0.207727 58.2971C0.628508 54.6699 0.873522 51.016 1.49138 47.4261C3.94682 33.1621 9.58741 20.1712 17.5769 8.16029C17.8539 7.74483 18.3013 7.36134 18.7594 7.15361C26.0618 3.81399 33.6891 1.50769 41.5774 0.0376173C42.2166 -0.0795622 42.5788 0.0642491 42.8557 0.650147C43.5854 2.17348 44.4377 3.64355 45.0875 5.19884C45.4603 6.08834 45.9131 6.2428 46.8132 6.15758C50.3286 5.8167 53.86 5.31602 57.3753 5.34798C62.0945 5.39059 66.8083 5.84333 71.5168 6.17356C72.3104 6.22683 72.7365 6.10432 73.0721 5.30537C73.7432 3.71812 74.5847 2.20011 75.3251 0.639494C75.6074 0.0429437 75.9803 -0.0742358 76.6141 0.0429437C84.3959 1.4704 91.906 3.76073 99.1125 7.01512C99.7304 7.29742 100.348 7.80875 100.726 8.36801C114.101 28.3098 119.949 50.2118 117.712 74.1803C117.67 74.6064 117.398 75.1497 117.057 75.3947C108.364 81.7543 98.8942 86.58 88.609 89.8131C87.8473 90.0528 87.4905 89.8504 87.1176 89.2485C85.7168 87.0008 84.268 84.7797 82.8725 82.5267C82.3346 81.6585 81.8925 80.7264 81.4131 79.8315C84.7634 78.2177 87.9912 76.6677 91.2615 75.0964C89.8501 73.0937 89.1363 72.8647 87.3307 73.6477C74.2439 79.3255 60.6883 81.0353 46.6268 78.4733C41.0075 77.4507 35.6013 75.7569 30.3708 73.4665C29.9127 73.2695 29.2682 73.0351 28.8954 73.2162C28.171 73.5678 27.5745 74.1909 26.6104 74.9526C30.1524 76.6677 33.4015 78.2336 36.9115 79.9274C34.8289 83.1978 32.8049 86.3616 30.8022 89.5415C30.3868 90.2019 29.9021 89.9196 29.3961 89.7598C19.2441 86.5321 9.85374 81.7916 1.26235 75.4906C0.846894 75.187 0.543292 74.5371 0.463397 74.0098C0.234365 72.5025 0.143811 70.9738 0 69.4505H0.00533154ZM89.5518 49.3382C89.2482 47.8788 89.0937 46.3715 88.609 44.976C86.0737 37.6203 77.6048 35.2074 72.0707 40.2142C66.9042 44.8854 66.8509 53.8283 71.9589 58.5901C76.0708 62.4197 81.999 62.2972 85.9192 58.2758C88.3267 55.8097 89.344 52.7844 89.5464 49.3382H89.5518ZM50.3978 49.285C49.9078 47.49 49.6415 45.5885 48.8852 43.9107C45.8864 37.2421 37.849 35.4951 32.7197 40.2994C27.681 45.0186 27.5958 53.6046 32.5333 58.4303C36.5813 62.3878 42.5841 62.3611 46.5735 58.3397C49.0343 55.863 50.0676 52.8057 50.3978 49.285Z" fill="#DEFFF2"/>
</svg>
