<svg width="100" height="83" viewBox="0 0 100 83" fill="none" xmlns="http://www.w3.org/2000/svg">
<path d="M99.4813 6.42946C98.9007 9.03937 98.3042 11.644 97.7502 14.2592C93.4945 34.1637 89.2494 54.0683 84.9989 73.9728C84.6794 75.4588 84.3917 76.9502 84.0082 78.4203C82.5755 83.8798 78.5914 83.5496 75.5021 81.3338C69.1424 76.7745 62.8627 72.1032 56.5456 67.48C55.6082 66.7929 54.6388 66.1377 53.7387 65.408C53.2273 64.9926 52.9131 65.0405 52.4497 65.4933C48.7958 69.0193 45.11 72.5134 41.4401 76.0288C40.3482 77.078 39.1072 77.7172 37.4454 77.6533C37.5413 76.2258 37.6318 74.8463 37.7277 73.4721C38.1591 67.4374 38.5746 61.4026 39.0486 55.3732C39.0859 54.8938 39.3788 54.3239 39.7357 54.0043C53.4617 41.6419 67.209 29.3008 80.9509 16.9543C81.1214 16.8052 81.3451 16.6827 81.441 16.4909C81.6593 16.0648 81.8191 15.6067 82.0002 15.1647C81.5262 15.0422 81.0095 14.7332 80.5887 14.8344C79.8217 15.0155 79.0548 15.3458 78.3783 15.7612C61.2648 26.4459 44.1672 37.1411 27.075 47.8631C26.4358 48.2625 25.9085 48.3105 25.2054 48.0921C18.0575 45.8444 10.8936 43.6446 3.75094 41.3809C2.81351 41.0826 1.8814 40.6299 1.08777 40.0493C-0.217181 39.1012 -0.382298 37.7377 0.778844 36.6458C1.74824 35.7403 2.90938 34.9201 4.13976 34.4354C11.2558 31.6231 18.4144 28.9119 25.5623 26.1742C47.8797 17.6308 70.2024 9.08198 92.5251 0.554508C93.2388 0.282865 94.0111 0.0698112 94.7675 0.0165478C97.1164 -0.153895 98.645 0.996595 99.2629 3.27094C99.3215 3.484 99.4014 3.69705 99.4706 3.9101V6.43479L99.4813 6.42946Z" fill="#F7004B"/>
</svg>
