<svg width="34" height="34" viewBox="0 0 34 34" fill="none" xmlns="http://www.w3.org/2000/svg">
<path d="M17.8212 33.5631H15.7212C15.5112 33.5331 15.2912 33.5031 15.0812 33.4831C11.5612 33.0931 8.42116 31.7931 5.78116 29.4331C1.34116 25.4531 -0.578838 20.4531 0.151162 14.5431C0.701162 10.0831 2.84116 6.43309 6.36116 3.64309C9.90116 0.833091 13.9612 -0.336907 18.4512 0.0830928C21.7812 0.393093 24.7512 1.64308 27.3312 3.75308C30.5512 6.39308 32.5612 9.77308 33.2912 13.8831C33.4012 14.4931 33.4612 15.1131 33.5512 15.7231V17.8231C33.5012 18.2331 33.4512 18.6431 33.4012 19.0531C32.9212 22.4031 31.5712 25.3631 29.3212 27.8931C26.7312 30.7931 23.5212 32.6031 19.6912 33.3031C19.0712 33.4131 18.4412 33.4831 17.8212 33.5631ZM16.7712 31.4631C24.8612 31.4631 31.4412 24.8831 31.4612 16.7831C31.4712 8.68311 24.8712 2.07309 16.7712 2.08309C8.68116 2.08309 2.10116 8.66309 2.08116 16.7631C2.07116 24.8531 8.67116 31.4731 16.7712 31.4731V31.4631Z" fill="white"/>
<path d="M15.7312 6.29297H17.8212V6.69293C17.8212 9.79293 17.8212 12.9029 17.8212 16.0029C17.8212 16.2529 17.9012 16.423 18.0712 16.603C19.9112 18.433 21.7412 20.263 23.5712 22.093C23.6512 22.173 23.7212 22.2529 23.7712 22.3029C23.2712 22.8029 22.7912 23.2829 22.2812 23.8029C22.0612 23.5629 21.8212 23.3129 21.5812 23.0629C19.7012 21.1829 17.8212 19.3129 15.9512 17.4229C15.8412 17.3129 15.7412 17.1329 15.7412 16.9829C15.7312 13.4929 15.7412 10.0129 15.7412 6.52295C15.7412 6.46295 15.7412 6.39292 15.7412 6.30292L15.7312 6.29297Z" fill="white"/>
</svg>
