<svg width="202" height="89" viewBox="0 0 202 89" fill="none" xmlns="http://www.w3.org/2000/svg">
<g opacity="0.88">
<path d="M83.7793 74.5507C69.637 76.4347 55.1934 76.4095 41.0762 74.2995C34.5703 73.3282 27.9639 72.089 21.7091 70.0208C17.0369 68.4802 12.3061 66.2697 8.88986 62.7446C7.36595 61.1788 6.16859 59.3283 5.55735 57.2936C4.80377 54.8152 4.87075 52.3535 5.59922 49.9169C7.21523 44.4995 11.6614 40.0701 16.0405 36.6622C26.1469 28.7915 38.1205 23.3573 50.3704 19.7987C63.7842 15.9052 77.7004 14.2975 91.6333 14.0212C106.42 13.7282 121.224 14.8251 135.927 16.349C143.279 17.1109 150.614 18.0152 157.932 19.0786C164.429 20.0248 170.944 21.0379 177.282 22.7712C183.286 24.4123 189.39 26.6898 194.464 30.3907C195.427 31.0941 196.457 31.9984 196.934 33.1204C197.06 33.4218 197.143 33.7735 197.076 34.1419C197.009 34.5271 196.674 35.0043 196.348 35.356C194.246 37.6167 191.416 39.3751 188.795 40.9576C183.302 44.2734 177.358 46.71 171.354 48.9121C164.597 51.3906 157.781 53.7099 150.949 55.9707C136.882 60.6345 122.689 64.9216 108.396 68.8318C107.542 69.0663 106.68 69.3007 105.826 69.5268C105.541 69.6022 105.248 69.6859 104.955 69.7445C104.796 69.778 104.628 69.8115 104.461 69.8366C104.52 69.8366 104.779 69.8031 104.486 69.8199C104.193 69.8366 103.9 69.8366 103.599 69.8282C103.565 69.8282 103.188 69.7696 103.448 69.8199C103.707 69.8701 103.331 69.778 103.314 69.778C102.887 69.577 103.465 69.9622 103.113 69.6775C103.238 69.778 103.322 69.8869 103.439 69.9873C103.49 70.0292 103.598 70.5148 103.465 69.9706C102.694 66.8641 97.888 68.1787 98.6583 71.2935C99.504 74.6847 103.264 75.1452 106.161 74.5842C107.961 74.2325 109.736 73.638 111.494 73.1524C113.253 72.6667 115.179 72.1309 117.021 71.6034C124.515 69.4849 131.975 67.2577 139.402 64.9216C146.829 62.5855 154.223 60.1573 161.583 57.6202C168.457 55.2506 175.348 52.8977 182.013 49.9923C185.145 48.6274 188.217 47.1035 191.148 45.3452C194.079 43.5868 197.076 41.6191 199.521 39.2244C202.192 36.612 202.904 32.8189 200.668 29.6623C198.676 26.8573 195.594 25.0235 192.613 23.4159C180.062 16.642 165.367 15.0344 151.451 13.1923C135.969 11.166 120.362 9.6337 104.754 9.13969C89.1465 8.64567 74.0497 9.39088 59.045 12.5224C45.5559 15.3358 32.3347 20.1587 20.6206 27.4685C10.4724 33.7986 -3.01675 44.3823 0.600449 58.1058C3.65665 69.7278 17.0704 74.3163 27.4615 76.7528C42.2401 80.2193 57.5546 81.5339 72.71 80.6128C76.4109 80.3868 80.1035 80.0267 83.7793 79.5327C85.1106 79.3569 86.2661 78.5112 86.2661 77.0459C86.2661 75.8402 85.119 74.3749 83.7793 74.5591V74.5507Z" fill="#F7004B"/>
</g>
<path d="M29.4129 58.1C29.6224 57.751 29.7969 57.402 29.9365 57.0529C30.1459 56.6341 30.4251 56.1455 30.7741 55.5871C29.0988 56.1455 27.4933 56.7039 25.9576 57.2624C24.422 57.8208 22.8514 58.3792 21.2459 58.9376C20.8969 58.3792 20.5478 57.8208 20.1988 57.2624C19.9196 56.6341 19.5706 55.8663 19.1518 54.9588C21.1761 54.191 23.0957 53.458 24.9106 52.76C26.7255 52.062 28.5404 51.5384 30.3553 51.1894C33.6361 50.4914 36.149 48.7114 37.8941 45.8494C38.9412 44.2439 40.0231 42.6733 41.14 41.1376C42.2569 39.602 43.3737 38.0314 44.4906 36.4259C44.351 36.4957 44.2812 36.5306 44.2812 36.5306C44.5604 36.1816 44.7698 35.8675 44.9094 35.5882C45.1188 35.309 45.3631 35.0647 45.6424 34.8553C45.5725 34.9251 45.4678 34.96 45.3282 34.96C46.2357 33.7733 47.1082 32.6216 47.9459 31.5047C48.8533 30.318 49.7259 29.1314 50.5635 27.9447L50.4588 28.0494C51.2267 27.142 51.9247 26.2345 52.5529 25.3271C53.251 24.3498 54.0188 23.4075 54.8565 22.5L54.6471 22.6047C54.8565 22.4651 55.1357 22.2208 55.4847 21.8718L55.38 21.9765C55.729 21.5576 56.078 21.1388 56.4271 20.72C56.7761 20.3012 57.1251 19.8824 57.4741 19.4635L57.3694 19.5682C57.509 19.4286 57.6486 19.3239 57.7882 19.2541C57.9278 19.1145 58.0675 18.9749 58.2071 18.8353L58.1024 18.94C58.4514 18.5212 58.8004 18.1024 59.1494 17.6835C59.4984 17.2647 59.8475 16.8459 60.1965 16.4271L60.0918 16.5318L62.2906 14.0188L62.0812 14.1235C62.5 13.8443 62.7792 13.6 62.9188 13.3906L62.8141 13.4953C63.0933 13.2161 63.3725 13.0067 63.6518 12.8671L63.5471 12.9718C63.5471 12.4133 63.582 11.9945 63.6518 11.7153V11.6106C64.1404 11.122 64.7686 10.4588 65.5365 9.62118C66.3043 8.71373 67.0722 7.87608 67.84 7.10824C68.6776 6.27059 69.4804 5.57255 70.2482 5.01412C71.0161 4.38589 71.6792 4.07177 72.2376 4.07177C73.4941 4.07177 74.4365 4.38589 75.0647 5.01412C75.7627 5.64236 76.042 6.54981 75.9024 7.73647C75.9024 7.87608 75.8674 7.98079 75.7976 8.05059C75.7976 8.12039 75.7976 8.2251 75.7976 8.36471C72.2376 18.0675 68.5729 27.7004 64.8035 37.2635C61.0341 46.8267 57.4392 56.4596 54.0188 66.1624C53.8792 66.651 53.7745 67.1047 53.7047 67.5235C53.6349 68.0122 53.5651 68.5008 53.4953 68.9894C53.3557 69.7573 53.2859 70.5251 53.2859 71.2929C53.3557 72.1306 53.3208 72.9333 53.1812 73.7012C52.9718 73.771 52.6576 73.8059 52.2388 73.8059C50.9824 73.8059 50.0051 73.3522 49.3071 72.4447C48.609 71.6071 48.3298 70.4553 48.4694 68.9894C48.4694 68.7102 48.5392 68.2216 48.6788 67.5235C49.4467 64.8012 50.2843 62.0788 51.1918 59.3565C52.169 56.6341 52.9718 53.9118 53.6 51.1894C51.3663 51.4686 49.1325 51.7478 46.8988 52.0271C44.6651 52.3063 42.4663 52.5506 40.3024 52.76C39.2553 52.8996 38.4176 53.2137 37.7894 53.7024C37.1612 54.191 36.5678 54.889 36.0094 55.7965C34.0549 59.0075 32.0655 62.1835 30.0412 65.3247C28.0169 68.3961 25.5039 71.1533 22.5024 73.5965C21.1761 74.7133 20.1639 75.2718 19.4659 75.2718C18.5584 75.2718 17.5463 74.6086 16.4294 73.2824C19.2914 71.3278 21.7694 69.0592 23.8635 66.4765C26.0275 63.8937 27.9122 61.0667 29.5176 57.9953C29.6573 58.1349 29.7969 58.2396 29.9365 58.3094C30.0761 58.3094 30.2157 58.3792 30.3553 58.5188C30.2855 58.449 30.2157 58.4141 30.1459 58.4141C30.2157 58.3443 30.2855 58.3094 30.3553 58.3094H30.46C30.46 58.3792 30.4251 58.449 30.3553 58.5188C30.2157 58.449 30.0412 58.3792 29.8318 58.3094C29.6922 58.2396 29.5525 58.1698 29.4129 58.1ZM70.2482 10.8776C64.4545 16.3224 59.289 22.2557 54.7518 28.6776C50.2843 35.0298 45.8169 41.4867 41.3494 48.0482H52.9718C52.4133 48.3275 51.9945 48.5369 51.7153 48.6765C51.5059 48.7463 51.1918 48.851 50.7729 48.9906C51.4012 49.0604 51.9945 49.1302 52.5529 49.2C53.1114 49.2 53.8443 49.2698 54.7518 49.4094C57.6835 43.0573 60.3361 36.6702 62.7094 30.2482C65.1525 23.8263 67.6655 17.3694 70.2482 10.8776ZM60.6153 39.4624L60.4059 39.6718C60.4757 39.7416 60.5455 39.7765 60.6153 39.7765V39.4624ZM59.7776 41.2424L59.8824 41.0329L59.7776 41.2424ZM53.3906 57.7859C53.3906 57.7161 53.4255 57.6463 53.4953 57.5765C53.4255 57.5765 53.3208 57.6463 53.1812 57.7859H53.3906ZM60.3012 15.2753C60.8596 14.7169 61.418 14.1235 61.9765 13.4953C62.5349 12.8671 63.0933 12.2388 63.6518 11.6106C63.582 11.82 63.5471 12.0643 63.5471 12.3435C63.5471 12.5529 63.5471 12.7624 63.5471 12.9718L63.6518 12.8671C63.3725 13.0067 63.0933 13.2161 62.8141 13.4953L62.9188 13.3906C62.7792 13.6 62.5 13.8443 62.0812 14.1235L62.2906 14.0188C61.9416 14.2282 61.5925 14.4376 61.2435 14.6471C60.8945 14.8565 60.5455 15.0659 60.1965 15.2753H60.3012ZM58.2071 17.7882C58.5561 17.3694 58.9051 16.9506 59.2541 16.5318C59.6031 16.1129 59.9522 15.6941 60.3012 15.2753H60.1965C60.1965 15.8337 60.1616 16.2525 60.0918 16.5318L60.1965 16.4271C59.8475 16.6365 59.4984 16.8459 59.1494 17.0553C58.8702 17.2647 58.5561 17.4741 58.2071 17.6835V17.7882ZM56.8459 19.5682C57.1251 19.2192 57.3694 18.9051 57.5788 18.6259C57.7882 18.3467 57.9976 18.0675 58.2071 17.7882V17.6835C58.2071 17.8929 58.1722 18.1024 58.1024 18.3118C58.1024 18.5212 58.1024 18.7306 58.1024 18.94L58.2071 18.8353C58.0675 18.9749 57.9278 19.1145 57.7882 19.2541C57.6486 19.3239 57.509 19.4286 57.3694 19.5682L57.4741 19.4635H56.7412L56.8459 19.5682ZM54.8565 21.9765L55.4847 20.72C55.4847 20.9294 55.4498 21.1388 55.38 21.3482C55.38 21.5576 55.38 21.7671 55.38 21.9765L55.4847 21.8718H54.7518L54.8565 21.9765ZM50.5635 27.9447L50.04 28.0494C50.1796 27.7702 50.2494 27.5259 50.2494 27.3165C50.2494 27.1071 50.3192 26.8627 50.4588 26.5835H50.3541C50.3541 26.8627 50.3541 27.142 50.3541 27.4212C50.4239 27.6306 50.4588 27.84 50.4588 28.0494L50.5635 27.9447ZM56.2176 20.1965L56.8459 19.5682L56.7412 19.4635L56.1129 20.0918L56.2176 20.1965ZM55.4847 20.72C55.6243 20.6502 55.729 20.5804 55.7988 20.5106C55.9384 20.4408 56.078 20.3361 56.2176 20.1965L56.1129 20.0918C55.9733 20.2314 55.8337 20.3361 55.6941 20.4059C55.6243 20.4757 55.5545 20.5804 55.4847 20.72ZM54.8565 22.5C54.7169 22.5698 54.5773 22.6047 54.4376 22.6047C54.3678 22.6047 54.2631 22.6396 54.1235 22.7094L54.2282 22.6047C54.3678 22.4651 54.4725 22.3604 54.5424 22.2906C54.6122 22.2208 54.7169 22.1161 54.8565 21.9765L54.7518 21.8718C54.7518 22.2208 54.7169 22.4651 54.6471 22.6047L54.8565 22.5ZM54.1235 22.7094C54.1235 22.6396 54.0886 22.6047 54.0188 22.6047H54.2282L54.1235 22.7094ZM53.0765 24.4894L53.4953 24.0706C53.4255 24.2102 53.251 24.3498 52.9718 24.4894H53.0765ZM51.7153 25.1176C52.2737 24.8384 52.7274 24.629 53.0765 24.4894C52.7973 24.629 52.5529 24.7337 52.3435 24.8035C52.1341 24.8035 51.9247 24.8733 51.7153 25.0129V25.1176ZM51.7153 25.0129C51.7851 25.0827 51.82 25.1176 51.82 25.1176C51.8898 25.0478 51.9247 24.978 51.9247 24.9082L51.7153 25.1176V25.0129ZM50.4588 26.5835L50.5635 26.6882C50.4937 26.6882 50.4239 26.6533 50.3541 26.5835H50.4588ZM50.04 28.0494C49.9004 28.1192 49.8306 28.1541 49.8306 28.1541H49.7259C49.8655 28.1541 49.9702 28.1192 50.04 28.0494ZM48.8882 29.4106L48.9929 29.62H48.7835L48.8882 29.4106ZM60.0918 16.5318C60.2314 15.6243 60.4757 15.0659 60.8247 14.8565C61.2435 14.6471 61.7322 14.3678 62.2906 14.0188L60.0918 16.5318ZM55.4847 20.72C55.9733 19.8824 56.6365 19.4635 57.4741 19.4635C57.1251 19.8824 56.7761 20.3012 56.4271 20.72C56.078 21.1388 55.729 21.5576 55.38 21.9765C55.38 21.7671 55.38 21.5576 55.38 21.3482C55.4498 21.1388 55.4847 20.9294 55.4847 20.72ZM58.1024 18.94C58.242 18.0326 58.4863 17.4741 58.8353 17.2647C59.1843 17.0553 59.638 16.7761 60.1965 16.4271C59.8475 16.8459 59.4984 17.2647 59.1494 17.6835C58.8004 18.1024 58.4514 18.5212 58.1024 18.94ZM63.5471 12.9718C63.5471 12.4133 63.582 11.9945 63.6518 11.7153C63.582 11.9945 63.5471 12.4133 63.5471 12.9718ZM60.6153 39.4624V39.7765C60.4757 39.7067 60.4059 39.6718 60.4059 39.6718L60.6153 39.4624ZM59.7776 41.2424L59.8824 41.0329V41.2424H59.7776ZM53.3906 57.7859H53.1812C53.3208 57.6463 53.4255 57.5765 53.4953 57.5765C53.4255 57.7161 53.3906 57.7859 53.3906 57.7859ZM62.8141 13.4953C63.0933 13.2161 63.3725 13.0067 63.6518 12.8671C63.3725 13.0067 63.0933 13.2161 62.8141 13.4953ZM62.0812 14.1235C62.5 13.8443 62.7792 13.6 62.9188 13.3906C62.7792 13.6 62.5 13.8443 62.0812 14.1235ZM57.3694 19.5682C57.509 19.4286 57.6486 19.3239 57.7882 19.2541C57.9278 19.1145 58.0675 18.9749 58.2071 18.8353C58.0675 18.9749 57.9278 19.1145 57.7882 19.2541C57.6486 19.3239 57.509 19.4286 57.3694 19.5682ZM54.6471 22.6047C54.7169 22.3953 54.7169 22.2208 54.6471 22.0812C54.6471 21.9416 54.9263 21.8718 55.4847 21.8718C55.1357 22.2208 54.8565 22.4651 54.6471 22.6047ZM45.3282 34.96C45.4678 34.96 45.5725 34.9251 45.6424 34.8553L45.4329 35.0647L45.3282 34.96ZM44.3859 36.4259L44.2812 36.5306C44.351 36.4608 44.4208 36.4259 44.4906 36.4259H44.3859ZM30.3553 58.5188C30.4251 58.449 30.46 58.3792 30.46 58.3094H30.3553C30.2157 58.3792 30.1459 58.4141 30.1459 58.4141C30.2855 58.4839 30.3553 58.5188 30.3553 58.5188C30.2157 58.3792 30.0761 58.3094 29.9365 58.3094C29.7969 58.2396 29.6573 58.1349 29.5176 57.9953L29.4129 58.1C29.5525 58.1698 29.6922 58.2396 29.8318 58.3094C30.0412 58.3792 30.2157 58.449 30.3553 58.5188ZM76.7517 53.9118C75.0764 56.7737 73.3313 59.6008 71.5164 62.3929C69.7713 65.1153 67.747 67.5933 65.4434 69.8271C62.3022 69.1988 60.7317 67.8376 60.7317 65.7435C60.7317 65.3247 60.7666 65.0106 60.8364 64.8012C61.5344 59.7753 62.9654 55.0286 65.1293 50.5612C67.2932 46.0937 69.5619 41.5565 71.9352 36.9494C72.6332 37.2984 73.2964 37.6475 73.9246 37.9965C74.6226 38.2757 75.3556 38.5898 76.1234 38.9388C73.4709 43.3365 71.0975 47.7341 69.0034 52.1318C66.9791 56.5294 65.5132 61.2063 64.6058 66.1624C68.096 62.6722 71.1673 58.9376 73.8199 54.9588C76.5422 50.9102 79.3344 46.6871 82.1964 42.2894C82.9642 42.778 83.6971 43.2318 84.3952 43.6506C85.163 43.9996 85.9309 44.3835 86.6987 44.8024C85.3724 47.5247 84.0113 50.1424 82.6152 52.6553C81.2889 55.0984 80.6258 57.7161 80.6258 60.5082C80.6258 61.6949 80.7654 62.8467 81.0446 63.9635C85.5819 60.6827 89.072 56.8435 91.5152 52.4459C93.9583 47.9784 95.4591 42.8827 96.0175 37.1588C96.6458 37.438 97.1693 37.6824 97.5881 37.8918C98.0768 38.0314 98.4607 38.2408 98.7399 38.52C99.0191 38.7992 99.2285 39.1831 99.3681 39.6718C99.5077 40.0906 99.5775 40.6839 99.5775 41.4518C99.5775 42.5686 99.2983 43.9996 98.7399 45.7447C98.1815 47.42 97.4485 49.2 96.5411 51.0847C95.6336 52.9694 94.5866 54.889 93.3999 56.8435C92.2132 58.7282 90.9917 60.4384 89.7352 61.9741C88.4787 63.5098 87.2222 64.7663 85.9658 65.7435C84.7093 66.651 83.5924 67.1047 82.6152 67.1047C80.9399 67.1047 79.6834 66.6859 78.8458 65.8482C78.0779 65.0106 77.5195 63.9286 77.1705 62.6024C76.8913 61.2761 76.7517 59.8451 76.7517 58.3094C76.8215 56.7737 76.8215 55.3078 76.7517 53.9118C76.8215 53.9816 76.8564 54.0165 76.8564 54.0165L76.7517 53.9118C76.8913 53.9816 76.9611 54.0165 76.9611 54.0165C77.0309 54.0165 77.0309 54.0165 76.9611 54.0165C76.8913 53.9467 76.8215 53.9118 76.7517 53.9118C76.8913 53.9816 76.9611 54.0165 76.9611 54.0165L76.7517 53.9118L76.8564 54.0165C76.7866 54.0165 76.7517 53.9816 76.7517 53.9118ZM114.799 64.8012C117.661 63.6145 120.104 61.9741 122.128 59.88C124.152 57.7859 126.037 55.5173 127.782 53.0741C127.014 56.0059 125.758 58.5886 124.013 60.8224C122.268 62.9863 120.139 64.8361 117.626 66.3718C116.858 66.7906 116.09 67 115.322 67C113.926 67 112.844 66.5114 112.076 65.5341C111.378 64.5569 111.029 63.3353 111.029 61.8694C111.029 60.5431 111.134 59.2169 111.343 57.8906C111.553 56.4945 111.727 55.0286 111.867 53.4929C110.82 54.9588 109.703 56.5643 108.516 58.3094C107.4 60.0545 106.248 61.7298 105.061 63.3353C103.944 64.871 102.862 66.1624 101.815 67.2094C100.768 68.2565 99.8258 68.78 98.9882 68.78C97.6619 68.78 96.7544 68.3263 96.2658 67.4188C95.7772 66.5812 95.5329 65.7784 95.5329 65.0106C95.5329 64.4522 95.6027 63.9286 95.7423 63.44C95.8121 62.8816 95.9168 62.3231 96.0564 61.7647C96.6148 59.6008 97.3478 57.3671 98.2552 55.0635C99.0929 52.76 100.07 50.5612 101.187 48.4671C102.374 46.3031 103.735 44.3137 105.271 42.4988C106.806 40.6839 108.551 39.1482 110.506 37.8918C111.413 37.3333 112.251 37.0541 113.019 37.0541C114.205 37.0541 115.392 37.5427 116.579 38.52C118.254 39.9161 119.476 40.998 120.243 41.7659C121.011 42.5337 121.395 43.3714 121.395 44.2788C121.395 44.7675 121.151 45.64 120.662 46.8965C120.174 48.0831 119.545 49.4792 118.778 51.0847C118.08 52.6204 117.312 54.2957 116.474 56.1106C115.706 57.8557 115.008 59.4961 114.38 61.0318C114.24 61.5204 114.171 62.0439 114.171 62.6024C114.171 63.091 114.101 63.6145 113.961 64.1729C114.38 64.4522 114.659 64.6616 114.799 64.8012ZM100.14 64.8012C102.862 61.4506 105.55 58.1698 108.202 54.9588C110.925 51.678 113.612 48.3973 116.265 45.1165C115.916 44.3486 115.636 43.7204 115.427 43.2318C115.218 42.6733 115.043 42.1498 114.903 41.6612C113.647 41.6612 112.181 42.4639 110.506 44.0694C108.831 45.6051 107.225 47.5596 105.689 49.9329C104.154 52.3063 102.862 54.8541 101.815 57.5765C100.768 60.229 100.21 62.6373 100.14 64.8012ZM127.447 65.5341C128.005 64.9059 128.878 63.9984 130.064 62.8118C131.251 61.6251 132.473 60.4035 133.729 59.1471C134.986 57.8208 136.207 56.5643 137.394 55.3776C138.58 54.191 139.453 53.2835 140.011 52.6553C140.291 52.7949 140.465 52.9345 140.535 53.0741C140.046 53.7722 139.244 54.7494 138.127 56.0059C137.08 57.2624 135.928 58.5886 134.671 59.9847C133.485 61.3808 132.333 62.7071 131.216 63.9635C130.169 65.22 129.401 66.1973 128.913 66.8953C128.564 66.9651 128.249 67 127.97 67C127.691 67.0698 127.412 67.1047 127.133 67.1047C124.899 67.1047 123.782 66.0576 123.782 63.9635C123.782 61.7996 124.096 59.6706 124.724 57.5765C125.283 55.4125 125.981 53.3184 126.818 51.2941C127.726 49.2 128.703 47.1757 129.75 45.2212C130.867 43.1969 131.949 41.2773 132.996 39.4624C133.275 38.9737 133.659 38.52 134.148 38.1012C134.706 37.6125 135.16 37.3682 135.509 37.3682C136.067 37.5078 136.591 37.822 137.08 38.3106C137.568 38.7992 138.092 39.2529 138.65 39.6718C137.394 41.7659 136.137 43.8251 134.881 45.8494C133.624 47.8737 132.438 49.898 131.321 51.9224C130.274 53.9467 129.331 56.0408 128.494 58.2047C127.656 60.3686 127.028 62.6024 126.609 64.9059C127.028 65.1851 127.307 65.3945 127.447 65.5341ZM137.917 36.2165C137.498 35.5184 137.08 34.9251 136.661 34.4365C136.312 33.9478 136.033 33.4941 135.823 33.0753C135.684 32.6565 135.649 32.2376 135.718 31.8188C135.858 31.4 136.242 30.9114 136.87 30.3529C137.429 29.7945 138.231 29.3757 139.278 29.0965C140.395 28.7475 141.338 28.9569 142.106 29.7247C142.594 30.2831 142.838 30.7369 142.838 31.0859C142.838 31.4349 142.734 31.7839 142.524 32.1329C142.315 32.4122 142.036 32.6914 141.687 32.9706C141.338 33.18 141.024 33.4243 140.744 33.7035C139.907 34.4714 138.964 35.309 137.917 36.2165ZM157.257 23.3376C158.094 23.8263 159.002 24.1055 159.979 24.1753C161.026 24.1753 162.003 24.2451 162.911 24.3847C163.888 24.5243 164.76 24.8384 165.528 25.3271C166.296 25.8157 166.924 26.7231 167.413 28.0494H154.848C154.011 28.9569 153.103 30.2482 152.126 31.9235C151.149 33.5988 150.171 35.5184 149.194 37.6824C148.217 39.7765 147.275 42.0451 146.367 44.4882C145.46 46.8616 144.657 49.2 143.959 51.5035C143.261 53.7373 142.702 55.8663 142.284 57.8906C141.865 59.8451 141.655 61.4855 141.655 62.8118C141.655 63.44 141.69 63.8937 141.76 64.1729C143.017 63.8937 144.238 63.3004 145.425 62.3929C146.611 61.4157 147.833 60.2639 149.09 58.9376C150.416 57.5416 151.777 56.0408 153.173 54.4353C154.569 52.76 156.105 51.0847 157.78 49.4094C157.99 49.549 158.269 49.7933 158.618 50.1424C157.85 50.7706 156.838 52.0271 155.581 53.9118C154.395 55.7267 153.068 57.6114 151.602 59.5659C150.137 61.5204 148.636 63.2655 147.1 64.8012C145.564 66.3369 144.168 67.1047 142.912 67.1047C142.353 67.1047 141.795 66.8953 141.237 66.4765C140.678 66.0576 140.12 65.5341 139.561 64.9059C139.073 64.2776 138.689 63.6145 138.41 62.9165C138.06 62.1486 137.886 61.4855 137.886 60.9271C137.886 58.2047 138.2 55.5173 138.828 52.8647C139.457 50.1424 140.259 47.4898 141.237 44.9071C142.284 42.2545 143.4 39.6369 144.587 37.0541C145.844 34.4016 147.065 31.7141 148.252 28.9918C146.926 29.3408 145.704 29.6898 144.587 30.0388C143.54 30.318 142.353 30.6322 141.027 30.9812C140.818 30.1435 140.608 29.3059 140.399 28.4682C140.19 27.6306 139.945 26.7231 139.666 25.7459C141.76 25.5365 143.75 25.3271 145.634 25.1176C147.589 24.8384 149.473 24.5941 151.288 24.3847C152.475 22.0812 153.627 19.8126 154.744 17.5788C155.93 15.2753 157.187 12.902 158.513 10.4588C159.979 11.4361 161.445 12.4482 162.911 13.4953C161.864 15.3102 160.886 17.0204 159.979 18.6259C159.071 20.1616 158.164 21.7322 157.257 23.3376ZM141.551 48.0482V48.2576V48.0482V48.2576H141.655C141.586 48.1878 141.551 48.118 141.551 48.0482ZM143.331 42.7082L143.435 42.8129V42.7082H143.331ZM141.551 48.0482C141.62 48.1878 141.655 48.2576 141.655 48.2576C141.655 48.3275 141.62 48.3624 141.551 48.3624C141.551 48.2925 141.551 48.1878 141.551 48.0482V48.2576V48.0482ZM143.331 42.7082L143.435 42.8129L143.331 42.7082ZM170.119 33.18C171.096 33.878 171.725 34.611 172.004 35.3788C172.353 36.1467 172.527 36.9843 172.527 37.8918C172.527 38.3804 172.493 38.9039 172.423 39.4624C172.423 39.951 172.423 40.4745 172.423 41.0329C171.864 40.4745 171.376 39.8812 170.957 39.2529C170.608 38.6247 170.259 38.2757 169.91 38.2059C168.304 38.2059 166.838 38.6596 165.512 39.5671C164.186 40.4047 163.034 41.4867 162.057 42.8129C161.08 44.0694 160.312 45.4306 159.753 46.8965C159.265 48.3624 159.02 49.6537 159.02 50.7706C159.02 51.9573 159.16 52.9694 159.439 53.8071C159.718 54.6447 160.067 55.4824 160.486 56.32C160.975 57.0878 161.568 57.8906 162.266 58.7282C162.964 59.5659 163.732 60.5431 164.57 61.66V62.7071C164.57 64.522 164.081 65.8133 163.104 66.5812C162.196 67.349 160.416 67.7329 157.764 67.7329C153.855 67.7329 151.691 65.918 151.272 62.2882C152.249 62.6373 153.262 63.0561 154.309 63.5447C155.286 63.9635 156.333 64.2078 157.45 64.2776C158.567 64.3475 159.335 63.9984 159.753 63.2306C160.242 62.3929 160.277 61.6949 159.858 61.1365C157.066 56.8784 155.67 52.8298 155.67 48.9906C155.67 45.3608 156.891 42.1847 159.335 39.4624C161.778 36.6702 165.373 34.5761 170.119 33.18Z" fill="white"/>
</svg>
