<svg width="1080" height="805" viewBox="0 0 1080 805" fill="none" xmlns="http://www.w3.org/2000/svg">
<path opacity="0.06" d="M-22.0052 748.544L-17.5744 755.828C-10.1723 755.672 -12.518 751.946 -10.8395 747.365C-8.06632 739.809 -9.651 737.889 -8.79611 734.831C-8.26441 732.953 -4.91781 733.13 -4.51122 731.534C-4.22973 730.427 -6.51292 725.356 -4.71973 723.143C-3.23931 721.327 -0.674625 722.976 0.972609 721.954C3.32878 720.493 1.47303 716.057 10.0532 719.355L12.4303 711.925C19.7803 714.857 29.1111 709.931 35.7 714.899C37.0032 715.88 37.2743 718.562 38.077 719.021C39.5679 719.887 42.6434 719.021 45.0309 720.075C52.0994 723.195 52.579 737.701 62.5562 741.959C67.8315 744.213 76.5577 744.37 79.3204 738.286C81.5932 733.297 75.6819 720.211 74.5977 713.866C71.0634 693.286 74.3579 673.103 72.8253 652.879C72.3457 646.596 67.623 627.186 64.1409 622.5C62.7751 620.663 54.1115 619.964 52.36 616.426C49.7953 611.229 61.6075 617.762 62.5145 617.981C65.1104 618.587 65.1313 618.722 66.9349 616.416L58.167 597.485L62.5249 598.957L69.8228 609.873L66.9245 589.45C71.3762 584.378 74.0868 609.163 77.1102 608.412L74.2119 589.45H78.5385L83.9285 617.272C92.9257 622.197 93.6347 613.63 98.493 610.092C100.88 608.349 101.496 608.057 103.372 610.624L84.4498 638.363C82.2917 661.321 94.2498 683.675 90.2568 706.195L105.801 688.924C119.386 679.261 130.583 687.849 138.11 699.892C142.072 706.227 145.877 720.138 155.854 719.334C157.501 717.779 140.748 682.036 138.621 677.486C132.678 664.807 120.824 649.268 119.427 635.399C117.196 613.264 120.105 588.417 121.585 566.794C121.669 565.625 123.566 564.268 123.629 562.525C123.858 555.659 115.309 540.579 122.378 534.745C123.493 533.827 136.275 527.576 136.911 528.139C136.984 531.02 135.754 533.347 139.82 532.512L142.77 509.177C145.71 508.77 145.158 508.948 146.065 511.014C148.65 516.921 143.698 527.419 144.23 533.211C144.48 535.914 147.243 537.521 147.941 539.754C152.205 553.457 143.281 557.735 142.812 565.447C141.863 581.206 145.981 614.475 148.671 630.964C149.734 637.444 166.144 660.006 171.347 665.183C176.121 669.941 182.898 672.665 187.172 678.53C190.446 683.028 189.08 689.582 198.964 688.079C200.83 687.797 206.554 681.139 206.428 679.208C200.006 671.486 194.46 659.391 183.586 658.013C182.179 651.626 191.405 657.512 192.323 656.573L185.046 640.533L192.344 644.165L183.586 630.327C190.78 630.713 193.417 638.102 198.151 641.984C197.89 637.361 193.803 633.583 192.615 629.294C192.125 627.541 191.885 624.65 194.502 625.944C197.014 627.186 210.599 655.916 215.655 650.75C214.394 629.127 240.958 616.917 255.825 633.166C264.019 642.119 259.849 648.871 259.546 658.618C259.317 665.965 264.196 675.973 252.405 678.77L246.296 697.461C264.301 680.315 289.833 681.275 310.913 669.472C315.365 666.978 334.37 646.242 334.923 642.474C335.632 637.622 327.594 631.611 325.269 627.895C320.067 619.588 309.672 604.018 306.263 595.837C303.365 588.876 302.343 578.012 299.445 572.012C294.19 561.106 283.077 555.586 279.334 539.347C279.178 538.659 274.215 531.99 279.073 534.015C281.138 534.87 292.356 549.449 294.399 547.133C295.89 543.678 288.717 521.899 293.68 522.358C295.89 529.11 298.913 523.579 301.561 527.544L307.483 546.538C315.949 548.813 311.966 537.114 319.191 536.926L315.448 564.717C321.318 571.198 322.902 579.118 327.344 586.423C335.267 599.468 345.734 611.219 353.47 624.462C357.327 621.957 359.256 617.126 362.186 614.235C363.458 612.983 366.22 612.868 367.972 611.271C380.764 599.604 363.583 595.837 357.119 588.02C361.06 589.429 361.352 584.91 363.593 584.952C369.181 585.046 373.998 590.295 380.441 586.528L373.164 570.498C376.229 567.232 385.487 586.486 387.009 586.517C393.441 581.602 396.256 571.615 405.233 570.498C407.016 572.126 393.035 586.444 392.128 588.751C390.449 593.04 401.24 589.888 402.314 590.921C400.176 599.186 406.432 603.309 399.593 610.363L404.503 617.188L406.129 614.193L416.868 617.188L418.358 609.904L424.155 614.266L427.074 608.443L427.105 615.738L432.923 612.837L430.004 617.188L444.6 617.209C440.45 623.304 449.312 624.65 450.292 626.184C450.719 626.852 447.821 632.153 451.877 634.71L446.059 633.27L447.592 645.595L444.61 646.429C454.546 658.9 439.835 660.56 439.105 670.891C438.938 673.239 439.783 674.888 440.242 677.048L451.157 665.381C470.82 655.289 484.081 637.142 499.938 622.323C492.922 613.546 489.252 606.251 478.138 601.868C475.814 596.974 487.74 602.568 488.345 600.418L478.128 582.207C485.342 580.819 485.259 590.316 491.254 590.932L478.138 570.519C487.177 569.653 488.533 579.285 494.152 583.647L486.885 566.856C487.323 565.239 490.201 566.199 491.275 566.846C498.781 571.354 504.275 595.315 516.713 595.377C522.04 594.845 527.649 578.67 530.203 573.827C531.131 572.074 536.448 568.202 536.448 565.416V536.958C544.361 536.321 537.408 548.134 543.715 547.174L553.963 520.918L558.29 523.829L560.521 519.467C563.576 518.862 562.919 520.834 562.585 522.994C561.418 530.571 553.411 540.652 559.041 547.164C561.146 547.133 569.643 530.769 575.826 533.336C573.428 537.031 573.595 542.332 572.062 545.63C567.454 555.554 557.279 567.368 551.878 576.509C548.698 581.905 547.572 589.147 545.008 594.449C538.7 607.441 532.143 620.371 524.991 632.925C523.458 640.585 537.814 655.634 539.378 663.951C547.656 658.378 547.583 648.11 551.419 640.262C556.684 629.492 578.651 600.428 577.014 590.619C576.503 587.571 573.626 584.128 573.021 579.901C572.208 574.161 573.313 567.639 572.896 561.795C579.975 559.729 573.855 579.609 582.07 573.504C587.627 569.371 586.387 552.695 593.278 548.656L590.38 569.079C595.102 569.966 592.976 564.299 595.467 561.659C597.354 559.666 601.191 564.049 600.607 558.883C607.613 560.824 598.814 574.412 600.586 576.374L613.691 567.628C615.776 569.945 603.745 580.84 602.077 582.99C585.229 604.55 582.342 620.695 571.218 644.05C563.836 659.547 542.943 683.268 556.809 699.757C557.727 700.852 572.656 714.565 573.615 715.181C576.065 716.725 578.036 715.337 579.725 716.193C589.149 720.952 598.105 735.134 605.705 738.39C609.677 740.091 606.664 730.615 606.279 729.3C605.142 725.356 602.348 720.586 600.159 716.141C593.361 702.324 598.741 705.747 602.056 695.363C603.349 691.324 597.042 696.459 599.137 692.451C601.118 688.663 606.477 683.748 608.385 680.033C609.208 678.436 607.665 675.128 609.667 673.072C611.669 671.016 626.577 661.248 628.881 664.076L630.424 661.301C639.421 660.33 637.722 663.565 641.413 665.934C643.904 667.531 652.276 669.733 653.944 671.11C657.124 673.73 662.816 692.608 665.85 697.137C667.664 699.84 669.697 700.654 672.001 702.626C672.043 703.806 657.916 706.947 669.113 714.294C666.194 716.757 666.132 721.714 661.836 719.418L663.275 723.78L658.917 722.329L661.784 729.561C657.885 729.405 657.374 733.652 657.457 736.908L675.932 722.569L685.158 717.925C677.996 708.888 669.947 698.264 664.964 687.808C650.869 658.253 647.522 618.201 615.192 601.889C612.701 597.151 624.992 601.566 625.378 601.18L616.642 582.218L626.859 588.761L615.182 570.54C625.952 570.123 627.14 582.802 634.115 588.051C632.249 581.258 627.453 575.153 625.107 568.578C624.502 566.888 624.054 564.633 626.108 564.727C629.694 564.884 643.039 592.445 647.595 594.376C662.264 600.595 661.732 583.22 673.502 585.129C673.992 581.299 669.739 581.383 667.018 577.751C662.305 571.469 654.142 556.358 651.671 549.345C650.702 546.59 653.788 546.579 655.226 547.226C656.384 547.748 664.86 558.466 666.934 560.292C674.024 553.05 662.378 541.257 668.404 534.056L672.064 547.174V536.978C676.265 532.397 680.706 559.155 682.322 560.313C691.924 559.687 685.794 550.555 693.905 548.646C695.25 558.028 689.255 569.538 691.038 578.534C691.653 581.633 694.322 582.927 695.677 585.547C696.647 587.425 697.846 593.228 698.524 593.655C699.608 594.355 703.903 593.781 706.687 594.97C710.242 596.473 710.774 599.75 712.9 601.889C714.214 603.215 715.006 605.187 716.549 602.672C718.092 600.157 719.677 586.997 720.157 582.927C720.761 577.814 717.529 567.827 724.535 567.628C729.79 575.33 719.166 590.285 728.893 592.424L731.103 588.083C733.512 591.516 735.618 590.619 739.121 589.523L739.141 596.818L745.741 596.776C749.202 602.223 733.157 632.852 733.647 641.17L753.758 666.205C756.74 667.541 766.373 664.598 767.687 661.019L771.867 662.584L772.691 659.589L777.028 662.501C777.111 657.815 779.749 648.527 777.101 644.509C776.235 643.194 773.587 644.332 774.13 642.088L778.519 641.295L777.195 638.363L779.54 637.434L778.487 634.793L787.245 634.762L779.957 630.379C781.146 624.128 792.541 630.922 793.062 630.4L794.553 623.105L800.35 627.468L804.728 620.173L803.3 628.929L807.658 627.478L806.219 631.84C811.109 626.956 814.893 630.212 820.805 630.39C817.969 634.887 822.202 638.112 826.612 639.156L823.713 641.316L828.082 647.88C818.25 643.591 824.798 657.137 824.933 661.708C824.975 662.928 823.765 672.3 823.463 673.187C822.546 675.858 818.323 676.161 817.135 678.53C814.716 683.351 816.311 693.62 813.496 698.963C821.514 697.711 818.313 687.86 824.193 681.953C829.552 676.579 849.36 669.962 847.744 660.883C841.916 649.602 840.238 637.59 834.483 626.163C821.315 600.032 809.076 567.336 791.592 545.035C789.601 542.499 778.925 534.349 781.427 531.134L793.073 539.88L791.634 523.829C793.511 524.977 797.034 523.652 798.004 523.892C800.683 524.549 799.912 533.952 804.749 532.575L801.851 513.613C809.545 519.603 805.271 532.721 814.226 538.398C819.793 535.684 813.642 525.04 820.784 525.29C820.356 529.819 822.191 536.071 821.67 540.36C820.627 548.99 815.394 551.62 818.198 560.678C819.335 564.352 834.014 590.65 836.078 592.455C838.392 594.48 841.822 593.488 844.94 595.263C847.348 596.64 851.289 604.029 852.144 604.081C858.941 595.263 856.366 584.023 857.242 574.172C857.502 571.271 859.452 563.444 861.996 569.434C864.936 576.342 861.871 583.929 862.288 591.005L865.968 592.434L868.209 588.041L876.195 589.502L878.385 596.797L881.304 593.927C886.173 597.673 881.471 603.434 882.044 608.495C886.225 605.865 893.961 608.902 897.724 606.679C900.174 605.239 905.272 590.984 907.138 587.603C908.191 585.693 914.103 581.853 914.103 578.576V548.656C920.441 548.437 917.46 556.953 920.66 560.323C926.613 552.684 926.613 541.852 932.379 534.098C935.433 529.986 934.057 536.164 935.246 535.507L939.635 531.145C943.273 536.467 931.138 554.907 935.975 558.153C938.884 560.104 938.686 557.725 940.062 556.389C941.167 555.325 952.562 543.146 953.469 544.284C951.447 548.051 952.01 554.041 950.957 556.942C949.706 560.365 945.254 563.966 943.503 567.138C939.875 573.702 936.789 580.778 933.056 587.331C935.485 589.857 941.616 582.218 942.554 582.26L946.182 586.611L949.112 568.359C953.761 564.863 950.206 585.275 950.498 587.425C951.082 591.735 953.751 593.29 953.626 599.03C953.49 605.166 949.664 607.838 949.132 612.304C948.778 615.278 948.893 626.33 949.028 629.711C949.143 632.518 948.382 636.62 952.01 637.695C956.055 630.557 957.15 622.563 961.059 615.362C971.433 596.264 986.894 588.615 991.637 565.834C992.701 560.751 996.944 560.616 999.363 557.381C1003.94 551.265 1007.2 543.177 1012.68 537.135C1014.15 535.517 1014.82 533.472 1017.63 534.088L1010.34 550.128C1017.77 552.705 1022.16 548.249 1029.3 548.687L1027.81 551.589L1032.2 554.49C1020.66 556.306 1016.95 566.752 1010.4 574.276C1007.67 577.417 1003.72 578.711 1000.95 582.322C994.796 590.316 988.937 609.445 982.89 619.714C977.688 628.553 952.604 659.547 953.73 667.28C954.272 670.985 965.063 685.992 968.107 689.477C972.83 694.893 979.471 698.671 983.453 703.305C985.361 705.528 985.903 709.462 987.613 710.808C991.324 713.741 999.164 711.873 1003.64 713.292C1009.27 711.883 1004.39 698.692 1004.69 694.059C1004.97 689.863 1007.91 674.711 1009.74 671.392C1017.03 658.159 1036.79 659.203 1043.23 672.655C1043.27 679.271 1045.26 697.179 1041.68 701.938C1040.31 703.753 1037.57 704.327 1036.99 705.235C1035.35 707.771 1035.59 716.13 1032.22 719.428L1045.76 710.37L1057.01 707.761V751.55C1046.19 767.287 1032.84 783.734 1035.13 804.094H965.146C964.552 793.376 965.97 781.897 965.125 771.273C963.478 750.61 952.333 710.965 940.125 694.132C938.425 691.794 937.362 689.811 933.911 690.145C932.452 695.488 922.996 705.183 921.745 708.836C919.732 714.701 919.847 724.98 918.085 731.45C914.29 745.413 901.592 753.96 908.494 769.593C911.371 776.105 917.793 777.775 922.193 782.158C928.094 788.044 932.452 796.643 935.986 804.104H847.046L848.484 741.343C845.315 743.973 842.99 750.235 841.551 754.096C835.088 771.378 833.753 786.103 838.288 804.104H723.097C723.409 801.276 722.044 799.189 720.949 796.778C715.674 785.132 708.699 768.852 702.735 758.072C701.839 756.444 701.683 754.106 699.045 754.461C694.312 771.565 678.236 786.155 679.351 804.104H586.032L555.6 737.326C561.459 727.766 550.982 722.841 545.925 715.076L543.757 717.977L541.557 710.672C537.053 710.735 543.976 728.632 545.206 731.106L536.469 722.361C531.882 737.847 542.86 745.987 546.53 759.7L545.206 804.094H485.426C487.49 790.851 477.284 784.391 474.166 772.306C472.488 765.794 472.675 742.919 464.304 742.773C454.264 762.538 460.498 783.848 465.013 804.094H377.522C376.417 802.049 376.396 782.648 373.164 785.122L364.396 804.094H263.79L253.562 779.288C247.568 784.402 251.957 796.632 250.664 804.094H-22.0052V748.628V748.544ZM674.941 589.46C673.044 588.145 666.684 595.21 665.621 596.87C664.651 598.383 656.978 614.381 656.613 615.696C653.673 626.226 680.529 668.595 686.43 680.878C690.85 690.072 691.08 703.42 704.122 704.745C707.052 695.791 704.435 687.369 705.811 678.008C706.895 670.682 710.628 664.817 711.191 657.69C698.419 635.148 682.302 614.715 674.952 589.46H674.941ZM930.137 633.249C932.055 617.773 932.952 604.801 929.407 589.439C928.323 589.439 923.162 607.41 922.12 609.894C916.667 622.991 904.668 630.202 930.127 633.249H930.137ZM387.707 659.506C390.574 649.821 390.137 640.867 390.72 631.089C390.96 627.175 395.579 624.671 388.458 618.66L368.921 640.001C368.149 644.53 384.184 656.03 387.707 659.495V659.506ZM397.904 649.278C401.74 643.685 400.103 637.82 395.026 633.239L395.005 648.558L397.904 649.278ZM348.33 669.733C344.869 668.929 345.984 670.338 345.098 671.632C328.803 695.353 315.782 695.186 295.984 711.455C283.202 721.964 274.882 740.206 265.281 753.668C266.917 756.329 269.117 754.315 271.828 755.661C277.145 758.302 284.672 767.12 290.02 771.179C291.48 772.286 291.855 774.028 294.389 773.36C294.91 772.797 291.657 759.47 291.188 758.291C290.396 756.308 287.873 756.047 287.643 755.515C286.611 753.073 285.662 746.081 286.298 743.483C287.966 736.616 291.178 730.741 294.514 724.542C295.567 722.58 294.024 720.816 295.806 718.718C298.976 714.993 304.376 713.177 308.494 711.507C309.433 711.121 308.296 707.615 314.812 710.599L314.093 707.667C318.774 711.257 317.512 706.31 317.731 706.248C319.639 705.736 321.307 710.641 322.59 711.57C325.707 713.834 333.484 714.763 335.35 717.038C335.726 717.497 339.927 726.17 340.657 727.777C342.961 732.89 342.252 739.653 348.309 743.441C340.532 746.206 346.975 752.009 343.952 758.782L339.583 757.321L340.688 759.961L338.155 762.361L341.022 766.034C337.988 765.711 336.518 769.04 336.664 771.889L368.858 750.767C366.137 723.195 359.454 695.175 348.299 669.733H348.33ZM728.893 694.539C725.14 694.121 726.579 694.539 725.953 696.657C723.774 704.077 724.587 710.652 718.697 717.111L739.1 733.934C738.172 729.133 739.475 719.783 733.282 719.313L736.16 717.852L728.883 694.528L728.893 694.539ZM78.6011 760.222C75.2649 760.295 74.4308 762.925 70.6151 763.269C65.1417 763.759 58.9802 759.251 55.3209 760.89C52.6728 762.779 49.9204 766.661 55.2687 766.066L52.2141 768.372C55.4043 774.321 51.0985 772.567 49.4409 777.712L73.9826 770.178L78.5906 760.222H78.6011ZM163.173 768.977C159.639 768.174 160.806 769.656 159.92 770.887C154.207 778.944 154.614 787.939 159.889 796.298C160.838 797.801 159.785 798.845 163.173 798.166V768.977Z" fill="#F7004B"/>
<path d="M769.808 803.943C772.958 795.223 779.338 790.403 779.828 780.353C780.528 766.103 779.028 762.143 785.178 747.673C791.328 733.203 794.688 718.783 796.418 701.853C797.118 694.963 794.808 685.123 797.868 679.213C799.498 676.063 804.228 674.123 805.098 669.883C806.118 664.883 802.788 661.933 802.878 657.643C802.978 652.633 807.798 646.443 807.768 643.553C807.748 641.453 805.608 639.483 805.378 637.143C804.928 632.583 806.208 626.193 805.058 622.263C804.318 619.733 798.748 616.353 796.708 611.593C790.188 596.363 787.218 561.143 777.438 549.713C761.088 530.603 736.358 577.983 722.378 575.753C720.588 575.463 719.348 573.703 718.118 573.423C714.528 572.603 690.118 590.683 684.758 593.993C673.388 601.033 643.558 620.133 631.948 622.323C617.848 624.983 608.008 610.683 599.258 601.093C581.628 581.753 565.358 559.563 551.198 537.573C546.378 530.083 539.968 515.023 535.338 509.373C533.938 507.663 530.588 508.583 527.808 505.173C522.158 498.253 515.028 479.743 510.138 470.863C508.428 467.763 504.408 464.333 503.268 461.253C501.958 457.703 502.878 454.313 501.638 451.473C497.268 441.553 477.428 430.143 471.198 422.323C469.788 420.543 462.138 409.193 461.578 407.743C459.068 401.183 465.478 399.473 466.528 396.043C467.358 393.343 466.268 390.063 467.698 387.063C469.278 383.733 473.448 384.543 474.288 382.173C475.298 379.333 473.018 376.073 473.058 373.403C473.158 366.543 482.308 366.053 483.158 363.133C484.148 359.733 474.708 346.223 487.838 344.943C492.308 344.503 495.448 348.913 497.848 346.223L519.938 297.283C517.718 231.203 481.008 182.023 517.298 117.133C563.778 34.0035 697.948 87.2734 686.008 175.533C674.508 260.543 593.158 266.313 541.348 314.893L518.838 365.883C523.368 373.533 527.738 379.583 530.778 388.113C537.018 405.623 536.708 411.253 546.478 428.153C566.278 462.393 584.338 496.303 613.868 523.113C619.818 528.513 634.498 542.863 642.118 541.263C649.688 539.683 667.438 518.033 673.448 511.643C680.688 503.953 692.708 494.663 697.398 484.883C698.888 481.763 698.778 476.783 699.988 475.083C700.788 473.953 703.308 474.383 705.058 472.273C706.688 470.303 706.998 466.353 708.458 464.243C710.338 461.523 713.228 459.823 715.108 456.953C721.008 447.963 726.538 436.563 732.408 427.333C746.988 418.443 767.168 414.923 781.658 406.853C786.258 404.293 801.318 391.493 805.368 387.453C812.518 380.323 813.888 370.243 808.468 361.483C806.998 359.103 788.958 339.633 787.038 338.533C779.958 334.503 773.818 335.643 764.758 327.843C740.358 306.873 729.208 261.743 748.508 234.213C755.338 224.473 764.078 220.013 772.398 212.463C779.168 206.323 794.588 187.733 803.418 187.663C815.568 190.213 832.698 197.603 844.998 195.033C854.288 193.093 870.698 176.263 880.218 171.883C886.338 168.693 890.748 178.513 891.488 183.363C893.738 198.223 886.868 213.883 876.948 224.553L876.568 227.303C879.238 230.053 878.518 233.903 879.848 236.843C885.848 250.063 921.228 243.473 905.488 265.723L911.768 275.843L906.788 285.343C918.478 286.523 913.588 291.583 915.318 296.423C916.788 300.543 924.008 303.453 924.638 310.073C925.928 323.743 892.448 333.023 901.268 348.863L920.748 345.603L929.688 332.983C952.198 317.193 989.528 304.383 1009.94 287.703C1014.59 283.903 1019.52 276.483 1024.7 272.023C1034.04 263.993 1044.9 257.713 1053.31 248.553C1054.18 246.803 1050.42 239.713 1049.29 237.333C1032.73 202.363 996.988 155.103 966.988 130.713C955.748 121.573 941.948 117.563 930.288 107.813C922.948 101.673 916.598 93.2035 909.348 86.9135C905.988 84.0035 895.298 78.6535 894.328 75.2635C891.538 65.5135 909.418 70.7635 914.288 73.1035C919.598 75.6535 926.258 83.8635 931.258 83.5135C943.128 77.1835 931.378 59.2035 926.348 50.9035C922.608 44.7235 909.268 29.1335 909.248 23.5135C909.228 19.2235 911.778 17.9635 915.668 19.7435C918.208 20.9135 930.108 36.6035 933.408 40.0535C936.488 43.2835 940.578 48.3835 944.848 49.5235C947.388 46.8835 927.018 14.3435 927.028 8.27346C927.038 4.61346 928.968 2.82346 932.618 4.04346C935.928 5.15346 947.468 28.6035 952.448 31.7835C953.878 26.3935 942.998 2.01346 949.328 0.0934592C950.498 -0.166541 951.458 0.143459 952.488 0.683459C957.008 3.06346 961.928 23.5335 964.838 28.8935C965.648 30.4035 964.798 31.0035 967.678 30.5135V8.32346L970.828 6.42346C972.038 7.41346 973.168 8.34346 973.708 9.89346C978.508 23.6535 977.838 44.6035 982.248 59.6735C985.218 69.8235 990.818 87.1335 994.588 96.7835C1001.36 114.143 1037.78 140.183 1052.64 154.113C1075.21 175.263 1106.99 206.803 1124.89 231.483C1126.67 233.943 1129.35 238.853 1129.55 241.783C1130.3 252.613 1112.69 277.863 1106.16 287.543C1091.86 308.733 1075.52 328.643 1058.33 347.523C1055.82 352.973 1062.33 361.713 1059.58 367.753C1057.91 371.413 1036.78 384.173 1031.71 389.343C1001.56 420.123 1018.37 505.443 1023.64 545.743C1030.5 598.183 1037.49 652.713 1052.31 703.373C1052.49 706.803 1045.81 712.833 1043.15 715.233C1040.54 717.573 1028.49 725.003 1028.67 727.023C1032.17 737.213 1047.66 738.263 1047.67 750.053C1047.67 755.073 1044.09 758.643 1045.54 763.413C1046.63 767.003 1053.14 771.483 1055.69 774.893C1062.36 783.803 1068.47 794.353 1074.18 803.953H769.878L769.808 803.943ZM593.478 102.773C593.478 100.333 591.498 98.3635 589.068 98.3635C586.638 98.3635 584.658 100.343 584.658 102.773C584.658 105.203 586.638 107.183 589.068 107.183C591.498 107.183 593.478 105.203 593.478 102.773ZM573.028 109.363C573.028 106.953 571.078 104.993 568.658 104.993C566.238 104.993 564.288 106.943 564.288 109.363C564.288 111.783 566.238 113.733 568.658 113.733C571.078 113.733 573.028 111.783 573.028 109.363ZM607.718 109.303C607.718 106.843 605.718 104.843 603.258 104.843C600.798 104.843 598.798 106.843 598.798 109.303C598.798 111.763 600.798 113.763 603.258 113.763C605.718 113.763 607.718 111.763 607.718 109.303ZM587.308 116.643C587.308 114.183 585.308 112.183 582.848 112.183C580.388 112.183 578.388 114.183 578.388 116.643C578.388 119.103 580.388 121.103 582.848 121.103C585.308 121.103 587.308 119.103 587.308 116.643ZM621.168 113.233C617.108 109.303 609.828 114.463 615.678 119.403C619.498 122.633 624.538 116.493 621.168 113.233ZM552.838 117.163C552.838 114.693 550.838 112.693 548.368 112.693C545.898 112.693 543.898 114.693 543.898 117.163C543.898 119.633 545.898 121.633 548.368 121.633C550.838 121.633 552.838 119.633 552.838 117.163ZM635.918 122.413C635.918 120.043 633.998 118.123 631.628 118.123C629.258 118.123 627.338 120.043 627.338 122.413C627.338 124.783 629.258 126.703 631.628 126.703C633.998 126.703 635.918 124.783 635.918 122.413ZM567.238 123.853C567.238 121.443 565.278 119.483 562.868 119.483C560.458 119.483 558.498 121.443 558.498 123.853C558.498 126.263 560.458 128.223 562.868 128.223C565.278 128.223 567.238 126.263 567.238 123.853ZM601.168 126.873L599.998 119.813L594.128 120.463L594.108 125.703L601.168 126.873ZM650.288 128.893C650.288 126.563 648.398 124.663 646.058 124.663C643.718 124.663 641.828 126.553 641.828 128.893C641.828 131.233 643.718 133.123 646.058 133.123C648.398 133.123 650.288 131.233 650.288 128.893ZM615.618 129.423C615.618 127.133 613.768 125.283 611.478 125.283C609.188 125.283 607.338 127.133 607.338 129.423C607.338 131.713 609.188 133.563 611.478 133.563C613.768 133.563 615.618 131.713 615.618 129.423ZM545.268 134.363C548.098 129.623 541.528 123.543 538.338 128.063C534.598 133.353 543.608 137.153 545.268 134.363ZM581.148 130.673C581.148 128.433 579.328 126.613 577.088 126.613C574.848 126.613 573.028 128.433 573.028 130.673C573.028 132.913 574.848 134.733 577.088 134.733C579.328 134.733 581.148 132.913 581.148 130.673ZM628.908 133.363C628.048 131.983 619.428 130.853 621.698 137.363C624.338 144.953 632.128 138.523 628.908 133.363ZM560.488 137.643C560.488 135.253 558.548 133.313 556.158 133.313C553.768 133.313 551.828 135.253 551.828 137.643C551.828 140.033 553.768 141.973 556.158 141.973C558.548 141.973 560.488 140.033 560.488 137.643ZM595.088 137.013C595.088 134.773 593.268 132.953 591.028 132.953C588.788 132.953 586.968 134.773 586.968 137.013C586.968 139.253 588.788 141.073 591.028 141.073C593.268 141.073 595.088 139.253 595.088 137.013ZM643.618 142.853C643.618 140.433 641.658 138.473 639.238 138.473C636.818 138.473 634.858 140.433 634.858 142.853C634.858 145.273 636.818 147.233 639.238 147.233C641.658 147.233 643.618 145.273 643.618 142.853ZM609.378 143.853C609.378 141.433 607.418 139.473 604.998 139.473C602.578 139.473 600.618 141.433 600.618 143.853C600.618 146.273 602.578 148.233 604.998 148.233C607.418 148.233 609.378 146.273 609.378 143.853ZM538.878 148.253C540.958 144.943 538.348 138.763 532.718 141.453C525.888 144.723 536.248 152.423 538.878 148.253ZM567.118 140.983C563.438 143.283 568.468 151.353 573.358 147.863C577.858 144.653 571.798 138.053 567.118 140.983ZM623.328 150.263C623.328 147.823 621.348 145.853 618.918 145.853C616.488 145.853 614.508 147.833 614.508 150.263C614.508 152.693 616.488 154.673 618.918 154.673C621.348 154.673 623.328 152.693 623.328 150.263ZM658.028 149.663C658.028 147.243 656.068 145.283 653.648 145.283C651.228 145.283 649.268 147.243 649.268 149.663C649.268 152.083 651.228 154.043 653.648 154.043C656.068 154.043 658.028 152.083 658.028 149.663ZM546.968 154.433C548.208 155.683 550.918 156.433 552.408 154.893C559.038 149.543 545.148 142.093 545.758 151.423C545.828 152.423 546.258 153.723 546.958 154.433H546.968ZM580.888 147.163L582.058 154.223L587.928 153.573L587.948 148.333L580.888 147.163ZM637.488 156.753C637.488 154.443 635.618 152.563 633.298 152.563C630.978 152.563 629.108 154.433 629.108 156.753C629.108 159.073 630.978 160.943 633.298 160.943C635.618 160.943 637.488 159.073 637.488 156.753ZM568.118 161.013C572.888 154.243 554.628 148.983 561.488 161.213C562.718 162.383 567.528 161.853 568.118 161.013ZM602.328 160.993C605.118 159.323 601.318 150.323 596.028 154.063C591.508 157.253 597.588 163.833 602.328 160.993ZM532.588 162.253C535.378 160.583 531.578 151.583 526.288 155.323C521.768 158.513 527.848 165.093 532.588 162.253ZM651.678 163.203C651.678 160.873 649.788 158.983 647.458 158.983C645.128 158.983 643.238 160.873 643.238 163.203C643.238 165.533 645.128 167.423 647.458 167.423C649.788 167.423 651.678 165.533 651.678 163.203ZM616.088 167.113C620.538 162.813 611.888 156.993 608.908 161.233C606.848 164.163 611.568 171.483 616.088 167.113ZM540.488 168.543C545.088 171.473 551.778 164.963 545.378 161.683C540.198 159.033 537.688 166.753 540.488 168.543ZM574.548 161.103L575.718 168.163L581.588 167.513L581.608 162.273L574.548 161.103ZM631.148 170.703C631.148 168.393 629.278 166.513 626.958 166.513C624.638 166.513 622.768 168.383 622.768 170.703C622.768 173.023 624.638 174.893 626.958 174.893C629.278 174.893 631.148 173.023 631.148 170.703ZM665.658 173.613C669.338 171.313 664.308 163.243 659.418 166.733C654.918 169.943 660.978 176.543 665.658 173.613ZM561.798 171.843C561.798 169.483 559.878 167.563 557.518 167.563C555.158 167.563 553.238 169.483 553.238 171.843C553.238 174.203 555.158 176.123 557.518 176.123C559.878 176.123 561.798 174.203 561.798 171.843ZM596.358 171.243C596.358 169.003 594.538 167.183 592.298 167.183C590.058 167.183 588.238 169.003 588.238 171.243C588.238 173.483 590.058 175.303 592.298 175.303C594.538 175.303 596.358 173.483 596.358 171.243ZM526.888 172.983C526.888 170.513 524.888 168.513 522.418 168.513C519.948 168.513 517.948 170.513 517.948 172.983C517.948 175.453 519.948 177.453 522.418 177.453C524.888 177.453 526.888 175.453 526.888 172.983ZM645.368 177.033C645.368 174.663 643.448 172.753 641.088 172.753C638.728 172.753 636.808 174.673 636.808 177.033C636.808 179.393 638.728 181.313 641.088 181.313C643.448 181.313 645.368 179.393 645.368 177.033ZM576.058 178.353C576.058 175.913 574.078 173.933 571.638 173.933C569.198 173.933 567.218 175.913 567.218 178.353C567.218 180.793 569.198 182.773 571.638 182.773C574.078 182.773 576.058 180.793 576.058 178.353ZM610.428 177.853C610.428 175.543 608.548 173.663 606.238 173.663C603.928 173.663 602.048 175.543 602.048 177.853C602.048 180.163 603.928 182.043 606.238 182.043C608.548 182.043 610.428 180.163 610.428 177.853ZM541.328 179.103C541.328 176.693 539.378 174.733 536.958 174.733C534.538 174.733 532.588 176.683 532.588 179.103C532.588 181.523 534.538 183.473 536.958 183.473C539.378 183.473 541.328 181.523 541.328 179.103ZM582.268 181.513C579.438 186.253 586.008 192.333 589.198 187.813C592.938 182.523 583.928 178.723 582.268 181.513ZM623.828 187.553C626.758 182.873 620.158 176.813 616.948 181.313C613.458 186.203 621.528 191.233 623.828 187.553ZM659.758 183.923C659.758 181.683 657.938 179.863 655.698 179.863C653.458 179.863 651.638 181.683 651.638 183.923C651.638 186.163 653.458 187.983 655.698 187.983C657.938 187.983 659.758 186.163 659.758 183.923ZM548.088 188.823C549.868 191.623 557.598 189.113 554.948 183.933C551.668 177.533 545.158 184.223 548.088 188.823ZM638.868 190.693C638.868 188.383 636.998 186.503 634.678 186.503C632.358 186.503 630.488 188.373 630.488 190.693C630.488 193.013 632.358 194.883 634.678 194.883C636.998 194.883 638.868 193.013 638.868 190.693ZM569.388 195.253C574.158 188.483 555.898 183.223 562.758 195.453C563.988 196.623 568.798 196.093 569.388 195.253ZM603.968 191.533C603.968 189.293 602.148 187.473 599.908 187.473C597.668 187.473 595.848 189.293 595.848 191.533C595.848 193.773 597.668 195.593 599.908 195.593C602.148 195.593 603.968 193.773 603.968 191.533ZM534.878 193.063C534.878 190.673 532.938 188.733 530.548 188.733C528.158 188.733 526.218 190.673 526.218 193.063C526.218 195.453 528.158 197.393 530.548 197.393C532.938 197.393 534.878 195.453 534.878 193.063ZM576.008 201.483C577.798 204.393 586.588 202.833 582.818 196.583C580.008 191.933 572.588 195.933 576.008 201.483ZM618.018 198.033C618.018 195.743 616.168 193.893 613.878 193.893C611.588 193.893 609.738 195.743 609.738 198.033C609.738 200.323 611.588 202.173 613.878 202.173C616.168 202.173 618.018 200.323 618.018 198.033ZM653.188 197.743C653.188 195.393 651.278 193.483 648.928 193.483C646.578 193.483 644.668 195.393 644.668 197.743C644.668 200.093 646.578 202.003 648.928 202.003C651.278 202.003 653.188 200.093 653.188 197.743ZM549.128 199.293C549.128 197.123 547.368 195.353 545.188 195.353C543.008 195.353 541.248 197.113 541.248 199.293C541.248 201.473 543.008 203.233 545.188 203.233C547.368 203.233 549.128 201.473 549.128 199.293ZM631.318 201.983C628.358 199.123 621.238 201.053 624.618 206.763C627.738 212.023 635.568 206.093 631.318 201.983ZM563.048 205.993C563.048 203.663 561.158 201.763 558.818 201.763C556.478 201.763 554.588 203.653 554.588 205.993C554.588 208.333 556.478 210.223 558.818 210.223C561.158 210.223 563.048 208.333 563.048 205.993ZM589.948 207.823C594.948 210.643 598.998 209.073 596.818 202.853L589.758 201.673L589.948 207.823ZM646.488 211.313C646.488 208.983 644.598 207.083 642.258 207.083C639.918 207.083 638.028 208.973 638.028 211.313C638.028 213.653 639.918 215.543 642.258 215.543C644.598 215.543 646.488 213.653 646.488 211.313ZM576.998 212.333C576.998 210.003 575.108 208.103 572.768 208.103C570.428 208.103 568.538 209.993 568.538 212.333C568.538 214.673 570.428 216.563 572.768 216.563C575.108 216.563 576.998 214.673 576.998 212.333ZM603.828 208.133C601.038 209.803 604.838 218.803 610.128 215.063C614.648 211.873 608.568 205.293 603.828 208.133ZM535.418 209.453C531.738 211.753 536.768 219.823 541.658 216.333C546.158 213.123 540.098 206.523 535.418 209.453ZM591.778 218.703C591.778 216.323 589.848 214.393 587.468 214.393C585.088 214.393 583.158 216.323 583.158 218.703C583.158 221.083 585.088 223.013 587.468 223.013C589.848 223.013 591.778 221.083 591.778 218.703ZM625.518 218.163C625.518 215.923 623.698 214.103 621.458 214.103C619.218 214.103 617.398 215.923 617.398 218.163C617.398 220.403 619.218 222.223 621.458 222.223C623.698 222.223 625.518 220.403 625.518 218.163ZM556.678 223.113C559.508 218.373 552.938 212.293 549.748 216.813C546.008 222.103 555.018 225.903 556.678 223.113ZM570.458 223.543C567.498 220.683 560.378 222.613 563.758 228.323C566.878 233.583 574.708 227.653 570.458 223.543ZM599.458 222.133C594.708 223.643 598.868 231.463 603.708 228.993C608.728 226.433 606.118 220.013 599.458 222.133ZM639.468 225.763C639.468 223.523 637.648 221.703 635.408 221.703C633.168 221.703 631.348 223.523 631.348 225.763C631.348 228.003 633.168 229.823 635.408 229.823C637.648 229.823 639.468 228.003 639.468 225.763ZM585.628 232.863C585.628 230.533 583.738 228.633 581.398 228.633C579.058 228.633 577.168 230.523 577.168 232.863C577.168 235.203 579.058 237.093 581.398 237.093C583.738 237.093 585.628 235.203 585.628 232.863ZM620.078 232.733C620.078 230.343 618.138 228.403 615.748 228.403C613.358 228.403 611.418 230.343 611.418 232.733C611.418 235.123 613.358 237.063 615.748 237.063C618.138 237.063 620.078 235.123 620.078 232.733ZM592.468 236.083C588.788 238.383 593.818 246.453 598.708 242.963C603.208 239.753 597.148 233.153 592.468 236.083ZM579.618 271.423C566.708 269.953 553.758 266.163 542.458 259.753C539.918 258.313 524.738 246.553 523.828 247.333C525.868 257.953 527.788 268.893 528.888 279.663C529.378 284.463 527.558 295.863 530.498 298.983C532.198 300.783 537.688 302.433 540.278 301.223C542.638 300.123 552.658 290.753 556.398 288.123C564.098 282.713 573.258 278.163 579.618 271.413V271.423Z" fill="#FDCFD9"/>
</svg>
