<svg width="195" height="194" viewBox="0 0 195 194" fill="none" xmlns="http://www.w3.org/2000/svg">
<path d="M174.121 0.181152C162.921 -1.67885 150.881 10.9412 142.861 30.8212C139.611 25.2312 135.411 21.6512 130.441 20.8312C117.891 18.7512 104.311 34.8312 96.4906 58.9112C93.2506 53.3412 89.0506 49.7712 84.0906 48.9512C72.8906 47.0912 60.8506 59.7112 52.8306 79.5911C49.5806 74.0011 45.3806 70.4212 40.4106 69.6012C24.7606 67.0112 7.47059 92.6611 1.81059 126.891C-3.85941 161.121 4.2306 190.981 19.8906 193.571C31.0906 195.431 43.1306 182.811 51.1506 162.931C54.4006 168.521 58.6006 172.101 63.5706 172.921C76.1206 175.001 89.7006 158.921 97.5206 134.841C100.761 140.411 104.961 143.981 109.921 144.801C121.121 146.661 133.161 134.041 141.181 114.161C144.431 119.751 148.631 123.331 153.601 124.151C169.251 126.741 186.541 101.091 192.201 66.8612C197.871 32.6312 189.781 2.77115 174.121 0.181152Z" fill="#8BF3C7"/>
</svg>
