<svg width="213" height="214" viewBox="0 0 213 214" fill="none" xmlns="http://www.w3.org/2000/svg">
<g opacity="0.81">
<path opacity="0.56" d="M106.505 132.465C120.842 132.465 132.465 120.842 132.465 106.505C132.465 92.1677 120.842 80.545 106.505 80.545C92.1677 80.545 80.545 92.1677 80.545 106.505C80.545 120.842 92.1677 132.465 106.505 132.465Z" stroke="#00A99D" stroke-width="11.97" stroke-miterlimit="10"/>
<path opacity="0.56" d="M106.505 158.095C134.997 158.095 158.095 134.997 158.095 106.505C158.095 78.0127 134.997 54.915 106.505 54.915C78.0126 54.915 54.915 78.0127 54.915 106.505C54.915 134.997 78.0126 158.095 106.505 158.095Z" stroke="#00A99D" stroke-width="11.97" stroke-miterlimit="10"/>
<path opacity="0.56" d="M106.505 183.085C148.799 183.085 183.085 148.799 183.085 106.505C183.085 64.211 148.799 29.9249 106.505 29.9249C64.211 29.9249 29.925 64.211 29.925 106.505C29.925 148.799 64.211 183.085 106.505 183.085Z" stroke="#00A99D" stroke-width="11.97" stroke-miterlimit="10"/>
<path opacity="0.56" d="M106.505 207.025C162.021 207.025 207.025 162.021 207.025 106.505C207.025 50.9893 162.021 5.98499 106.505 5.98499C50.9893 5.98499 5.985 50.9893 5.985 106.505C5.985 162.021 50.9893 207.025 106.505 207.025Z" stroke="#00A99D" stroke-width="11.97" stroke-miterlimit="10"/>
</g>
</svg>
