<svg width="178" height="105" viewBox="0 0 178 105" fill="none" xmlns="http://www.w3.org/2000/svg">
<g opacity="0.88">
<path d="M73.8253 95.7301C61.3633 98.4815 48.6357 98.4448 36.1959 95.3633C30.4629 93.9448 24.6414 92.1351 19.1298 89.1147C15.0127 86.8648 10.844 83.6365 7.83364 78.4885C6.49079 76.2018 5.43569 73.4994 4.89707 70.528C4.23302 66.9084 4.29205 63.3134 4.93396 59.755C6.35798 51.8434 10.2759 45.3747 14.1347 40.3979C23.0403 28.9034 33.5913 20.9674 44.3858 15.7704C56.2059 10.0843 68.4686 7.73652 80.7462 7.333C93.7763 6.90501 106.821 8.5069 119.777 10.7324C126.256 11.8452 132.719 13.1658 139.168 14.7188C144.893 16.1006 150.634 17.5802 156.219 20.1114C161.509 22.5081 166.888 25.8342 171.359 31.239C172.208 32.2662 173.115 33.5868 173.536 35.2254C173.647 35.6656 173.72 36.1791 173.661 36.7172C173.602 37.2797 173.307 37.9767 173.019 38.4903C171.167 41.7919 168.674 44.3598 166.364 46.6709C161.524 51.5132 156.285 55.0716 150.995 58.2876C145.041 61.9071 139.035 65.2943 133.014 68.5959C120.619 75.407 108.112 81.6678 95.5175 87.3783C94.765 87.7207 94.005 88.0631 93.2524 88.3933C93.0015 88.5033 92.7433 88.6256 92.4851 88.7112C92.3449 88.7601 92.1973 88.809 92.0497 88.8457C92.1014 88.8457 92.3301 88.7968 92.0719 88.8212C91.8136 88.8457 91.5554 88.8457 91.2898 88.8335C91.2603 88.8335 90.9282 88.7479 91.157 88.8212C91.3857 88.8946 91.0537 88.7601 91.0389 88.7601C90.6626 88.4666 91.1717 89.0291 90.8618 88.6134C90.9725 88.7601 91.0463 88.9191 91.1496 89.0658C91.1938 89.127 91.2898 89.8362 91.1717 89.0414C90.4929 84.5047 86.2578 86.4245 86.9366 90.9734C87.6818 95.9258 90.9946 96.5983 93.5475 95.7791C95.1339 95.2655 96.6981 94.3973 98.2475 93.688C99.797 92.9788 101.494 92.1962 103.117 91.4258C109.721 88.3321 116.295 85.0794 122.839 81.6678C129.384 78.2561 135.899 74.71 142.385 71.0049C148.442 67.5443 154.515 64.1082 160.388 59.865C163.147 57.8719 165.855 55.6463 168.437 53.0784C171.02 50.5105 173.661 47.6369 175.816 44.1397C178.169 40.3245 178.797 34.7851 176.827 30.1751C175.071 26.0787 172.355 23.4008 169.729 21.053C158.669 11.1604 145.72 8.8126 133.457 6.12241C119.814 3.1632 106.061 0.925456 92.308 0.203996C78.5548 -0.517463 65.2517 0.57084 52.0298 5.14416C40.1433 9.25281 28.4929 16.2962 18.1707 26.9714C9.22814 36.2158 -2.65832 51.6722 0.529108 71.7141C3.22219 88.6867 15.0423 95.3878 24.1987 98.9461C37.2215 104.009 50.7164 105.928 64.0712 104.583C67.3324 104.253 70.5862 103.727 73.8253 103.006C74.9984 102.749 76.0167 101.514 76.0167 99.3741C76.0167 97.6133 75.0058 95.4734 73.8253 95.7424V95.7301Z" fill="#19CC85"/>
</g>
</svg>
