<svg width="248" height="72" viewBox="0 0 248 72" fill="none" xmlns="http://www.w3.org/2000/svg">
<g opacity="0.88">
<path d="M102.858 65.5507C85.495 67.4347 67.7621 67.4095 50.4302 65.2995C42.4427 64.3282 34.3319 63.089 26.6528 61.0208C20.9166 59.4802 15.1085 57.2697 10.9143 53.7446C9.04334 52.1788 7.57332 50.3283 6.82289 48.2936C5.89769 45.8152 5.97993 43.3535 6.87429 40.9169C8.85831 35.4995 14.3169 31.0701 19.6933 27.6622C32.1012 19.7915 46.8014 14.3573 61.8409 10.7987C78.3093 6.90519 95.3945 5.29754 112.5 5.02123C130.655 4.72817 148.829 5.82505 166.881 7.34896C175.907 8.11092 184.912 9.01522 193.896 10.0786C201.874 11.0248 209.871 12.0379 217.653 13.7712C225.024 15.4123 232.518 17.6898 238.748 21.3907C239.93 22.0941 241.194 22.9984 241.78 24.1204C241.934 24.4218 242.037 24.7735 241.955 25.1419C241.873 25.5271 241.462 26.0043 241.061 26.356C238.48 28.6167 235.006 30.3751 231.788 31.9576C225.045 35.2734 217.746 37.71 210.375 39.9121C202.079 42.3906 193.711 44.7099 185.323 46.9707C168.053 51.6345 150.628 55.9216 133.081 59.8318C132.032 60.0663 130.973 60.3007 129.925 60.5268C129.575 60.6022 129.215 60.6859 128.856 60.7445C128.66 60.778 128.455 60.8115 128.249 60.8366C128.321 60.8366 128.64 60.8031 128.28 60.8199C127.92 60.8366 127.56 60.8366 127.19 60.8282C127.149 60.8282 126.687 60.7696 127.005 60.8199C127.324 60.8701 126.861 60.778 126.841 60.778C126.316 60.577 127.026 60.9622 126.594 60.6775C126.748 60.778 126.851 60.8869 126.995 60.9873C127.057 61.0292 127.19 61.5148 127.026 60.9706C126.08 57.8641 120.179 59.1787 121.125 62.2935C122.163 65.6847 126.779 66.1452 130.336 65.5842C132.546 65.2325 134.725 64.638 136.884 64.1524C139.043 63.6667 141.407 63.1309 143.669 62.6034C152.869 60.4849 162.029 58.2577 171.147 55.9216C180.265 53.5855 189.342 51.1573 198.379 48.6202C206.818 46.2506 215.279 43.8977 223.462 40.9923C227.306 39.6274 231.079 38.1035 234.677 36.3452C238.275 34.5868 241.955 32.6191 244.957 30.2244C248.236 27.612 249.11 23.8189 246.365 20.6623C243.919 17.8573 240.135 16.0235 236.476 14.4159C221.066 7.64202 203.025 6.03438 185.94 4.19229C166.932 2.16599 147.771 0.633701 128.609 0.139685C109.447 -0.35433 90.9125 0.39088 72.4909 3.52244C55.93 6.33581 39.698 11.1587 25.3164 18.4685C12.8572 24.7986 -3.70373 35.3823 0.737185 49.1058C4.48935 60.7278 20.9577 65.3163 33.7151 67.7528C51.8591 71.2193 70.6611 72.5339 89.2677 71.6128C93.8114 71.3868 98.3448 71.0267 102.858 70.5327C104.492 70.3569 105.911 69.5112 105.911 68.0459C105.911 66.8402 104.502 65.3749 102.858 65.5591V65.5507Z" fill="#F7004B"/>
</g>
</svg>
