<svg width="57" height="47" viewBox="0 0 57 47" fill="none" xmlns="http://www.w3.org/2000/svg">
<path d="M57 41.1207C56.7118 41.5959 56.3697 41.9985 55.7347 42C55.0427 42.0015 54.5027 41.4817 54.4821 40.7598C54.4504 39.6707 54.5011 38.5771 54.4092 37.4942C54.0355 33.064 51.782 29.712 48.0511 27.2655C45.5348 25.615 42.7175 24.8376 39.6976 24.7327C39.5266 24.7265 39.3556 24.7327 39.1861 24.7188C38.5115 24.6617 38.0143 24.1558 38.0016 23.5218C37.9889 22.8662 38.4988 22.3602 39.194 22.2708C40.0175 22.1659 40.8663 22.115 41.647 21.8697C45.0486 20.8023 47.2799 17.4102 46.827 14.0999C46.3107 10.3237 43.4365 7.69674 39.5598 7.45918C39.4458 7.45147 39.3318 7.45456 39.2194 7.4453C38.5068 7.38668 38.0016 6.88073 38 6.22669C38 5.5495 38.5337 5.00498 39.2716 5.00036C40.9518 4.98647 42.5386 5.37828 44.0193 6.15264C50.55 9.57248 51.2658 18.3265 45.378 22.715C45.2323 22.823 45.0913 22.9387 44.895 23.0914C45.4081 23.2796 45.8673 23.4277 46.3091 23.6143C51.7931 25.9297 55.418 29.7845 56.7118 35.5614C56.829 36.0812 56.9018 36.6103 56.9952 37.1348V41.1254L57 41.1207Z" fill="white"/>
<path d="M16.2672 23.0544C12.4638 20.6645 10.2614 17.3481 10.0318 12.9179C9.84436 9.31063 11.108 6.18753 13.679 3.62748C18.7914 -1.46476 27.1746 -1.15075 31.9433 4.28644C36.8152 9.83965 35.8889 18.7573 28.7303 23.0668C28.9896 23.1488 29.188 23.2138 29.3879 23.2756C35.7561 25.2556 40.5546 29.0578 43.3646 35.14C44.4361 37.4587 44.9328 39.9167 44.9844 42.4628C45.0062 43.4992 45.0015 44.5371 44.9922 45.5735C44.9843 46.4475 44.5095 46.9858 43.7613 46.9997C42.9881 47.0137 42.5055 46.4738 42.482 45.5674C42.4414 43.9756 42.5227 42.3716 42.3383 40.7969C41.7745 35.9645 39.3831 32.1051 35.5515 29.1459C30.9171 25.5665 25.6157 24.2331 19.802 24.9308C14.6459 25.5495 10.2723 27.729 6.82504 31.6039C3.98535 34.7966 2.54208 38.5477 2.50147 42.8124C2.49209 43.7575 2.50771 44.7011 2.49678 45.6462C2.48741 46.4738 2.00319 46.9951 1.26281 46.9966C0.530241 46.9982 0.0179097 46.4614 0.0116617 45.6555C-0.00552012 43.1017 -0.0851814 40.5416 0.605216 38.0404C2.16876 32.3773 5.65043 28.19 10.7597 25.3391C12.3232 24.4667 14.0773 23.93 15.744 23.2416C15.8924 23.1797 16.047 23.1302 16.2657 23.0529L16.2672 23.0544ZM32.4822 12.3749C32.4822 6.89908 28.0306 2.489 22.5011 2.48591C16.9889 2.48281 12.5013 6.91764 12.4982 12.3703C12.4951 17.8075 17.0014 22.2733 22.4964 22.2764C28.0009 22.2795 32.4822 17.8369 32.4838 12.3749H32.4822Z" fill="white"/>
</svg>
