<svg width="305" height="89" viewBox="0 0 305 89" fill="none" xmlns="http://www.w3.org/2000/svg">
<g opacity="0.88">
<path d="M126.498 74.5507C105.145 76.4347 83.3365 76.4095 62.021 74.2995C52.1977 73.3282 42.2227 72.089 32.7787 70.0208C25.7241 68.4802 18.581 66.2697 13.4228 62.7446C11.1219 61.1788 9.31396 59.3283 8.39105 57.2936C7.25321 54.8152 7.35435 52.3535 8.45426 49.9169C10.8943 44.4995 17.6075 40.0701 24.2196 36.6622C39.4792 28.7915 57.5582 23.3573 76.0543 19.7987C96.3078 15.9052 117.32 14.2975 138.357 14.0212C160.684 13.7282 183.036 14.8251 205.237 16.349C216.337 17.1109 227.412 18.0152 238.461 19.0786C248.272 20.0248 258.108 21.0379 267.678 22.7712C276.743 24.4123 285.96 26.6898 293.621 30.3907C295.075 31.0941 296.63 31.9984 297.351 33.1204C297.54 33.4218 297.667 33.7735 297.566 34.1419C297.465 34.5271 296.959 35.0043 296.466 35.356C293.292 37.6167 289.019 39.3751 285.062 40.9576C276.769 44.2734 267.792 46.71 258.728 48.9121C248.525 51.3906 238.234 53.7099 227.917 55.9707C206.678 60.6345 185.249 64.9216 163.668 68.8318C162.378 69.0663 161.076 69.3007 159.786 69.5268C159.357 69.6022 158.914 69.6859 158.472 69.7445C158.231 69.778 157.979 69.8115 157.726 69.8366C157.814 69.8366 158.206 69.8031 157.764 69.8199C157.321 69.8366 156.879 69.8366 156.423 69.8282C156.373 69.8282 155.804 69.7696 156.196 69.8199C156.588 69.8701 156.019 69.778 155.994 69.778C155.349 69.577 156.221 69.9622 155.69 69.6775C155.88 69.778 156.006 69.8869 156.183 69.9873C156.259 70.0292 156.423 70.5148 156.221 69.9706C155.058 66.8641 147.801 68.1787 148.964 71.2935C150.241 74.6847 155.918 75.1452 160.292 74.5842C163.01 74.2325 165.691 73.638 168.345 73.1524C171 72.6667 173.908 72.1309 176.69 71.6034C188.005 69.4849 199.269 67.2577 210.483 64.9216C221.697 62.5855 232.861 60.1573 243.974 57.6202C254.353 55.2506 264.758 52.8977 274.822 49.9923C279.55 48.6274 284.19 47.1035 288.615 45.3452C293.04 43.5868 297.566 41.6191 301.257 39.2244C305.29 36.612 306.365 32.8189 302.989 29.6623C299.98 26.8573 295.328 25.0235 290.827 23.4159C271.876 16.642 249.688 15.0344 228.676 13.1923C205.3 11.166 181.734 9.6337 158.168 9.13969C134.602 8.64567 111.808 9.39088 89.1521 12.5224C68.7848 15.3358 48.8221 20.1587 31.1351 27.4685C15.8123 33.7986 -4.55499 44.3823 0.906618 58.1058C5.52117 69.7278 25.7746 74.3163 41.4641 76.7528C63.7784 80.2193 86.9017 81.5339 109.785 80.6128C115.373 80.3868 120.948 80.0267 126.498 79.5327C128.509 79.3569 130.253 78.5112 130.253 77.0459C130.253 75.8402 128.521 74.3749 126.498 74.5591V74.5507Z" fill="#F7004B"/>
</g>
<path d="M53.1447 6.48C54.4012 5.71216 55.902 5.01412 57.6471 4.38589C59.3922 3.68785 60.9278 3.33883 62.2541 3.33883C64.2086 3.33883 65.7094 4.03687 66.7565 5.43295C67.8035 6.82902 68.3271 8.64392 68.3271 10.8776C68.3271 13.3208 67.9082 15.5894 67.0706 17.6835C66.3027 19.7776 65.2557 21.7671 63.9294 23.6518C62.6729 25.5365 61.2071 27.3514 59.5318 29.0965C57.9263 30.8416 56.251 32.5518 54.5059 34.2271C53.738 34.9949 52.9353 35.3788 52.0976 35.3788C51.3996 35.3788 50.7365 35.1694 50.1082 34.7506C49.48 34.262 48.8169 33.7035 48.1188 33.0753C53.1447 30.2831 57.1235 26.8278 60.0553 22.7094C63.0569 18.5212 64.9067 13.3557 65.6047 7.21294C64.6275 7.35255 63.7549 7.45726 62.9871 7.52706C62.289 7.59686 61.6608 7.77137 61.1024 8.05059C57.8216 9.51647 54.8898 11.4012 52.3071 13.7047C49.7243 15.9384 47.2812 18.3816 44.9776 21.0341C42.7439 23.6169 40.58 26.3043 38.4859 29.0965C36.3918 31.8188 34.542 34.7157 32.9365 37.7871C31.331 40.8584 30.0396 44.0694 29.0624 47.42C28.0851 50.7706 27.5965 54.2957 27.5965 57.9953C27.5965 61.1365 27.9804 63.6145 28.7482 65.4294C29.5161 67.2443 31.0518 68.1518 33.3553 68.1518C35.24 68.1518 37.0898 67.7678 38.9047 67C40.7894 66.2322 42.6043 65.2549 44.3494 64.0682C46.1643 62.8816 47.8396 61.5902 49.3753 60.1941C50.9808 58.7282 52.4118 57.3322 53.6682 56.0059C55.2737 54.4004 56.8094 52.7251 58.2753 50.98C59.7412 49.1651 61.3118 47.2804 62.9871 45.3259C62.289 48.0482 61.1722 50.5961 59.6365 52.9694C58.1008 55.3427 56.3208 57.5765 54.2965 59.6706C52.2722 61.6949 50.0733 63.5796 47.7 65.3247C45.3965 67.0698 43.0929 68.6753 40.7894 70.1412C38.9047 71.3278 36.8804 71.9212 34.7165 71.9212C31.7149 71.9212 29.202 70.7694 27.1776 68.4659C25.1533 66.2322 24.0016 63.3353 23.7224 59.7753C23.3733 55.1682 23.8271 50.3867 25.0835 45.4306C26.34 40.4047 28.2596 35.5184 30.8424 30.7718C33.4251 26.0251 36.6012 21.5576 40.3706 17.3694C44.14 13.1812 48.398 9.55137 53.1447 6.48ZM35.6588 27.6306C35.7286 27.3514 35.7635 27.0373 35.7635 26.6882C35.8333 26.2694 36.0078 26.0251 36.2871 25.9553H36.1824L36.2871 25.8506C36.1475 26.1298 36.0078 26.4439 35.8682 26.7929C35.7984 27.142 35.6937 27.4212 35.5541 27.6306V27.5259C35.5541 27.5957 35.589 27.6306 35.6588 27.6306ZM36.0776 26.06L36.2871 25.8506L36.1824 25.9553H36.2871H36.0776V26.06ZM36.0776 25.9553C35.938 26.2345 35.8333 26.5137 35.7635 26.7929C35.7635 27.0722 35.7286 27.3514 35.6588 27.6306C35.7286 27.2816 35.9031 26.758 36.1824 26.06C36.1125 25.9902 36.0776 25.9553 36.0776 25.9553ZM35.6588 27.6306C35.589 27.5608 35.5541 27.5259 35.5541 27.5259V27.6306C35.6239 27.6306 35.6588 27.5957 35.6588 27.5259V27.6306ZM60.8189 69.8271C59.9115 69.8271 59.1087 69.6176 58.4107 69.1988C57.7126 68.8498 57.1542 68.3612 56.7354 67.7329C56.2468 67.1047 55.8977 66.4067 55.6883 65.6388C55.4789 64.871 55.3742 64.138 55.3742 63.44C55.3742 61.0667 55.8628 58.3443 56.8401 55.2729C57.8173 52.1318 59.0738 49.2 60.6095 46.4776C62.1452 43.6855 63.8554 41.3471 65.7401 39.4624C67.6946 37.5776 69.5793 36.6353 71.3942 36.6353C74.5354 36.6353 76.6295 37.4729 77.6766 39.1482C78.7236 40.7537 79.0726 42.778 78.7236 45.2212C78.3746 47.6643 77.502 50.3518 76.106 53.2835C74.7099 56.1455 73.1044 58.798 71.2895 61.2412C69.4746 63.6843 67.5899 65.7086 65.6354 67.3141C63.7507 68.9894 62.1452 69.8271 60.8189 69.8271ZM58.0966 65.6388C60.0511 65.0804 62.0056 63.9635 63.9601 62.2882C65.9844 60.6129 67.7644 58.6933 69.3001 56.5294C70.9056 54.2957 72.1969 51.9922 73.1742 49.6188C74.1515 47.2455 74.6401 45.0467 74.6401 43.0224C74.6401 42.6035 74.6401 42.2196 74.6401 41.8706C74.6401 41.4518 74.5703 41.0678 74.4307 40.7188C73.6628 40.998 72.895 41.2424 72.1271 41.4518C71.3593 41.5914 70.8009 41.9404 70.4519 42.4988C68.986 44.4533 67.5201 46.4078 66.0542 48.3624C64.6581 50.3169 63.3668 52.3761 62.1801 54.54C61.2726 56.1455 60.5397 57.8906 59.9813 59.7753C59.4926 61.5902 58.8644 63.5447 58.0966 65.6388ZM123.116 50.3518C122.837 50.98 122.557 51.6082 122.278 52.2365C121.999 52.8647 121.72 53.4929 121.441 54.1212V54.0165C121.301 54.2259 121.092 54.4702 120.812 54.7494L120.917 54.6447C120.847 54.7145 120.568 55.0635 120.079 55.6918C119.661 56.32 119.172 57.0529 118.613 57.8906C118.125 58.6584 117.636 59.3914 117.148 60.0894C116.729 60.7176 116.484 61.0667 116.415 61.1365L116.519 61.0318C116.38 61.1714 116.24 61.2761 116.101 61.3459C116.031 61.4157 115.926 61.5204 115.786 61.66L115.891 61.5553C115.891 61.7647 115.856 61.9741 115.786 62.1835C115.786 62.3929 115.786 62.6024 115.786 62.8118L115.891 62.9165C115.123 63.8937 114.46 64.8361 113.902 65.7435C113.413 66.5812 112.645 67 111.598 67C108.248 67 106.572 65.7784 106.572 63.3353C106.572 62.4278 106.747 61.3459 107.096 60.0894C107.445 58.7631 107.864 57.402 108.352 56.0059C108.911 54.6098 109.469 53.2137 110.028 51.8176C110.586 50.3518 111.11 48.9557 111.598 47.6294C108.457 50.3518 105.7 53.2835 103.326 56.4247C101.023 59.4961 98.9637 62.8118 97.1488 66.3718C94.217 66.2322 92.7511 64.9757 92.7511 62.6024C92.7511 61.9741 92.9256 61.1365 93.2747 60.0894C94.2519 57.2973 95.2641 54.54 96.3111 51.8176C97.3582 49.0255 98.4053 46.2333 99.4523 43.4412C99.5919 43.0224 99.6966 42.6035 99.7664 42.1847C99.8362 41.7659 99.8711 41.3122 99.8711 40.8235C95.5433 45.2212 91.8088 50.0376 88.6676 55.2729C85.5962 60.5082 82.5598 66.0925 79.5582 72.0259C78.5111 71.0486 77.5688 70.1761 76.7311 69.4082C75.8935 68.6404 75.0558 67.8725 74.2182 67.1047C76.3821 62.4976 78.5111 57.9953 80.6053 53.5976C82.6296 49.1302 84.7237 44.558 86.8876 39.8812C87.8649 40.3 88.7374 40.6839 89.5053 41.0329C90.2731 41.382 91.006 41.731 91.7041 42.08C90.0986 45.0118 88.5629 47.8039 87.097 50.4565C85.6311 53.0392 84.2002 55.6569 82.8041 58.3094C82.8041 58.7282 82.839 59.0773 82.9088 59.3565C82.9786 59.2867 83.0135 59.2518 83.0135 59.2518C83.0833 59.2518 83.1531 59.2169 83.2229 59.1471C83.0833 59.0075 82.9437 58.7282 82.8041 58.3094C85.7358 55.7965 88.4582 52.7949 90.9711 49.3047C93.5539 45.7447 96.0668 42.3941 98.51 39.2529C98.9288 38.6945 99.3825 38.2408 99.8711 37.8918C100.36 37.5427 100.918 37.3682 101.546 37.3682C102.663 37.3682 103.536 37.822 104.164 38.7294C104.792 39.6369 105.106 40.4745 105.106 41.2424C105.106 42.08 104.932 43.0573 104.583 44.1741C104.304 45.2212 103.92 46.338 103.431 47.5247C102.943 48.6416 102.454 49.7584 101.965 50.8753C101.477 51.9922 101.058 53.0043 100.709 53.9118C100.499 54.2608 100.395 54.6098 100.395 54.9588C100.395 55.1682 100.43 55.3427 100.499 55.4824C101.407 54.5749 102.489 53.3882 103.745 51.9224C105.002 50.4565 106.258 49.0604 107.515 47.7341C108.841 46.4078 110.132 45.2561 111.389 44.2788C112.645 43.3016 113.762 42.8129 114.739 42.8129C115.717 42.8129 116.45 43.0922 116.938 43.6506C117.427 44.209 117.671 44.8722 117.671 45.64C117.671 46.1286 117.497 46.7918 117.148 47.6294C115.821 50.282 114.53 52.9694 113.273 55.6918C112.087 58.4141 111.075 61.2063 110.237 64.0682C110.377 64.2078 110.481 64.3125 110.551 64.3824C110.691 64.4522 110.83 64.5569 110.97 64.6965C111.668 63.9984 112.575 62.9863 113.692 61.66C114.809 60.3337 115.926 58.9725 117.043 57.5765C118.23 56.1804 119.381 54.8192 120.498 53.4929C121.615 52.1667 122.523 51.1545 123.221 50.4565L123.116 50.3518ZM121.441 54.6447C121.301 54.8541 120.952 55.3776 120.393 56.2153C119.835 56.9831 119.242 57.8557 118.613 58.8329C117.985 59.7404 117.392 60.6129 116.833 61.4506C116.345 62.2184 116.031 62.7071 115.891 62.9165L115.786 62.8118C115.786 62.6024 115.786 62.3929 115.786 62.1835C115.856 61.9741 115.891 61.7647 115.891 61.5553L115.786 61.66C115.926 61.5204 116.031 61.4157 116.101 61.3459C116.24 61.2761 116.38 61.1714 116.519 61.0318L116.415 61.1365C116.484 61.0667 116.729 60.7176 117.148 60.0894C117.636 59.3914 118.125 58.6584 118.613 57.8906C119.172 57.0529 119.661 56.32 120.079 55.6918C120.568 55.0635 120.847 54.7145 120.917 54.6447L120.812 54.7494H121.441V54.6447ZM123.221 50.4565V50.2471L123.325 50.1424L123.221 50.2471L123.325 50.1424L123.116 50.3518L123.221 50.4565ZM122.383 54.3306C122.243 54.4004 122.069 54.4702 121.859 54.54C121.72 54.54 121.58 54.6098 121.441 54.7494V54.0165C121.51 54.1561 121.65 54.2608 121.859 54.3306C122.069 54.3306 122.243 54.3306 122.383 54.3306C122.313 54.2608 122.278 54.2259 122.278 54.2259L122.383 54.3306C122.313 54.2608 122.278 54.2259 122.278 54.2259C122.278 54.1561 122.278 54.1561 122.278 54.2259C122.348 54.2259 122.383 54.2608 122.383 54.3306ZM115.891 61.5553C115.891 61.7647 115.856 61.9741 115.786 62.1835C115.786 62.3929 115.786 62.6024 115.786 62.8118C115.786 62.6024 115.786 62.3929 115.786 62.1835C115.856 61.9741 115.891 61.7647 115.891 61.5553ZM82.8041 58.3094C82.9437 58.7282 83.0833 59.0075 83.2229 59.1471C83.1531 59.2169 83.0833 59.2518 83.0135 59.2518C83.0135 59.2518 82.9786 59.2867 82.9088 59.3565C82.839 59.0773 82.8041 58.7282 82.8041 58.3094ZM116.519 61.0318C116.38 61.1714 116.24 61.2761 116.101 61.3459C116.031 61.4157 115.926 61.5204 115.786 61.66C115.926 61.5204 116.031 61.4157 116.101 61.3459C116.24 61.2761 116.38 61.1714 116.519 61.0318ZM120.917 54.6447C120.847 54.7145 120.568 55.0635 120.079 55.6918C119.661 56.32 119.172 57.0529 118.613 57.8906C118.125 58.6584 117.636 59.3914 117.148 60.0894C116.729 60.7176 116.484 61.0667 116.415 61.1365C116.484 61.0667 116.729 60.7176 117.148 60.0894C117.636 59.3914 118.125 58.6584 118.613 57.8906C119.172 57.0529 119.661 56.32 120.079 55.6918C120.568 55.0635 120.847 54.7145 120.917 54.6447ZM121.441 54.0165C121.441 54.3655 121.406 54.5749 121.336 54.6447C121.336 54.7145 121.161 54.7494 120.812 54.7494C121.092 54.4702 121.301 54.2259 121.441 54.0165ZM163.183 50.3518C162.904 50.98 162.625 51.6082 162.346 52.2365C162.066 52.8647 161.787 53.4929 161.508 54.1212V54.0165C161.368 54.2259 161.159 54.4702 160.88 54.7494L160.984 54.6447C160.915 54.7145 160.635 55.0635 160.147 55.6918C159.728 56.32 159.239 57.0529 158.681 57.8906C158.192 58.6584 157.704 59.3914 157.215 60.0894C156.796 60.7176 156.552 61.0667 156.482 61.1365L156.587 61.0318C156.447 61.1714 156.308 61.2761 156.168 61.3459C156.098 61.4157 155.993 61.5204 155.854 61.66L155.959 61.5553C155.959 61.7647 155.924 61.9741 155.854 62.1835C155.854 62.3929 155.854 62.6024 155.854 62.8118L155.959 62.9165C155.191 63.8937 154.528 64.8361 153.969 65.7435C153.48 66.5812 152.713 67 151.666 67C148.315 67 146.64 65.7784 146.64 63.3353C146.64 62.4278 146.814 61.3459 147.163 60.0894C147.512 58.7631 147.931 57.402 148.42 56.0059C148.978 54.6098 149.537 53.2137 150.095 51.8176C150.653 50.3518 151.177 48.9557 151.666 47.6294C148.524 50.3518 145.767 53.2835 143.394 56.4247C141.09 59.4961 139.031 62.8118 137.216 66.3718C134.284 66.2322 132.819 64.9757 132.819 62.6024C132.819 61.9741 132.993 61.1365 133.342 60.0894C134.319 57.2973 135.331 54.54 136.379 51.8176C137.426 49.0255 138.473 46.2333 139.52 43.4412C139.659 43.0224 139.764 42.6035 139.834 42.1847C139.904 41.7659 139.939 41.3122 139.939 40.8235C135.611 45.2212 131.876 50.0376 128.735 55.2729C125.664 60.5082 122.627 66.0925 119.626 72.0259C118.579 71.0486 117.636 70.1761 116.799 69.4082C115.961 68.6404 115.123 67.8725 114.286 67.1047C116.45 62.4976 118.579 57.9953 120.673 53.5976C122.697 49.1302 124.791 44.558 126.955 39.8812C127.932 40.3 128.805 40.6839 129.573 41.0329C130.34 41.382 131.073 41.731 131.771 42.08C130.166 45.0118 128.63 47.8039 127.164 50.4565C125.699 53.0392 124.268 55.6569 122.871 58.3094C122.871 58.7282 122.906 59.0773 122.976 59.3565C123.046 59.2867 123.081 59.2518 123.081 59.2518C123.151 59.2518 123.22 59.2169 123.29 59.1471C123.151 59.0075 123.011 58.7282 122.871 58.3094C125.803 55.7965 128.526 52.7949 131.039 49.3047C133.621 45.7447 136.134 42.3941 138.577 39.2529C138.996 38.6945 139.45 38.2408 139.939 37.8918C140.427 37.5427 140.986 37.3682 141.614 37.3682C142.731 37.3682 143.603 37.822 144.231 38.7294C144.86 39.6369 145.174 40.4745 145.174 41.2424C145.174 42.08 144.999 43.0573 144.65 44.1741C144.371 45.2212 143.987 46.338 143.499 47.5247C143.01 48.6416 142.521 49.7584 142.033 50.8753C141.544 51.9922 141.125 53.0043 140.776 53.9118C140.567 54.2608 140.462 54.6098 140.462 54.9588C140.462 55.1682 140.497 55.3427 140.567 55.4824C141.474 54.5749 142.556 53.3882 143.813 51.9224C145.069 50.4565 146.326 49.0604 147.582 47.7341C148.908 46.4078 150.2 45.2561 151.456 44.2788C152.713 43.3016 153.829 42.8129 154.807 42.8129C155.784 42.8129 156.517 43.0922 157.006 43.6506C157.494 44.209 157.739 44.8722 157.739 45.64C157.739 46.1286 157.564 46.7918 157.215 47.6294C155.889 50.282 154.597 52.9694 153.341 55.6918C152.154 58.4141 151.142 61.2063 150.304 64.0682C150.444 64.2078 150.549 64.3125 150.619 64.3824C150.758 64.4522 150.898 64.5569 151.037 64.6965C151.735 63.9984 152.643 62.9863 153.76 61.66C154.877 60.3337 155.993 58.9725 157.11 57.5765C158.297 56.1804 159.449 54.8192 160.566 53.4929C161.682 52.1667 162.59 51.1545 163.288 50.4565L163.183 50.3518ZM161.508 54.6447C161.368 54.8541 161.019 55.3776 160.461 56.2153C159.902 56.9831 159.309 57.8557 158.681 58.8329C158.053 59.7404 157.459 60.6129 156.901 61.4506C156.412 62.2184 156.098 62.7071 155.959 62.9165L155.854 62.8118C155.854 62.6024 155.854 62.3929 155.854 62.1835C155.924 61.9741 155.959 61.7647 155.959 61.5553L155.854 61.66C155.993 61.5204 156.098 61.4157 156.168 61.3459C156.308 61.2761 156.447 61.1714 156.587 61.0318L156.482 61.1365C156.552 61.0667 156.796 60.7176 157.215 60.0894C157.704 59.3914 158.192 58.6584 158.681 57.8906C159.239 57.0529 159.728 56.32 160.147 55.6918C160.635 55.0635 160.915 54.7145 160.984 54.6447L160.88 54.7494H161.508V54.6447ZM163.288 50.4565V50.2471L163.393 50.1424L163.288 50.2471L163.393 50.1424L163.183 50.3518L163.288 50.4565ZM162.45 54.3306C162.311 54.4004 162.136 54.4702 161.927 54.54C161.787 54.54 161.648 54.6098 161.508 54.7494V54.0165C161.578 54.1561 161.717 54.2608 161.927 54.3306C162.136 54.3306 162.311 54.3306 162.45 54.3306C162.38 54.2608 162.346 54.2259 162.346 54.2259L162.45 54.3306C162.38 54.2608 162.346 54.2259 162.346 54.2259C162.346 54.1561 162.346 54.1561 162.346 54.2259C162.415 54.2259 162.45 54.2608 162.45 54.3306ZM155.959 61.5553C155.959 61.7647 155.924 61.9741 155.854 62.1835C155.854 62.3929 155.854 62.6024 155.854 62.8118C155.854 62.6024 155.854 62.3929 155.854 62.1835C155.924 61.9741 155.959 61.7647 155.959 61.5553ZM122.871 58.3094C123.011 58.7282 123.151 59.0075 123.29 59.1471C123.22 59.2169 123.151 59.2518 123.081 59.2518C123.081 59.2518 123.046 59.2867 122.976 59.3565C122.906 59.0773 122.871 58.7282 122.871 58.3094ZM156.587 61.0318C156.447 61.1714 156.308 61.2761 156.168 61.3459C156.098 61.4157 155.993 61.5204 155.854 61.66C155.993 61.5204 156.098 61.4157 156.168 61.3459C156.308 61.2761 156.447 61.1714 156.587 61.0318ZM160.984 54.6447C160.915 54.7145 160.635 55.0635 160.147 55.6918C159.728 56.32 159.239 57.0529 158.681 57.8906C158.192 58.6584 157.704 59.3914 157.215 60.0894C156.796 60.7176 156.552 61.0667 156.482 61.1365C156.552 61.0667 156.796 60.7176 157.215 60.0894C157.704 59.3914 158.192 58.6584 158.681 57.8906C159.239 57.0529 159.728 56.32 160.147 55.6918C160.635 55.0635 160.915 54.7145 160.984 54.6447ZM161.508 54.0165C161.508 54.3655 161.473 54.5749 161.403 54.6447C161.403 54.7145 161.229 54.7494 160.88 54.7494C161.159 54.4702 161.368 54.2259 161.508 54.0165ZM191.628 51.2941C190.93 52.2016 190.127 53.4231 189.22 54.9588C188.313 56.4945 187.335 58.0302 186.288 59.5659C185.311 61.0318 184.264 62.3231 183.147 63.44C182.1 64.4871 181.053 65.0106 180.006 65.0106C178.61 65.0106 177.633 64.4871 177.074 63.44C176.516 62.3231 176.236 61.1714 176.236 59.9847C176.236 59.6357 176.236 59.1122 176.236 58.4141C176.236 57.6463 176.236 56.9133 176.236 56.2153C176.306 55.5173 176.411 54.9239 176.551 54.4353C176.69 53.8769 176.865 53.5976 177.074 53.5976C176.725 53.5976 176.271 53.8769 175.713 54.4353C175.224 54.9937 174.701 55.6569 174.142 56.4247C173.584 57.1925 173.026 57.9604 172.467 58.7282C171.909 59.4263 171.455 59.9847 171.106 60.4035C170.687 60.8922 170.164 61.5553 169.535 62.3929C168.907 63.1608 168.209 63.9635 167.441 64.8012C166.743 65.569 166.045 66.2671 165.347 66.8953C164.719 67.4537 164.195 67.7329 163.776 67.7329C162.031 67.7329 160.635 67.2094 159.588 66.1624C158.471 65.1153 157.913 63.7541 157.913 62.0788C157.913 60.8224 158.227 59.4263 158.855 57.8906C159.414 56.2851 160.112 54.6796 160.949 53.0741C161.787 51.3988 162.66 49.7584 163.567 48.1529C164.475 46.5475 165.242 45.0816 165.871 43.7553C166.499 42.4988 167.162 41.2424 167.86 39.9859C168.558 38.7294 169.326 37.3333 170.164 35.7976C170.931 36.4957 171.595 37.1239 172.153 37.6824C172.781 38.171 173.375 38.6945 173.933 39.2529C172.746 41.2075 171.56 43.162 170.373 45.1165C169.186 47.0012 168.069 48.9557 167.022 50.98C166.045 52.9345 165.173 54.9588 164.405 57.0529C163.637 59.0773 163.044 61.2412 162.625 63.5447C167.022 60.3337 170.896 56.7039 174.247 52.6553C177.598 48.6067 180.913 44.2788 184.194 39.6718C184.822 40.0906 185.451 40.5094 186.079 40.9282C186.777 41.2773 187.51 41.6961 188.278 42.1847C187.44 43.86 186.533 45.5004 185.555 47.1059C184.648 48.7114 183.81 50.3518 183.042 52.0271C182.344 53.7024 181.716 55.4475 181.158 57.2624C180.669 59.0773 180.425 61.0318 180.425 63.1259C181.332 62.4278 182.275 61.5204 183.252 60.4035C184.299 59.2867 185.276 58.1698 186.184 57.0529C187.161 55.8663 188.103 54.7843 189.011 53.8071C189.988 52.76 190.895 51.9573 191.733 51.3988L191.628 51.2941ZM161.787 54.0165H161.682L161.892 53.9118C161.822 53.9118 161.752 53.8769 161.682 53.8071C161.752 53.8769 161.787 53.9467 161.787 54.0165ZM191.733 51.3988C191.593 51.2592 191.524 51.1894 191.524 51.1894C191.593 51.1894 191.628 51.2243 191.628 51.2941V51.0847V51.1894C191.628 51.329 191.663 51.3988 191.733 51.3988ZM161.892 53.9118L161.682 54.0165H161.787L161.892 53.9118ZM176.551 53.5976H177.074H176.551ZM161.787 54.0165C161.787 53.9467 161.752 53.8769 161.682 53.8071C161.752 53.8769 161.822 53.9118 161.892 53.9118L161.787 54.0165ZM210.031 64.0682C210.659 63.6494 211.532 62.8467 212.649 61.66C213.835 60.4733 215.022 59.2169 216.209 57.8906C217.465 56.4945 218.652 55.2031 219.769 54.0165C220.885 52.8298 221.758 52.0271 222.386 51.6082L223.014 51.9224C222.456 52.6204 221.618 53.7722 220.502 55.3776C219.454 56.9831 218.303 58.6235 217.046 60.2988C215.79 61.9741 214.568 63.44 213.382 64.6965C212.195 65.9529 211.218 66.5812 210.45 66.5812C209.822 66.5812 209.158 66.4067 208.46 66.0576C207.832 65.7086 207.239 65.2898 206.68 64.8012C206.192 64.2427 205.773 63.6145 205.424 62.9165C205.145 62.2184 205.005 61.5553 205.005 60.9271C205.005 60.0894 205.18 59.1471 205.529 58.1C205.878 57.0529 206.262 56.0059 206.68 54.9588C207.169 53.842 207.658 52.76 208.146 51.7129C208.705 50.5961 209.193 49.6188 209.612 48.7812C210.38 47.1059 211.148 45.4655 211.916 43.86C212.753 42.1847 213.486 40.4745 214.114 38.7294C209.158 43.2667 204.586 48.0831 200.398 53.1788C196.21 58.2047 192.301 63.4749 188.671 68.9894C186.158 68.082 184.902 66.6859 184.902 64.8012C184.902 64.522 184.936 64.2776 185.006 64.0682C185.076 63.789 185.181 63.4749 185.32 63.1259C187.135 58.9376 188.985 54.7494 190.87 50.5612C192.824 46.3031 194.814 41.9055 196.838 37.3682C197.815 37.8569 198.688 38.3106 199.456 38.7294C200.223 39.0784 201.026 39.4275 201.864 39.7765C200.119 42.9875 198.443 46.0937 196.838 49.0953C195.302 52.0969 193.732 55.0635 192.126 57.9953C192.266 58.0651 192.336 58.1349 192.336 58.2047C192.405 58.2047 192.51 58.2396 192.65 58.3094C195.372 55.238 198.06 52.2016 200.712 49.2C203.434 46.1984 206.157 43.1969 208.879 40.1953C209.856 39.0784 211.008 38.0314 212.334 37.0541C213.731 36.0071 215.092 35.4835 216.418 35.4835C217.186 35.4835 217.849 35.5882 218.407 35.7976C218.966 36.0071 219.245 36.7749 219.245 38.1012C219.245 38.7992 219.14 39.3576 218.931 39.7765C217.325 43.7553 215.615 47.6643 213.8 51.5035C212.055 55.2729 210.485 59.2518 209.089 63.44C209.368 63.789 209.682 63.9984 210.031 64.0682ZM221.011 65.5341C221.57 64.9059 222.442 63.9984 223.629 62.8118C224.815 61.6251 226.037 60.4035 227.293 59.1471C228.55 57.8208 229.772 56.5643 230.958 55.3776C232.145 54.191 233.017 53.2835 233.576 52.6553C233.855 52.7949 234.03 52.9345 234.099 53.0741C233.611 53.7722 232.808 54.7494 231.691 56.0059C230.644 57.2624 229.492 58.5886 228.236 59.9847C227.049 61.3808 225.897 62.7071 224.781 63.9635C223.733 65.22 222.966 66.1973 222.477 66.8953C222.128 66.9651 221.814 67 221.535 67C221.255 67.0698 220.976 67.1047 220.697 67.1047C218.463 67.1047 217.346 66.0576 217.346 63.9635C217.346 61.7996 217.661 59.6706 218.289 57.5765C218.847 55.4125 219.545 53.3184 220.383 51.2941C221.29 49.2 222.268 47.1757 223.315 45.2212C224.432 43.1969 225.513 41.2773 226.561 39.4624C226.84 38.9737 227.224 38.52 227.712 38.1012C228.271 37.6125 228.724 37.3682 229.073 37.3682C229.632 37.5078 230.155 37.822 230.644 38.3106C231.133 38.7992 231.656 39.2529 232.215 39.6718C230.958 41.7659 229.702 43.8251 228.445 45.8494C227.189 47.8737 226.002 49.898 224.885 51.9224C223.838 53.9467 222.896 56.0408 222.058 58.2047C221.221 60.3686 220.592 62.6024 220.173 64.9059C220.592 65.1851 220.872 65.3945 221.011 65.5341ZM231.482 36.2165C231.063 35.5184 230.644 34.9251 230.225 34.4365C229.876 33.9478 229.597 33.4941 229.388 33.0753C229.248 32.6565 229.213 32.2376 229.283 31.8188C229.423 31.4 229.806 30.9114 230.435 30.3529C230.993 29.7945 231.796 29.3757 232.843 29.0965C233.96 28.7475 234.902 28.9569 235.67 29.7247C236.159 30.2831 236.403 30.7369 236.403 31.0859C236.403 31.4349 236.298 31.7839 236.089 32.1329C235.879 32.4122 235.6 32.6914 235.251 32.9706C234.902 33.18 234.588 33.4243 234.309 33.7035C233.471 34.4714 232.529 35.309 231.482 36.2165ZM250.821 23.3376C251.659 23.8263 252.566 24.1055 253.543 24.1753C254.59 24.1753 255.568 24.2451 256.475 24.3847C257.452 24.5243 258.325 24.8384 259.093 25.3271C259.861 25.8157 260.489 26.7231 260.977 28.0494H248.413C247.575 28.9569 246.668 30.2482 245.69 31.9235C244.713 33.5988 243.736 35.5184 242.759 37.6824C241.781 39.7765 240.839 42.0451 239.932 44.4882C239.024 46.8616 238.221 49.2 237.523 51.5035C236.825 53.7373 236.267 55.8663 235.848 57.8906C235.429 59.8451 235.22 61.4855 235.22 62.8118C235.22 63.44 235.255 63.8937 235.325 64.1729C236.581 63.8937 237.803 63.3004 238.989 62.3929C240.176 61.4157 241.397 60.2639 242.654 58.9376C243.98 57.5416 245.341 56.0408 246.737 54.4353C248.134 52.76 249.669 51.0847 251.345 49.4094C251.554 49.549 251.833 49.7933 252.182 50.1424C251.414 50.7706 250.402 52.0271 249.146 53.9118C247.959 55.7267 246.633 57.6114 245.167 59.5659C243.701 61.5204 242.2 63.2655 240.665 64.8012C239.129 66.3369 237.733 67.1047 236.476 67.1047C235.918 67.1047 235.359 66.8953 234.801 66.4765C234.243 66.0576 233.684 65.5341 233.126 64.9059C232.637 64.2776 232.253 63.6145 231.974 62.9165C231.625 62.1486 231.45 61.4855 231.45 60.9271C231.45 58.2047 231.765 55.5173 232.393 52.8647C233.021 50.1424 233.824 47.4898 234.801 44.9071C235.848 42.2545 236.965 39.6369 238.152 37.0541C239.408 34.4016 240.63 31.7141 241.816 28.9918C240.49 29.3408 239.268 29.6898 238.152 30.0388C237.105 30.318 235.918 30.6322 234.592 30.9812C234.382 30.1435 234.173 29.3059 233.963 28.4682C233.754 27.6306 233.51 26.7231 233.23 25.7459C235.325 25.5365 237.314 25.3271 239.199 25.1176C241.153 24.8384 243.038 24.5941 244.853 24.3847C246.039 22.0812 247.191 19.8126 248.308 17.5788C249.495 15.2753 250.751 12.902 252.077 10.4588C253.543 11.4361 255.009 12.4482 256.475 13.4953C255.428 15.3102 254.451 17.0204 253.543 18.6259C252.636 20.1616 251.728 21.7322 250.821 23.3376ZM235.115 48.0482V48.2576V48.0482V48.2576H235.22C235.15 48.1878 235.115 48.118 235.115 48.0482ZM236.895 42.7082L237 42.8129V42.7082H236.895ZM235.115 48.0482C235.185 48.1878 235.22 48.2576 235.22 48.2576C235.22 48.3275 235.185 48.3624 235.115 48.3624C235.115 48.2925 235.115 48.1878 235.115 48.0482V48.2576V48.0482ZM236.895 42.7082L237 42.8129L236.895 42.7082ZM250.386 51.5035C251.503 49.2 252.585 46.8616 253.632 44.4882C254.749 42.1149 255.935 39.602 257.192 36.9494C257.96 37.438 258.658 37.8918 259.286 38.3106C259.914 38.7294 260.612 39.218 261.38 39.7765C260.403 41.8706 259.356 43.8949 258.239 45.8494C257.122 47.8039 256.04 49.7584 254.993 51.7129C254.016 53.5976 253.108 55.5522 252.271 57.5765C251.503 59.531 250.91 61.5902 250.491 63.7541C250.63 63.8937 250.91 64.1031 251.328 64.3824C253.353 62.4976 255.237 60.4733 256.983 58.3094C258.797 56.0757 260.508 53.8071 262.113 51.5035C263.719 49.2 265.289 46.8965 266.825 44.5929C268.43 42.2196 270.071 39.8812 271.746 37.5776C272.444 38.1361 273.072 38.6945 273.631 39.2529C274.259 39.8114 274.922 40.3698 275.62 40.9282C272.479 47.2804 269.408 53.5627 266.406 59.7753C263.404 65.918 260.333 72.1655 257.192 78.5176C256.354 80.1929 255.168 81.7286 253.632 83.1247C252.166 84.5208 250.63 85.2188 249.025 85.2188C247.629 85.2188 246.477 84.6604 245.57 83.5435C244.592 82.4267 244.104 80.9259 244.104 79.0412C245.639 81.2051 247.175 82.2871 248.711 82.2871C249.758 82.2871 250.944 81.2749 252.271 79.2506C253.667 77.2961 255.028 74.9227 256.354 72.1306C257.75 69.3384 259.077 66.4416 260.333 63.44C261.659 60.3686 262.811 57.7859 263.788 55.6918C264.277 54.7145 264.87 53.5627 265.568 52.2365C266.266 50.8404 266.615 49.6537 266.615 48.6765V47.5247H266.825L266.72 47.42C264.905 50.282 263.09 53.109 261.275 55.9012C259.461 58.6933 257.646 61.4855 255.831 64.2776C255.272 65.0455 254.644 65.7086 253.946 66.2671C253.318 66.7557 252.55 67 251.643 67C250.037 67 248.85 66.4765 248.083 65.4294C247.245 64.3824 246.826 63.3353 246.826 62.2882C246.826 61.1016 247.07 59.9847 247.559 58.9376C247.978 57.8208 248.362 56.7039 248.711 55.5871C248.99 55.8663 249.199 56.1106 249.339 56.32C249.269 56.1106 249.234 55.9361 249.234 55.7965C249.164 55.6569 249.13 55.5173 249.13 55.3776C249.479 55.238 249.758 55.0984 249.967 54.9588C250.246 54.8192 250.386 54.4702 250.386 53.9118C250.386 54.6098 250.177 54.9937 249.758 55.0635C249.409 55.1333 249.06 55.3427 248.711 55.6918C248.99 54.9937 249.269 54.2957 249.548 53.5976C249.828 52.8996 250.142 52.1667 250.491 51.3988C250.63 51.5384 250.7 51.6431 250.7 51.7129C250.77 51.7827 250.875 51.8525 251.014 51.9224C251.014 51.7827 251.049 51.6431 251.119 51.5035C251.189 51.2941 251.259 51.1894 251.328 51.1894V51.2941C251.259 51.2941 251.224 51.2592 251.224 51.1894C251.084 51.2592 250.944 51.329 250.805 51.3988C250.665 51.3988 250.526 51.4337 250.386 51.5035ZM249.13 55.3776C249.13 55.5173 249.164 55.6569 249.234 55.7965C249.234 55.9361 249.269 56.1106 249.339 56.32C249.199 56.1106 248.99 55.8663 248.711 55.5871V55.6918C248.781 55.622 248.85 55.5871 248.92 55.5871C248.99 55.5173 249.06 55.4475 249.13 55.3776ZM250.281 54.7494C250.072 54.889 249.897 54.9937 249.758 55.0635C249.548 55.1333 249.339 55.238 249.13 55.3776C249.479 55.238 249.758 55.0984 249.967 54.9588C250.246 54.8192 250.386 54.4702 250.386 53.9118C250.386 54.3306 250.351 54.6098 250.281 54.7494ZM251.224 51.2941C251.084 51.5733 251.014 51.7827 251.014 51.9224C250.875 51.8525 250.77 51.7827 250.7 51.7129C250.7 51.6431 250.63 51.5384 250.491 51.3988C250.421 51.4686 250.386 51.5035 250.386 51.5035C250.526 51.4337 250.665 51.3988 250.805 51.3988C250.944 51.329 251.084 51.2592 251.224 51.1894V51.2941ZM251.224 51.1894C251.293 51.2592 251.328 51.2941 251.328 51.2941V51.1894C251.259 51.2592 251.224 51.2941 251.224 51.2941V51.1894ZM266.72 47.42L266.825 47.5247H266.615L266.72 47.42Z" fill="black"/>
</svg>
