<svg width="37" height="21" viewBox="0 0 37 21" fill="none" xmlns="http://www.w3.org/2000/svg">
<path d="M0.0112812 17.7818C0.135253 17.2586 0.225421 16.7132 0.405744 16.2012C1.13831 14.1531 2.52453 12.706 4.55316 11.8601C4.63205 11.8267 4.71094 11.7933 4.83491 11.7377C3.42614 10.6357 2.78375 9.23319 3.07677 7.49677C3.25709 6.3948 3.84313 5.50433 4.75601 4.8476C6.58178 3.52302 9.17393 3.84582 10.6052 5.57111C12.0253 7.28528 12.0027 10.0346 9.79378 11.7043C10.4813 12.0827 11.18 12.4723 11.9013 12.873C12.9607 11.9714 14.2117 11.3035 15.6092 10.8694C12.1042 8.86587 11.7435 4.31332 14.2793 1.76433C16.7024 -0.662217 20.6695 -0.57317 22.9235 1.95356C25.2452 4.54707 24.8395 8.82135 21.4021 10.8583C22.8109 11.2924 24.0506 11.9603 25.1212 12.8619C25.8312 12.4723 26.5187 12.0827 27.2287 11.6931C25.8651 10.6246 25.2114 9.21093 25.5269 7.45224C25.7185 6.38367 26.2821 5.51546 27.1611 4.85873C28.9193 3.54528 31.4213 3.81242 32.9202 5.42641C34.2726 6.88456 34.6783 9.80087 32.1989 11.7265C32.3229 11.7822 32.4468 11.8378 32.5595 11.8824C35.0503 13.0066 36.5154 14.8988 36.9324 17.5591C36.9324 17.6259 36.9775 17.6927 37 17.7595V18.6834C36.8197 18.8058 36.6506 18.9839 36.4477 19.0173C36.0871 19.0841 35.873 18.7835 35.8392 18.316C35.6814 15.8227 34.4867 13.9861 32.1651 12.9621C30.1477 12.0716 28.1754 12.2942 26.3159 13.463C26.2144 13.5297 26.1243 13.6077 26.1017 13.6188C26.654 14.5093 27.24 15.3441 27.7134 16.2346C28.367 17.4924 28.6375 18.8726 28.66 20.2862C28.66 20.7092 28.4572 20.9763 28.1078 20.9986C27.7697 21.0209 27.5218 20.776 27.4992 20.353C27.3978 18.0266 26.5751 15.9897 24.8846 14.3534C22.2924 11.8601 19.1818 11.0587 15.7444 12.1495C12.2845 13.2515 10.2333 15.7003 9.59093 19.2399C9.52331 19.6072 9.51203 19.9968 9.47822 20.3753C9.44441 20.7649 9.20774 21.0097 8.8809 20.9875C8.5428 20.9652 8.3174 20.6981 8.32868 20.2862C8.36249 18.5609 8.79073 16.9358 9.68108 15.4443C10.053 14.8321 10.5038 14.2533 10.9321 13.641C10.0755 12.9955 9.08376 12.5947 7.99055 12.4723C4.73347 12.1272 1.89338 14.1753 1.26225 17.3365C1.2059 17.6259 1.1721 17.9265 1.16083 18.2159C1.14956 18.5387 1.11576 18.8392 0.755117 18.9728C0.405741 19.0952 0.191593 18.8837 0 18.65C0 18.3383 0 18.0378 0 17.7261L0.0112812 17.7818ZM23.2278 5.81599C23.2278 3.23361 21.1203 1.141 18.5169 1.141C15.9135 1.141 13.806 3.22248 13.7947 5.80486C13.7834 8.35385 15.9022 10.4576 18.4944 10.4576C21.1203 10.4576 23.2278 8.39837 23.2391 5.81599H23.2278ZM7.26928 11.3258C8.97107 11.3481 10.3911 9.97897 10.4137 8.30933C10.4362 6.58403 9.06122 5.18153 7.32561 5.1704C5.60128 5.14814 4.19251 6.49498 4.1587 8.19802C4.12489 9.90105 5.5224 11.3035 7.26928 11.3258ZM29.7307 11.3147C31.4438 11.3147 32.8526 9.92331 32.8526 8.23141C32.8526 6.52837 31.4551 5.1704 29.7307 5.15927C28.0064 5.15927 26.5976 6.52837 26.5976 8.22028C26.5976 9.93444 27.9951 11.3147 29.742 11.3147H29.7307Z" fill="white"/>
</svg>
