<svg width="327" height="124" viewBox="0 0 327 124" fill="none" xmlns="http://www.w3.org/2000/svg">
<path d="M7.01932 123.73C27.0637 116.95 47.796 111.675 68.9365 108.016C74.172 107.109 79.4309 106.301 84.7014 105.583C85.9724 105.414 87.2434 105.244 88.5144 105.085C89.6455 104.945 91.5461 104.716 92.1875 104.636C91.6861 104.696 92.6539 104.586 92.6306 104.586C93.027 104.546 93.4118 104.496 93.8083 104.457C94.3913 104.397 94.986 104.327 95.569 104.267C96.9449 104.118 98.3209 103.988 99.6968 103.858C105.107 103.34 110.518 102.931 115.952 102.622C117.094 102.552 118.249 102.482 119.403 102.452C120.149 102.432 121.584 102.233 122.26 102.542C122.283 102.542 121.187 102.303 121.805 102.492C121.98 102.552 122.213 102.552 122.4 102.592C122.843 102.682 123.274 102.831 123.717 102.921C124.359 103.041 123.204 102.811 123.274 102.761C123.344 102.702 123.881 103.13 123.916 103.071C123.904 103.101 123.076 102.432 123.507 102.791C124.021 103.22 123.612 102.941 123.671 102.871C123.636 102.921 123.368 102.373 123.647 102.891C123.076 101.804 123.484 102.472 123.543 102.781C123.647 103.31 123.461 102.123 123.473 102.193C123.484 102.353 123.507 102.552 123.473 102.722C123.752 101.186 123.519 102.403 123.391 102.771C123.344 102.901 123.274 103.031 123.228 103.16C123.064 103.679 123.811 102.223 123.309 102.931C122.4 104.227 121.42 105.454 120.394 106.69C117.666 109.99 115.952 114.098 118.715 117.847C120.103 119.742 122.458 120.43 124.942 120.011C150.723 115.744 176.504 111.466 202.286 107.199C227.962 102.941 253.638 98.6934 279.315 94.4359C293.855 92.0229 308.396 89.6199 322.937 87.207C325.77 86.7384 327.659 83.6973 326.785 81.404C325.805 78.8215 323.042 77.6051 319.998 78.1136C294.217 82.3811 268.436 86.6586 242.654 90.9261C216.873 95.1936 191.302 99.4312 165.625 103.689C151.085 106.102 136.544 108.505 122.003 110.918L128.23 113.081C128.125 112.932 128.008 112.782 127.915 112.623C127.88 112.563 128.37 113.65 128.218 113.171C128.067 112.692 128.3 113.919 128.288 113.849C128.288 113.7 128.265 113.53 128.288 113.38C128.288 113.36 127.973 114.457 128.183 114.048C128.242 113.939 128.242 113.809 128.288 113.69C128.743 112.583 127.88 114.228 128.3 113.63C129.128 112.443 130.014 111.326 130.947 110.21C133.419 107.248 135.366 103.689 134.06 99.9896C132.393 95.2435 126.924 93.4188 121.63 93.0798C119.345 92.9303 117.036 93.1496 114.762 93.2792C111.905 93.4487 109.049 93.6482 106.192 93.8775C83.7453 95.6722 61.4854 99.1421 39.7736 104.357C27.6817 107.258 15.7764 110.708 4.09256 114.657C1.42231 115.564 -0.746559 117.857 0.244582 120.46C1.08414 122.673 4.15085 124.727 7.03099 123.75L7.01932 123.73Z" fill="#19CC85"/>
<path d="M33.3918 50.56C33.4835 51.4776 33.3459 52.2576 32.9788 52.9C32.6118 53.4506 31.8776 53.7259 30.7765 53.7259C30.2259 53.1753 29.7671 52.7165 29.4 52.3494C29.0329 51.8906 28.6659 51.4318 28.2988 50.9729C26.0965 51.8906 23.94 53.4506 21.8294 55.6529C19.8106 57.8553 17.9753 60.3788 16.3235 63.2235C14.6718 65.9765 13.3412 68.8671 12.3318 71.8953C11.3224 74.9235 10.8176 77.6765 10.8176 80.1541C10.8176 82.0812 11.1847 83.7788 11.9188 85.2471C14.4882 84.7882 17.0118 83.8706 19.4894 82.4941C22.0588 81.1176 24.5365 79.5576 26.9224 77.8141C29.3082 76.0706 31.6482 74.3271 33.9424 72.5835C36.3282 70.7482 38.5765 69.1424 40.6871 67.7659C40.32 68.6835 39.9988 69.3259 39.7235 69.6929C38.4388 71.2529 36.9247 72.9047 35.1812 74.6482C33.4376 76.3918 31.6024 78.1353 29.6753 79.8788C27.84 81.5306 25.9129 83.1365 23.8941 84.6965C21.8753 86.1647 19.9482 87.4035 18.1129 88.4129C16.8282 89.0553 15.6353 89.3765 14.5341 89.3765C13.1576 89.3765 11.8729 89.0094 10.68 88.2753C9.57882 87.6329 8.56941 86.7612 7.65176 85.66C6.82588 84.4671 6.18353 83.1365 5.72471 81.6682C5.17412 80.1082 4.89882 78.5024 4.89882 76.8506C4.89882 74.0059 5.63294 70.7482 7.10118 67.0776C8.66118 63.4071 10.5424 59.92 12.7447 56.6165C14.9471 53.3129 17.2871 50.56 19.7647 48.3576C22.3341 46.0635 24.6282 44.9165 26.6471 44.9165C28.7576 44.9165 31.0059 46.7976 33.3918 50.56ZM10.8176 65.5635C10.8176 65.2882 10.8635 65.0588 10.9553 64.8753C10.8635 65.0588 10.8176 65.2882 10.8176 65.5635C10.8176 65.2882 10.8635 65.0588 10.9553 64.8753C10.8635 65.0588 10.8176 65.2882 10.8176 65.5635ZM40.6362 91.7165C39.4433 91.7165 38.388 91.4412 37.4704 90.8906C36.5527 90.4318 35.8186 89.7894 35.268 88.9635C34.6257 88.1376 34.1668 87.22 33.8915 86.2106C33.6162 85.2012 33.4786 84.2376 33.4786 83.32C33.4786 80.2 34.121 76.6212 35.4057 72.5835C36.6904 68.4541 38.3421 64.6 40.361 61.0212C42.3798 57.3506 44.628 54.2765 47.1057 51.7988C49.6751 49.3212 52.1527 48.0824 54.5386 48.0824C58.668 48.0824 61.421 49.1835 62.7974 51.3859C64.1739 53.4965 64.6327 56.1576 64.1739 59.3694C63.7151 62.5812 62.568 66.1141 60.7327 69.9682C58.8974 73.7306 56.7868 77.2176 54.401 80.4294C52.0151 83.6412 49.5374 86.3024 46.968 88.4129C44.4904 90.6153 42.3798 91.7165 40.6362 91.7165ZM37.0574 86.2106C39.6268 85.4765 42.1962 84.0082 44.7657 81.8059C47.4268 79.6035 49.7668 77.08 51.7857 74.2353C53.8962 71.2988 55.5939 68.2706 56.8786 65.1506C58.1633 62.0306 58.8057 59.14 58.8057 56.4788C58.8057 55.9282 58.8057 55.4235 58.8057 54.9647C58.8057 54.4141 58.7139 53.9094 58.5304 53.4506C57.521 53.8176 56.5115 54.1388 55.5021 54.4141C54.4927 54.5976 53.7586 55.0565 53.2998 55.7906C51.3727 58.36 49.4457 60.9294 47.5186 63.4988C45.6833 66.0682 43.9857 68.7753 42.4257 71.62C41.2327 73.7306 40.2692 76.0247 39.5351 78.5024C38.8927 80.8882 38.0668 83.4576 37.0574 86.2106ZM93.6263 84.1459C94.4522 83.5953 95.5993 82.54 97.0675 80.98C98.6275 79.42 100.188 77.7682 101.748 76.0247C103.399 74.1894 104.959 72.4918 106.428 70.9318C107.896 69.3718 109.043 68.3165 109.869 67.7659L110.695 68.1788C109.96 69.0965 108.859 70.6106 107.391 72.7212C106.015 74.8318 104.5 76.9882 102.849 79.1906C101.197 81.3929 99.591 83.32 98.031 84.9718C96.471 86.6235 95.1863 87.4494 94.1769 87.4494C93.351 87.4494 92.4793 87.22 91.5616 86.7612C90.7357 86.3024 89.9557 85.7518 89.2216 85.1094C88.5793 84.3753 88.0287 83.5494 87.5699 82.6318C87.2028 81.7141 87.0193 80.8424 87.0193 80.0165C87.0193 78.9153 87.2487 77.6765 87.7075 76.3C88.1663 74.9235 88.671 73.5471 89.2216 72.1706C89.864 70.7024 90.5063 69.28 91.1487 67.9035C91.8828 66.4353 92.5252 65.1506 93.0757 64.0494C94.0852 61.8471 95.0946 59.6906 96.104 57.58C97.2052 55.3776 98.1687 53.1294 98.9946 50.8353C92.4793 56.8 86.4687 63.1318 80.9628 69.8306C75.4569 76.4376 70.3181 83.3659 65.5463 90.6153C62.2428 89.4224 60.591 87.5871 60.591 85.1094C60.591 84.7424 60.6369 84.4212 60.7287 84.1459C60.8205 83.7788 60.9581 83.3659 61.1416 82.9071C63.5275 77.4012 65.9593 71.8953 68.4369 66.3894C71.0063 60.7918 73.6216 55.0106 76.2828 49.0459C77.5675 49.6882 78.7146 50.2847 79.724 50.8353C80.7334 51.2941 81.7887 51.7529 82.8899 52.2118C80.5957 56.4329 78.3934 60.5165 76.2828 64.4624C74.264 68.4082 72.1993 72.3082 70.0887 76.1624C70.2722 76.2541 70.364 76.3459 70.364 76.4376C70.4557 76.4376 70.5934 76.4835 70.7769 76.5753C74.3557 72.5376 77.8887 68.5459 81.3757 64.6C84.9546 60.6541 88.5334 56.7082 92.1122 52.7624C93.3969 51.2941 94.911 49.9176 96.6546 48.6329C98.4899 47.2565 100.279 46.5682 102.023 46.5682C103.032 46.5682 103.904 46.7059 104.638 46.9812C105.372 47.2565 105.739 48.2659 105.739 50.0094C105.739 50.9271 105.602 51.6612 105.326 52.2118C103.216 57.4424 100.968 62.5812 98.5816 67.6282C96.2875 72.5835 94.2228 77.8141 92.3875 83.32C92.7546 83.7788 93.1675 84.0541 93.6263 84.1459ZM133.388 84.1459C134.214 83.5953 135.361 82.54 136.829 80.98C138.389 79.42 139.949 77.7682 141.509 76.0247C143.161 74.1894 144.721 72.4918 146.189 70.9318C147.657 69.3718 148.805 68.3165 149.63 67.7659L150.456 68.1788C149.722 69.0965 148.621 70.6106 147.153 72.7212C145.776 74.8318 144.262 76.9882 142.61 79.1906C140.959 81.3929 139.353 83.32 137.793 84.9718C136.233 86.6235 134.948 87.4494 133.939 87.4494C133.113 87.4494 132.241 87.22 131.323 86.7612C130.497 86.3024 129.717 85.7518 128.983 85.1094C128.341 84.3753 127.79 83.5494 127.332 82.6318C126.965 81.7141 126.781 80.8424 126.781 80.0165C126.781 78.9153 127.01 77.6765 127.469 76.3C127.928 74.9235 128.433 73.5471 128.983 72.1706C129.626 70.7024 130.268 69.28 130.91 67.9035C131.645 66.4353 132.287 65.1506 132.837 64.0494C133.847 61.8471 134.856 59.6906 135.866 57.58C136.967 55.3776 137.93 53.1294 138.756 50.8353C132.241 56.8 126.23 63.1318 120.725 69.8306C115.219 76.4376 110.08 83.3659 105.308 90.6153C102.005 89.4224 100.353 87.5871 100.353 85.1094C100.353 84.7424 100.399 84.4212 100.49 84.1459C100.582 83.7788 100.72 83.3659 100.903 82.9071C103.289 77.4012 105.721 71.8953 108.199 66.3894C110.768 60.7918 113.383 55.0106 116.045 49.0459C117.329 49.6882 118.476 50.2847 119.486 50.8353C120.495 51.2941 121.55 51.7529 122.652 52.2118C120.357 56.4329 118.155 60.5165 116.045 64.4624C114.026 68.4082 111.961 72.3082 109.85 76.1624C110.034 76.2541 110.126 76.3459 110.126 76.4376C110.217 76.4376 110.355 76.4835 110.539 76.5753C114.117 72.5376 117.65 68.5459 121.137 64.6C124.716 60.6541 128.295 56.7082 131.874 52.7624C133.159 51.2941 134.673 49.9176 136.416 48.6329C138.252 47.2565 140.041 46.5682 141.785 46.5682C142.794 46.5682 143.666 46.7059 144.4 46.9812C145.134 47.2565 145.501 48.2659 145.501 50.0094C145.501 50.9271 145.363 51.6612 145.088 52.2118C142.977 57.4424 140.729 62.5812 138.343 67.6282C136.049 72.5835 133.985 77.8141 132.149 83.32C132.516 83.7788 132.929 84.0541 133.388 84.1459ZM183.886 66.94C180.674 70.6106 177.004 74.1435 172.874 77.5388C168.837 80.8424 164.616 83.5953 160.211 85.7976C159.018 86.44 157.825 86.9906 156.632 87.4494C155.439 87.8165 154.246 88 153.053 88C151.677 88 150.438 87.6788 149.337 87.0365C148.236 86.3941 147.272 85.6141 146.446 84.6965C145.712 83.6871 145.116 82.6318 144.657 81.5306C144.198 80.3376 143.969 79.2365 143.969 78.2271C143.969 76.3 144.427 74.1435 145.345 71.7576C146.171 69.3718 147.272 66.94 148.649 64.4624C150.117 61.8929 151.723 59.4153 153.466 57.0294C155.21 54.6435 156.953 52.5329 158.697 50.6976C160.532 48.7706 162.23 47.2565 163.79 46.1553C165.442 44.9624 166.818 44.3659 167.919 44.3659C168.929 44.3659 169.846 44.6412 170.672 45.1918C171.59 45.7424 172.37 46.4306 173.012 47.2565C173.746 47.9906 174.297 48.8624 174.664 49.8718C175.123 50.7894 175.352 51.6612 175.352 52.4871C175.352 54.4141 174.664 56.5706 173.287 58.9565C172.003 61.2506 170.397 63.4071 168.47 65.4259C166.543 67.4447 164.524 69.1424 162.413 70.5188C160.303 71.8953 158.467 72.5835 156.907 72.5835C154.98 72.5835 153.191 71.7118 151.539 69.9682C151.264 71.1612 150.851 72.4 150.3 73.6847C149.842 74.9694 149.429 76.2082 149.062 77.4012C148.786 78.5941 148.694 79.6953 148.786 80.7047C148.97 81.6224 149.52 82.3565 150.438 82.9071C151.172 83.3659 151.539 83.6871 151.539 83.8706C151.539 83.9624 151.86 84.0082 152.503 84.0082C153.053 84.0082 153.604 83.9165 154.154 83.7329C155.898 82.9071 158.054 81.8059 160.624 80.4294C163.193 79.0529 165.854 77.5847 168.607 76.0247C171.36 74.4647 174.067 72.9047 176.729 71.3447C179.482 69.6929 181.913 68.2247 184.024 66.94H183.886ZM157.458 57.9929H157.045C157.779 57.9929 158.238 57.8553 158.422 57.58C158.697 57.2129 158.88 56.8459 158.972 56.4788C159.156 56.02 159.339 55.5612 159.523 55.1024C159.798 54.6435 160.349 54.3224 161.174 54.1388C161.45 53.1294 161.725 52.2576 162 51.5235C162.367 50.7894 163.056 50.2388 164.065 49.8718C164.065 49.78 163.744 50.0094 163.102 50.56C162.551 51.0188 162.23 51.2941 162.138 51.3859C162.046 51.6612 161.817 52.12 161.45 52.7624C161.174 53.4047 160.807 54.0929 160.349 54.8271C159.89 55.5612 159.385 56.2494 158.834 56.8918C158.376 57.5341 157.917 57.9012 157.458 57.9929ZM153.742 68.5918C154.934 68.5918 156.403 67.9494 158.146 66.6647C159.982 65.38 161.725 63.82 163.377 61.9847C165.12 60.1494 166.589 58.2224 167.782 56.2035C169.066 54.1847 169.754 52.3953 169.846 50.8353C168.562 51.2024 167.139 52.0282 165.579 53.3129C164.019 54.5059 162.459 55.9741 160.899 57.7176C159.431 59.3694 158.009 61.1588 156.632 63.0859C155.347 65.0129 154.384 66.8482 153.742 68.5918ZM184.024 66.94V66.5271L183.886 66.6647V66.94H184.024ZM162 51.3859C161.817 51.8447 161.679 52.3035 161.587 52.7624C161.496 53.2212 161.358 53.68 161.174 54.1388C161.542 53.3129 161.863 52.3953 162.138 51.3859H162ZM158.834 57.4424C159.018 56.9835 159.11 56.5247 159.11 56.0659C159.202 55.5153 159.339 55.0106 159.523 54.5518C159.339 55.0106 159.202 55.5153 159.11 56.0659C159.018 56.5247 158.926 56.9835 158.834 57.4424ZM162.138 51.3859C162.322 51.2024 162.413 51.0647 162.413 50.9729C162.505 50.7894 162.643 50.6059 162.826 50.4224C162.643 50.5141 162.367 50.8353 162 51.3859H162.138ZM163.927 50.0094L162.689 50.4224C162.872 50.3306 163.102 50.2847 163.377 50.2847C163.652 50.2847 163.882 50.2388 164.065 50.1471L163.927 50.0094ZM164.065 50.1471V49.8718L163.927 50.0094L164.065 50.1471ZM157.32 57.8553C157.32 57.9471 157.229 57.9929 157.045 57.9929H157.458L157.32 57.8553ZM157.458 57.9929C157.642 57.9012 157.871 57.8553 158.146 57.8553C158.422 57.7635 158.651 57.6259 158.834 57.4424C158.559 57.5341 158.284 57.6259 158.009 57.7176C157.825 57.7176 157.596 57.7635 157.32 57.8553L157.458 57.9929ZM161.174 54.1388L159.523 54.5518L161.174 54.1388ZM206.15 50.56C206.241 51.4776 206.104 52.2576 205.737 52.9C205.37 53.4506 204.635 53.7259 203.534 53.7259C202.984 53.1753 202.525 52.7165 202.158 52.3494C201.791 51.8906 201.424 51.4318 201.057 50.9729C198.854 51.8906 196.698 53.4506 194.587 55.6529C192.568 57.8553 190.733 60.3788 189.081 63.2235C187.43 65.9765 186.099 68.8671 185.09 71.8953C184.08 74.9235 183.575 77.6765 183.575 80.1541C183.575 82.0812 183.943 83.7788 184.677 85.2471C187.246 84.7882 189.77 83.8706 192.247 82.4941C194.817 81.1176 197.294 79.5576 199.68 77.8141C202.066 76.0706 204.406 74.3271 206.7 72.5835C209.086 70.7482 211.334 69.1424 213.445 67.7659C213.078 68.6835 212.757 69.3259 212.481 69.6929C211.197 71.2529 209.683 72.9047 207.939 74.6482C206.195 76.3918 204.36 78.1353 202.433 79.8788C200.598 81.5306 198.671 83.1365 196.652 84.6965C194.633 86.1647 192.706 87.4035 190.871 88.4129C189.586 89.0553 188.393 89.3765 187.292 89.3765C185.915 89.3765 184.631 89.0094 183.438 88.2753C182.337 87.6329 181.327 86.7612 180.41 85.66C179.584 84.4671 178.941 83.1365 178.483 81.6682C177.932 80.1082 177.657 78.5024 177.657 76.8506C177.657 74.0059 178.391 70.7482 179.859 67.0776C181.419 63.4071 183.3 59.92 185.503 56.6165C187.705 53.3129 190.045 50.56 192.523 48.3576C195.092 46.0635 197.386 44.9165 199.405 44.9165C201.515 44.9165 203.764 46.7976 206.15 50.56ZM183.575 65.5635C183.575 65.2882 183.621 65.0588 183.713 64.8753C183.621 65.0588 183.575 65.2882 183.575 65.5635C183.575 65.2882 183.621 65.0588 183.713 64.8753C183.621 65.0588 183.575 65.2882 183.575 65.5635ZM233.628 30.6012C234.729 31.2435 235.922 31.6106 237.207 31.7024C238.583 31.7024 239.868 31.7941 241.061 31.9776C242.346 32.1612 243.493 32.5741 244.502 33.2165C245.512 33.8588 246.338 35.0518 246.98 36.7953H230.462C229.361 37.9882 228.168 39.6859 226.883 41.8882C225.599 44.0906 224.314 46.6141 223.029 49.4588C221.745 52.2118 220.506 55.1941 219.313 58.4059C218.12 61.5259 217.065 64.6 216.147 67.6282C215.229 70.5647 214.495 73.3635 213.945 76.0247C213.394 78.5941 213.119 80.7506 213.119 82.4941C213.119 83.32 213.165 83.9165 213.256 84.2835C214.908 83.9165 216.514 83.1365 218.074 81.9435C219.634 80.6588 221.24 79.1447 222.892 77.4012C224.635 75.5659 226.425 73.5929 228.26 71.4824C230.095 69.28 232.114 67.0776 234.316 64.8753C234.592 65.0588 234.959 65.38 235.418 65.8388C234.408 66.6647 233.078 68.3165 231.426 70.7941C229.866 73.18 228.122 75.6576 226.195 78.2271C224.268 80.7965 222.295 83.0906 220.276 85.1094C218.258 87.1282 216.422 88.1376 214.771 88.1376C214.036 88.1376 213.302 87.8624 212.568 87.3118C211.834 86.7612 211.1 86.0729 210.366 85.2471C209.723 84.4212 209.219 83.5494 208.852 82.6318C208.393 81.6224 208.163 80.7506 208.163 80.0165C208.163 76.4376 208.576 72.9047 209.402 69.4176C210.228 65.8388 211.283 62.3518 212.568 58.9565C213.945 55.4694 215.413 52.0282 216.973 48.6329C218.625 45.1459 220.231 41.6129 221.791 38.0341C220.047 38.4929 218.441 38.9518 216.973 39.4106C215.596 39.7776 214.036 40.1906 212.293 40.6494C212.018 39.5482 211.742 38.4471 211.467 37.3459C211.192 36.2447 210.871 35.0518 210.503 33.7671C213.256 33.4918 215.872 33.2165 218.349 32.9412C220.919 32.5741 223.396 32.2529 225.782 31.9776C227.342 28.9494 228.856 25.9671 230.325 23.0306C231.885 20.0024 233.536 16.8824 235.28 13.6706C237.207 14.9553 239.134 16.2859 241.061 17.6624C239.685 20.0482 238.4 22.2965 237.207 24.4071C236.014 26.4259 234.821 28.4906 233.628 30.6012ZM212.981 63.0859V63.3612V63.0859V63.3612H213.119C213.027 63.2694 212.981 63.1776 212.981 63.0859ZM215.321 56.0659L215.459 56.2035V56.0659H215.321ZM212.981 63.0859C213.073 63.2694 213.119 63.3612 213.119 63.3612C213.119 63.4529 213.073 63.4988 212.981 63.4988C212.981 63.4071 212.981 63.2694 212.981 63.0859V63.3612V63.0859ZM215.321 56.0659L215.459 56.2035L215.321 56.0659ZM269.808 66.94C266.596 70.6106 262.926 74.1435 258.796 77.5388C254.759 80.8424 250.538 83.5953 246.133 85.7976C244.94 86.44 243.747 86.9906 242.554 87.4494C241.361 87.8165 240.168 88 238.975 88C237.599 88 236.36 87.6788 235.259 87.0365C234.158 86.3941 233.194 85.6141 232.368 84.6965C231.634 83.6871 231.038 82.6318 230.579 81.5306C230.12 80.3376 229.89 79.2365 229.89 78.2271C229.89 76.3 230.349 74.1435 231.267 71.7576C232.093 69.3718 233.194 66.94 234.57 64.4624C236.039 61.8929 237.645 59.4153 239.388 57.0294C241.132 54.6435 242.875 52.5329 244.619 50.6976C246.454 48.7706 248.152 47.2565 249.712 46.1553C251.363 44.9624 252.74 44.3659 253.841 44.3659C254.85 44.3659 255.768 44.6412 256.594 45.1918C257.512 45.7424 258.292 46.4306 258.934 47.2565C259.668 47.9906 260.219 48.8624 260.586 49.8718C261.045 50.7894 261.274 51.6612 261.274 52.4871C261.274 54.4141 260.586 56.5706 259.209 58.9565C257.925 61.2506 256.319 63.4071 254.392 65.4259C252.465 67.4447 250.446 69.1424 248.335 70.5188C246.225 71.8953 244.389 72.5835 242.829 72.5835C240.902 72.5835 239.113 71.7118 237.461 69.9682C237.186 71.1612 236.773 72.4 236.222 73.6847C235.763 74.9694 235.35 76.2082 234.983 77.4012C234.708 78.5941 234.616 79.6953 234.708 80.7047C234.892 81.6224 235.442 82.3565 236.36 82.9071C237.094 83.3659 237.461 83.6871 237.461 83.8706C237.461 83.9624 237.782 84.0082 238.425 84.0082C238.975 84.0082 239.526 83.9165 240.076 83.7329C241.82 82.9071 243.976 81.8059 246.546 80.4294C249.115 79.0529 251.776 77.5847 254.529 76.0247C257.282 74.4647 259.989 72.9047 262.65 71.3447C265.403 69.6929 267.835 68.2247 269.946 66.94H269.808ZM243.38 57.9929H242.967C243.701 57.9929 244.16 57.8553 244.343 57.58C244.619 57.2129 244.802 56.8459 244.894 56.4788C245.078 56.02 245.261 55.5612 245.445 55.1024C245.72 54.6435 246.27 54.3224 247.096 54.1388C247.372 53.1294 247.647 52.2576 247.922 51.5235C248.289 50.7894 248.978 50.2388 249.987 49.8718C249.987 49.78 249.666 50.0094 249.023 50.56C248.473 51.0188 248.152 51.2941 248.06 51.3859C247.968 51.6612 247.739 52.12 247.372 52.7624C247.096 53.4047 246.729 54.0929 246.27 54.8271C245.812 55.5612 245.307 56.2494 244.756 56.8918C244.298 57.5341 243.839 57.9012 243.38 57.9929ZM239.663 68.5918C240.856 68.5918 242.325 67.9494 244.068 66.6647C245.903 65.38 247.647 63.82 249.299 61.9847C251.042 60.1494 252.51 58.2224 253.703 56.2035C254.988 54.1847 255.676 52.3953 255.768 50.8353C254.483 51.2024 253.061 52.0282 251.501 53.3129C249.941 54.5059 248.381 55.9741 246.821 57.7176C245.353 59.3694 243.93 61.1588 242.554 63.0859C241.269 65.0129 240.306 66.8482 239.663 68.5918ZM269.946 66.94V66.5271L269.808 66.6647V66.94H269.946ZM247.922 51.3859C247.739 51.8447 247.601 52.3035 247.509 52.7624C247.418 53.2212 247.28 53.68 247.096 54.1388C247.463 53.3129 247.785 52.3953 248.06 51.3859H247.922ZM244.756 57.4424C244.94 56.9835 245.032 56.5247 245.032 56.0659C245.123 55.5153 245.261 55.0106 245.445 54.5518C245.261 55.0106 245.123 55.5153 245.032 56.0659C244.94 56.5247 244.848 56.9835 244.756 57.4424ZM248.06 51.3859C248.243 51.2024 248.335 51.0647 248.335 50.9729C248.427 50.7894 248.565 50.6059 248.748 50.4224C248.565 50.5141 248.289 50.8353 247.922 51.3859H248.06ZM249.849 50.0094L248.61 50.4224C248.794 50.3306 249.023 50.2847 249.299 50.2847C249.574 50.2847 249.803 50.2388 249.987 50.1471L249.849 50.0094ZM249.987 50.1471V49.8718L249.849 50.0094L249.987 50.1471ZM243.242 57.8553C243.242 57.9471 243.15 57.9929 242.967 57.9929H243.38L243.242 57.8553ZM243.38 57.9929C243.563 57.9012 243.793 57.8553 244.068 57.8553C244.343 57.7635 244.573 57.6259 244.756 57.4424C244.481 57.5341 244.206 57.6259 243.93 57.7176C243.747 57.7176 243.518 57.7635 243.242 57.8553L243.38 57.9929ZM247.096 54.1388L245.445 54.5518L247.096 54.1388ZM294.687 55.3776C297.899 49.2294 300.927 43.2188 303.771 37.3459C306.708 31.4729 309.736 25.5082 312.856 19.4518C313.866 20.0941 314.829 20.7824 315.747 21.5165C316.664 22.1588 317.72 22.8929 318.913 23.7188C316.894 27.5729 315.013 31.2894 313.269 34.8682C311.526 38.4471 309.69 41.98 307.763 45.4671C304.827 50.6059 302.624 56.02 301.156 61.7094C299.78 67.3071 298.77 73.1341 298.128 79.1906C298.036 79.6494 298.082 80.3376 298.266 81.2553C298.357 81.8976 298.403 82.4024 298.403 82.7694C298.403 83.1365 298.816 83.5494 299.642 84.0082C301.202 82.1729 302.533 80.6588 303.634 79.4659C304.735 78.2729 305.79 77.1259 306.8 76.0247C307.809 74.9235 308.864 73.7765 309.966 72.5835C311.067 71.2988 312.397 69.7388 313.957 67.9035C314.049 68.1788 314.233 68.3624 314.508 68.4541C313.131 71.0235 312.03 73.0424 311.204 74.5106C310.47 75.8871 309.782 77.08 309.14 78.0894C308.589 79.0988 307.993 80.1082 307.35 81.1176C306.708 82.1271 305.79 83.5494 304.597 85.3847C304.047 86.1188 303.45 86.8529 302.808 87.5871C302.257 88.2294 301.523 88.5506 300.606 88.5506C299.413 88.5506 298.311 88.1376 297.302 87.3118C296.293 86.4859 295.421 85.5224 294.687 84.4212C294.044 83.2282 293.494 82.0812 293.035 80.98C292.668 79.7871 292.439 78.8694 292.347 78.2271C291.888 75.3824 292.071 72.4459 292.897 69.4176C293.815 66.2976 294.779 63.5447 295.788 61.1588C295.788 61.0671 295.604 60.8376 295.237 60.4706C293.494 63.04 291.613 65.9765 289.594 69.28C287.575 72.5835 285.51 75.7494 283.4 78.7776C281.381 81.7141 279.316 84.2376 277.206 86.3482C275.187 88.3671 273.306 89.3765 271.562 89.3765C269.635 89.3765 267.891 88.5506 266.331 86.8988C264.771 85.2471 263.808 83.0906 263.441 80.4294C263.074 77.4929 263.349 74.5106 264.267 71.4824C265.093 68.3624 266.194 65.4259 267.57 62.6729C269.039 59.8282 270.599 57.3047 272.25 55.1024C273.994 52.8082 275.508 50.9729 276.793 49.5965C278.995 47.3024 281.243 46.1553 283.537 46.1553C285.648 46.1553 287.529 46.8894 289.181 48.3576C290.833 49.8259 292.668 52.1659 294.687 55.3776ZM269.773 62.8106C269.681 62.9941 269.635 63.0859 269.635 63.0859H269.773C269.681 63.0859 269.635 63.04 269.635 62.9482V62.6729H269.91L269.773 62.8106ZM269.773 83.5953C271.149 83.32 272.801 82.4024 274.728 80.8424C276.747 79.1906 278.811 77.2176 280.922 74.9235C283.033 72.5376 285.051 69.9682 286.979 67.2153C288.997 64.3706 290.695 61.5718 292.071 58.8188C291.521 57.8094 290.924 56.7541 290.282 55.6529C289.64 54.5518 288.951 53.4965 288.217 52.4871C285.74 53.3129 283.308 54.9188 280.922 57.3047C278.628 59.6906 276.563 62.4435 274.728 65.5635C272.984 68.6835 271.608 71.8494 270.599 75.0612C269.681 78.2729 269.406 81.1176 269.773 83.5953ZM269.635 62.6729V62.9482C269.635 63.04 269.681 63.0859 269.773 63.0859H269.635C269.727 62.9941 269.773 62.9024 269.773 62.8106L269.635 62.6729ZM269.773 62.8106L269.91 62.6729H269.635L269.773 62.8106Z" fill="#19CC85"/>
</svg>
