<svg width="284" height="110" viewBox="0 0 284 110" fill="none" xmlns="http://www.w3.org/2000/svg">
<path d="M42.3902 2.98562C43.5855 2.26556 45.0093 1.58062 46.6792 0.948374C48.3315 0.316126 49.808 0 51.056 0C52.9193 0 54.3431 0.667372 55.345 2.00212C56.347 3.33686 56.8391 5.05799 56.8391 7.18304C56.8391 9.51885 56.4524 11.679 55.6966 13.6636C54.9407 15.6657 53.9388 17.5449 52.7084 19.3538C51.4779 21.1452 50.0893 22.8839 48.5248 24.5347C46.9604 26.2032 45.3433 27.8189 43.691 29.4171C42.9527 30.1547 42.1969 30.506 41.4059 30.506C40.7379 30.506 40.1051 30.2952 39.5075 29.8562C38.9098 29.4171 38.277 28.9078 37.609 28.3107C42.3902 25.6587 46.187 22.3394 49.017 18.3879C51.847 14.4363 53.5872 9.53641 54.2552 3.67055C53.3236 3.81105 52.515 3.89886 51.8119 3.96911C51.1088 4.03936 50.4936 4.19743 49.9662 4.46086C46.8374 5.86586 44.0601 7.63967 41.5992 9.79985C39.1383 11.96 36.8181 14.2958 34.6208 16.8248C32.4939 19.2836 30.4373 21.8301 28.4335 24.4469C26.4472 27.0813 24.6718 29.8562 23.1426 32.7715C21.6133 35.7045 20.3828 38.7603 19.4512 41.9391C18.5196 45.1355 18.0626 48.4899 18.0626 52.02C18.0626 55.0056 18.4317 57.3765 19.1524 59.0977C19.8907 60.8188 21.3496 61.6969 23.5293 61.6969C25.3222 61.6969 27.0976 61.3281 28.8553 60.608C30.6131 59.8704 32.3357 58.9572 34.0408 57.8156C35.7282 56.6916 37.3278 55.4447 38.8219 54.0748C40.316 52.7225 41.6695 51.4053 42.8648 50.1408C44.3941 48.6129 45.853 46.9971 47.2417 45.3111C48.6303 43.6251 50.1244 41.8513 51.724 39.9897C51.0561 42.5714 50.0014 44.995 48.5424 47.2606C47.0835 49.5261 45.3784 51.6336 43.4624 53.583C41.5289 55.55 39.4547 57.359 37.2399 59.0098C35.0251 60.6607 32.8103 62.1711 30.6131 63.5409C28.8202 64.6298 26.8866 65.1918 24.83 65.1918C21.9648 65.1918 19.5919 64.103 17.6935 61.9603C15.7951 59.8002 14.7228 57.0253 14.4591 53.6533C14.1252 49.2802 14.547 44.714 15.7072 39.9546C16.8673 35.2127 18.6778 30.5762 21.1387 26.0627C23.5996 21.5491 26.6054 17.299 30.2088 13.3123C33.7947 9.32566 37.8551 5.88342 42.3726 2.95049L42.3902 2.98562ZM25.8495 23.0946C25.9198 22.8312 25.9726 22.5151 25.9901 22.1463C26.0253 21.7774 26.1659 21.5667 26.4472 21.4964H26.3417L26.4472 21.3911C26.3065 21.6545 26.2011 21.9531 26.0956 22.2867C25.9902 22.6204 25.8847 22.8839 25.7441 23.0771V22.9717C25.7441 22.9717 25.7792 23.0771 25.8495 23.0771V23.0946ZM25.8495 23.0946L25.7441 22.9892V23.0946C25.7441 23.0946 25.8495 23.0595 25.8495 22.9892V23.0946ZM25.9901 22.3043C25.955 22.5678 25.9023 22.8312 25.8495 23.0946C25.9198 22.7609 26.078 22.2692 26.3417 21.6018L26.2362 21.4964C26.0956 21.7599 26.0253 22.0233 25.9901 22.2867V22.3043ZM26.2362 21.6018L26.4296 21.4086L26.3241 21.514H26.4296H26.2362V21.6194V21.6018Z" fill="black"/>
<path d="M49.7553 63.2248C48.894 63.2248 48.1205 63.0492 47.4702 62.6803C46.8198 62.3115 46.2573 61.8373 45.8179 61.2402C45.3784 60.6431 45.062 59.9757 44.8687 59.2557C44.6753 58.5356 44.5698 57.8331 44.5698 57.1657C44.5698 54.9177 45.0268 52.3009 45.9585 49.3504C46.8901 46.3999 48.0854 43.6075 49.5443 40.9907C51.0033 38.3739 52.6556 36.161 54.4837 34.3697C56.3118 32.5783 58.0871 31.6826 59.8098 31.6826C62.798 31.6826 64.7843 32.4729 65.7862 34.0184C66.7881 35.5815 67.1221 37.5133 66.7881 39.8492C66.4542 42.1674 65.628 44.714 64.2921 47.4713C62.9562 50.2286 61.4269 52.7576 59.7043 55.0934C57.9817 57.4116 56.2063 59.361 54.3782 60.9241C52.5501 62.4872 51.0033 63.2599 49.7377 63.2599L49.7553 63.2248ZM47.1713 59.2381C49.0346 58.7112 50.9154 57.6399 52.7962 56.0593C54.677 54.4787 56.3821 52.6171 57.8762 50.5271C59.3703 48.4372 60.5832 46.2595 61.5148 44.0115C62.4464 41.7635 62.9034 39.656 62.9034 37.7417V36.6001C62.9034 36.2313 62.8331 35.88 62.7101 35.5639C61.9718 35.8274 61.2511 36.0381 60.5129 36.2137C59.7746 36.3894 59.2473 36.723 58.9133 37.2499C57.5246 39.1115 56.136 40.9732 54.7825 42.8172C53.429 44.6788 52.181 46.6283 51.0384 48.7006C50.1771 50.2286 49.4916 51.8794 48.9994 53.6357C48.5073 55.3919 47.892 57.2711 47.1538 59.2557L47.1713 59.2381Z" fill="black"/>
<path d="M88.1276 57.7453C88.7252 57.3414 89.5689 56.5862 90.6763 55.4622C91.7662 54.3382 92.9087 53.1264 94.0689 51.8267C95.229 50.5271 96.3364 49.3153 97.4086 48.1913C98.4633 47.0673 99.307 46.2946 99.9047 45.9082L100.502 46.2068C99.975 46.8741 99.184 47.963 98.1645 49.4909C97.1274 51.0189 96.02 52.5819 94.8247 54.1625C93.6294 55.7607 92.4693 57.1482 91.3443 58.3424C90.2193 59.5367 89.2877 60.1338 88.5494 60.1338C87.9518 60.1338 87.3366 59.9757 86.7038 59.642C86.071 59.3083 85.5085 58.8868 85.0163 58.3951C84.5241 57.9033 84.1198 57.3238 83.821 56.6564C83.5222 55.989 83.364 55.3568 83.364 54.7597C83.364 53.9694 83.5222 53.0737 83.8562 52.0726C84.1902 51.0716 84.5769 50.0705 84.9987 49.0343C85.4382 47.9981 85.8952 46.9795 86.3874 45.9433C86.8795 44.9071 87.3366 43.9939 87.7409 43.2036C88.4791 41.6054 89.2174 40.0423 89.9908 38.4793C90.7467 36.9162 91.4322 35.318 92.0298 33.6496C87.319 37.97 82.9597 42.5362 78.9696 47.3483C74.9794 52.1604 71.2705 57.1833 67.8077 62.4345C65.4171 61.5739 64.2218 60.2392 64.2218 58.4478C64.2218 58.1843 64.257 57.9385 64.3273 57.7102C64.3976 57.4818 64.5031 57.2008 64.6261 56.8672C66.3487 52.8805 68.1241 48.8938 69.9522 44.872C71.7802 40.8502 73.6611 36.6879 75.577 32.3675C76.5087 32.8242 77.3348 33.2457 78.0731 33.6145C78.8114 33.9833 79.5672 34.3345 80.3582 34.6507C78.6883 37.7065 77.1239 40.657 75.6298 43.5197C74.1357 46.3824 72.624 49.1924 71.0947 51.9848C71.2353 52.055 71.3056 52.1077 71.3408 52.1253C71.376 52.1604 71.4638 52.2131 71.5869 52.2834C74.1708 49.368 76.7548 46.4702 79.3035 43.6251C81.8523 40.7624 84.4362 37.9173 87.0202 35.0546C87.9518 34.0008 89.0592 32.9822 90.3599 32.0163C91.6607 31.0504 92.9263 30.5762 94.1919 30.5762C94.9302 30.5762 95.5454 30.6816 96.0903 30.8747C96.6176 31.0679 96.8813 31.8055 96.8813 33.07C96.8813 33.7374 96.7758 34.2643 96.5825 34.6682C95.0532 38.4617 93.4361 42.1498 91.7486 45.7677C90.0611 49.3856 88.5494 53.179 87.2135 57.1657C87.4772 57.4994 87.776 57.6926 88.11 57.7628L88.1276 57.7453Z" fill="black"/>
<path d="M116.937 57.7453C117.535 57.3414 118.379 56.5862 119.486 55.4622C120.576 54.3382 121.719 53.1264 122.879 51.8267C124.039 50.5271 125.146 49.3153 126.219 48.1913C127.273 47.0673 128.117 46.2946 128.715 45.9082L129.312 46.2068C128.785 46.8741 127.994 47.963 126.974 49.4909C125.937 51.0189 124.83 52.5819 123.635 54.1625C122.439 55.7607 121.279 57.1482 120.154 58.3424C119.029 59.5367 118.098 60.1338 117.359 60.1338C116.762 60.1338 116.146 59.9757 115.514 59.642C114.881 59.3083 114.318 58.8868 113.826 58.3951C113.334 57.9033 112.93 57.3238 112.631 56.6564C112.332 55.989 112.174 55.3568 112.174 54.7597C112.174 53.9694 112.332 53.0737 112.666 52.0726C113 51.0716 113.387 50.0705 113.809 49.0343C114.248 47.9981 114.705 46.9795 115.197 45.9433C115.689 44.9071 116.146 43.9939 116.551 43.2036C117.289 41.6054 118.027 40.0423 118.801 38.4793C119.557 36.9162 120.242 35.318 120.84 33.6496C116.129 37.97 111.77 42.5362 107.779 47.3483C103.789 52.1604 100.08 57.1833 96.6176 62.4345C94.227 61.5739 93.0317 60.2392 93.0317 58.4478C93.0317 58.1843 93.0669 57.9385 93.1372 57.7102C93.2075 57.4818 93.313 57.2008 93.436 56.8672C95.1586 52.8805 96.934 48.8938 98.7621 44.872C100.59 40.8502 102.471 36.6879 104.387 32.3675C105.319 32.8242 106.145 33.2457 106.883 33.6145C107.621 33.9833 108.377 34.3345 109.168 34.6507C107.498 37.7065 105.934 40.657 104.44 43.5197C102.946 46.3824 101.434 49.1924 99.9046 51.9848C100.045 52.055 100.116 52.1077 100.151 52.1253C100.186 52.1604 100.274 52.2131 100.397 52.2834C102.981 49.368 105.565 46.4702 108.113 43.6251C110.662 40.7624 113.246 37.9173 115.83 35.0546C116.762 34.0008 117.869 32.9822 119.17 32.0163C120.471 31.0504 121.736 30.5762 123.002 30.5762C123.74 30.5762 124.355 30.6816 124.9 30.8747C125.428 31.0679 125.691 31.8055 125.691 33.07C125.691 33.7374 125.586 34.2643 125.392 34.6682C123.863 38.4617 122.246 42.1498 120.559 45.7677C118.871 49.3856 117.359 53.179 116.023 57.1657C116.287 57.4994 116.586 57.6926 116.92 57.7628L116.937 57.7453Z" fill="black"/>
<path d="M153.499 45.3111C151.179 47.9631 148.525 50.5096 145.572 52.9332C142.619 55.3569 139.543 57.359 136.361 58.9572C135.5 59.4138 134.638 59.8002 133.777 60.0987C132.916 60.3973 132.054 60.5553 131.193 60.5553C130.191 60.5553 129.295 60.327 128.504 59.8528C127.713 59.3787 127.027 58.8167 126.465 58.1142C125.902 57.4117 125.445 56.6565 125.111 55.831C124.777 55.0056 124.619 54.2153 124.619 53.4952C124.619 52.1078 124.935 50.5447 125.568 48.8236C126.201 47.1025 127.027 45.3287 128.064 43.5022C129.101 41.6757 130.244 39.9019 131.509 38.1808C132.775 36.4597 134.058 34.9142 135.341 33.5443C136.625 32.1744 137.873 31.0856 139.033 30.2601C140.193 29.4347 141.177 29.0132 141.968 29.0132C142.707 29.0132 143.374 29.2064 144.007 29.6103C144.64 30.0142 145.203 30.4884 145.695 31.0504C146.187 31.6124 146.591 32.2447 146.89 32.9472C147.189 33.6497 147.329 34.2995 147.329 34.8966C147.329 36.284 146.855 37.8295 145.888 39.5331C144.921 41.2191 143.744 42.7997 142.355 44.2574C140.966 45.7151 139.49 46.9444 137.978 47.9455C136.449 48.9466 135.113 49.4383 133.988 49.4383C132.599 49.4383 131.299 48.8061 130.103 47.5416C129.91 48.4021 129.629 49.2978 129.26 50.2286C128.89 51.1594 128.592 52.0551 128.363 52.9157C128.135 53.7762 128.064 54.549 128.17 55.2515C128.275 55.954 128.644 56.4984 129.312 56.8848C129.84 57.2185 130.103 57.4292 130.103 57.5346C130.103 57.64 130.332 57.6751 130.806 57.6751C131.211 57.6751 131.597 57.6049 132.002 57.4819C133.267 56.8848 134.832 56.0945 136.677 55.0934C138.541 54.0924 140.457 53.0386 142.46 51.9146C144.447 50.7906 146.433 49.6491 148.384 48.4724C150.335 47.3133 152.093 46.2771 153.622 45.3463H153.517L153.499 45.3111ZM131.685 46.4878C132.547 46.4878 133.636 46.0312 134.92 45.1004C136.203 44.1696 137.468 43.0456 138.699 41.7108C139.929 40.3761 140.984 38.9887 141.88 37.531C142.777 36.0733 143.251 34.7737 143.322 33.6497C142.39 33.9131 141.353 34.4927 140.228 35.3884C139.103 36.284 137.978 37.3378 136.888 38.5672C135.798 39.7965 134.761 41.0962 133.795 42.5011C132.828 43.8886 132.107 45.2233 131.65 46.4878H131.685ZM134.375 38.8306H134.076C134.603 38.8306 134.955 38.7077 135.131 38.4793C135.289 38.251 135.429 37.9876 135.535 37.689C135.64 37.3905 135.763 37.0744 135.939 36.7407C136.097 36.407 136.484 36.1787 137.082 36.0382C137.275 35.3181 137.504 34.6859 137.732 34.1414C137.961 33.6145 138.453 33.2106 139.173 32.9472C139.173 32.8769 138.962 33.035 138.523 33.4038C138.084 33.7726 137.837 33.9834 137.767 34.0536C137.697 34.2468 137.556 34.5805 137.31 35.0547C137.082 35.5113 136.8 36.0206 136.466 36.5475C136.132 37.0744 135.781 37.5837 135.412 38.0403C135.043 38.4969 134.691 38.7779 134.357 38.8306H134.375ZM134.269 38.7252C134.269 38.7252 134.199 38.8306 134.076 38.8306H134.375L134.269 38.7252ZM134.375 38.8306C134.515 38.7603 134.674 38.7077 134.867 38.6901C135.06 38.655 135.236 38.5672 135.359 38.4442C135.166 38.5145 134.972 38.5672 134.814 38.5847C134.656 38.6023 134.463 38.6725 134.269 38.7252L134.375 38.8306ZM135.377 38.4267C135.517 38.093 135.588 37.7417 135.623 37.3729C135.658 37.0041 135.746 36.6704 135.869 36.3367C135.728 36.6704 135.64 37.0217 135.57 37.3729C135.5 37.7417 135.429 38.093 135.377 38.4267ZM137.662 34.0536C137.521 34.3873 137.433 34.721 137.363 35.0547C137.293 35.3884 137.205 35.722 137.064 36.0557C137.328 35.4586 137.556 34.7912 137.767 34.0712H137.662V34.0536ZM137.767 34.0536C137.89 33.9131 137.978 33.8077 138.013 33.7024C138.048 33.597 138.136 33.4916 138.259 33.3511C138.119 33.4214 137.925 33.6497 137.662 34.0536H137.767ZM139.05 33.0525L138.154 33.3511C138.277 33.2809 138.453 33.2457 138.646 33.2457C138.839 33.2457 139.015 33.2106 139.138 33.1404L139.033 33.035L139.05 33.0525ZM139.156 33.1579V32.9647L139.05 33.0701L139.156 33.1755V33.1579ZM153.605 45.3111V45.0126L153.499 45.1179V45.3111H153.605Z" fill="black"/>
<path d="M169.653 33.4563C169.724 34.1237 169.618 34.6681 169.354 35.1072C169.091 35.5462 168.563 35.757 167.755 35.757C167.351 35.3531 167.017 35.0018 166.753 34.7032C166.489 34.4047 166.226 34.0886 165.962 33.7549C164.362 34.4222 162.816 35.5462 161.321 37.1444C159.827 38.7426 158.474 40.5515 157.279 42.5712C156.083 44.5909 155.116 46.6984 154.396 48.8937C153.658 51.089 153.306 53.0736 153.306 54.8649C153.306 56.2524 153.57 57.4817 154.097 58.5531C155.96 58.2194 157.806 57.552 159.634 56.5685C161.462 55.5674 163.237 54.4434 164.96 53.1789C166.683 51.9144 168.405 50.6324 170.093 49.3503C171.78 48.0507 173.397 46.9091 174.927 45.9081C174.663 46.5755 174.434 47.0321 174.224 47.2955C173.292 48.4195 172.202 49.6138 170.936 50.8783C169.671 52.1428 168.353 53.3897 166.999 54.6191C165.628 55.8484 164.222 57.0076 162.763 58.0964C161.304 59.1853 159.898 60.0985 158.579 60.8362C157.648 61.2928 156.786 61.5387 155.995 61.5387C154.993 61.5387 154.079 61.2928 153.253 60.7835C152.427 60.2917 151.689 59.6244 151.056 58.7989C150.423 57.9735 149.931 57.0076 149.562 55.9187C149.193 54.8298 149.017 53.6707 149.017 52.4764C149.017 50.4216 149.562 48.0683 150.669 45.3988C151.759 42.7468 153.113 40.2179 154.712 37.8294C156.312 35.4409 158.017 33.4387 159.845 31.8054C161.673 30.1721 163.308 29.3643 164.784 29.3643C166.261 29.3643 167.931 30.7341 169.671 33.4387L169.653 33.4563ZM153.306 44.3099C153.306 44.1167 153.341 43.9411 153.411 43.8182C153.341 43.9587 153.306 44.1167 153.306 44.3099C153.306 44.1167 153.341 43.9411 153.411 43.8182C153.341 43.9587 153.306 44.1167 153.306 44.3099Z" fill="black"/>
<path d="M189.586 19.0203C190.377 19.477 191.256 19.7404 192.223 19.7755C193.19 19.8106 194.121 19.8984 195.018 20.0214C195.914 20.1443 196.723 20.4604 197.461 20.9171C198.2 21.3737 198.797 22.2518 199.254 23.4988H187.301C186.51 24.3593 185.631 25.5887 184.717 27.1869C183.786 28.785 182.854 30.594 181.922 32.6137C180.991 34.6333 180.094 36.7935 179.233 39.0766C178.372 41.3773 177.598 43.5902 176.948 45.7504C176.28 47.9106 175.753 49.9302 175.348 51.827C174.944 53.7237 174.751 55.2868 174.751 56.5513C174.751 57.1484 174.786 57.5875 174.856 57.8509C176.052 57.5875 177.212 57.0079 178.337 56.1122C179.462 55.2165 180.639 54.1277 181.87 52.828C183.1 51.5284 184.383 50.1059 185.702 48.5428C187.038 46.9797 188.497 45.3991 190.079 43.8185C190.272 43.959 190.536 44.1873 190.87 44.521C190.131 45.1181 189.2 46.2948 188.022 48.0511C186.862 49.8073 185.579 51.6162 184.19 53.4779C182.801 55.3395 181.36 56.9903 179.901 58.448C178.442 59.9057 177.106 60.6433 175.911 60.6433C175.384 60.6433 174.839 60.4501 174.311 60.0462C173.784 59.6423 173.274 59.1505 172.764 58.5534C172.272 57.9563 171.868 57.3065 171.569 56.604C171.27 55.9015 171.112 55.2868 171.112 54.7599C171.112 52.1782 171.411 49.5966 172.009 47.05C172.606 44.5034 173.38 41.9744 174.346 39.4806C175.313 36.9867 176.368 34.5104 177.528 32.0165C178.688 29.5227 179.831 26.9937 180.973 24.3944C179.708 24.7281 178.565 25.0442 177.528 25.3428C176.491 25.6414 175.348 25.9575 174.083 26.2912C173.889 25.4833 173.679 24.693 173.485 23.9027C173.292 23.1124 173.046 22.2518 172.782 21.321C174.768 21.1278 176.684 20.8995 178.512 20.6712C180.34 20.4429 182.116 20.2146 183.838 20.0214C184.963 17.8261 186.088 15.6483 187.178 13.5057C188.268 11.3455 189.446 9.1151 190.711 6.7793C192.1 7.71011 193.506 8.67604 194.895 9.65954C193.893 11.3807 192.961 12.9964 192.1 14.4892C191.239 15.982 190.377 17.4924 189.516 19.0203H189.586ZM174.628 42.5189L174.733 42.7121C174.733 42.7121 174.733 42.7999 174.68 42.7648C174.645 42.7296 174.628 42.6418 174.628 42.5189ZM174.628 42.5189V42.7121H174.733C174.733 42.7121 174.628 42.5716 174.628 42.5189ZM176.333 37.4433L176.438 37.5487V37.4433H176.333Z" fill="black"/>
<path d="M189.674 59.1501C190.202 58.553 191.028 57.6925 192.17 56.5685C193.295 55.4445 194.455 54.2678 195.651 53.0384C196.846 51.809 198.006 50.6324 199.131 49.5084C200.256 48.3844 201.082 47.5238 201.627 46.9267C201.891 47.0672 202.067 47.1901 202.119 47.3306C201.662 47.998 200.906 48.9288 199.869 50.123C198.832 51.3173 197.742 52.5818 196.582 53.9165C195.422 55.2513 194.332 56.4982 193.295 57.6925C192.258 58.8867 191.52 59.8175 191.045 60.4849C190.711 60.5551 190.413 60.6078 190.149 60.6254C189.885 60.643 189.622 60.6781 189.358 60.6781C187.231 60.6781 186.176 59.677 186.176 57.6925C186.176 55.7079 186.458 53.6004 187.02 51.5632C187.583 49.5435 188.286 47.5414 189.112 45.5919C189.938 43.6425 190.87 41.7106 191.907 39.8139C192.944 37.9171 193.946 36.1082 194.948 34.3871C195.211 33.9305 195.598 33.4738 196.09 33.0348C196.582 32.5957 197.004 32.385 197.338 32.385C197.865 32.5079 198.375 32.824 198.832 33.2807C199.289 33.7373 199.799 34.1763 200.326 34.5803C199.131 36.5648 197.936 38.5318 196.741 40.4461C195.545 42.378 194.438 44.2923 193.401 46.2242C192.364 48.156 191.45 50.1406 190.659 52.1954C189.868 54.2502 189.27 56.3753 188.866 58.5706C189.27 58.834 189.534 59.0272 189.657 59.1677L189.674 59.1501ZM199.641 31.261C199.237 30.5936 198.867 30.0316 198.498 29.575C198.129 29.1184 197.866 28.6793 197.707 28.2754C197.532 27.8714 197.514 27.485 197.602 27.0811C197.707 26.6772 198.059 26.2205 198.656 25.6937C199.184 25.1668 199.975 24.7453 200.994 24.4467C202.031 24.1482 202.91 24.3589 203.631 25.0966C204.088 25.6234 204.334 26.0625 204.334 26.3962C204.334 26.7299 204.229 27.046 204.035 27.3445C203.842 27.6431 203.578 27.9065 203.244 28.1349C202.91 28.3632 202.612 28.609 202.348 28.89C201.557 29.6277 200.66 30.418 199.658 31.2785L199.641 31.261Z" fill="black"/>
<path d="M203.438 63.2248C202.576 63.2248 201.803 63.0492 201.153 62.6803C200.502 62.3115 199.94 61.8373 199.5 61.2402C199.061 60.6431 198.744 59.9757 198.551 59.2557C198.358 58.5356 198.252 57.8331 198.252 57.1657C198.252 54.9177 198.709 52.3009 199.641 49.3504C200.572 46.3999 201.768 43.6075 203.227 40.9907C204.686 38.3739 206.338 36.161 208.166 34.3697C209.994 32.5783 211.769 31.6826 213.492 31.6826C216.48 31.6826 218.467 32.4729 219.469 34.0184C220.47 35.5815 220.804 37.5133 220.47 39.8492C220.137 42.1674 219.31 44.714 217.974 47.4713C216.639 50.2286 215.109 52.7576 213.387 55.0934C211.664 57.4116 209.889 59.361 208.061 60.9241C206.233 62.4872 204.686 63.2599 203.42 63.2599L203.438 63.2248ZM200.836 59.2381C202.699 58.7112 204.58 57.6399 206.461 56.0593C208.342 54.4787 210.047 52.6171 211.541 50.5271C213.035 48.4372 214.248 46.2595 215.18 44.0115C216.111 41.7635 216.568 39.656 216.568 37.7417V36.6001C216.568 36.2313 216.498 35.88 216.375 35.5639C215.637 35.8274 214.916 36.0381 214.178 36.2137C213.439 36.3894 212.912 36.723 212.578 37.2499C211.189 39.1115 209.801 40.9732 208.447 42.8172C207.094 44.6788 205.846 46.6283 204.703 48.7006C203.842 50.2286 203.156 51.8794 202.664 53.6357C202.172 55.3919 201.557 57.2711 200.819 59.2557L200.836 59.2381Z" fill="black"/>
<path d="M241.81 57.7453C242.408 57.3414 243.251 56.5862 244.359 55.4622C245.449 54.3382 246.591 53.1264 247.751 51.8267C248.911 50.5271 250.019 49.3153 251.091 48.1913C252.146 47.0673 252.989 46.2946 253.587 45.9082L254.185 46.2068C253.657 46.8741 252.866 47.963 251.847 49.4909C250.81 51.0189 249.702 52.5819 248.507 54.1625C247.312 55.7607 246.152 57.1482 245.027 58.3424C243.902 59.5367 242.97 60.1338 242.232 60.1338C241.634 60.1338 241.019 59.9757 240.386 59.642C239.753 59.3083 239.191 58.8868 238.699 58.3951C238.206 57.9033 237.802 57.3238 237.503 56.6564C237.205 55.989 237.046 55.3568 237.046 54.7597C237.046 53.9694 237.205 53.0737 237.539 52.0726C237.873 51.0716 238.259 50.0705 238.681 49.0343C239.121 47.9981 239.578 46.9795 240.07 45.9433C240.562 44.9071 241.019 43.9939 241.423 43.2036C242.161 41.6054 242.9 40.0423 243.673 38.4793C244.429 36.9162 245.115 35.318 245.712 33.6496C241.001 37.97 236.642 42.5362 232.652 47.3483C228.662 52.1604 224.953 57.1833 221.49 62.4345C219.099 61.5739 217.904 60.2392 217.904 58.4478C217.904 58.1843 217.939 57.9385 218.01 57.7102C218.08 57.4818 218.185 57.2008 218.308 56.8672C220.031 52.8805 221.806 48.8938 223.635 44.872C225.463 40.8502 227.343 36.6879 229.259 32.3675C230.191 32.8242 231.017 33.2457 231.755 33.6145C232.494 33.9833 233.25 34.3345 234.041 34.6507C232.371 37.7065 230.806 40.657 229.312 43.5197C227.818 46.3824 226.306 49.1924 224.777 51.9848C224.918 52.055 224.988 52.1077 225.023 52.1253C225.058 52.1604 225.146 52.2131 225.269 52.2834C227.853 49.368 230.437 46.4702 232.986 43.6251C235.535 40.7624 238.119 37.9173 240.703 35.0546C241.634 34.0008 242.742 32.9822 244.042 32.0163C245.343 31.0504 246.609 30.5762 247.874 30.5762C248.613 30.5762 249.228 30.6816 249.773 30.8747C250.3 31.0679 250.564 31.8055 250.564 33.07C250.564 33.7374 250.458 34.2643 250.265 34.6682C248.736 38.4617 247.118 42.1498 245.431 45.7677C243.743 49.3856 242.232 53.179 240.896 57.1657C241.16 57.4994 241.458 57.6926 241.792 57.7628L241.81 57.7453Z" fill="black"/>
<path d="M264.432 28.3808C265.364 29.0482 265.979 29.7507 266.278 30.4708C266.577 31.1908 266.735 31.9987 266.735 32.8593C266.735 33.3159 266.735 33.8076 266.682 34.2994C266.647 34.7911 266.63 35.318 266.63 35.8449C266.102 35.318 265.645 34.756 265.276 34.1413C264.907 33.5442 264.556 33.2105 264.239 33.1403C262.71 33.1403 261.321 33.5618 260.056 34.3872C258.79 35.2126 257.7 36.2488 256.769 37.4782C255.837 38.7076 255.116 40.0247 254.624 41.4122C254.132 42.7996 253.868 44.029 253.868 45.1003C253.868 46.2243 253.991 47.1902 254.273 47.9805C254.536 48.7884 254.888 49.5612 255.31 50.3163C255.749 51.0891 256.294 51.8618 256.962 52.6521C257.63 53.4425 258.351 54.3733 259.159 55.4446V56.4456C259.159 58.1668 258.702 59.3961 257.806 60.1338C256.909 60.8714 255.204 61.2226 252.673 61.2226C248.946 61.2226 246.89 59.5015 246.486 56.0417C247.417 56.3754 248.366 56.7618 249.333 57.1833C250.3 57.6223 251.302 57.8682 252.374 57.9384C253.446 58.0087 254.185 57.6574 254.624 56.9023C255.064 56.1471 255.081 55.4973 254.677 54.9528C252.023 50.9135 250.687 47.0497 250.687 43.3967C250.687 39.9545 251.847 36.9162 254.167 34.2818C256.487 31.665 259.915 29.6805 264.432 28.3633V28.3808Z" fill="black"/>
<path d="M6.02075 85.4555C23.7322 80.1603 41.9016 76.4202 60.2802 74.3243C64.8318 73.8041 69.3948 73.3853 73.96 73.057C75.0606 72.9814 76.1612 72.9059 77.2609 72.8403C78.2394 72.7843 79.8831 72.6955 80.438 72.6631C80.0044 72.6859 80.8408 72.6477 80.8209 72.646C81.163 72.6354 81.4961 72.614 81.8383 72.6034C82.3416 72.5867 82.8557 72.5608 83.359 72.5441C84.5476 72.4962 85.7344 72.4682 86.9212 72.4403C91.5887 72.3216 96.2468 72.3124 100.916 72.4047C101.899 72.4193 102.891 72.4348 103.88 72.4901C104.519 72.5252 105.762 72.4318 106.313 72.7906C106.333 72.7923 105.417 72.4723 105.929 72.7072C106.073 72.7799 106.272 72.7971 106.428 72.8508C106.799 72.9731 107.155 73.1544 107.526 73.2768C108.063 73.4437 107.097 73.1293 107.161 73.0847C107.226 73.0301 107.647 73.4981 107.682 73.4409C107.67 73.4699 107.02 72.7413 107.357 73.1318C107.759 73.5981 107.434 73.289 107.49 73.2235C107.456 73.2708 107.274 72.703 107.468 73.2417C107.074 72.1136 107.365 72.8112 107.388 73.1244C107.432 73.6602 107.375 72.4608 107.379 72.5314C107.375 72.6917 107.378 72.8927 107.334 73.0594C107.705 71.5458 107.401 72.7441 107.26 73.1032C107.209 73.2293 107.138 73.3537 107.087 73.4797C106.902 73.9858 107.666 72.5863 107.176 73.2566C106.287 74.4847 105.344 75.6378 104.361 76.7975C101.745 79.8938 99.9255 83.872 101.963 87.822C102.985 89.8174 104.938 90.6787 107.097 90.4435C129.493 88.0824 151.89 85.7113 174.286 83.3502C196.592 80.9913 218.897 78.6424 241.203 76.2835C253.835 74.9457 266.466 73.618 279.098 72.2802C281.56 72.0211 283.436 69.1219 282.887 66.7659C282.273 64.1132 280.017 62.6937 277.372 62.9772C254.976 65.3383 232.579 67.7094 210.183 70.0705C187.786 72.4316 165.572 74.7784 143.266 77.1373C130.634 78.475 118.003 79.8028 105.371 81.1405L110.504 83.7621C110.427 83.6049 110.341 83.4468 110.275 83.2805C110.25 83.2182 110.575 84.3403 110.487 83.8509C110.398 83.3615 110.492 84.6041 110.488 84.5335C110.501 84.3841 110.495 84.213 110.528 84.0653C110.53 84.0453 110.166 85.118 110.381 84.725C110.44 84.6197 110.451 84.4902 110.502 84.3741C110.986 83.3018 110.106 84.882 110.517 84.3152C111.326 83.1907 112.18 82.1403 113.073 81.0933C115.441 78.3168 117.412 74.9038 116.616 71.1111C115.601 66.2457 111.086 64.0188 106.592 63.2893C104.652 62.9712 102.66 63.02 100.706 62.9817C98.2509 62.9402 95.7928 62.9285 93.3321 62.9468C73.9986 63.0833 54.6799 64.9073 35.6788 68.5153C25.0969 70.522 14.627 73.0904 4.30332 76.1732C1.9435 76.8828 -0.107581 79.0142 0.514624 81.6876C1.04088 83.9614 3.48382 86.2401 6.02901 85.4763L6.02075 85.4555Z" fill="#19CC85" fill-opacity="0.43"/>
</svg>
