<svg width="330" height="107" viewBox="0 0 330 107" fill="none" xmlns="http://www.w3.org/2000/svg">
<path d="M31.04 61.72C26.84 61.72 23.22 60.82 20.18 59.02C17.14 57.18 14.8 54.64 13.16 51.4C11.52 48.12 10.7 44.34 10.7 40.06C10.7 35.78 11.52 32 13.16 28.72C14.8 25.44 17.14 22.88 20.18 21.04C23.22 19.2 26.84 18.28 31.04 18.28C36.12 18.28 40.3 19.56 43.58 22.12C46.86 24.68 48.9 28.28 49.7 32.92H40.46C39.98 30.68 38.92 28.96 37.28 27.76C35.68 26.52 33.56 25.9 30.92 25.9C28.48 25.9 26.38 26.48 24.62 27.64C22.9 28.76 21.58 30.38 20.66 32.5C19.74 34.62 19.28 37.14 19.28 40.06C19.28 42.98 19.74 45.5 20.66 47.62C21.58 49.7 22.9 51.32 24.62 52.48C26.38 53.6 28.48 54.16 30.92 54.16C33.56 54.16 35.68 53.6 37.28 52.48C38.88 51.32 39.94 49.72 40.46 47.68H49.7C48.9 52.04 46.86 55.48 43.58 58C40.3 60.48 36.12 61.72 31.04 61.72ZM67.1141 61.72C64.2341 61.72 61.6341 61.06 59.3141 59.74C56.9941 58.38 55.1541 56.5 53.7941 54.1C52.4741 51.7 51.8141 48.98 51.8141 45.94C51.8141 42.82 52.4741 40.06 53.7941 37.66C55.1541 35.26 56.9941 33.4 59.3141 32.08C61.6341 30.72 64.2541 30.04 67.1741 30.04C70.0941 30.04 72.7141 30.72 75.0341 32.08C77.3541 33.4 79.1741 35.26 80.4941 37.66C81.8541 40.02 82.5341 42.76 82.5341 45.88C82.5341 49 81.8541 51.76 80.4941 54.16C79.1341 56.52 77.2941 58.38 74.9741 59.74C72.6941 61.06 70.0741 61.72 67.1141 61.72ZM67.1141 54.46C68.4341 54.46 69.5941 54.14 70.5941 53.5C71.5941 52.86 72.3941 51.9 72.9941 50.62C73.6341 49.34 73.9541 47.76 73.9541 45.88C73.9541 44 73.6541 42.42 73.0541 41.14C72.4541 39.86 71.6341 38.9 70.5941 38.26C69.5941 37.62 68.4541 37.3 67.1741 37.3C65.9341 37.3 64.7941 37.62 63.7541 38.26C62.7141 38.9 61.8941 39.86 61.2941 41.14C60.6941 42.42 60.3941 44 60.3941 45.88C60.3941 47.76 60.6941 49.34 61.2941 50.62C61.8941 51.9 62.6941 52.86 63.6941 53.5C64.7341 54.14 65.8741 54.46 67.1141 54.46ZM85.9123 61V30.76H93.2923L93.8923 35.68C94.8123 34 96.1123 32.64 97.7923 31.6C99.5123 30.56 101.572 30.04 103.972 30.04C106.452 30.04 108.552 30.58 110.272 31.66C111.992 32.7 113.292 34.22 114.172 36.22C115.092 38.22 115.552 40.68 115.552 43.6V61H107.212V44.38C107.212 42.06 106.712 40.28 105.712 39.04C104.752 37.76 103.212 37.12 101.092 37.12C99.8123 37.12 98.6523 37.44 97.6123 38.08C96.5723 38.68 95.7523 39.56 95.1523 40.72C94.5923 41.84 94.3123 43.22 94.3123 44.86V61H85.9123ZM119.578 61V30.76H126.958L127.558 35.68C128.478 34 129.778 32.64 131.458 31.6C133.178 30.56 135.238 30.04 137.638 30.04C140.118 30.04 142.218 30.58 143.938 31.66C145.658 32.7 146.958 34.22 147.838 36.22C148.758 38.22 149.218 40.68 149.218 43.6V61H140.878V44.38C140.878 42.06 140.378 40.28 139.378 39.04C138.418 37.76 136.878 37.12 134.758 37.12C133.478 37.12 132.318 37.44 131.278 38.08C130.238 38.68 129.418 39.56 128.818 40.72C128.258 41.84 127.978 43.22 127.978 44.86V61H119.578ZM167.824 61.72C164.784 61.72 162.084 61.08 159.724 59.8C157.404 58.48 155.584 56.66 154.264 54.34C152.944 51.98 152.284 49.26 152.284 46.18C152.284 43.06 152.924 40.3 154.204 37.9C155.524 35.46 157.344 33.54 159.664 32.14C162.024 30.74 164.764 30.04 167.884 30.04C170.884 30.04 173.504 30.7 175.744 32.02C178.024 33.34 179.784 35.12 181.024 37.36C182.304 39.6 182.944 42.18 182.944 45.1C182.944 45.5 182.924 45.94 182.884 46.42C182.884 46.9 182.844 47.42 182.764 47.98H158.284V42.88H174.424C174.304 41.04 173.624 39.58 172.384 38.5C171.184 37.38 169.684 36.82 167.884 36.82C166.524 36.82 165.284 37.14 164.164 37.78C163.044 38.42 162.164 39.36 161.524 40.6C160.884 41.84 160.564 43.42 160.564 45.34V47.08C160.564 48.64 160.864 50.02 161.464 51.22C162.064 52.38 162.904 53.28 163.984 53.92C165.064 54.56 166.324 54.88 167.764 54.88C169.204 54.88 170.384 54.58 171.304 53.98C172.264 53.38 172.984 52.6 173.464 51.64H182.044C181.484 53.52 180.524 55.22 179.164 56.74C177.844 58.26 176.224 59.48 174.304 60.4C172.384 61.28 170.224 61.72 167.824 61.72ZM200.672 61.72C197.632 61.72 194.932 61.04 192.572 59.68C190.212 58.32 188.352 56.46 186.992 54.1C185.672 51.74 185.012 49.04 185.012 46C185.012 42.88 185.672 40.14 186.992 37.78C188.352 35.38 190.212 33.5 192.572 32.14C194.932 30.74 197.652 30.04 200.732 30.04C204.612 30.04 207.872 31.08 210.512 33.16C213.192 35.2 214.892 38.02 215.612 41.62H206.672C206.352 40.26 205.632 39.2 204.512 38.44C203.432 37.64 202.132 37.24 200.612 37.24C199.252 37.24 198.032 37.6 196.952 38.32C195.912 39 195.092 39.98 194.492 41.26C193.892 42.54 193.592 44.08 193.592 45.88C193.592 47.24 193.752 48.46 194.072 49.54C194.432 50.58 194.912 51.48 195.512 52.24C196.152 53 196.912 53.58 197.792 53.98C198.672 54.38 199.612 54.58 200.612 54.58C201.652 54.58 202.572 54.42 203.372 54.1C204.172 53.74 204.872 53.24 205.472 52.6C206.072 51.92 206.472 51.12 206.672 50.2H215.612C214.892 53.72 213.192 56.52 210.512 58.6C207.832 60.68 204.552 61.72 200.672 61.72ZM232.5 61C230.34 61 228.44 60.66 226.8 59.98C225.2 59.3 223.96 58.18 223.08 56.62C222.2 55.06 221.76 52.94 221.76 50.26V37.78H216.54V30.76H221.76L222.66 22.42H230.16V30.76H238.02V37.78H230.16V50.32C230.16 51.64 230.44 52.56 231 53.08C231.6 53.6 232.6 53.86 234 53.86H237.96V61H232.5ZM255.11 61.72C252.07 61.72 249.37 61.08 247.01 59.8C244.69 58.48 242.87 56.66 241.55 54.34C240.23 51.98 239.57 49.26 239.57 46.18C239.57 43.06 240.21 40.3 241.49 37.9C242.81 35.46 244.63 33.54 246.95 32.14C249.31 30.74 252.05 30.04 255.17 30.04C258.17 30.04 260.79 30.7 263.03 32.02C265.31 33.34 267.07 35.12 268.31 37.36C269.59 39.6 270.23 42.18 270.23 45.1C270.23 45.5 270.21 45.94 270.17 46.42C270.17 46.9 270.13 47.42 270.05 47.98H245.57V42.88H261.71C261.59 41.04 260.91 39.58 259.67 38.5C258.47 37.38 256.97 36.82 255.17 36.82C253.81 36.82 252.57 37.14 251.45 37.78C250.33 38.42 249.45 39.36 248.81 40.6C248.17 41.84 247.85 43.42 247.85 45.34V47.08C247.85 48.64 248.15 50.02 248.75 51.22C249.35 52.38 250.19 53.28 251.27 53.92C252.35 54.56 253.61 54.88 255.05 54.88C256.49 54.88 257.67 54.58 258.59 53.98C259.55 53.38 260.27 52.6 260.75 51.64H269.33C268.77 53.52 267.81 55.22 266.45 56.74C265.13 58.26 263.51 59.48 261.59 60.4C259.67 61.28 257.51 61.72 255.11 61.72ZM286.698 61.72C283.938 61.72 281.478 61.04 279.318 59.68C277.158 58.32 275.438 56.44 274.158 54.04C272.918 51.64 272.298 48.94 272.298 45.94C272.298 42.86 272.918 40.14 274.158 37.78C275.438 35.38 277.178 33.5 279.378 32.14C281.618 30.74 284.118 30.04 286.878 30.04C289.038 30.04 290.918 30.44 292.518 31.24C294.118 32 295.418 33.1 296.418 34.54V17.8H304.818V61H297.318L296.418 56.92C295.818 57.76 295.078 58.56 294.198 59.32C293.318 60.04 292.258 60.62 291.018 61.06C289.778 61.5 288.338 61.72 286.698 61.72ZM288.738 54.4C290.298 54.4 291.678 54.04 292.878 53.32C294.078 52.6 294.998 51.6 295.638 50.32C296.318 49.04 296.658 47.56 296.658 45.88C296.658 44.2 296.318 42.72 295.638 41.44C294.998 40.16 294.078 39.16 292.878 38.44C291.678 37.72 290.298 37.36 288.738 37.36C287.218 37.36 285.858 37.72 284.658 38.44C283.458 39.16 282.518 40.16 281.838 41.44C281.198 42.72 280.878 44.18 280.878 45.82C280.878 47.5 281.198 49 281.838 50.32C282.518 51.6 283.458 52.6 284.658 53.32C285.858 54.04 287.218 54.4 288.738 54.4Z" fill="#231F20"/>
<path d="M7.02364 89.0431C27.4056 83.3578 48.3931 79.2132 69.7006 76.7035C74.9776 76.0809 80.2725 75.5591 85.5741 75.1275C86.8524 75.0271 88.1307 74.9266 89.4085 74.8361C90.5455 74.7579 92.4558 74.6318 93.1005 74.5869C92.5966 74.6195 93.5689 74.5624 93.5456 74.5611C93.9436 74.5427 94.3306 74.5138 94.7286 74.4954C95.314 74.4672 95.9116 74.4297 96.497 74.4015C97.879 74.3267 99.26 74.2717 100.641 74.2168C106.071 73.9919 111.496 73.8766 116.939 73.862C118.084 73.8542 119.24 73.847 120.394 73.8796C121.141 73.9001 122.584 73.7786 123.242 74.1238C123.265 74.1251 122.184 73.8268 122.791 74.0494C122.962 74.1187 123.195 74.1313 123.379 74.1812C123.817 74.2948 124.239 74.4675 124.677 74.5811C125.311 74.7353 124.171 74.4438 124.243 74.3978C124.316 74.3418 124.829 74.799 124.867 74.7411C124.854 74.7704 124.063 74.0585 124.474 74.4403C124.964 74.8962 124.571 74.5953 124.633 74.5288C124.595 74.5767 124.357 74.0146 124.609 74.5474C124.097 73.4313 124.468 74.1204 124.51 74.4322C124.586 74.9656 124.464 73.7707 124.472 73.841C124.475 74.0009 124.487 74.2013 124.443 74.3687C124.806 72.8506 124.507 74.0526 124.359 74.4141C124.306 74.541 124.229 74.6666 124.175 74.7935C123.984 75.3024 124.808 73.8892 124.269 74.5689C123.291 75.814 122.246 76.9856 121.155 78.1646C118.251 81.3125 116.318 85.3216 118.874 89.2148C120.157 91.1815 122.472 91.996 124.975 91.7123C150.949 88.8465 176.924 85.9708 202.899 83.105C228.768 80.2435 254.636 77.392 280.506 74.5305C295.155 72.9082 309.805 71.2958 324.455 69.6734C327.31 69.3589 329.36 66.4245 328.611 64.0872C327.773 61.4555 325.079 60.0913 322.013 60.4343C296.038 63.3001 270.063 66.1758 244.089 69.0416C218.114 71.9073 192.351 74.7546 166.482 77.6161C151.832 79.2384 137.183 80.8508 122.533 82.4732L128.633 84.9707C128.536 84.8157 128.428 84.66 128.344 84.4957C128.312 84.4341 128.742 85.5458 128.617 85.0597C128.491 84.5736 128.658 85.8108 128.65 85.7405C128.658 85.5912 128.644 85.4206 128.675 85.2726C128.676 85.2526 128.302 86.3308 128.534 85.9339C128.598 85.8276 128.605 85.6981 128.658 85.5812C129.172 84.5007 128.222 86.0967 128.673 85.5221C129.564 84.3821 130.509 83.315 131.501 82.2504C134.13 79.4272 136.267 75.9782 135.163 72.2138C133.755 67.3844 128.393 65.2664 123.126 64.6413C120.852 64.3683 118.534 64.4623 116.257 64.4687C113.395 64.4833 110.532 64.5278 107.667 64.6022C85.1559 65.1793 62.7408 67.4392 40.7785 71.4711C28.5473 73.7138 16.4727 76.5142 4.59231 79.8245C1.87686 80.586 -0.412964 82.7585 0.435861 85.4107C1.15437 87.6664 4.10541 89.8834 7.03422 89.0636L7.02364 89.0431Z" fill="#00EA8D"/>
<path d="M317.671 14.2668C334.689 7.5691 315.685 -7.81587 312.921 10.4226C315.689 -7.81178 292.998 1.11707 307.252 12.6538C292.998 1.11707 289.31 25.4309 306.328 18.7332C289.31 25.4309 308.314 40.8159 311.077 22.5774C308.314 40.8118 331.001 31.8829 316.751 20.3462C331.001 31.8829 334.689 7.5691 317.675 14.2668H317.671Z" fill="#00EA8D"/>
</svg>
