<svg width="222" height="169" viewBox="0 0 222 169" fill="none" xmlns="http://www.w3.org/2000/svg">
<path d="M0.0100098 130.391C0.0100098 124.321 0.0100098 118.261 0.0100098 112.191C0.14001 111.281 0.289999 110.361 0.389999 109.451C1.18 102.641 1.64 95.7806 2.8 89.0406C7.41 62.2606 18 37.8706 33 15.3206C33.52 14.5406 34.36 13.8206 35.22 13.4306C48.93 7.16062 63.25 2.83063 78.06 0.0706251C79.26 -0.149375 79.94 0.120625 80.46 1.22063C81.83 4.08063 83.43 6.84062 84.65 9.76062C85.35 11.4306 86.2 11.7206 87.89 11.5606C94.49 10.9206 101.12 9.98062 107.72 10.0406C116.58 10.1206 125.43 10.9706 134.27 11.5906C135.76 11.6906 136.56 11.4606 137.19 9.96062C138.45 6.98062 140.03 4.13063 141.42 1.20063C141.95 0.0806252 142.65 -0.139375 143.84 0.0806251C158.45 2.76063 172.55 7.06062 186.08 13.1706C187.24 13.7006 188.4 14.6606 189.11 15.7106C214.22 53.1506 225.2 94.2706 221 139.271C220.92 140.071 220.41 141.091 219.77 141.551C203.45 153.491 185.67 162.551 166.36 168.621C164.93 169.071 164.26 168.691 163.56 167.561C160.93 163.341 158.21 159.171 155.59 154.941C154.58 153.311 153.75 151.561 152.85 149.881C159.14 146.851 165.2 143.941 171.34 140.991C168.69 137.231 167.35 136.801 163.96 138.271C139.39 148.931 113.94 152.141 87.54 147.331C76.99 145.411 66.84 142.231 57.02 137.931C56.16 137.561 54.95 137.121 54.25 137.461C52.89 138.121 51.77 139.291 49.96 140.721C56.61 143.941 62.71 146.881 69.3 150.061C65.39 156.201 61.59 162.141 57.83 168.111C57.05 169.351 56.14 168.821 55.19 168.521C36.13 162.461 18.5 153.561 2.37001 141.731C1.59001 141.161 1.02001 139.941 0.87001 138.951C0.44001 136.121 0.27 133.251 0 130.391H0.0100098ZM168.13 92.6306C167.56 89.8906 167.27 87.0606 166.36 84.4406C161.6 70.6306 145.7 66.1006 135.31 75.5006C125.61 84.2706 125.51 101.061 135.1 110.001C142.82 117.191 153.95 116.961 161.31 109.411C165.83 104.781 167.74 99.1006 168.12 92.6306H168.13ZM94.62 92.5306C93.7 89.1606 93.2 85.5906 91.78 82.4406C86.15 69.9206 71.06 66.6406 61.43 75.6606C51.97 84.5206 51.81 100.641 61.08 109.701C68.68 117.131 79.95 117.081 87.44 109.531C92.06 104.881 94 99.1406 94.62 92.5306Z" fill="#00A99D"/>
</svg>
