<svg width="34" height="34" viewBox="0 0 34 34" fill="none" xmlns="http://www.w3.org/2000/svg">
<path d="M0.0100002 16.878C0.0500002 8.63803 5.88 1.66803 13.95 0.258033C16.28 -0.151967 18.59 -0.0719674 20.88 0.488033C21.71 0.688033 22.17 1.35803 21.98 2.08803C21.79 2.83803 21.11 3.20803 20.27 2.99803C13.75 1.40803 7.1 4.55804 4.26 10.218C-0.16 18.998 4.85 28.998 14.42 30.798C22.06 32.238 29.51 26.988 30.84 19.338C31.19 17.328 31.12 15.348 30.65 13.368C30.45 12.538 30.83 11.858 31.58 11.668C32.31 11.488 32.97 11.958 33.17 12.788C35.34 21.978 29.87 30.928 20.71 33.168C11.47 35.428 1.98 29.248 0.35 19.878C0.18 18.888 0.12 17.878 0 16.878H0.0100002Z" fill="white"/>
<path d="M16.85 17.8181C17.02 17.5981 17.11 17.4581 17.23 17.3481C21.92 12.6481 26.62 7.95809 31.31 3.25809C31.69 2.87809 32.1 2.65809 32.64 2.76809C33.57 2.95809 33.97 4.07809 33.37 4.83809C33.27 4.96809 33.15 5.07809 33.04 5.18809C28.12 10.1081 23.19 15.0381 18.27 19.9581C18.1 20.1281 17.94 20.3081 17.76 20.4781C17.23 20.9881 16.46 20.9981 15.95 20.4781C14.12 18.6581 12.29 16.8281 10.47 14.9881C9.93 14.4381 9.94 13.6581 10.46 13.1381C10.97 12.6281 11.76 12.6281 12.31 13.1681C13.72 14.5581 15.11 15.9681 16.51 17.3681C16.61 17.4681 16.69 17.5981 16.86 17.8081L16.85 17.8181Z" fill="white"/>
</svg>
