<svg width="90" height="142" viewBox="0 0 90 142" fill="none" xmlns="http://www.w3.org/2000/svg">
<path d="M3.44 6.88C5.33986 6.88 6.88 5.33986 6.88 3.44C6.88 1.54014 5.33986 0 3.44 0C1.54014 0 0 1.54014 0 3.44C0 5.33986 1.54014 6.88 3.44 6.88Z" fill="white"/>
<path d="M24.1 6.88C25.9999 6.88 27.54 5.33986 27.54 3.44C27.54 1.54014 25.9999 0 24.1 0C22.2001 0 20.66 1.54014 20.66 3.44C20.66 5.33986 22.2001 6.88 24.1 6.88Z" fill="white"/>
<path d="M44.75 6.88C46.6499 6.88 48.19 5.33986 48.19 3.44C48.19 1.54014 46.6499 0 44.75 0C42.8501 0 41.31 1.54014 41.31 3.44C41.31 5.33986 42.8501 6.88 44.75 6.88Z" fill="white"/>
<path d="M65.4 6.88C67.2999 6.88 68.84 5.33986 68.84 3.44C68.84 1.54014 67.2999 0 65.4 0C63.5001 0 61.96 1.54014 61.96 3.44C61.96 5.33986 63.5001 6.88 65.4 6.88Z" fill="white"/>
<path d="M86.05 6.88C87.9499 6.88 89.49 5.33986 89.49 3.44C89.49 1.54014 87.9499 0 86.05 0C84.1502 0 82.61 1.54014 82.61 3.44C82.61 5.33986 84.1502 6.88 86.05 6.88Z" fill="white"/>
<path d="M6.89 26.16C6.89 28.06 5.35 29.6 3.45 29.6C1.55 29.6 0.0100098 28.06 0.0100098 26.16C0.0100098 24.26 1.55 22.72 3.45 22.72C5.35 22.72 6.89 24.26 6.89 26.16Z" fill="white"/>
<path d="M27.54 26.16C27.54 28.06 26 29.6 24.1 29.6C22.2 29.6 20.66 28.06 20.66 26.16C20.66 24.26 22.2 22.72 24.1 22.72C26 22.72 27.54 24.26 27.54 26.16Z" fill="white"/>
<path d="M48.19 26.16C48.19 28.06 46.65 29.6 44.75 29.6C42.85 29.6 41.31 28.06 41.31 26.16C41.31 24.26 42.85 22.72 44.75 22.72C46.65 22.72 48.19 24.26 48.19 26.16Z" fill="white"/>
<path d="M68.84 26.16C68.84 28.06 67.3 29.6 65.4 29.6C63.5 29.6 61.96 28.06 61.96 26.16C61.96 24.26 63.5 22.72 65.4 22.72C67.3 22.72 68.84 24.26 68.84 26.16Z" fill="white"/>
<path d="M89.49 26.16C89.49 28.06 87.95 29.6 86.05 29.6C84.15 29.6 82.61 28.06 82.61 26.16C82.61 24.26 84.15 22.72 86.05 22.72C87.95 22.72 89.49 24.26 89.49 26.16Z" fill="white"/>
<path d="M6.89 48.8799C6.89 50.7799 5.35 52.3199 3.45 52.3199C1.55 52.3199 0.0100098 50.7799 0.0100098 48.8799C0.0100098 46.9799 1.55 45.4399 3.45 45.4399C5.35 45.4399 6.89 46.9799 6.89 48.8799Z" fill="white"/>
<path d="M27.54 48.8799C27.54 50.7799 26 52.3199 24.1 52.3199C22.2 52.3199 20.66 50.7799 20.66 48.8799C20.66 46.9799 22.2 45.4399 24.1 45.4399C26 45.4399 27.54 46.9799 27.54 48.8799Z" fill="white"/>
<path d="M48.19 48.8799C48.19 50.7799 46.65 52.3199 44.75 52.3199C42.85 52.3199 41.31 50.7799 41.31 48.8799C41.31 46.9799 42.85 45.4399 44.75 45.4399C46.65 45.4399 48.19 46.9799 48.19 48.8799Z" fill="white"/>
<path d="M68.84 48.8799C68.84 50.7799 67.3 52.3199 65.4 52.3199C63.5 52.3199 61.96 50.7799 61.96 48.8799C61.96 46.9799 63.5 45.4399 65.4 45.4399C67.3 45.4399 68.84 46.9799 68.84 48.8799Z" fill="white"/>
<path d="M89.49 48.8799C89.49 50.7799 87.95 52.3199 86.05 52.3199C84.15 52.3199 82.61 50.7799 82.61 48.8799C82.61 46.9799 84.15 45.4399 86.05 45.4399C87.95 45.4399 89.49 46.9799 89.49 48.8799Z" fill="white"/>
<path d="M3.44 75.04C5.33986 75.04 6.88 73.4999 6.88 71.6C6.88 69.7002 5.33986 68.16 3.44 68.16C1.54014 68.16 0 69.7002 0 71.6C0 73.4999 1.54014 75.04 3.44 75.04Z" fill="white"/>
<path d="M24.1 75.04C25.9999 75.04 27.54 73.4999 27.54 71.6C27.54 69.7002 25.9999 68.16 24.1 68.16C22.2001 68.16 20.66 69.7002 20.66 71.6C20.66 73.4999 22.2001 75.04 24.1 75.04Z" fill="white"/>
<path d="M44.75 75.04C46.6499 75.04 48.19 73.4999 48.19 71.6C48.19 69.7002 46.6499 68.16 44.75 68.16C42.8501 68.16 41.31 69.7002 41.31 71.6C41.31 73.4999 42.8501 75.04 44.75 75.04Z" fill="white"/>
<path d="M65.4 75.04C67.2999 75.04 68.84 73.4999 68.84 71.6C68.84 69.7002 67.2999 68.16 65.4 68.16C63.5001 68.16 61.96 69.7002 61.96 71.6C61.96 73.4999 63.5001 75.04 65.4 75.04Z" fill="white"/>
<path d="M86.05 75.04C87.9499 75.04 89.49 73.4999 89.49 71.6C89.49 69.7002 87.9499 68.16 86.05 68.16C84.1502 68.16 82.61 69.7002 82.61 71.6C82.61 73.4999 84.1502 75.04 86.05 75.04Z" fill="white"/>
<path d="M3.44 96.12C5.33986 96.12 6.88 94.5799 6.88 92.68C6.88 90.7801 5.33986 89.24 3.44 89.24C1.54014 89.24 0 90.7801 0 92.68C0 94.5799 1.54014 96.12 3.44 96.12Z" fill="white"/>
<path d="M24.1 96.12C25.9999 96.12 27.54 94.5799 27.54 92.68C27.54 90.7801 25.9999 89.24 24.1 89.24C22.2001 89.24 20.66 90.7801 20.66 92.68C20.66 94.5799 22.2001 96.12 24.1 96.12Z" fill="white"/>
<path d="M44.75 96.12C46.6499 96.12 48.19 94.5799 48.19 92.68C48.19 90.7801 46.6499 89.24 44.75 89.24C42.8501 89.24 41.31 90.7801 41.31 92.68C41.31 94.5799 42.8501 96.12 44.75 96.12Z" fill="white"/>
<path d="M65.4 96.12C67.2999 96.12 68.84 94.5799 68.84 92.68C68.84 90.7801 67.2999 89.24 65.4 89.24C63.5001 89.24 61.96 90.7801 61.96 92.68C61.96 94.5799 63.5001 96.12 65.4 96.12Z" fill="white"/>
<path d="M86.05 96.12C87.9499 96.12 89.49 94.5799 89.49 92.68C89.49 90.7801 87.9499 89.24 86.05 89.24C84.1502 89.24 82.61 90.7801 82.61 92.68C82.61 94.5799 84.1502 96.12 86.05 96.12Z" fill="white"/>
<path d="M6.89 115.39C6.89 117.29 5.35 118.83 3.45 118.83C1.55 118.83 0.0100098 117.29 0.0100098 115.39C0.0100098 113.49 1.55 111.95 3.45 111.95C5.35 111.95 6.89 113.49 6.89 115.39Z" fill="white"/>
<path d="M27.54 115.39C27.54 117.29 26 118.83 24.1 118.83C22.2 118.83 20.66 117.29 20.66 115.39C20.66 113.49 22.2 111.95 24.1 111.95C26 111.95 27.54 113.49 27.54 115.39Z" fill="white"/>
<path d="M48.19 115.39C48.19 117.29 46.65 118.83 44.75 118.83C42.85 118.83 41.31 117.29 41.31 115.39C41.31 113.49 42.85 111.95 44.75 111.95C46.65 111.95 48.19 113.49 48.19 115.39Z" fill="white"/>
<path d="M68.84 115.39C68.84 117.29 67.3 118.83 65.4 118.83C63.5 118.83 61.96 117.29 61.96 115.39C61.96 113.49 63.5 111.95 65.4 111.95C67.3 111.95 68.84 113.49 68.84 115.39Z" fill="white"/>
<path d="M89.49 115.39C89.49 117.29 87.95 118.83 86.05 118.83C84.15 118.83 82.61 117.29 82.61 115.39C82.61 113.49 84.15 111.95 86.05 111.95C87.95 111.95 89.49 113.49 89.49 115.39Z" fill="white"/>
<path d="M6.89 138.11C6.89 140.01 5.35 141.55 3.45 141.55C1.55 141.55 0.0100098 140.01 0.0100098 138.11C0.0100098 136.21 1.55 134.67 3.45 134.67C5.35 134.67 6.89 136.21 6.89 138.11Z" fill="white"/>
<path d="M27.54 138.11C27.54 140.01 26 141.55 24.1 141.55C22.2 141.55 20.66 140.01 20.66 138.11C20.66 136.21 22.2 134.67 24.1 134.67C26 134.67 27.54 136.21 27.54 138.11Z" fill="white"/>
<path d="M48.19 138.11C48.19 140.01 46.65 141.55 44.75 141.55C42.85 141.55 41.31 140.01 41.31 138.11C41.31 136.21 42.85 134.67 44.75 134.67C46.65 134.67 48.19 136.21 48.19 138.11Z" fill="white"/>
<path d="M68.84 138.11C68.84 140.01 67.3 141.55 65.4 141.55C63.5 141.55 61.96 140.01 61.96 138.11C61.96 136.21 63.5 134.67 65.4 134.67C67.3 134.67 68.84 136.21 68.84 138.11Z" fill="white"/>
<path d="M89.49 138.11C89.49 140.01 87.95 141.55 86.05 141.55C84.15 141.55 82.61 140.01 82.61 138.11C82.61 136.21 84.15 134.67 86.05 134.67C87.95 134.67 89.49 136.21 89.49 138.11Z" fill="white"/>
</svg>
