<svg width="1080" height="425" viewBox="0 0 1080 425" fill="none" xmlns="http://www.w3.org/2000/svg">
<path opacity="0.06" d="M-260 344.983L-253.615 355.474C-242.947 355.249 -246.328 349.883 -243.909 343.285C-239.912 332.404 -242.196 329.638 -240.964 325.235C-240.198 322.529 -235.375 322.785 -234.789 320.485C-234.383 318.892 -237.673 311.588 -235.089 308.402C-232.956 305.787 -229.26 308.161 -226.886 306.688C-223.49 304.584 -226.165 298.197 -213.799 302.946L-210.374 292.245C-199.781 296.468 -186.334 289.375 -176.839 296.529C-174.961 297.941 -174.57 301.804 -173.413 302.465C-171.265 303.713 -166.833 302.465 -163.392 303.983C-153.205 308.477 -152.514 329.368 -138.136 335.5C-130.533 338.746 -117.958 338.972 -113.976 330.21C-110.701 323.025 -119.22 304.179 -120.782 295.041C-125.875 265.403 -121.128 236.336 -123.336 207.209C-124.027 198.161 -130.834 170.206 -135.852 163.458C-137.82 160.813 -150.305 159.806 -152.83 154.711C-156.526 147.226 -139.503 156.635 -138.196 156.95C-134.455 157.822 -134.424 158.018 -131.825 154.696L-144.461 127.433L-138.181 129.552L-127.663 145.273L-131.84 115.86C-125.425 108.556 -121.518 144.251 -117.161 143.168L-121.338 115.86H-115.103L-107.335 155.928C-94.3689 163.022 -93.3472 150.683 -86.3458 145.588C-82.9052 143.078 -82.0187 142.657 -79.3143 146.355L-106.584 186.303C-109.694 219.368 -92.4608 251.561 -98.2152 283.994L-75.8136 259.12C-56.2365 245.203 -40.1001 257.572 -29.2523 274.916C-23.543 284.039 -18.059 304.073 -3.68048 302.916C-1.30658 300.677 -25.4511 249.201 -28.5161 242.648C-37.0801 224.387 -54.1631 202.009 -56.1764 182.035C-59.3917 150.157 -55.1998 114.372 -53.0663 83.2311C-52.9461 81.5479 -50.2116 79.594 -50.1215 77.0841C-49.791 67.1948 -62.1111 45.4773 -51.9244 37.0758C-50.3168 35.7532 -31.8967 26.7506 -30.9802 27.5622C-30.875 31.7103 -32.6479 35.0619 -26.7883 33.8595L-22.5363 0.253749C-18.2994 -0.332399 -19.0957 -0.0768987 -17.7886 2.89893C-14.0625 11.4056 -21.1992 26.5252 -20.4329 34.8665C-20.0723 38.7591 -16.0908 41.0736 -15.0842 44.2899C-8.9391 64.0236 -21.8001 70.1856 -22.4763 81.2924C-23.8435 103.987 -17.9088 151.901 -14.0324 175.647C-12.4999 184.98 11.1488 217.474 18.6461 224.928C25.5273 231.782 35.2933 235.705 41.4534 244.151C46.1711 250.629 44.2029 260.067 58.4462 257.903C61.1356 257.497 69.3841 247.908 69.2038 245.128C59.9487 234.006 51.9556 216.587 36.2849 214.603C34.2566 205.405 47.5534 213.882 48.8755 212.529L38.3884 189.429L48.9056 194.659L36.2849 174.73C46.6519 175.286 50.4531 185.927 57.2743 191.518C56.8987 184.86 51.009 179.419 49.2962 173.242C48.5901 170.717 48.2445 166.554 52.0157 168.418C55.6366 170.206 75.2137 211.582 82.5006 204.143C80.6826 173.002 118.965 155.417 140.39 178.818C152.2 191.713 146.19 201.437 145.754 215.475C145.424 226.056 152.455 240.469 135.462 244.497L126.658 271.414C152.605 246.721 189.401 248.104 219.78 231.106C226.196 227.514 253.586 197.65 254.382 192.224C255.404 185.236 243.82 176.579 240.469 171.228C232.972 159.265 217.992 136.841 213.079 125.058C208.902 115.033 207.43 99.3878 203.253 90.7458C195.681 75.0401 179.665 67.0896 174.271 43.7038C174.045 42.7118 166.894 33.108 173.895 36.0238C176.87 37.2562 193.036 58.2523 195.981 54.9157C198.13 49.941 187.793 18.5746 194.945 19.2359C198.13 28.9599 202.487 20.9943 206.303 26.7055L214.837 54.0591C227.037 57.3355 221.298 40.4875 231.71 40.217L226.316 80.2403C234.775 89.5736 237.059 100.981 243.459 111.501C254.878 130.288 269.962 147.211 281.111 166.284C286.67 162.677 289.449 155.718 293.671 151.555C295.504 149.751 299.486 149.586 302.01 147.286C320.445 130.484 295.684 125.058 286.369 113.801C292.049 115.83 292.469 109.322 295.699 109.382C303.753 109.518 310.694 117.077 319.979 111.652L309.492 88.5666C313.909 83.8624 327.251 111.592 329.445 111.637C338.715 104.558 342.772 90.1747 355.708 88.5666C358.277 90.9112 338.129 111.532 336.822 114.853C334.403 121.03 349.953 116.491 351.501 117.979C348.421 129.882 357.436 135.819 347.579 145.979L354.656 155.808L357 151.495L372.475 155.808L374.624 145.318L382.977 151.6L387.184 143.214L387.229 153.719L395.613 149.541L391.406 155.808L412.441 155.838C406.461 164.615 419.232 166.554 420.644 168.764C421.26 169.725 417.083 177.36 422.928 181.043L414.544 178.969L416.753 196.718L412.456 197.921C426.774 215.881 405.574 218.27 404.523 233.15C404.282 236.531 405.499 238.906 406.16 242.017L421.891 225.214C450.227 210.681 469.339 184.544 492.191 163.203C482.08 150.563 476.791 140.057 460.775 133.745C457.424 126.696 474.612 134.752 475.484 131.656L460.76 105.43C471.157 103.431 471.036 117.107 479.676 117.994L460.775 88.5966C473.801 87.3492 475.754 101.221 483.852 107.504L473.38 83.3213C474.011 80.9918 478.158 82.3745 479.706 83.3063C490.523 89.799 498.441 124.307 516.366 124.397C524.043 123.63 532.126 100.335 535.807 93.361C537.145 90.836 544.807 85.2601 544.807 81.2473V40.2621C556.211 39.3453 546.19 56.3586 555.279 54.9758L570.049 17.1618L576.284 21.355L579.499 15.0728C583.901 14.201 582.955 17.0416 582.474 20.1527C580.791 31.064 569.252 45.5825 577.366 54.9608C580.401 54.9157 592.646 31.3496 601.555 35.0468C598.099 40.3673 598.34 48.0022 596.131 52.7515C589.49 67.0445 574.826 84.0578 567.044 97.2235C562.461 104.994 560.838 115.424 557.142 123.059C548.052 141.771 538.602 160.392 528.295 178.473C526.087 189.504 546.775 211.177 549.029 223.155C560.959 215.129 560.854 200.34 566.383 189.038C573.97 173.528 605.627 131.671 603.268 117.543C602.532 113.155 598.385 108.195 597.513 102.108C596.342 93.8419 597.934 84.4485 597.333 76.0321C607.535 73.0562 598.715 101.687 610.555 92.8951C618.563 86.9434 616.775 62.9264 626.706 57.11L622.529 86.5226C629.336 87.8001 626.271 79.6391 629.861 75.8367C632.581 72.9661 638.11 79.2784 637.269 71.8388C647.365 74.6343 634.684 94.2026 637.238 97.0281L656.124 84.4335C659.129 87.77 641.791 103.461 639.387 106.557C615.107 137.608 610.945 160.858 594.914 194.494C584.277 216.813 554.168 250.974 574.15 274.721C575.472 276.299 596.988 296.048 598.37 296.934C601.901 299.159 604.74 297.16 607.174 298.392C620.756 305.246 633.663 325.671 644.616 330.36C650.34 332.81 645.998 319.163 645.442 317.269C643.804 311.588 639.778 304.72 636.622 298.317C626.826 278.418 634.579 283.348 639.357 268.394C641.22 262.577 632.13 269.972 635.15 264.2C638.005 258.745 645.727 251.666 648.477 246.315C649.664 244.016 647.44 239.251 650.325 236.291C653.21 233.33 674.695 219.262 678.015 223.335L680.239 219.338C693.205 217.94 690.756 222.599 696.075 226.011C699.666 228.31 711.73 231.481 714.134 233.465C718.717 237.238 726.92 264.426 731.292 270.949C733.907 274.841 736.836 276.013 740.157 278.854C740.217 280.552 719.859 285.076 735.995 295.657C731.788 299.204 731.698 306.343 725.508 303.036L727.581 309.319L721.301 307.23L725.433 317.645C719.814 317.419 719.077 323.536 719.198 328.226L745.821 307.575L759.118 300.887C748.796 287.872 737.197 272.572 730.015 257.512C709.702 214.949 704.879 157.266 658.288 133.775C654.697 126.952 672.411 133.309 672.967 132.753L660.376 105.445L675.1 114.868L658.273 88.6267C673.793 88.0255 675.506 106.286 685.558 113.846C682.868 104.062 675.957 95.2697 672.576 85.8012C671.705 83.3664 671.059 80.1201 674.019 80.2553C679.187 80.4808 698.419 120.173 704.984 122.954C726.124 131.911 725.358 106.887 742.32 109.638C743.027 104.122 736.897 104.242 732.975 99.012C726.184 89.9643 714.42 68.2017 710.859 58.102C709.462 54.1342 713.909 54.1192 715.982 55.051C717.65 55.8025 729.865 71.2377 732.855 73.8678C743.072 63.4374 726.289 46.4542 734.973 36.0839L740.247 54.9758V40.2921C746.302 33.6942 752.703 72.2296 755.031 73.8979C768.869 72.9961 760.034 59.8454 771.724 57.095C773.662 70.6064 765.023 87.1839 767.592 100.139C768.478 104.603 772.325 106.467 774.278 110.239C775.675 112.944 777.403 121.301 778.38 121.917C779.942 122.924 786.132 122.097 790.144 123.811C795.267 125.975 796.033 130.694 799.098 133.775C800.991 135.684 802.133 138.524 804.357 134.902C806.581 131.28 808.864 112.328 809.556 106.467C810.427 99.1022 805.769 84.7191 815.866 84.4335C823.438 95.5252 808.128 117.062 822.146 120.143L825.331 113.891C828.802 118.836 831.837 117.543 836.885 115.965L836.915 126.471L846.426 126.411C851.414 134.256 828.291 178.367 828.997 190.346L857.98 226.401C862.277 228.325 876.16 224.087 878.053 218.932L884.077 221.186L885.264 216.873L891.515 221.066C891.635 214.318 895.436 200.942 891.62 195.155C890.373 193.261 886.557 194.9 887.338 191.668L893.663 190.526L891.755 186.303L895.136 184.965L893.618 181.163L906.239 181.118L895.737 174.805C897.449 165.803 913.871 175.587 914.622 174.835L916.771 164.33L925.125 170.612L931.435 160.107L929.377 172.716L935.657 170.627L933.583 176.909C940.63 169.876 946.084 174.565 954.603 174.82C950.516 181.298 956.616 185.942 962.972 187.445L958.795 190.556L965.09 200.01C950.922 193.833 960.357 213.341 960.553 219.924C960.613 221.682 958.87 235.179 958.434 236.456C957.112 240.304 951.027 240.739 949.314 244.151C945.829 251.095 948.127 265.884 944.071 273.579C955.625 271.775 951.012 257.587 959.486 249.081C967.208 241.341 995.755 231.812 993.427 218.736C985.028 202.49 982.609 185.191 974.315 168.733C955.339 131.1 937.7 84.0127 912.504 51.8948C909.634 48.2427 894.249 36.5047 897.855 31.8756L914.637 44.4703L912.564 21.355C915.269 23.0083 920.347 21.0995 921.744 21.4452C925.605 22.3921 924.494 35.9336 931.465 33.9497L927.288 6.64125C938.376 15.2681 932.216 34.1601 945.122 42.3361C953.146 38.4285 944.281 23.0985 954.573 23.4592C953.957 29.9819 956.601 38.9845 955.85 45.1616C954.348 57.591 946.805 61.3784 950.847 74.4239C952.484 79.7143 973.639 117.588 976.614 120.188C979.949 123.104 984.892 121.676 989.385 124.231C992.855 126.215 998.535 136.856 999.767 136.931C1009.56 124.231 1005.85 108.045 1007.11 93.8569C1007.49 89.6788 1010.3 78.4067 1013.97 87.0336C1018.2 96.9831 1013.78 107.909 1014.39 118.099L1019.69 120.158L1022.92 113.831L1034.43 115.935L1037.58 126.441L1041.79 122.308C1048.81 127.703 1042.03 135.999 1042.86 143.289C1048.88 139.501 1060.03 143.875 1065.45 140.674C1068.99 138.6 1076.33 118.069 1079.02 113.2C1080.54 110.449 1089.06 104.919 1089.06 100.199V57.11C1098.19 56.7944 1093.9 69.0584 1098.51 73.9129C1107.09 62.9114 1107.09 47.3108 1115.4 36.144C1119.8 30.2224 1117.82 39.1198 1119.53 38.173L1125.85 31.8907C1131.1 39.5557 1113.61 66.1126 1120.58 70.7868C1124.77 73.5973 1124.49 70.1706 1126.47 68.2468C1128.06 66.7138 1144.48 49.1745 1145.79 50.8127C1142.88 56.2383 1143.69 64.8652 1142.17 69.0434C1140.37 73.973 1133.95 79.1582 1131.43 83.7271C1126.2 93.1806 1121.75 103.371 1116.37 112.809C1119.87 116.446 1128.71 105.445 1130.06 105.505L1135.29 111.772L1139.51 85.4856C1146.21 80.4507 1141.09 109.848 1141.51 112.944C1142.35 119.151 1146.2 121.391 1146.02 129.657C1145.82 138.494 1140.31 142.342 1139.54 148.774C1139.03 153.058 1139.2 168.974 1139.39 173.843C1139.56 177.886 1138.46 183.793 1143.69 185.341C1149.52 175.061 1151.09 163.548 1156.73 153.178C1171.68 125.674 1193.96 114.658 1200.8 81.8484C1202.33 74.5291 1208.44 74.3337 1211.93 69.6746C1218.52 60.8674 1223.23 49.2196 1231.12 40.5175C1233.23 38.188 1234.21 35.2422 1238.25 36.129L1227.75 59.2292C1238.46 62.9414 1244.79 56.5239 1255.08 57.1551L1252.93 61.3333L1259.26 65.5115C1242.62 68.1266 1237.28 83.171 1227.84 94.0072C1223.9 98.5311 1218.21 100.395 1214.21 105.595C1205.35 117.107 1196.9 144.656 1188.19 159.445C1180.69 172.175 1144.54 216.813 1146.17 227.949C1146.95 233.285 1162.5 254.897 1166.89 259.917C1173.69 267.717 1183.26 273.158 1189 279.831C1191.75 283.032 1192.53 288.698 1195 290.637C1200.35 294.86 1211.64 292.17 1218.09 294.214C1226.2 292.185 1219.17 273.188 1219.61 266.515C1220.01 260.473 1224.25 238.65 1226.88 233.871C1237.4 214.814 1265.87 216.317 1275.15 235.69C1275.21 245.218 1278.07 271.009 1272.91 277.862C1270.95 280.477 1266.99 281.304 1266.15 282.611C1263.79 286.263 1264.14 298.302 1259.29 303.051L1278.79 290.006L1295 286.248V349.312C1279.42 371.976 1260.17 395.663 1263.48 424.985H1162.62C1161.76 409.55 1163.81 393.017 1162.59 377.717C1160.21 347.959 1144.15 290.862 1126.56 266.62C1124.11 263.253 1122.58 260.398 1117.6 260.879C1115.5 268.574 1101.87 282.536 1100.07 287.797C1097.17 296.243 1097.34 311.047 1094.8 320.365C1089.33 340.475 1071.03 352.784 1080.97 375.298C1085.12 384.676 1094.38 387.081 1100.72 393.393C1109.22 401.87 1115.5 414.254 1120.59 425H992.42L994.493 334.613C989.926 338.401 986.575 347.418 984.502 352.979C975.187 377.868 973.263 399.074 979.799 425H813.792C814.243 420.927 812.275 417.921 810.697 414.449C803.095 397.677 793.043 374.231 784.449 358.705C783.157 356.361 782.932 352.994 779.131 353.505C772.31 378.138 749.142 399.149 750.749 425H616.264L572.407 328.827C580.851 315.06 565.751 307.966 558.465 296.784L555.339 300.962L552.169 290.442C545.679 290.532 555.655 316.307 557.428 319.869L544.837 307.275C538.226 329.578 554.047 341.301 559.336 361.05L557.428 424.985H471.277C474.252 405.913 459.543 396.609 455.05 379.205C452.631 369.827 452.902 336.883 440.837 336.672C426.368 365.138 435.353 395.828 441.859 424.985H315.772C314.18 422.039 314.15 394.1 309.492 397.661L296.856 424.985H151.869L137.13 389.26C128.491 396.624 134.816 414.239 132.953 424.985H-260V345.104V344.983ZM744.394 115.875C741.659 113.981 732.494 124.156 730.962 126.546C729.565 128.725 718.506 151.765 717.981 153.659C713.744 168.824 752.447 229.843 760.951 247.533C767.321 260.774 767.652 279.996 786.448 281.905C790.67 269.01 786.898 256.881 788.882 243.4C790.444 232.849 795.823 224.402 796.634 214.137C778.229 181.674 755.001 152.246 744.409 115.875H744.394ZM1112.17 178.938C1114.93 156.65 1116.22 137.968 1111.11 115.845C1109.55 115.845 1102.11 141.726 1100.61 145.303C1092.75 164.165 1075.46 174.55 1112.15 178.938H1112.17ZM330.451 216.752C334.583 202.805 333.952 189.91 334.794 175.827C335.139 170.191 341.795 166.584 331.533 157.927L303.377 188.662C302.265 195.185 325.373 211.748 330.451 216.737V216.752ZM345.145 202.024C350.674 193.968 348.316 185.521 340.999 178.923L340.969 200.987L345.145 202.024ZM273.703 231.481C268.715 230.324 270.323 232.353 269.046 234.217C245.562 268.378 226.797 268.138 198.265 291.569C179.845 306.703 167.855 332.975 154.018 352.363C156.376 356.195 159.547 353.295 163.453 355.233C171.116 359.036 181.963 371.736 189.671 377.582C191.774 379.175 192.315 381.685 195.966 380.723C196.718 379.912 192.03 360.719 191.354 359.021C190.212 356.165 186.576 355.79 186.245 355.023C184.758 351.506 183.391 341.436 184.307 337.694C186.711 327.805 191.339 319.343 196.147 310.416C197.664 307.59 195.44 305.05 198.01 302.029C202.577 296.664 210.36 294.049 216.295 291.644C217.647 291.088 216.009 286.038 225.399 290.336L224.363 286.113C231.109 291.283 229.291 284.159 229.606 284.069C232.356 283.333 234.76 290.397 236.608 291.734C241.1 294.996 252.308 296.333 254.998 299.61C255.539 300.271 261.594 312.76 262.645 315.075C265.966 322.439 264.944 332.178 273.673 337.634C262.465 341.617 271.75 349.973 267.393 359.727L261.098 357.623L262.69 361.426L259.039 364.882L263.171 370.173C258.799 369.707 256.681 374.501 256.891 378.604L303.287 348.185C299.366 308.477 289.735 268.123 273.658 231.481H273.703ZM822.146 267.206C816.737 266.605 818.811 267.206 817.909 270.257C814.769 280.943 815.941 290.412 807.452 299.715L836.855 323.942C835.518 317.029 837.396 303.562 828.472 302.886L832.618 300.782L822.131 267.191L822.146 267.206ZM-115.013 361.801C-119.821 361.907 -121.023 365.694 -126.522 366.19C-134.409 366.896 -143.289 360.404 -148.563 362.763C-152.379 365.484 -156.345 371.074 -148.638 370.218L-153.04 373.539C-148.442 382.106 -154.648 379.581 -157.036 386.991L-121.669 376.139L-115.028 361.801H-115.013ZM6.86676 374.411C1.77344 373.254 3.45621 375.388 2.17911 377.161C-6.05437 388.764 -5.46841 401.719 2.13403 413.758C3.50128 415.922 1.98376 417.425 6.86676 416.448V374.411Z" fill="#F7004B"/>
</svg>
