<svg width="283" height="111" viewBox="0 0 283 111" fill="none" xmlns="http://www.w3.org/2000/svg">
<path d="M6.02468 92.1567C23.6175 86.4797 41.7017 82.3476 60.0307 79.8546C64.57 79.2362 69.1229 78.7188 73.6799 78.2918C74.7786 78.1925 75.8773 78.0931 76.9754 78.0038C77.9524 77.9266 79.5938 77.8023 80.1478 77.7579C79.7148 77.79 80.5502 77.7338 80.5303 77.7325C80.8721 77.7145 81.2047 77.6859 81.5466 77.6679C82.0494 77.6403 82.5628 77.6033 83.0656 77.5757C84.2529 77.5022 85.4388 77.4485 86.6247 77.3949C91.2886 77.1753 95.9454 77.0654 100.616 77.0567C101.598 77.05 102.591 77.044 103.58 77.078C104.22 77.0993 105.461 76.979 106.02 77.3258C106.04 77.3271 105.117 77.027 105.634 77.2507C105.779 77.3203 105.979 77.3332 106.136 77.3834C106.51 77.4978 106.869 77.6713 107.242 77.7856C107.784 77.9409 106.81 77.6475 106.874 77.6015C106.937 77.5455 107.369 78.0042 107.402 77.9463C107.391 77.9756 106.725 77.2612 107.071 77.6443C107.483 78.1018 107.151 77.7998 107.206 77.7332C107.173 77.7811 106.979 77.2174 107.185 77.7518C106.766 76.6325 107.072 77.3237 107.102 77.6363C107.157 78.171 107.075 76.9731 107.08 77.0436C107.08 77.2039 107.087 77.4048 107.046 77.5725C107.385 76.0512 107.106 77.2558 106.973 77.6179C106.924 77.745 106.856 77.8709 106.808 77.998C106.635 78.5079 107.367 77.0923 106.893 77.773C106.03 79.02 105.113 80.1933 104.155 81.3739C101.606 84.5261 99.8732 88.5427 101.996 92.4477C103.061 94.4205 105.032 95.2394 107.185 94.9577C129.525 92.1127 151.865 89.2578 174.205 86.4129C196.455 83.5722 218.704 80.7414 240.953 77.9006C253.554 76.29 266.153 74.6894 278.753 73.0788C281.208 72.7665 283.022 69.8274 282.422 67.4838C281.751 64.845 279.464 63.4747 276.827 63.8152C254.487 66.6602 232.146 69.5151 209.806 72.36C187.466 75.2049 165.308 78.0315 143.058 80.8723C130.458 82.4829 117.858 84.0835 105.258 85.6941L110.447 88.204C110.367 88.0486 110.277 87.8924 110.207 87.7276C110.181 87.6658 110.53 88.7806 110.431 88.2932C110.333 87.8058 110.453 89.0462 110.447 88.9757C110.457 88.826 110.448 88.655 110.478 88.5066C110.479 88.4867 110.139 89.567 110.345 89.1694C110.402 89.0629 110.41 88.9332 110.458 88.816C110.918 87.7335 110.074 89.3323 110.472 88.7568C111.257 87.615 112.087 86.5464 112.958 85.4803C115.265 82.6533 117.162 79.1984 116.284 75.4239C115.164 70.5816 110.601 68.4529 106.093 67.8207C104.147 67.5446 102.157 67.6364 100.202 67.6404C97.7463 67.652 95.2885 67.6936 92.8288 67.765C73.5028 68.3196 54.2281 70.561 35.3095 74.5791C24.7734 76.8141 14.3615 79.6083 4.10691 82.9138C1.76298 83.6742 -0.241522 85.8494 0.438355 88.5088C1.01366 90.7706 3.50531 92.996 6.03338 92.1773L6.02468 92.1567Z" fill="#19CC85"/>
<g clip-path="url(#clip0_278_4)">
<path d="M49.6107 3.41506C53.2578 2.19313 56.9363 1.34718 60.7091 0.81454C64.4505 0.281903 68.2863 0.03125 72.2163 0.03125C73.9141 0.03125 75.3289 0.657882 76.3978 1.91115C77.4668 3.16441 78.0013 4.60566 78.0013 6.23491C78.0013 7.86415 77.4983 9.08608 76.4922 10.12C75.4861 11.154 74.2285 11.9999 72.6879 12.6892C71.1473 13.3785 69.481 13.8798 67.7203 14.2245C65.9282 14.5691 64.2933 14.9138 62.7842 15.1957C63.6331 14.2871 64.6077 13.5038 65.7396 12.9085C66.84 12.3132 67.9404 11.6866 69.0094 11.0286C70.0783 10.3707 71.053 9.65005 71.9648 8.83543C72.8451 8.02081 73.5053 6.95553 73.9455 5.67094C73.8826 5.45162 73.7883 5.26363 73.7254 5.07564C73.6625 4.88765 73.5682 4.69966 73.5053 4.48034C70.6443 4.82498 67.8775 5.1383 65.2051 5.38895C62.5327 5.63961 60.0489 5.92159 57.7537 6.20357C56.056 8.67877 54.4211 11.0286 52.8805 13.1905C51.3399 15.3524 49.8622 17.4829 48.4474 19.5508C47.0326 21.6187 45.5549 23.6866 44.0458 25.7858C42.5367 27.885 40.9646 30.1096 39.3297 32.4594C40.9646 32.3028 42.5681 32.0835 44.1087 31.7075C45.6492 31.3628 47.1269 31.1749 48.5417 31.1749C49.6107 31.1749 50.6482 31.3315 51.6543 31.6448C52.6604 31.9581 53.6665 32.5221 54.6412 33.3054C54.484 33.8694 54.3896 34.4333 54.2639 34.9973C54.1381 35.5613 54.0438 36.1252 53.8866 36.6892C53.3207 36.6892 53.0377 36.5326 53.0377 36.2192V34.778C51.4657 34.9346 49.8937 35.0913 48.3217 35.248C46.7496 35.436 45.2091 35.6866 43.7314 36.0626C42.2222 36.4072 40.776 36.9085 39.3926 37.5665C38.0092 38.1931 36.7831 39.1017 35.6827 40.2297C34.8338 41.0756 33.922 42.2976 32.9474 43.8642C31.9727 45.4307 31.0924 47.154 30.2749 49.0339C29.4575 50.9138 28.7972 52.825 28.2942 54.7362C27.7912 56.6474 27.5396 58.4333 27.5396 60.0626C27.5396 62.0678 27.9169 63.3837 28.7344 64.073C29.5204 64.7623 30.5265 65.0756 31.7212 65.0756C32.853 65.0756 34.1735 64.8563 35.6198 64.449C37.066 64.0104 38.5752 63.4777 40.1157 62.7884C41.6563 62.1305 43.1969 61.3785 44.7689 60.5639C46.3409 59.7493 47.8501 58.966 49.2649 58.2767C51.057 57.3681 52.7862 56.3655 54.5154 55.3315C56.2132 54.2976 58.0367 53.1696 59.986 51.979C59.4201 52.8876 58.8856 53.7963 58.4454 54.6422C58.0053 55.4882 57.4394 56.2401 56.7791 56.8668C50.6482 62.6318 43.6685 66.5796 35.9027 68.7101C35.0539 68.9921 34.1107 69.1487 33.1046 69.1487C30.4007 69.1487 28.137 68.1775 26.3449 66.2662C24.5528 64.355 23.6725 62.0365 23.6725 59.342C23.6725 57.0548 24.1755 54.5169 25.1816 51.697C26.1877 48.8772 27.0366 46.2453 27.7597 43.7388C27.1938 43.8955 26.6279 44.0521 26.0305 44.2715C25.4331 44.4908 24.8986 44.6474 24.3327 44.8041C23.8926 44.0835 23.7039 43.4255 23.7039 42.7675C23.7039 41.7649 24.2384 41.0756 25.2759 40.637C26.8165 40.073 28.1684 39.3211 29.3317 38.3811C30.5265 37.4725 31.5326 36.4072 32.4443 35.248C33.3561 34.0887 34.1735 32.8354 34.9595 31.5195C35.7455 30.2036 36.5316 28.8563 37.3176 27.5091C39.2354 24.2506 41.3105 21.0861 43.5427 18.0782C45.7436 15.0391 47.7872 11.8746 49.6422 8.52211C47.7872 8.58477 45.492 9.18008 42.7882 10.2767C40.0843 11.3733 37.3804 12.7205 34.708 14.2871C32.0356 15.8537 29.6776 17.4829 27.634 19.2062C25.5903 20.8981 24.3327 22.402 23.8297 23.6866C22.9808 23.1226 22.2891 22.3393 21.7861 21.3994C21.283 20.4594 21.0315 19.4568 21.0315 18.4542C21.0315 17.107 21.5031 16.073 22.4149 15.3524C25.8419 12.8772 29.4575 10.7153 33.2303 8.89809C37.0032 7.08086 40.9961 5.67094 45.2405 4.66833V4.57433C45.0204 4.69966 44.8632 4.88765 44.706 5.04431C44.5803 5.23229 44.3916 5.35762 44.1715 5.42028C41.3734 6.70488 38.5752 7.95814 35.777 9.21141C32.9474 10.4647 30.2121 11.7806 27.5711 13.2218V13.0025L27.6654 13.2218V13.1279C27.6654 13.1279 27.6654 13.0339 27.6025 13.0339C27.5396 13.0339 27.5396 13.0025 27.5396 12.9399C30.1806 11.6553 32.853 10.3707 35.5255 9.08608C38.1979 7.80149 40.8389 6.64222 43.4484 5.57694C46.058 4.51167 48.6675 3.63438 51.2771 2.91376C53.8866 2.19313 56.4647 1.81715 59.0428 1.75449C59.483 1.91115 59.9231 1.97381 60.3947 2.00514C60.8663 2.03647 61.3379 2.13047 61.841 2.25579C61.841 1.81715 61.4951 1.62916 60.772 1.66049C60.0489 1.69182 59.483 1.72316 59.0742 1.72316C57.4393 2.28712 55.8673 2.6631 54.3582 2.85109C52.8491 3.03908 51.2456 3.19574 49.5478 3.32107L49.6422 3.41506H49.6107ZM27.634 12.9085C27.634 12.9085 27.634 13.0339 27.6968 13.0652C27.7597 13.0965 27.7597 13.1592 27.7597 13.2218C27.7597 13.1592 27.7283 13.0965 27.6654 13.0025V13.2218V12.9085H27.634ZM45.3034 4.69966C46.0894 4.48034 46.8125 4.26101 47.5042 4.07303C48.1959 3.88504 48.919 3.63438 49.705 3.44639L49.6107 3.3524C48.8876 3.57172 48.1959 3.79104 47.4728 3.97903C46.7497 4.19835 46.0265 4.41767 45.3348 4.63699V4.73099L45.3034 4.69966ZM59.1371 1.69182C58.6341 1.84848 58.1625 1.97381 57.6909 2.13047C57.2193 2.28712 56.7477 2.41245 56.2446 2.56911L56.3389 2.6631C57.345 2.31846 58.2568 2.0678 59.0742 1.91115C59.8917 1.78582 60.8349 1.69182 61.9039 1.69182V2.22446C61.4008 2.09914 60.9292 2.00514 60.4576 1.97381C59.986 1.94248 59.5458 1.84848 59.1057 1.72316L59.1371 1.69182Z" fill="#F9FEFB"/>
<path d="M63.4129 52.9506C64.1989 54.7365 65.0163 56.5537 65.8338 58.4336C66.6512 60.3135 67.4372 62.0681 68.1289 63.7286H64.1675C63.7273 62.726 63.1928 61.5668 62.5011 60.2195C61.8094 58.8722 61.1806 57.4937 60.6147 56.0524C58.6968 58.2456 56.6847 60.5642 54.5782 62.9767C52.4717 65.3892 50.3337 67.8018 48.1958 70.2456C47.9757 70.0263 47.6613 69.713 47.284 69.2743C46.9067 68.8357 46.4037 68.3344 45.8378 67.7704C47.0639 66.4858 48.4159 65.0759 49.8936 63.5093C51.4027 61.9427 52.7861 60.4075 54.0751 58.9349C55.3642 57.431 56.4646 56.0837 57.3449 54.8305C58.2252 53.5772 58.6968 52.6059 58.6968 51.8853C58.6968 51.0393 58.4453 49.7861 57.9423 48.1568C57.4392 46.5276 56.9362 44.8044 56.4017 43.0185C55.8672 41.2326 55.4271 39.572 55.1127 38.0054C54.7983 36.4388 54.7982 35.2796 55.1755 34.4963C55.7415 34.6529 56.496 34.6529 57.3764 34.5589C58.2567 34.4649 59.0427 34.4649 59.6715 34.6216C59.6715 35.5615 59.8287 36.6581 60.1431 37.9741C60.4575 39.29 60.8033 40.6373 61.1492 42.0158C61.495 43.3944 61.8409 44.7417 62.1553 46.0576C62.4697 47.3736 62.6269 48.5328 62.6269 49.5354C63.8531 48.4702 65.1107 47.2169 66.4312 45.7443C67.7516 44.2717 69.0721 42.7991 70.3926 41.2639C71.7131 39.7286 73.0022 38.2561 74.2912 36.8461C75.5803 35.4362 76.8693 34.1829 78.1584 33.1177C78.6614 33.901 79.0702 34.5589 79.3846 35.0916C79.699 35.6242 80.0448 36.2195 80.3906 36.8461C78.9758 37.9741 77.561 39.2587 76.1462 40.6373C74.7628 42.0158 73.348 43.4571 71.9018 44.8984C70.4555 46.3396 69.0407 47.8122 67.6259 49.2221C66.1796 50.632 64.7648 51.8853 63.35 52.9506H63.4129Z" fill="#F9FEFB"/>
<path d="M80.1077 58.1829C80.9566 58.7469 81.6797 59.1855 82.2457 59.5301C82.8116 59.8435 83.3461 60.1881 83.8491 60.5328C85.5469 60.2508 87.2761 59.4048 88.9739 58.0262C90.6717 56.6476 92.2751 54.8931 93.7528 52.7939C95.1991 50.6946 96.4252 48.4074 97.3999 45.9009C98.3745 43.3944 98.909 40.8878 99.0662 38.3187C94.6331 40.6685 90.8289 43.5197 87.6534 46.8722C84.4779 50.2247 81.7741 53.8591 79.5732 57.8069C77.3724 61.7547 75.5803 65.9531 74.2284 70.4022C72.8765 74.8513 71.8075 79.3944 71.0215 84.0001C69.6696 83.7808 68.7892 83.2168 68.4119 82.3082C68.0347 81.3683 67.8146 80.4283 67.8146 79.4257C67.8146 77.2952 68.129 75.0393 68.7263 72.6894C69.3237 70.3396 70.1097 67.9897 71.0215 65.6398C71.9333 63.2899 72.9393 60.9401 74.0083 58.5902C75.0773 56.2403 76.1148 53.9531 77.1209 51.7599C78.7558 48.0628 80.4221 44.397 82.0885 40.7625C83.7548 37.1281 85.6098 33.4623 87.5905 29.7651C88.4394 30.4231 89.2254 30.9871 89.9485 31.5197C90.6717 32.0523 91.3005 32.5223 91.8664 32.961C90.5145 35.3108 89.2254 37.5667 87.9992 39.7286C86.7731 41.8905 85.5783 44.0523 84.3522 46.1829C85.3583 45.3369 86.4901 44.303 87.7163 43.1437C88.9739 41.9531 90.2629 40.8565 91.5834 39.7912C92.9039 38.726 94.1615 37.8174 95.3877 37.0654C96.6139 36.3134 97.6828 35.9375 98.5946 35.9375C99.7265 35.9375 100.67 36.3761 101.487 37.2847C102.273 38.162 102.745 39.3213 102.902 40.7625C102.902 43.0497 102.367 45.4936 101.298 48.1254C100.23 50.7573 98.8776 53.2012 97.2427 55.4884C95.6078 57.7756 93.8157 59.6555 91.835 61.1907C89.8857 62.726 88.0307 63.4779 86.3329 63.4779C83.4718 63.4779 81.3968 61.692 80.1077 58.1516V58.1829Z" fill="#F9FEFB"/>
<path d="M133.462 47.2794C130.947 50.1306 128.117 52.8564 124.942 55.457C121.766 58.0575 118.465 60.2194 115.038 61.9113C114.126 62.4126 113.183 62.8199 112.24 63.1332C111.296 63.4465 110.385 63.6032 109.441 63.6032C108.373 63.6032 107.398 63.3525 106.549 62.8512C105.7 62.3499 104.977 61.7233 104.348 60.9713C103.751 60.2194 103.248 59.4047 102.902 58.5275C102.556 57.6502 102.367 56.8042 102.367 56.0209C102.367 54.517 102.713 52.8564 103.374 51.0079C104.065 49.1593 104.946 47.2481 106.046 45.3055C107.146 43.363 108.373 41.4517 109.756 39.6032C111.139 37.7546 112.491 36.094 113.875 34.6528C115.258 33.1802 116.578 32.0209 117.836 31.1436C119.094 30.2664 120.131 29.7964 120.98 29.7964C121.766 29.7964 122.489 30.0157 123.181 30.4544C123.873 30.893 124.47 31.3943 125.004 31.9896C125.539 32.5849 125.979 33.2742 126.293 34.0262C126.608 34.7781 126.765 35.4674 126.765 36.1254C126.765 37.6293 126.231 39.2585 125.225 41.0758C124.218 42.893 122.929 44.5849 121.42 46.1515C119.911 47.7181 118.339 49.034 116.704 50.0993C115.069 51.1645 113.623 51.6972 112.428 51.6972C110.919 51.6972 109.536 51.0079 108.247 49.6606C108.027 50.6006 107.712 51.5405 107.335 52.5431C106.958 53.5457 106.612 54.4857 106.36 55.4256C106.109 56.3342 106.046 57.1802 106.14 57.9322C106.235 58.6841 106.675 59.2794 107.366 59.6867C107.932 60.0314 108.215 60.282 108.215 60.376C108.215 60.47 108.467 60.5327 108.97 60.5327C109.41 60.5327 109.819 60.47 110.259 60.3134C111.611 59.6554 113.309 58.8094 115.289 57.7442C117.27 56.6789 119.345 55.551 121.515 54.329C123.653 53.1071 125.79 51.8852 127.897 50.6319C130.003 49.3786 131.89 48.282 133.525 47.2794H133.43H133.462ZM110.007 48.564C110.919 48.564 112.082 48.0627 113.497 47.0601C114.881 46.0575 116.233 44.8669 117.553 43.4256C118.874 41.9844 120.005 40.5118 120.98 38.9452C121.955 37.3786 122.458 36 122.521 34.7781C121.515 35.0601 120.414 35.6867 119.188 36.658C117.962 37.6293 116.767 38.7572 115.604 40.0731C114.441 41.3891 113.309 42.799 112.271 44.3029C111.234 45.8068 110.479 47.2168 109.976 48.564H110.007ZM112.9 40.3551H112.586C113.151 40.3551 113.529 40.2298 113.717 39.9792C113.906 39.7285 114.032 39.4465 114.158 39.1332C114.283 38.8199 114.409 38.4752 114.598 38.1306C114.786 37.7859 115.195 37.5353 115.824 37.3786C116.044 36.5953 116.264 35.9374 116.516 35.3421C116.767 34.7781 117.27 34.3395 118.056 34.0575C118.056 33.9948 117.836 34.1515 117.364 34.5275C116.893 34.9034 116.641 35.1541 116.578 35.2168C116.516 35.4361 116.358 35.7807 116.107 36.282C115.855 36.7833 115.541 37.316 115.195 37.8799C114.849 38.4439 114.472 38.9765 114.063 39.4778C113.686 39.9792 113.309 40.2611 112.931 40.3238L112.9 40.3551ZM112.806 40.2298C112.806 40.2298 112.743 40.3238 112.586 40.3238H112.9L112.806 40.2298ZM112.9 40.3551C112.9 40.3551 113.214 40.2298 113.434 40.1985C113.654 40.1671 113.812 40.0731 113.969 39.9478C113.749 40.0105 113.56 40.0731 113.372 40.1045C113.183 40.1358 112.994 40.1985 112.774 40.2611L112.868 40.3551H112.9ZM113.969 39.9165C114.095 39.5718 114.189 39.1959 114.22 38.7886C114.252 38.4126 114.346 38.0366 114.472 37.6606C114.315 38.0053 114.22 38.3812 114.158 38.7886C114.095 39.1645 114 39.5405 113.937 39.9165H113.969ZM116.421 35.2168C116.264 35.5614 116.17 35.9374 116.107 36.282C116.044 36.6267 115.918 37.0027 115.792 37.3473C116.075 36.7207 116.327 36 116.547 35.2168H116.453H116.421ZM116.547 35.2168C116.547 35.2168 116.767 34.9348 116.799 34.8408C116.83 34.7468 116.924 34.6215 117.05 34.4648C116.893 34.5275 116.704 34.7781 116.421 35.2168H116.516H116.547ZM117.93 34.1515L116.956 34.4648C116.956 34.4648 117.27 34.3708 117.49 34.3708C117.71 34.3708 117.867 34.3395 118.025 34.2768L117.93 34.1828V34.1515ZM118.025 34.2768V34.0575L117.93 34.1515L118.025 34.2455V34.2768ZM133.556 47.2794V46.9661L133.462 47.0601V47.2794H133.556Z" fill="#F9FEFB"/>
<path d="M156.067 32.0211C154.778 34.8096 153.552 37.5041 152.389 40.136C151.194 42.7678 149.999 45.431 148.805 48.1569C147.956 48.1569 147.327 48.0629 146.918 47.8749C146.541 47.6869 146.321 47.1542 146.321 46.2143C146.321 45.6503 146.384 44.867 146.541 43.8644C146.667 42.8618 146.887 41.5459 147.17 39.9167C143.24 43.2691 139.75 46.8096 136.732 50.6007C133.682 54.3605 131.387 58.7156 129.815 63.6347C128.4 63.1334 127.331 62.6007 126.608 62.0368C125.885 61.4728 125.539 60.6895 125.539 59.6869C125.539 59.0603 125.759 58.183 126.199 57.1177C128.117 52.418 130.098 47.8435 132.141 43.3631C134.185 38.8827 136.323 34.4023 138.618 29.9219C139.53 30.6425 140.316 31.2378 140.976 31.6764C141.605 32.1464 142.234 32.5851 142.8 33.0237C141.353 35.5929 139.907 38.0994 138.461 40.5433C136.983 42.9871 135.537 45.4623 134.122 47.9689L134.562 48.1882C137.046 45.4937 139.561 42.7678 142.108 40.0733C144.655 37.3788 147.264 34.6529 149.968 31.9584C150.974 30.9558 151.98 30.4545 152.955 30.4545C154.024 30.4545 155.061 30.9871 156.067 32.0524V32.0211Z" fill="#F9FEFB"/>
<path d="M153.049 62.1304C153.615 61.4724 154.495 60.5638 155.722 59.3419C156.948 58.1199 158.174 56.8667 159.463 55.5507C160.752 54.2348 162.01 52.9815 163.204 51.7596C164.431 50.5377 165.311 49.6291 165.877 48.9711C166.16 49.1278 166.348 49.2531 166.411 49.4097C165.908 50.1304 165.122 51.1016 163.99 52.3862C162.89 53.6708 161.695 55.0181 160.469 56.428C159.243 57.8379 158.048 59.2165 156.948 60.4698C155.847 61.7544 155.03 62.757 154.527 63.4463C154.181 63.509 153.835 63.5716 153.552 63.603C153.269 63.6343 152.986 63.6656 152.703 63.6656C150.408 63.6656 149.276 62.6003 149.276 60.4698C149.276 58.3392 149.591 56.0834 150.188 53.9215C150.786 51.7596 151.54 49.6291 152.452 47.5298C153.332 45.4306 154.338 43.3627 155.439 41.3262C156.539 39.2896 157.639 37.3471 158.708 35.4985C158.991 34.9972 159.4 34.5272 159.935 34.0573C160.469 33.5873 160.909 33.368 161.287 33.368C161.852 33.4933 162.387 33.8379 162.89 34.3392C163.393 34.8406 163.928 35.3105 164.493 35.7178C163.204 37.8484 161.915 39.9476 160.626 42.0155C159.337 44.0834 158.143 46.1513 157.042 48.2191C155.942 50.287 154.967 52.4176 154.087 54.6108C153.206 56.804 152.578 59.0912 152.169 61.4411C152.609 61.7231 152.892 61.9424 153.018 62.099L153.049 62.1304ZM163.77 32.24C163.33 31.5194 162.921 30.9241 162.544 30.4228C162.167 29.9215 161.852 29.4515 161.695 29.0442C161.507 28.6056 161.475 28.1983 161.601 27.7596C161.695 27.321 162.073 26.851 162.733 26.2557C163.299 25.6917 164.148 25.2531 165.248 24.9084C166.348 24.5951 167.292 24.8144 168.078 25.5977C168.581 26.1617 168.832 26.6317 168.832 26.9763C168.832 27.321 168.738 27.6656 168.518 27.9789C168.298 28.2922 168.015 28.5742 167.669 28.8249C167.323 29.0755 166.977 29.3575 166.694 29.6395C165.845 30.4228 164.871 31.2687 163.802 32.2087L163.77 32.24Z" fill="#F9FEFB"/>
<path d="M193.859 47.2794C191.344 50.1306 188.514 52.8564 185.338 55.457C182.163 58.0575 178.862 60.2194 175.435 61.9113C174.523 62.4126 173.58 62.8199 172.637 63.1332C171.693 63.4465 170.782 63.6032 169.838 63.6032C168.769 63.6032 167.795 63.3525 166.946 62.8512C166.097 62.3499 165.374 61.7233 164.745 60.9713C164.148 60.2194 163.645 59.4047 163.299 58.5275C162.953 57.6502 162.764 56.8042 162.764 56.0209C162.764 54.517 163.11 52.8564 163.77 51.0079C164.462 49.1593 165.342 47.2481 166.443 45.3055C167.543 43.363 168.769 41.4517 170.153 39.6032C171.536 37.7546 172.888 36.094 174.271 34.6528C175.655 33.1802 176.975 32.0209 178.233 31.1436C179.491 30.2664 180.528 29.7964 181.377 29.7964C182.163 29.7964 182.886 30.0157 183.578 30.4544C184.269 30.893 184.867 31.3943 185.401 31.9896C185.936 32.5849 186.376 33.2742 186.69 34.0262C187.005 34.7781 187.162 35.4674 187.162 36.1254C187.162 37.6293 186.627 39.2585 185.621 41.0758C184.615 42.893 183.326 44.5849 181.817 46.1515C180.308 47.7181 178.736 49.034 177.101 50.0993C175.466 51.1645 174.02 51.6972 172.825 51.6972C171.316 51.6972 169.933 51.0079 168.644 49.6606C168.424 50.6006 168.109 51.5405 167.732 52.5431C167.355 53.5457 167.009 54.4857 166.757 55.4256C166.506 56.3342 166.443 57.1802 166.537 57.9322C166.631 58.6841 167.072 59.2794 167.763 59.6867C168.329 60.0314 168.612 60.282 168.612 60.376C168.612 60.47 168.864 60.5327 169.367 60.5327C169.807 60.5327 170.216 60.47 170.656 60.3134C172.008 59.6554 173.706 58.8094 175.686 57.7442C177.667 56.6789 179.742 55.551 181.911 54.329C184.049 53.1071 186.187 51.8852 188.294 50.6319C190.4 49.3786 192.287 48.282 193.922 47.2794H193.827H193.859ZM170.404 48.564C171.316 48.564 172.479 48.0627 173.894 47.0601C175.278 46.0575 176.629 44.8669 177.95 43.4256C179.27 41.9844 180.402 40.5118 181.377 38.9452C182.352 37.3786 182.855 36 182.918 34.7781C181.911 35.0601 180.811 35.6867 179.585 36.658C178.359 37.6293 177.164 38.7572 176.001 40.0731C174.837 41.3891 173.706 42.799 172.668 44.3029C171.63 45.8068 170.876 47.2168 170.373 48.564H170.404ZM173.297 40.3551H172.982C173.548 40.3551 173.926 40.2298 174.114 39.9792C174.303 39.7285 174.429 39.4465 174.554 39.1332C174.68 38.8199 174.806 38.4752 174.995 38.1306C175.183 37.7859 175.592 37.5353 176.221 37.3786C176.441 36.5953 176.661 35.9374 176.912 35.3421C177.164 34.7781 177.667 34.3395 178.453 34.0575C178.453 33.9948 178.233 34.1515 177.761 34.5275C177.29 34.9034 177.038 35.1541 176.975 35.2168C176.912 35.4361 176.755 35.7807 176.504 36.282C176.252 36.7833 175.938 37.316 175.592 37.8799C175.246 38.4439 174.869 38.9765 174.46 39.4778C174.083 39.9792 173.706 40.2611 173.328 40.3238L173.297 40.3551ZM173.202 40.2298C173.202 40.2298 173.14 40.3238 172.982 40.3238H173.297L173.202 40.2298ZM173.297 40.3551C173.297 40.3551 173.611 40.2298 173.831 40.1985C174.051 40.1671 174.209 40.0731 174.366 39.9478C174.146 40.0105 173.957 40.0731 173.768 40.1045C173.58 40.1358 173.391 40.1985 173.171 40.2611L173.265 40.3551H173.297ZM174.366 39.9165C174.492 39.5718 174.586 39.1959 174.617 38.7886C174.649 38.4126 174.743 38.0366 174.869 37.6606C174.712 38.0053 174.617 38.3812 174.554 38.7886C174.492 39.1645 174.397 39.5405 174.334 39.9165H174.366ZM176.85 35.2168C176.692 35.5614 176.598 35.9374 176.535 36.282C176.472 36.6267 176.346 37.0027 176.221 37.3473C176.504 36.7207 176.755 36 176.975 35.2168H176.881H176.85ZM176.944 35.2168C176.944 35.2168 177.164 34.9348 177.195 34.8408C177.227 34.7468 177.321 34.6215 177.447 34.4648C177.29 34.5275 177.101 34.7781 176.818 35.2168H176.912H176.944ZM178.327 34.1515L177.353 34.4648C177.353 34.4648 177.667 34.3708 177.887 34.3708C178.107 34.3708 178.264 34.3395 178.422 34.2768L178.327 34.1828V34.1515ZM178.453 34.2768V34.0575L178.359 34.1515L178.453 34.2455V34.2768ZM193.984 47.2794V46.9661L193.89 47.0601V47.2794H193.984Z" fill="#F9FEFB"/>
<path d="M210.805 60.6267C211.434 60.188 212.346 59.3734 213.54 58.1828C214.735 56.9609 215.93 55.6763 217.187 54.2977C218.445 52.9191 219.64 51.6032 220.772 50.4126C221.903 49.1906 222.815 48.376 223.444 47.9687L224.073 48.282C223.507 49.0026 222.658 50.1619 221.558 51.7912C220.457 53.4204 219.262 55.1123 217.973 56.8042C216.684 58.5274 215.427 60 214.232 61.2846C213.006 62.5692 212.031 63.1959 211.245 63.1959C210.616 63.1959 209.956 63.0079 209.264 62.6632C208.573 62.3186 207.975 61.8486 207.441 61.316C206.906 60.7833 206.466 60.1567 206.152 59.4361C205.837 58.7154 205.68 58.0575 205.68 57.3995C205.68 56.5536 205.869 55.5823 206.215 54.517C206.561 53.4517 206.969 52.3551 207.441 51.2585C207.912 50.1619 208.416 49.0653 208.95 47.9374C209.485 46.8408 209.956 45.8695 210.396 44.9922C211.182 43.3003 211.968 41.6084 212.817 39.9165C213.635 38.2559 214.358 36.5327 215.018 34.7468C209.956 39.3838 205.272 44.2716 200.996 49.41C196.72 54.5797 192.727 59.9687 188.985 65.5771C186.407 64.6371 185.118 63.2272 185.118 61.316C185.118 61.034 185.15 60.7833 185.213 60.5327C185.275 60.282 185.401 59.9687 185.527 59.6241C187.382 55.363 189.3 51.0705 191.249 46.7781C193.198 42.4857 195.242 38.0053 197.286 33.3682C198.292 33.8695 199.172 34.3081 199.958 34.7154C200.744 35.1227 201.562 35.4674 202.41 35.8434C200.618 39.1019 198.921 42.2977 197.317 45.3368C195.714 48.4073 194.079 51.4152 192.444 54.423C192.601 54.4857 192.664 54.5483 192.695 54.5797C192.727 54.611 192.821 54.6737 192.978 54.7363C195.777 51.6032 198.543 48.5013 201.279 45.4622C204.014 42.423 206.781 39.3525 209.579 36.282C210.585 35.1541 211.78 34.0575 213.163 33.0235C214.546 31.9896 215.93 31.4883 217.282 31.4883C218.068 31.4883 218.728 31.5823 219.325 31.8016C219.923 32.0209 220.174 32.8042 220.174 34.1515C220.174 34.8721 220.08 35.4361 219.86 35.8434C218.225 39.8851 216.496 43.8643 214.672 47.7494C212.849 51.6345 211.214 55.7076 209.799 59.9687C210.082 60.3133 210.396 60.5327 210.774 60.5953L210.805 60.6267Z" fill="#F9FEFB"/>
<path d="M242.182 34.59C242.245 35.3106 242.151 35.9059 241.868 36.3445C241.585 36.7832 241.019 37.0338 240.17 37.0338C239.73 36.5952 239.384 36.2192 239.101 35.9059C238.818 35.5926 238.535 35.2479 238.252 34.9033C236.555 35.6239 234.888 36.8145 233.285 38.5377C231.681 40.261 230.235 42.1722 228.946 44.3654C227.657 46.5273 226.619 48.7832 225.833 51.133C225.047 53.4829 224.639 55.6135 224.639 57.5247C224.639 59.0286 224.922 60.3445 225.488 61.4725C227.5 61.1278 229.481 60.4072 231.43 59.3419C233.379 58.2766 235.297 57.0547 237.152 55.7075C239.007 54.3602 240.83 52.9816 242.654 51.603C244.478 50.2244 246.207 49.0025 247.842 47.9372C247.559 48.6578 247.307 49.1591 247.087 49.4411C246.081 50.6631 244.918 51.9477 243.566 53.2949C242.214 54.6422 240.799 55.9894 239.321 57.3054C237.844 58.6213 236.334 59.8746 234.762 61.0338C233.19 62.2244 231.681 63.1957 230.267 63.979C229.26 64.4803 228.349 64.7309 227.468 64.7309C226.399 64.7309 225.425 64.4803 224.513 63.9163C223.601 63.3837 222.847 62.6631 222.155 61.7858C221.463 60.9085 220.929 59.8746 220.551 58.684C220.174 57.4933 219.954 56.2714 219.954 54.9868C219.954 52.7936 220.551 50.2558 221.715 47.4046C222.878 44.5534 224.324 41.8589 226.054 39.2897C227.783 36.7205 229.606 34.59 231.556 32.8354C233.505 31.0808 235.297 30.2349 236.869 30.2349C238.441 30.2349 240.265 31.7074 242.12 34.6213L242.182 34.59Z" fill="#F9FEFB"/>
<path d="M273.874 47.2794C271.359 50.1306 268.529 52.8564 265.354 55.457C262.178 58.0575 258.877 60.2194 255.45 61.9113C254.538 62.4126 253.595 62.8199 252.652 63.1332C251.709 63.4465 250.797 63.6032 249.854 63.6032C248.785 63.6032 247.81 63.3525 246.961 62.8512C246.112 62.3499 245.389 61.7233 244.761 60.9713C244.163 60.2194 243.66 59.4047 243.314 58.5275C242.968 57.6502 242.78 56.8042 242.78 56.0209C242.78 54.517 243.126 52.8564 243.786 51.0079C244.478 49.1593 245.358 47.2481 246.458 45.3055C247.559 43.363 248.785 41.4517 250.168 39.6032C251.552 37.7546 252.904 36.094 254.287 34.6528C255.67 33.1802 256.991 32.0209 258.248 31.1436C259.506 30.2664 260.544 29.7964 261.392 29.7964C262.178 29.7964 262.902 30.0157 263.593 30.4544C264.285 30.893 264.882 31.3943 265.417 31.9896C265.951 32.5849 266.391 33.2742 266.706 34.0262C267.02 34.7781 267.177 35.4674 267.177 36.1254C267.177 37.6293 266.643 39.2585 265.637 41.0758C264.631 42.893 263.342 44.5849 261.833 46.1515C260.323 47.7181 258.751 49.034 257.117 50.0993C255.482 51.1645 254.035 51.6972 252.841 51.6972C251.332 51.6972 249.948 51.0079 248.659 49.6606C248.439 50.6006 248.125 51.5405 247.747 52.5431C247.37 53.5457 247.024 54.4857 246.773 55.4256C246.521 56.3342 246.458 57.1802 246.553 57.9322C246.647 58.6841 247.087 59.2794 247.779 59.6867C248.345 60.0314 248.628 60.282 248.628 60.376C248.628 60.47 248.879 60.5327 249.382 60.5327C249.822 60.5327 250.231 60.47 250.671 60.3134C252.023 59.6554 253.721 58.8094 255.702 57.7442C257.682 56.6789 259.758 55.551 261.927 54.329C264.065 53.1071 266.203 51.8852 268.309 50.6319C270.416 49.3786 272.302 48.282 273.937 47.2794H273.843H273.874ZM250.42 48.564C251.332 48.564 252.495 48.0627 253.91 47.0601C255.293 46.0575 256.645 44.8669 257.965 43.4256C259.286 41.9844 260.418 40.5118 261.392 38.9452C262.367 37.3786 262.87 36 262.933 34.7781C261.927 35.0601 260.827 35.6867 259.6 36.658C258.374 37.6293 257.179 38.7572 256.016 40.0731C254.853 41.3891 253.721 42.799 252.683 44.3029C251.646 45.8068 250.891 47.2168 250.388 48.564H250.42ZM253.312 40.3551H252.998C253.564 40.3551 253.941 40.2298 254.13 39.9792C254.318 39.7285 254.444 39.4465 254.57 39.1332C254.696 38.8199 254.821 38.4752 255.01 38.1306C255.199 37.7859 255.607 37.5353 256.236 37.3786C256.456 36.5953 256.676 35.9374 256.928 35.3421C257.179 34.7781 257.682 34.3395 258.468 34.0575C258.468 33.9948 258.248 34.1515 257.777 34.5275C257.305 34.9034 257.054 35.1541 256.991 35.2168C256.928 35.4361 256.771 35.7807 256.519 36.282C256.268 36.7833 255.953 37.316 255.607 37.8799C255.262 38.4439 254.884 38.9765 254.476 39.4778C254.098 39.9792 253.721 40.2611 253.344 40.3238L253.312 40.3551ZM253.218 40.2298C253.218 40.2298 253.155 40.3238 252.998 40.3238H253.312L253.218 40.2298ZM253.312 40.3551C253.312 40.3551 253.627 40.2298 253.847 40.1985C254.067 40.1671 254.224 40.0731 254.381 39.9478C254.161 40.0105 253.973 40.0731 253.784 40.1045C253.595 40.1358 253.407 40.1985 253.187 40.2611L253.281 40.3551H253.312ZM254.381 39.9165C254.507 39.5718 254.601 39.1959 254.633 38.7886C254.664 38.4126 254.759 38.0366 254.884 37.6606C254.727 38.0053 254.633 38.3812 254.57 38.7886C254.507 39.1645 254.413 39.5405 254.35 39.9165H254.381ZM256.834 35.2168C256.676 35.5614 256.582 35.9374 256.519 36.282C256.456 36.6267 256.331 37.0027 256.205 37.3473C256.488 36.7207 256.739 36 256.959 35.2168H256.865H256.834ZM256.959 35.2168C256.959 35.2168 257.179 34.9348 257.211 34.8408C257.242 34.7468 257.337 34.6215 257.462 34.4648C257.305 34.5275 257.117 34.7781 256.834 35.2168H256.928H256.959ZM258.343 34.1515L257.368 34.4648C257.368 34.4648 257.682 34.3708 257.903 34.3708C258.123 34.3708 258.28 34.3395 258.437 34.2768L258.343 34.1828V34.1515ZM258.468 34.2768V34.0575L258.374 34.1515L258.468 34.2455V34.2768ZM274 47.2794V46.9661L273.906 47.0601V47.2794H274Z" fill="#F9FEFB"/>
</g>
<defs>
<clipPath id="clip0_278_4">
<rect width="253" height="84" fill="white" transform="translate(21)"/>
</clipPath>
</defs>
</svg>
