<svg width="41" height="41" viewBox="0 0 41 41" fill="none" xmlns="http://www.w3.org/2000/svg">
<path d="M30.48 10.43C30.19 10.43 29.91 10.45 29.63 10.47C29.65 10.19 29.67 9.89999 29.67 9.62C29.67 4.31 25.36 0 20.05 0C14.74 0 10.43 4.31 10.43 9.62C10.43 9.91 10.45 10.19 10.47 10.47C10.19 10.45 9.9 10.43 9.62 10.43C4.31 10.43 0 14.74 0 20.05C0 25.36 4.31 29.67 9.62 29.67C9.91 29.67 10.19 29.66 10.47 29.63C10.45 29.91 10.43 30.2 10.43 30.48C10.43 35.79 14.74 40.1 20.05 40.1C25.36 40.1 29.67 35.79 29.67 30.48C29.67 30.19 29.65 29.91 29.63 29.63C29.91 29.65 30.2 29.67 30.48 29.67C35.79 29.67 40.1 25.36 40.1 20.05C40.1 14.74 35.79 10.43 30.48 10.43ZM20.05 31.73C13.66 31.73 8.47 26.55 8.47 20.15C8.47 13.75 13.65 8.57001 20.05 8.57001C26.45 8.57001 31.63 13.75 31.63 20.15C31.63 26.55 26.45 31.73 20.05 31.73Z" fill="white"/>
</svg>
