<svg width="31" height="32" viewBox="0 0 31 32" fill="none" xmlns="http://www.w3.org/2000/svg">
<path d="M31 27.7512V29.4524C31 29.4524 30.9547 29.4977 30.9547 29.5204C30.6373 30.5298 29.9913 31.0288 28.9486 31.0288C21.1058 31.0288 13.2744 31.0288 5.43159 31.0288C4.57025 31.0288 3.95824 30.5071 3.82224 29.6452C3.68623 28.7719 3.57289 27.8873 3.45956 27.0027C3.14222 24.7005 2.83621 22.4097 2.51887 20.1075C2.1902 17.6692 1.85019 15.2309 1.52152 12.7926C1.39685 11.8853 1.27219 10.978 1.14753 10.0707C0.569517 9.98001 0.138836 9.70783 0.059501 9.14078C-0.0198336 8.6191 -0.0198336 8.07474 0.059501 7.54171C0.138836 6.94064 0.66017 6.61176 1.36285 6.61176C4.07156 6.61176 6.79161 6.61176 9.50032 6.61176C9.61366 6.61176 9.72698 6.61176 9.86298 6.60042C9.86298 6.45298 9.86298 6.35092 9.86298 6.23751C9.86298 5.08073 9.86298 3.91262 9.86298 2.75584C9.86298 1.97332 10.2597 1.46298 11.019 1.27018C11.7784 1.06605 12.5377 0.873251 13.297 0.669114C14.1131 0.453637 14.9291 0.226818 15.7338 0C15.9151 0 16.0964 0 16.2778 0C16.3458 0.0226818 16.4138 0.0453638 16.4704 0.0680456C17.1164 0.294864 17.5131 0.86191 17.4905 1.55371C17.4678 2.20014 17.0371 2.72182 16.3458 2.90328C15.1671 3.22082 13.9884 3.52703 12.8097 3.83323V6.61176C12.9457 6.61176 13.0704 6.61176 13.195 6.61176C15.1784 6.61176 17.1731 6.61176 19.1565 6.61176C19.6665 6.61176 20.1878 6.61176 20.6978 6.61176C21.4685 6.6231 21.9559 7.1221 21.9672 7.89328C21.9672 8.17681 21.9672 8.46033 21.9672 8.74385C21.9672 9.42431 21.6498 9.83258 20.9925 10.0254C20.9245 10.0481 20.8225 10.0934 20.8112 10.1388C20.7205 10.7172 20.6412 11.3069 20.5618 11.9193C20.8225 11.9193 21.0265 11.9193 21.2418 11.9193C23.2252 11.9874 25.1179 12.3843 26.8859 13.3142C28.654 14.2555 30.014 15.5824 30.6487 17.5331C30.8073 18.0321 30.8867 18.5537 31 19.0527V20.6291C30.762 21.1848 30.3766 21.5251 29.7306 21.5137C29.674 21.5137 29.5833 21.5931 29.572 21.6498C29.504 21.8766 29.4586 22.1148 29.4133 22.3416C29.436 22.3643 29.4473 22.3756 29.47 22.387C30.2293 22.7045 30.6827 23.2602 30.694 24.0881C30.7053 24.9387 30.2746 25.5171 29.504 25.846C29.4473 25.8686 29.368 25.9367 29.368 25.9821C29.368 26.3563 29.368 26.7419 29.368 27.1161C30.0026 27.1615 30.6827 26.946 31 27.7172V27.7512ZM19.9045 10.0594C19.7571 10.0594 19.6551 10.0594 19.5418 10.0594C17.2411 10.0594 14.9404 10.0594 12.6397 10.0594C12.2317 10.0594 12.0164 9.91197 12.005 9.6171C12.005 9.32224 12.2204 9.15212 12.651 9.15212C13.3764 9.15212 14.1017 9.15212 14.8271 9.15212C16.7538 9.15212 18.6805 9.15212 20.6072 9.15212C20.9698 9.15212 21.0492 9.07274 21.0605 8.70983C21.0605 8.51703 21.0605 8.32424 21.0605 8.13144C21.0605 7.56439 21.0152 7.51903 20.4598 7.51903C14.1357 7.51903 7.81162 7.51903 1.48752 7.51903C1.41952 7.51903 1.35153 7.51903 1.2722 7.51903C1.02286 7.51903 0.898181 7.64378 0.909515 7.89328C0.909515 8.13144 0.909515 8.38094 0.909515 8.6191C0.909515 9.08408 0.954856 9.14078 1.43086 9.14078C4.30958 9.14078 7.17696 9.14078 10.0557 9.14078C10.169 9.14078 10.2823 9.14078 10.3843 9.15212C10.6223 9.20883 10.7583 9.3676 10.747 9.60576C10.747 9.84392 10.5997 9.99135 10.3503 10.0367C10.2483 10.0481 10.1463 10.0367 10.0443 10.0367C7.50562 10.0367 4.95558 10.0367 2.41687 10.0367H2.05419C2.4622 13.0421 2.87021 15.9907 3.26689 18.9393C3.33489 18.9393 3.36889 18.9393 3.39156 18.928C6.05493 18.0321 8.71831 17.1475 11.3817 16.2402C11.495 16.2062 11.6084 16.1041 11.6764 16.002C12.277 15.0948 13.0364 14.3576 13.9431 13.7679C15.5977 12.6905 17.4338 12.1688 19.3718 11.976C19.5191 11.9647 19.6438 11.976 19.6665 11.7605C19.7345 11.2048 19.8138 10.6378 19.8932 10.0367L19.9045 10.0594ZM20.8225 20.6291C23.7239 20.6291 26.6366 20.6291 29.538 20.6291C29.6286 20.6291 29.7193 20.6291 29.81 20.6291C30.0026 20.6178 30.0933 20.5157 30.1046 20.3229C30.1273 19.495 30.082 18.6672 29.81 17.8733C29.2546 16.1722 28.1099 14.9587 26.5459 14.1988C22.8399 12.3729 19.0545 12.3389 15.3257 14.0968C12.8324 15.2649 11.4724 17.2722 11.5404 20.1188C11.5517 20.6178 11.5744 20.6405 12.0844 20.6405C14.9971 20.6405 17.9098 20.6405 20.8338 20.6405L20.8225 20.6291ZM11.5404 28.0688C11.5404 28.3523 11.5404 28.6018 11.5404 28.8513C11.5404 29.7359 11.9144 30.0988 12.787 30.0988C18.1478 30.0988 23.4972 30.0988 28.858 30.0988C28.96 30.0988 29.062 30.0988 29.164 30.0988C29.6513 30.0534 30.048 29.6905 30.0933 29.2142C30.1273 28.84 30.0933 28.4771 30.0933 28.0688H29.7193C27.4186 28.0688 25.1179 28.0688 22.8172 28.0688C22.7039 28.0688 22.5905 28.0688 22.4885 28.0574C22.2618 28.0234 22.1259 27.8873 22.1145 27.6492C22.0919 27.411 22.2165 27.2409 22.4545 27.1842C22.5679 27.1615 22.6925 27.1615 22.8172 27.1615C24.5852 27.1615 26.3419 27.1615 28.1099 27.1615H28.45V26.0161H13.2064V27.1615C13.3537 27.1615 13.4671 27.1615 13.5917 27.1615C15.7904 27.1615 17.9891 27.1615 20.1878 27.1615C20.3125 27.1615 20.4372 27.1615 20.5505 27.1955C20.7772 27.2522 20.8792 27.4224 20.8678 27.6492C20.8565 27.876 20.7318 28.0234 20.4938 28.0574C20.3805 28.0801 20.2558 28.0688 20.1312 28.0688C17.4111 28.0688 14.6797 28.0688 11.9597 28.0688C11.835 28.0688 11.7217 28.0688 11.5404 28.0688ZM11.0417 17.3516C8.45764 18.2135 5.9416 19.0641 3.41423 19.9147C3.73157 22.2509 4.0489 24.5644 4.36624 26.9007C6.58761 26.1295 8.77497 25.3696 10.9623 24.6098C10.8037 23.5211 11.2457 22.7839 12.2204 22.3756C12.1524 22.0921 12.0844 21.8313 12.0164 21.5591C11.9824 21.5591 11.937 21.5364 11.903 21.5364C11.0077 21.457 10.6337 21.0601 10.6223 20.1528C10.6223 19.2229 10.6903 18.3042 11.0303 17.3403L11.0417 17.3516ZM19.2358 23.4303C19.1678 23.487 19.0998 23.5324 19.0318 23.5778C18.1705 24.1902 17.1504 24.1902 16.3004 23.5778C16.1191 23.4417 16.0058 23.4644 15.8244 23.5778C14.8837 24.1335 13.7617 24.0541 12.9457 23.385C12.7644 23.2376 12.6057 23.2489 12.4244 23.3169C12.073 23.453 11.8237 23.8159 11.8237 24.1902C11.8237 24.5644 12.073 24.9273 12.4357 25.0408C12.583 25.0861 12.753 25.0975 12.9117 25.0975C18.1705 25.0975 23.4405 25.0975 28.6993 25.0975C28.79 25.0975 28.8806 25.0975 28.9713 25.0975C29.3906 25.0521 29.742 24.7005 29.7873 24.2809C29.8326 23.85 29.5833 23.4303 29.1753 23.3169C29.0393 23.2716 28.824 23.2943 28.7106 23.3736C27.8039 24.0654 26.7273 24.1448 25.7412 23.5551C25.5826 23.4644 25.4919 23.4644 25.3446 23.5778C24.7779 23.9974 24.1432 24.1788 23.4632 23.986C23.0779 23.884 22.7152 23.6685 22.3185 23.4871C21.3098 24.2582 20.2672 24.2355 19.2245 23.4417L19.2358 23.4303ZM4.49091 27.8193C4.57024 28.3977 4.63824 28.9307 4.7289 29.4751C4.80824 29.94 5.02358 30.1101 5.49959 30.1101C7.21095 30.1101 8.92231 30.1101 10.645 30.1101C10.7243 30.1101 10.815 30.0988 10.8603 30.0988C10.781 29.7926 10.679 29.5204 10.6563 29.2369C10.6223 28.8626 10.6337 28.4884 10.6337 28.1141C10.6337 27.4564 10.917 27.1728 11.5744 27.1615C11.801 27.1615 12.0277 27.1615 12.2657 27.1615C12.2657 26.9007 12.243 26.6965 12.2657 26.5037C12.311 26.1295 12.2657 25.8346 11.8237 25.7326C11.7444 25.7099 11.665 25.6418 11.6084 25.5738C11.4837 25.4263 11.3477 25.4377 11.1777 25.4944C9.82899 25.9707 8.48031 26.4357 7.13162 26.9007C6.25894 27.2069 5.38626 27.5131 4.49091 27.8193ZM28.6313 21.5591H12.9797C13.0704 22.3643 13.5691 22.9087 14.3171 22.9994C14.8157 23.0561 15.2464 22.9087 15.6431 22.5911C16.0058 22.3076 16.2438 22.3189 16.5838 22.6138C17.3318 23.2829 18.0005 23.2943 18.7598 22.6251C19.1338 22.2963 19.3945 22.2963 19.7572 22.6251C20.4598 23.2716 21.1965 23.2716 21.9105 22.6251C22.2619 22.2963 22.5225 22.2963 22.8852 22.6138C23.6672 23.2943 24.3246 23.2829 25.0726 22.6138C25.3899 22.3303 25.6166 22.3303 25.9679 22.5571C26.1606 22.6932 26.3646 22.8406 26.5913 22.9087C27.5999 23.2602 28.654 22.5684 28.6426 21.5478L28.6313 21.5591ZM11.8917 6.61176C11.8917 6.46433 11.8917 6.36226 11.8917 6.24885C11.8917 5.38694 11.8917 4.53637 11.8917 3.67446C11.8917 3.22082 11.971 3.11875 12.413 3.00534C13.6257 2.6878 14.8497 2.37025 16.0624 2.05271C16.4591 1.95064 16.6631 1.66712 16.5724 1.32689C16.4818 0.998001 16.1871 0.850569 15.7678 0.963978C14.2717 1.34957 12.7644 1.7465 11.2683 2.13209C10.883 2.23416 10.7583 2.39293 10.7583 2.80121C10.7583 3.992 10.7583 5.1828 10.7583 6.3736C10.7583 6.45298 10.7697 6.52103 10.781 6.60042H11.869L11.8917 6.61176Z" fill="white"/>
<path d="M15.5524 16.6371C15.5524 16.8753 15.3484 17.0794 15.1104 17.0794C14.8497 17.0794 14.6457 16.8753 14.6571 16.6258C14.6571 16.3763 14.8497 16.1835 15.0991 16.1835C15.3484 16.1835 15.5637 16.399 15.5637 16.6485L15.5524 16.6371Z" fill="white"/>
<path d="M18.4085 16.6371C18.4085 16.8753 18.2158 17.0794 17.9664 17.0908C17.7171 17.0908 17.5018 16.898 17.5018 16.6371C17.5018 16.399 17.6944 16.1948 17.9324 16.1835C18.1818 16.1835 18.3971 16.3876 18.3971 16.6371H18.4085Z" fill="white"/>
<path d="M20.8112 16.1835C21.0605 16.1835 21.2645 16.399 21.2532 16.6598C21.2532 16.9093 21.0492 17.0908 20.7998 17.0908C20.5505 17.0908 20.3352 16.8753 20.3465 16.6258C20.3465 16.3876 20.5618 16.1835 20.7998 16.1835H20.8112Z" fill="white"/>
<path d="M22.7039 18.8146C22.7039 19.0641 22.4772 19.2682 22.2279 19.2569C21.9899 19.2569 21.7972 19.0527 21.7972 18.8032C21.7972 18.5651 21.9899 18.361 22.2392 18.3496C22.4885 18.3496 22.7039 18.5651 22.7039 18.8032V18.8146Z" fill="white"/>
<path d="M27.9513 18.361C28.2006 18.361 28.4047 18.5764 28.3933 18.8373C28.3933 19.0754 28.1893 19.2682 27.94 19.2682C27.6906 19.2682 27.4753 19.0528 27.4866 18.8033C27.4866 18.5651 27.702 18.361 27.94 18.361H27.9513Z" fill="white"/>
<path d="M23.6786 16.1835C23.9279 16.1835 24.1319 16.4103 24.1206 16.6598C24.1206 16.9093 23.9166 17.0908 23.6672 17.0908C23.4066 17.0908 23.2026 16.8639 23.2139 16.6144C23.2252 16.3763 23.4406 16.1721 23.6786 16.1835Z" fill="white"/>
<path d="M14.1244 18.8033C14.1244 19.0528 13.9431 19.2456 13.7051 19.2682C13.4557 19.2796 13.2291 19.0754 13.2291 18.8259C13.2291 18.5764 13.4444 18.361 13.6824 18.361C13.9204 18.361 14.1131 18.5651 14.1244 18.8033Z" fill="white"/>
<path d="M19.3945 19.2682C19.1338 19.2682 18.9412 19.0641 18.9412 18.8033C18.9412 18.5651 19.1452 18.361 19.3832 18.361C19.6325 18.361 19.8478 18.5764 19.8365 18.8259C19.8365 19.0641 19.6325 19.2569 19.3832 19.2682H19.3945Z" fill="white"/>
<path d="M25.1065 18.361C25.3559 18.361 25.5712 18.5878 25.5599 18.8373C25.5599 19.0754 25.3446 19.2682 25.1065 19.2682C24.8572 19.2682 24.6532 19.0528 24.6532 18.8033C24.6532 18.5651 24.8685 18.361 25.1065 18.361Z" fill="white"/>
<path d="M19.4059 14.0174C19.6439 14.0287 19.8365 14.2442 19.8365 14.4823C19.8365 14.7432 19.6212 14.936 19.3605 14.9246C19.0998 14.9246 18.9185 14.7092 18.9412 14.437C18.9638 14.1988 19.1679 14.006 19.4059 14.0174Z" fill="white"/>
<path d="M22.6925 14.4597C22.6925 14.7092 22.4885 14.9247 22.2392 14.9247C21.9899 14.9247 21.7972 14.7432 21.7972 14.4937C21.7972 14.2329 21.9899 14.0174 22.2392 14.0174C22.4772 14.0174 22.6812 14.2215 22.6925 14.4597Z" fill="white"/>
<path d="M16.5271 19.2682C16.2665 19.2682 16.0738 19.0527 16.0851 18.8032C16.0851 18.5651 16.3005 18.361 16.5385 18.3723C16.7878 18.3723 16.9918 18.5878 16.9805 18.8486C16.9805 19.0981 16.7765 19.2796 16.5271 19.2796V19.2682Z" fill="white"/>
<path d="M26.5233 17.0908C26.2626 17.0908 26.07 16.8753 26.0813 16.6258C26.0813 16.3876 26.2966 16.1835 26.5346 16.1948C26.784 16.1948 26.988 16.4217 26.9766 16.6712C26.9766 16.9207 26.7726 17.1021 26.5233 17.1021V17.0908Z" fill="white"/>
</svg>
