<svg width="202" height="89" viewBox="0 0 202 89" fill="none" xmlns="http://www.w3.org/2000/svg">
<g opacity="0.88">
<path d="M83.7793 72.5351C69.637 74.419 55.1934 74.3939 41.0762 72.2839C34.5703 71.3126 27.9639 70.0734 21.7091 68.0052C17.0369 66.4645 12.3061 64.254 8.88986 60.7289C7.36595 59.1632 6.16859 57.3127 5.55735 55.278C4.80377 52.7996 4.87075 50.3379 5.59922 47.9013C7.21523 42.4839 11.6614 38.0545 16.0405 34.6466C26.1469 26.7758 38.1205 21.3417 50.3704 17.7831C63.7842 13.8896 77.7004 12.2819 91.6333 12.0056C106.42 11.7125 121.224 12.8094 135.927 14.3333C143.279 15.0953 150.614 15.9996 157.932 17.063C164.429 18.0091 170.944 19.0223 177.282 20.7555C183.286 22.3967 189.39 24.6742 194.464 28.3751C195.427 29.0784 196.457 29.9827 196.934 31.1047C197.06 31.4062 197.143 31.7579 197.076 32.1263C197.009 32.5114 196.674 32.9887 196.348 33.3404C194.246 35.6011 191.416 37.3595 188.795 38.942C183.302 42.2578 177.358 44.6944 171.354 46.8965C164.597 49.3749 157.781 51.6943 150.949 53.9551C136.882 58.6189 122.689 62.906 108.396 66.8162C107.542 67.0507 106.68 67.2851 105.826 67.5112C105.541 67.5865 105.248 67.6703 104.955 67.7289C104.796 67.7624 104.628 67.7959 104.461 67.821C104.52 67.821 104.779 67.7875 104.486 67.8042C104.193 67.821 103.9 67.821 103.599 67.8126C103.565 67.8126 103.188 67.754 103.448 67.8042C103.707 67.8545 103.331 67.7624 103.314 67.7624C102.887 67.5614 103.465 67.9466 103.113 67.6619C103.238 67.7624 103.322 67.8712 103.439 67.9717C103.49 68.0136 103.598 68.4992 103.465 67.955C102.694 64.8485 97.888 66.1631 98.6583 69.2779C99.504 72.669 103.264 73.1296 106.161 72.5686C107.961 72.2169 109.736 71.6224 111.494 71.1368C113.253 70.6511 115.179 70.1152 117.021 69.5877C124.515 67.4693 131.975 65.2421 139.402 62.906C146.829 60.5698 154.223 58.1416 161.583 55.6046C168.457 53.235 175.348 50.8821 182.013 47.9766C185.145 46.6118 188.217 45.0879 191.148 43.3295C194.079 41.5712 197.076 39.6035 199.521 37.2088C202.192 34.5963 202.904 30.8033 200.668 27.6466C198.676 24.8416 195.594 23.0079 192.613 21.4003C180.062 14.6264 165.367 13.0188 151.451 11.1767C135.969 9.15036 120.362 7.61808 104.754 7.12406C89.1465 6.63004 74.0497 7.37525 59.045 10.5068C45.5559 13.3202 32.3347 18.1431 20.6206 25.4529C10.4724 31.783 -3.01675 42.3666 0.600449 56.0902C3.65665 67.7121 17.0704 72.3006 27.4615 74.7372C42.2401 78.2037 57.5546 79.5183 72.71 78.5972C76.4109 78.3711 80.1035 78.0111 83.7793 77.5171C85.1106 77.3413 86.2661 76.4956 86.2661 75.0303C86.2661 73.8245 85.119 72.3592 83.7793 72.5434V72.5351Z" fill="#F7004B"/>
</g>
<path d="M38.24 36.4259C40.4737 32.0282 42.6376 27.7004 44.7318 23.4424C46.8957 19.1145 49.1992 14.7518 51.6424 10.3541C47.1749 11.7502 43.1263 13.5651 39.4965 15.7988C35.8667 17.9627 32.4114 20.6502 29.1306 23.8612C28.5722 23.0235 28.0486 22.2208 27.56 21.4529C27.0714 20.6851 26.5129 19.8125 25.8847 18.8353C28.7467 16.6714 31.7133 14.682 34.7847 12.8671C37.9259 10.9824 41.1369 9.37686 44.4176 8.05059C47.7682 6.65451 51.1886 5.57255 54.6788 4.80471C58.169 4.03686 61.729 3.65294 65.3588 3.65294C67.0341 3.65294 68.8141 3.82745 70.6988 4.17647C72.6533 4.45569 74.4333 4.97922 76.0388 5.74706C77.6443 6.5149 78.9706 7.52706 80.0176 8.78353C81.1345 10.04 81.6929 11.6455 81.6929 13.6C81.6929 15.0659 81.309 16.5667 80.5412 18.1024C79.7733 19.5682 78.7612 20.9643 77.5047 22.2906C76.2482 23.6169 74.7824 24.8035 73.1071 25.8506C71.5016 26.8976 69.8263 27.6306 68.0812 28.0494C69.8961 26.5137 71.5714 25.0827 73.1071 23.7565C74.7125 22.3604 75.969 20.7898 76.8765 19.0447C77.6443 17.5788 78.2376 16.3573 78.6565 15.38C79.1451 14.3329 79.3894 13.3906 79.3894 12.5529C79.3894 11.3663 78.3773 10.2494 76.3529 9.20236C74.3984 8.15529 71.0478 7.63176 66.3012 7.63176C65.0447 7.63176 63.7533 7.66667 62.4271 7.73647C61.1706 7.80628 59.8792 7.84118 58.5529 7.84118C55.5514 13.3557 52.6196 18.7655 49.7576 24.0706C46.9655 29.3059 44.1035 34.611 41.1718 39.9859C42.5678 39.9161 43.929 39.8463 45.2553 39.7765C46.5816 39.6369 47.9078 39.5671 49.2341 39.5671C50.5604 39.5671 51.8169 39.7765 53.0035 40.1953C54.1902 40.5443 54.7835 41.5216 54.7835 43.1271C54.7835 44.4533 54.4345 45.3608 53.7365 45.8494C53.1082 46.2682 52.131 46.4776 50.8047 46.4776C51.4329 45.989 51.9914 45.5702 52.48 45.2212C52.9686 44.8722 53.2129 44.3486 53.2129 43.6506C52.6545 43.511 52.131 43.4063 51.6424 43.3365C51.2235 43.1969 50.7698 43.1271 50.2812 43.1271C49.1643 43.1271 47.9776 43.1969 46.7212 43.3365C45.5345 43.4063 44.3478 43.6157 43.1612 43.9647C42.0443 44.3137 40.9973 44.8024 40.02 45.4306C39.1125 46.0588 38.4494 46.8616 38.0306 47.8388C37.1929 49.6537 36.3553 51.4337 35.5176 53.1788C34.7498 54.9239 34.0169 56.7039 33.3188 58.5188C32.6906 60.3337 32.1671 62.1835 31.7482 64.0682C31.3294 65.9529 31.12 67.9075 31.12 69.9318C31.12 70.2808 31.12 70.5949 31.12 70.8741C31.12 71.1533 31.1549 71.4675 31.2247 71.8165C29.9682 71.8165 28.9561 71.5373 28.1882 70.9788C27.4902 70.4902 27.1412 69.7573 27.1412 68.78C27.1412 65.1502 27.6647 61.6949 28.7118 58.4141C29.7588 55.1333 31.0153 51.6082 32.4812 47.8388C31.7133 48.1878 31.0502 48.5369 30.4918 48.8859C29.9333 49.1651 29.3051 49.4792 28.6071 49.8282C28.1882 49.2 27.7694 48.6067 27.3506 48.0482C27.0016 47.4898 26.6176 46.8965 26.1988 46.2682C27.3855 45.64 28.5722 45.0467 29.7588 44.4882C31.0153 43.9298 32.1671 43.3016 33.2141 42.6035C34.331 41.8357 35.3082 40.9631 36.1459 39.9859C36.9835 39.0086 37.6816 37.822 38.24 36.4259C38.1702 36.5655 38.1353 36.6353 38.1353 36.6353V36.74L38.24 36.4259V36.74V36.4259ZM42.9518 41.4518H42.7424H42.9518C42.8122 41.382 42.7424 41.3471 42.7424 41.3471V41.4518H42.9518ZM38.24 36.4259V36.74V36.4259C38.1702 36.5655 38.1353 36.6353 38.1353 36.6353V36.74V36.6353C38.1353 36.5655 38.1702 36.4957 38.24 36.4259ZM42.9518 41.4518C42.8122 41.382 42.7424 41.3471 42.7424 41.3471C42.8122 41.4169 42.882 41.4518 42.9518 41.4518H42.7424H42.9518ZM83.2913 51.2941C82.5933 52.2016 81.7906 53.4231 80.8831 54.9588C79.9757 56.4945 78.9984 58.0302 77.9513 59.5659C76.9741 61.0318 75.927 62.3231 74.8102 63.44C73.7631 64.4871 72.716 65.0106 71.669 65.0106C70.2729 65.0106 69.2957 64.4871 68.7372 63.44C68.1788 62.3231 67.8996 61.1714 67.8996 59.9847C67.8996 59.6357 67.8996 59.1122 67.8996 58.4141C67.8996 57.6463 67.8996 56.9133 67.8996 56.2153C67.9694 55.5173 68.0741 54.9239 68.2137 54.4353C68.3533 53.8769 68.5278 53.5976 68.7372 53.5976C68.3882 53.5976 67.9345 53.8769 67.376 54.4353C66.8874 54.9937 66.3639 55.6569 65.8055 56.4247C65.247 57.1925 64.6886 57.9604 64.1302 58.7282C63.5717 59.4263 63.118 59.9847 62.769 60.4035C62.3502 60.8922 61.8266 61.5553 61.1984 62.3929C60.5702 63.1608 59.8721 63.9635 59.1043 64.8012C58.4062 65.569 57.7082 66.2671 57.0102 66.8953C56.3819 67.4537 55.8584 67.7329 55.4396 67.7329C53.6945 67.7329 52.2984 67.2094 51.2513 66.1624C50.1345 65.1153 49.576 63.7541 49.576 62.0788C49.576 60.8224 49.8902 59.4263 50.5184 57.8906C51.0768 56.2851 51.7749 54.6796 52.6125 53.0741C53.4502 51.3988 54.3227 49.7584 55.2302 48.1529C56.1376 46.5475 56.9055 45.0816 57.5337 43.7553C58.1619 42.4988 58.8251 41.2424 59.5231 39.9859C60.2211 38.7294 60.989 37.3333 61.8266 35.7976C62.5945 36.4957 63.2576 37.1239 63.816 37.6824C64.4443 38.171 65.0376 38.6945 65.596 39.2529C64.4094 41.2075 63.2227 43.162 62.036 45.1165C60.8494 47.0012 59.7325 48.9557 58.6855 50.98C57.7082 52.9345 56.8357 54.9588 56.0678 57.0529C55.3 59.0773 54.7066 61.2412 54.2878 63.5447C58.6855 60.3337 62.5596 56.7039 65.9102 52.6553C69.2608 48.6067 72.5764 44.2788 75.8572 39.6718C76.4855 40.0906 77.1137 40.5094 77.7419 40.9282C78.44 41.2773 79.1729 41.6961 79.9408 42.1847C79.1031 43.86 78.1957 45.5004 77.2184 47.1059C76.3109 48.7114 75.4733 50.3518 74.7055 52.0271C74.0074 53.7024 73.3792 55.4475 72.8208 57.2624C72.3321 59.0773 72.0878 61.0318 72.0878 63.1259C72.9953 62.4278 73.9376 61.5204 74.9149 60.4035C75.9619 59.2867 76.9392 58.1698 77.8466 57.0529C78.8239 55.8663 79.7662 54.7843 80.6737 53.8071C81.6509 52.76 82.5584 51.9573 83.396 51.3988L83.2913 51.2941ZM53.4502 54.0165H53.3455L53.5549 53.9118C53.4851 53.9118 53.4153 53.8769 53.3455 53.8071C53.4153 53.8769 53.4502 53.9467 53.4502 54.0165ZM83.396 51.3988C83.2564 51.2592 83.1866 51.1894 83.1866 51.1894C83.2564 51.1894 83.2913 51.2243 83.2913 51.2941V51.0847V51.1894C83.2913 51.329 83.3262 51.3988 83.396 51.3988ZM53.5549 53.9118L53.3455 54.0165H53.4502L53.5549 53.9118ZM68.2137 53.5976H68.7372H68.2137ZM53.4502 54.0165C53.4502 53.9467 53.4153 53.8769 53.3455 53.8071C53.4153 53.8769 53.4851 53.9118 53.5549 53.9118L53.4502 54.0165ZM99.8093 23.3376C100.647 23.8263 101.554 24.1055 102.532 24.1753C103.579 24.1753 104.556 24.2451 105.463 24.3847C106.441 24.5243 107.313 24.8384 108.081 25.3271C108.849 25.8157 109.477 26.7231 109.966 28.0494H97.4011C96.5634 28.9569 95.656 30.2482 94.6787 31.9235C93.7015 33.5988 92.7242 35.5184 91.747 37.6824C90.7697 39.7765 89.8273 42.0451 88.9199 44.4882C88.0124 46.8616 87.2097 49.2 86.5117 51.5035C85.8136 53.7373 85.2552 55.8663 84.8364 57.8906C84.4175 59.8451 84.2081 61.4855 84.2081 62.8118C84.2081 63.44 84.243 63.8937 84.3128 64.1729C85.5693 63.8937 86.7909 63.3004 87.9775 62.3929C89.1642 61.4157 90.3858 60.2639 91.6422 58.9376C92.9685 57.5416 94.3297 56.0408 95.7258 54.4353C97.1219 52.76 98.6575 51.0847 100.333 49.4094C100.542 49.549 100.821 49.7933 101.17 50.1424C100.403 50.7706 99.3905 52.0271 98.134 53.9118C96.9473 55.7267 95.6211 57.6114 94.1552 59.5659C92.6893 61.5204 91.1885 63.2655 89.6528 64.8012C88.1172 66.3369 86.7211 67.1047 85.4646 67.1047C84.9062 67.1047 84.3477 66.8953 83.7893 66.4765C83.2309 66.0576 82.6724 65.5341 82.114 64.9059C81.6254 64.2776 81.2415 63.6145 80.9622 62.9165C80.6132 62.1486 80.4387 61.4855 80.4387 60.9271C80.4387 58.2047 80.7528 55.5173 81.3811 52.8647C82.0093 50.1424 82.8121 47.4898 83.7893 44.9071C84.8364 42.2545 85.9532 39.6369 87.1399 37.0541C88.3964 34.4016 89.6179 31.7141 90.8046 28.9918C89.4783 29.3408 88.2568 29.6898 87.1399 30.0388C86.0928 30.318 84.9062 30.6322 83.5799 30.9812C83.3705 30.1435 83.1611 29.3059 82.9517 28.4682C82.7422 27.6306 82.4979 26.7231 82.2187 25.7459C84.3128 25.5365 86.3022 25.3271 88.187 25.1176C90.1415 24.8384 92.0262 24.5941 93.8411 24.3847C95.0277 22.0812 96.1795 19.8126 97.2964 17.5788C98.483 15.2753 99.7395 12.902 101.066 10.4588C102.532 11.4361 103.998 12.4482 105.463 13.4953C104.416 15.3102 103.439 17.0204 102.532 18.6259C101.624 20.1616 100.717 21.7322 99.8093 23.3376ZM84.1034 48.0482V48.2576V48.0482V48.2576H84.2081C84.1383 48.1878 84.1034 48.118 84.1034 48.0482ZM85.8834 42.7082L85.9881 42.8129V42.7082H85.8834ZM84.1034 48.0482C84.1732 48.1878 84.2081 48.2576 84.2081 48.2576C84.2081 48.3275 84.1732 48.3624 84.1034 48.3624C84.1034 48.2925 84.1034 48.1878 84.1034 48.0482V48.2576V48.0482ZM85.8834 42.7082L85.9881 42.8129L85.8834 42.7082ZM129.53 51.2941C128.832 52.2016 128.029 53.4231 127.121 54.9588C126.214 56.4945 125.237 58.0302 124.19 59.5659C123.212 61.0318 122.165 62.3231 121.048 63.44C120.001 64.4871 118.954 65.0106 117.907 65.0106C116.511 65.0106 115.534 64.4871 114.976 63.44C114.417 62.3231 114.138 61.1714 114.138 59.9847C114.138 59.6357 114.138 59.1122 114.138 58.4141C114.138 57.6463 114.138 56.9133 114.138 56.2153C114.208 55.5173 114.312 54.9239 114.452 54.4353C114.592 53.8769 114.766 53.5976 114.976 53.5976C114.626 53.5976 114.173 53.8769 113.614 54.4353C113.126 54.9937 112.602 55.6569 112.044 56.4247C111.485 57.1925 110.927 57.9604 110.368 58.7282C109.81 59.4263 109.356 59.9847 109.007 60.4035C108.588 60.8922 108.065 61.5553 107.437 62.3929C106.808 63.1608 106.11 63.9635 105.343 64.8012C104.645 65.569 103.946 66.2671 103.248 66.8953C102.62 67.4537 102.097 67.7329 101.678 67.7329C99.9328 67.7329 98.5367 67.2094 97.4896 66.1624C96.3728 65.1153 95.8143 63.7541 95.8143 62.0788C95.8143 60.8224 96.1284 59.4263 96.7567 57.8906C97.3151 56.2851 98.0132 54.6796 98.8508 53.0741C99.6884 51.3988 100.561 49.7584 101.468 48.1529C102.376 46.5475 103.144 45.0816 103.772 43.7553C104.4 42.4988 105.063 41.2424 105.761 39.9859C106.459 38.7294 107.227 37.3333 108.065 35.7976C108.833 36.4957 109.496 37.1239 110.054 37.6824C110.683 38.171 111.276 38.6945 111.834 39.2529C110.648 41.2075 109.461 43.162 108.274 45.1165C107.088 47.0012 105.971 48.9557 104.924 50.98C103.946 52.9345 103.074 54.9588 102.306 57.0529C101.538 59.0773 100.945 61.2412 100.526 63.5447C104.924 60.3337 108.798 56.7039 112.148 52.6553C115.499 48.6067 118.815 44.2788 122.096 39.6718C122.724 40.0906 123.352 40.5094 123.98 40.9282C124.678 41.2773 125.411 41.6961 126.179 42.1847C125.341 43.86 124.434 45.5004 123.457 47.1059C122.549 48.7114 121.712 50.3518 120.944 52.0271C120.246 53.7024 119.617 55.4475 119.059 57.2624C118.57 59.0773 118.326 61.0318 118.326 63.1259C119.234 62.4278 120.176 61.5204 121.153 60.4035C122.2 59.2867 123.177 58.1698 124.085 57.0529C125.062 55.8663 126.005 54.7843 126.912 53.8071C127.889 52.76 128.797 51.9573 129.634 51.3988L129.53 51.2941ZM99.6884 54.0165H99.5837L99.7932 53.9118C99.7233 53.9118 99.6535 53.8769 99.5837 53.8071C99.6535 53.8769 99.6884 53.9467 99.6884 54.0165ZM129.634 51.3988C129.495 51.2592 129.425 51.1894 129.425 51.1894C129.495 51.1894 129.53 51.2243 129.53 51.2941V51.0847V51.1894C129.53 51.329 129.565 51.3988 129.634 51.3988ZM99.7932 53.9118L99.5837 54.0165H99.6884L99.7932 53.9118ZM114.452 53.5976H114.976H114.452ZM99.6884 54.0165C99.6884 53.9467 99.6535 53.8769 99.5837 53.8071C99.6535 53.8769 99.7233 53.9118 99.7932 53.9118L99.6884 54.0165ZM153.482 36.0071C152.225 38.7294 151.004 41.382 149.817 43.9647C148.7 46.5475 147.548 49.1651 146.362 51.8176C145.524 51.8176 144.896 51.7478 144.477 51.6082C144.128 51.3988 143.953 50.8404 143.953 49.9329C143.953 49.3745 144.023 48.6067 144.163 47.6294C144.302 46.6522 144.512 45.3608 144.791 43.7553C140.952 47.0361 137.532 50.5263 134.53 54.2259C131.598 57.9255 129.364 62.1835 127.829 67C126.433 66.5114 125.386 65.9878 124.688 65.4294C123.99 64.871 123.641 64.1031 123.641 63.1259C123.641 62.4976 123.85 61.66 124.269 60.6129C126.153 56.0059 128.073 51.5035 130.028 47.1059C132.052 42.7082 134.181 38.3106 136.415 33.9129C137.322 34.611 138.09 35.2043 138.718 35.6929C139.346 36.1118 139.94 36.5306 140.498 36.9494C139.102 39.4624 137.671 41.9404 136.205 44.3835C134.809 46.7569 133.413 49.1651 132.017 51.6082C132.296 51.7478 132.436 51.8176 132.436 51.8176C134.879 49.1651 137.322 46.5125 139.765 43.86C142.278 41.2075 144.861 38.5549 147.513 35.9024C148.491 34.9251 149.468 34.4365 150.445 34.4365C151.492 34.4365 152.504 34.96 153.482 36.0071ZM178.002 50.98C175.559 53.7722 172.766 56.4596 169.625 59.0424C166.554 61.5553 163.343 63.6494 159.992 65.3247C159.085 65.8133 158.177 66.2322 157.27 66.5812C156.362 66.8604 155.455 67 154.548 67C153.501 67 152.558 66.7557 151.721 66.2671C150.883 65.7784 150.15 65.1851 149.522 64.4871C148.963 63.7192 148.51 62.9165 148.161 62.0788C147.812 61.1714 147.637 60.3337 147.637 59.5659C147.637 58.1 147.986 56.4596 148.684 54.6447C149.312 52.8298 150.15 50.98 151.197 49.0953C152.314 47.1408 153.535 45.2561 154.862 43.4412C156.188 41.6263 157.514 40.0208 158.841 38.6247C160.237 37.1588 161.528 36.0071 162.715 35.1694C163.971 34.262 165.018 33.8082 165.856 33.8082C166.624 33.8082 167.322 34.0176 167.95 34.4365C168.648 34.8553 169.241 35.3788 169.73 36.0071C170.288 36.5655 170.707 37.2286 170.986 37.9965C171.335 38.6945 171.51 39.3576 171.51 39.9859C171.51 41.4518 170.986 43.0922 169.939 44.9071C168.962 46.6522 167.741 48.2925 166.275 49.8282C164.809 51.3639 163.273 52.6553 161.668 53.7024C160.062 54.7494 158.666 55.2729 157.479 55.2729C156.013 55.2729 154.652 54.6098 153.396 53.2835C153.186 54.191 152.872 55.1333 152.453 56.1106C152.104 57.0878 151.79 58.0302 151.511 58.9376C151.302 59.8451 151.232 60.6827 151.302 61.4506C151.441 62.1486 151.86 62.7071 152.558 63.1259C153.117 63.4749 153.396 63.7192 153.396 63.8588C153.396 63.9286 153.64 63.9635 154.129 63.9635C154.548 63.9635 154.966 63.8937 155.385 63.7541C156.712 63.1259 158.352 62.2882 160.306 61.2412C162.261 60.1941 164.285 59.0773 166.379 57.8906C168.473 56.7039 170.533 55.5173 172.557 54.3306C174.651 53.0741 176.501 51.9573 178.106 50.98H178.002ZM157.898 44.1741H157.584C158.142 44.1741 158.492 44.0694 158.631 43.86C158.841 43.5808 158.98 43.3016 159.05 43.0224C159.19 42.6733 159.329 42.3243 159.469 41.9753C159.678 41.6263 160.097 41.382 160.725 41.2424C160.935 40.4745 161.144 39.8114 161.353 39.2529C161.633 38.6945 162.156 38.2757 162.924 37.9965C162.924 37.9267 162.68 38.1012 162.191 38.52C161.772 38.869 161.528 39.0784 161.458 39.1482C161.388 39.3576 161.214 39.7067 160.935 40.1953C160.725 40.6839 160.446 41.2075 160.097 41.7659C159.748 42.3243 159.364 42.8478 158.945 43.3365C158.596 43.8251 158.247 44.1043 157.898 44.1741ZM155.071 52.2365C155.979 52.2365 157.095 51.7478 158.422 50.7706C159.818 49.7933 161.144 48.6067 162.401 47.2106C163.727 45.8145 164.844 44.3486 165.751 42.8129C166.728 41.2773 167.252 39.9161 167.322 38.7294C166.344 39.0086 165.262 39.6369 164.076 40.6141C162.889 41.5216 161.702 42.6384 160.516 43.9647C159.399 45.2212 158.317 46.5824 157.27 48.0482C156.293 49.5141 155.56 50.9102 155.071 52.2365ZM178.106 50.98V50.6659L178.002 50.7706V50.98H178.106ZM161.353 39.1482C161.214 39.4973 161.109 39.8463 161.039 40.1953C160.97 40.5443 160.865 40.8933 160.725 41.2424C161.004 40.6141 161.249 39.9161 161.458 39.1482H161.353ZM158.945 43.7553C159.085 43.4063 159.155 43.0573 159.155 42.7082C159.224 42.2894 159.329 41.9055 159.469 41.5565C159.329 41.9055 159.224 42.2894 159.155 42.7082C159.085 43.0573 159.015 43.4063 158.945 43.7553ZM161.458 39.1482C161.598 39.0086 161.668 38.9039 161.668 38.8341C161.737 38.6945 161.842 38.5549 161.982 38.4153C161.842 38.4851 161.633 38.7294 161.353 39.1482H161.458ZM162.819 38.1012L161.877 38.4153C162.017 38.3455 162.191 38.3106 162.401 38.3106C162.61 38.3106 162.784 38.2757 162.924 38.2059L162.819 38.1012ZM162.924 38.2059V37.9965L162.819 38.1012L162.924 38.2059ZM157.793 44.0694C157.793 44.1392 157.724 44.1741 157.584 44.1741H157.898L157.793 44.0694ZM157.898 44.1741C158.038 44.1043 158.212 44.0694 158.422 44.0694C158.631 43.9996 158.806 43.8949 158.945 43.7553C158.736 43.8251 158.526 43.8949 158.317 43.9647C158.177 43.9647 158.003 43.9996 157.793 44.0694L157.898 44.1741ZM160.725 41.2424L159.469 41.5565L160.725 41.2424Z" fill="white"/>
</svg>
