<svg width="41" height="41" viewBox="0 0 41 41" fill="none" xmlns="http://www.w3.org/2000/svg">
<path d="M40.11 20.07H28.11C29.32 19.42 30.51 18.54 31.61 17.44C35.53 13.52 36.7 8.35 34.24 5.88L25.76 14.36C26.16 13.05 26.38 11.58 26.38 10.03C26.38 4.49 23.55 0 20.06 0V12C19.41 10.79 18.53 9.6 17.44 8.5C13.52 4.58 8.35001 3.41 5.88 5.87L14.36 14.35C13.05 13.95 11.58 13.73 10.03 13.73C4.49 13.73 0 16.56 0 20.05H12C10.79 20.7 9.6 21.58 8.5 22.68C4.58 26.6 3.41 31.77 5.87 34.24L14.35 25.76C13.95 27.07 13.73 28.54 13.73 30.09C13.73 35.63 16.56 40.12 20.05 40.12V28.12C20.7 29.33 21.58 30.52 22.68 31.62C26.6 35.54 31.77 36.71 34.24 34.25L25.76 25.77C27.07 26.17 28.54 26.39 30.09 26.39C35.63 26.39 40.12 23.56 40.12 20.07H40.11Z" fill="white"/>
</svg>
