<svg width="48" height="30" viewBox="0 0 48 30" fill="none" xmlns="http://www.w3.org/2000/svg">
<path d="M48 8.99293H46.4157V2.79158C46.1995 2.99764 46.0702 3.11349 45.9489 3.23754C40.9698 8.28862 35.9896 13.3377 31.0196 18.3959C30.7539 18.6656 30.4942 18.7783 30.1173 18.7773C24.8209 18.765 19.5255 18.7732 14.2291 18.7609C13.8553 18.7609 13.5865 18.8726 13.3097 19.1197C9.34397 22.6556 5.36814 26.1802 1.39432 29.7078C1.30036 29.7909 1.20437 29.8729 1.05685 30C0.704233 29.592 0.359694 29.1932 0 28.777C2.04096 26.9644 4.04858 25.1796 6.05721 23.3958C8.29217 21.411 10.5221 19.4211 12.7702 17.4528C12.9712 17.2764 13.2915 17.1514 13.5562 17.1503C18.884 17.1329 24.2107 17.1411 29.5384 17.1247C29.7839 17.1247 30.0921 16.9955 30.2659 16.8202C35.144 11.8932 40.0089 6.95281 44.8759 2.01346C44.9709 1.9171 45.0568 1.80945 45.2023 1.64542H39.137V0H48V8.99293Z" fill="white"/>
</svg>
