<svg width="464" height="388" viewBox="0 0 464 388" fill="none" xmlns="http://www.w3.org/2000/svg">
<g clip-path="url(#clip0_0_88)">
<path d="M397.03 9.20996H256.9C227.287 9.20996 203.28 33.2165 203.28 62.83V68.52C203.28 98.1335 227.287 122.14 256.9 122.14H397.03C426.644 122.14 450.65 98.1335 450.65 68.52V62.83C450.65 33.2165 426.644 9.20996 397.03 9.20996Z" fill="#F9FFC4"/>
<path d="M397.03 137.58H157.95C128.337 137.58 104.33 161.587 104.33 191.2V196.89C104.33 226.504 128.337 250.51 157.95 250.51H397.03C426.644 250.51 450.65 226.504 450.65 196.89V191.2C450.65 161.587 426.644 137.58 397.03 137.58Z" fill="#77FFC1"/>
<path d="M397.03 265.94H53.62C24.0065 265.94 0 289.946 0 319.56V325.25C0 354.863 24.0065 378.87 53.62 378.87H397.03C426.643 378.87 450.65 354.863 450.65 325.25V319.56C450.65 289.946 426.643 265.94 397.03 265.94Z" fill="#F7004B"/>
<path d="M69.63 159.95C74.03 156.38 82.36 158.88 90.74 165.51C90.77 162.29 91.7 159.7 93.65 158.12C98.57 154.12 108.43 157.73 117.76 166.24C117.79 163.03 118.73 160.44 120.68 158.86C125.08 155.29 133.41 157.79 141.79 164.42C141.82 161.2 142.75 158.61 144.7 157.03C150.84 152.04 164.66 158.89 175.57 172.32C186.48 185.75 190.34 200.68 184.2 205.67C179.8 209.24 171.47 206.74 163.09 200.11C163.06 203.33 162.13 205.92 160.18 207.5C155.26 211.5 145.4 207.89 136.07 199.38C136.04 202.59 135.1 205.18 133.15 206.76C128.75 210.33 120.42 207.83 112.04 201.2C112.01 204.42 111.08 207.01 109.13 208.59C102.99 213.58 89.17 206.73 78.26 193.3C67.35 179.87 63.49 164.94 69.63 159.95Z" fill="#F9FFC4"/>
<path opacity="0.56" d="M417.7 352.35C423.902 352.35 428.93 347.322 428.93 341.12C428.93 334.918 423.902 329.89 417.7 329.89C411.498 329.89 406.47 334.918 406.47 341.12C406.47 347.322 411.498 352.35 417.7 352.35Z" stroke="white" stroke-width="5.18" stroke-miterlimit="10"/>
<path opacity="0.56" d="M417.7 363.44C430.027 363.44 440.02 353.447 440.02 341.12C440.02 328.793 430.027 318.8 417.7 318.8C405.373 318.8 395.38 328.793 395.38 341.12C395.38 353.447 405.373 363.44 417.7 363.44Z" stroke="white" stroke-width="5.18" stroke-miterlimit="10"/>
<path opacity="0.56" d="M417.7 374.24C435.992 374.24 450.82 359.412 450.82 341.12C450.82 322.828 435.992 308 417.7 308C399.408 308 384.58 322.828 384.58 341.12C384.58 359.412 399.408 374.24 417.7 374.24Z" stroke="white" stroke-width="5.18" stroke-miterlimit="10"/>
<path opacity="0.56" d="M417.7 384.6C441.713 384.6 461.18 365.133 461.18 341.12C461.18 317.107 441.713 297.64 417.7 297.64C393.687 297.64 374.22 317.107 374.22 341.12C374.22 365.133 393.687 384.6 417.7 384.6Z" stroke="white" stroke-width="5.18" stroke-miterlimit="10"/>
</g>
<defs>
<clipPath id="clip0_0_88">
<rect width="463.77" height="387.18" fill="white"/>
</clipPath>
</defs>
</svg>
