<svg width="238" height="245" viewBox="0 0 238 245" fill="none" xmlns="http://www.w3.org/2000/svg">
<g opacity="0.61">
<path d="M143.52 57.4042C151.06 65.1642 155.38 75.1542 156.68 86.1942C167.68 87.8042 177.54 92.4142 185.08 100.174C192.62 107.934 196.94 117.924 198.24 128.964C209.24 130.574 219.1 135.184 226.64 142.944C250.06 167.044 242.42 212.584 209.61 244.454L207.8 242.584C239.58 211.714 247.19 167.824 224.77 144.754C217.77 137.554 208.67 133.224 198.49 131.604C200.14 154.284 189.45 180.884 168.05 201.684C146.93 222.204 119.11 233.034 95.46 229.944L93.46 229.684L94.29 228.334C92.51 209.364 99.65 188.044 113.39 169.814C94.63 183.134 72.92 189.654 53.89 187.174L52.16 186.944L52.73 185.664C50.47 162.014 62.08 134.694 83.1 114.284C104.5 93.4942 131.4 83.5742 154.02 85.8742C152.7 75.6442 148.63 66.4242 141.63 59.2242C119.21 36.1542 75.13 42.5042 43.35 73.3842C22.8 93.3542 11.47 120.014 13.79 142.964L11.2 143.224C8.8 119.504 20.42 92.0242 41.54 71.5142C74.34 39.6442 120.08 33.3142 143.5 57.4142L143.52 57.4042ZM195.6 128.644C194.28 118.414 190.21 109.194 183.21 101.994C176.21 94.7942 167.11 90.4642 156.93 88.8442C158.26 107.064 151.61 127.834 137.84 146.084C156.47 132.844 177.42 126.804 195.6 128.654V128.644ZM55.28 184.724C77.94 187.274 104.42 176.734 124.68 157.054C145.7 136.624 156.15 110.514 154.32 88.4842C132.36 86.0242 105.95 95.7142 84.93 116.144C64.68 135.824 53.39 162.004 55.28 184.724ZM96.84 227.494C119.5 230.044 145.98 219.504 166.24 199.824C187.26 179.394 197.71 153.284 195.88 131.254C173.92 128.794 147.51 138.484 126.49 158.914C106.24 178.594 94.94 204.764 96.84 227.494Z" fill="#F7004B"/>
<path d="M101.96 14.6342C125.38 38.7342 117.74 84.2642 84.93 116.144C63.81 136.674 35.99 147.494 12.34 144.404L12.68 141.824C35.56 144.824 62.55 134.264 83.12 114.284C114.9 83.4142 122.51 39.5242 100.09 16.4542C77.67 -6.61581 33.58 -0.265791 1.81 30.6042L0 28.7342C32.8 -3.13582 78.54 -9.46579 101.96 14.6342Z" fill="#F7004B"/>
</g>
</svg>
