<svg width="213" height="71" viewBox="0 0 213 71" fill="none" xmlns="http://www.w3.org/2000/svg">
<path d="M122.081 35.2256L116.757 51.6372H111.456L108.325 40.6664L105.221 51.6372H99.9199L94.5715 35.2256H99.4515L102.908 47.2977L106.341 35.2256H110.335L113.768 47.2977L117.201 35.2256H122.081Z" fill="url(#paint0_linear_275_44)"/>
<path d="M138.939 51.6333H123.48V35.2217H138.728V38.5493H128.126V41.5256H138.049V44.8562H128.126V48.3028H138.939V51.6333Z" fill="url(#paint1_linear_275_44)"/>
<path d="M154.37 48.6332H146.009L144.749 51.6333H139.869L147.435 35.2217H152.947L160.489 51.6333H155.609L154.373 48.6332H154.37ZM152.97 45.3026L150.193 38.6921L147.415 45.3026H152.973H152.97Z" fill="url(#paint2_linear_275_44)"/>
<path d="M177.136 51.6333H161.888V35.2217H166.537V48.3028H177.139V51.6333H177.136Z" fill="url(#paint3_linear_275_44)"/>
<path d="M192.523 38.5532H186.335V51.6343H181.687V38.5532H175.499V35.2256H192.523V38.5532Z" fill="url(#paint4_linear_275_44)"/>
<path d="M213 35.2256V51.6372H208.351V44.9791H199.267V51.6372H194.619V35.2256H199.267V41.4134H208.351V35.2256H213Z" fill="url(#paint5_linear_275_44)"/>
<path d="M122.081 35.2256L116.757 51.6372H111.456L108.325 40.6664L105.221 51.6372H99.9199L94.5715 35.2256H99.4515L102.908 47.2977L106.341 35.2256H110.335L113.768 47.2977L117.201 35.2256H122.081Z" fill="url(#paint6_linear_275_44)"/>
<path d="M138.939 51.6333H123.48V35.2217H138.728V38.5493H128.126V41.5256H138.049V44.8562H128.126V48.3028H138.939V51.6333Z" fill="url(#paint7_linear_275_44)"/>
<path d="M154.37 48.6332H146.009L144.749 51.6333H139.869L147.435 35.2217H152.947L160.489 51.6333H155.609L154.373 48.6332H154.37ZM152.97 45.3026L150.193 38.6921L147.415 45.3026H152.973H152.97Z" fill="url(#paint8_linear_275_44)"/>
<path d="M177.136 51.6333H161.888V35.2217H166.537V48.3028H177.139V51.6333H177.136Z" fill="url(#paint9_linear_275_44)"/>
<path d="M192.523 38.5532H186.335V51.6343H181.687V38.5532H175.499V35.2256H192.523V38.5532Z" fill="url(#paint10_linear_275_44)"/>
<path d="M213 35.2256V51.6372H208.351V44.9791H199.267V51.6372H194.619V35.2256H199.267V41.4134H208.351V35.2256H213Z" fill="url(#paint11_linear_275_44)"/>
<path d="M60.3112 20.528L85.8196 0L50.1333 70.4475H49.1402L37.2932 47.0741H37.2131L25.3661 70.4475H24.3729L0 20.528H14.1921L25.206 42.7465H25.2861L36.5372 20.528H37.9691L49.2202 42.7465H49.3003L60.3142 20.528H60.3112Z" fill="url(#paint12_radial_275_44)"/>
<path d="M85.8196 0L50.1333 70.4475H49.1402L33.857 40.6065L25.3661 70.4475H24.3729L0 20.528L25.206 42.7465H25.2861L37.9691 20.528L49.2202 42.7465H49.3003L85.8196 0Z" fill="url(#paint13_linear_275_44)"/>
<defs>
<linearGradient id="paint0_linear_275_44" x1="94.5715" y1="43.4284" x2="122.081" y2="43.4284" gradientUnits="userSpaceOnUse">
<stop stop-color="#A85808"/>
<stop offset="0.03" stop-color="#B26A09"/>
<stop offset="0.08" stop-color="#CE980D"/>
<stop offset="0.11" stop-color="#DBAF0F"/>
<stop offset="0.13" stop-color="#D7A70E"/>
<stop offset="0.21" stop-color="#CE910E"/>
<stop offset="0.3" stop-color="#C7800D"/>
<stop offset="0.41" stop-color="#C2740D"/>
<stop offset="0.57" stop-color="#BF6D0D"/>
<stop offset="1" stop-color="#BF6C0D"/>
</linearGradient>
<linearGradient id="paint1_linear_275_44" x1="123.478" y1="-0.000557025" x2="138.939" y2="-0.000557025" gradientUnits="userSpaceOnUse">
<stop stop-color="#A85808"/>
<stop offset="0.03" stop-color="#B26A09"/>
<stop offset="0.08" stop-color="#CE980D"/>
<stop offset="0.11" stop-color="#DBAF0F"/>
<stop offset="0.13" stop-color="#D7A70E"/>
<stop offset="0.21" stop-color="#CE910E"/>
<stop offset="0.3" stop-color="#C7800D"/>
<stop offset="0.41" stop-color="#C2740D"/>
<stop offset="0.57" stop-color="#BF6D0D"/>
<stop offset="1" stop-color="#BF6C0D"/>
</linearGradient>
<linearGradient id="paint2_linear_275_44" x1="139.869" y1="-0.00055844" x2="160.489" y2="-0.00055844" gradientUnits="userSpaceOnUse">
<stop stop-color="#A85808"/>
<stop offset="0.03" stop-color="#B26A09"/>
<stop offset="0.08" stop-color="#CE980D"/>
<stop offset="0.11" stop-color="#DBAF0F"/>
<stop offset="0.13" stop-color="#D7A70E"/>
<stop offset="0.21" stop-color="#CE910E"/>
<stop offset="0.3" stop-color="#C7800D"/>
<stop offset="0.41" stop-color="#C2740D"/>
<stop offset="0.57" stop-color="#BF6D0D"/>
<stop offset="1" stop-color="#BF6C0D"/>
</linearGradient>
<linearGradient id="paint3_linear_275_44" x1="161.888" y1="-0.000556401" x2="177.136" y2="-0.000556401" gradientUnits="userSpaceOnUse">
<stop stop-color="#A85808"/>
<stop offset="0.03" stop-color="#B26A09"/>
<stop offset="0.08" stop-color="#CE980D"/>
<stop offset="0.11" stop-color="#DBAF0F"/>
<stop offset="0.13" stop-color="#D7A70E"/>
<stop offset="0.21" stop-color="#CE910E"/>
<stop offset="0.3" stop-color="#C7800D"/>
<stop offset="0.41" stop-color="#C2740D"/>
<stop offset="0.57" stop-color="#BF6D0D"/>
<stop offset="1" stop-color="#BF6C0D"/>
</linearGradient>
<linearGradient id="paint4_linear_275_44" x1="175.499" y1="0.000364086" x2="192.523" y2="0.000364086" gradientUnits="userSpaceOnUse">
<stop stop-color="#A85808"/>
<stop offset="0.03" stop-color="#B26A09"/>
<stop offset="0.08" stop-color="#CE980D"/>
<stop offset="0.11" stop-color="#DBAF0F"/>
<stop offset="0.13" stop-color="#D7A70E"/>
<stop offset="0.21" stop-color="#CE910E"/>
<stop offset="0.3" stop-color="#C7800D"/>
<stop offset="0.41" stop-color="#C2740D"/>
<stop offset="0.57" stop-color="#BF6D0D"/>
<stop offset="1" stop-color="#BF6C0D"/>
</linearGradient>
<linearGradient id="paint5_linear_275_44" x1="194.622" y1="0.00036207" x2="213" y2="0.00036207" gradientUnits="userSpaceOnUse">
<stop stop-color="#A85808"/>
<stop offset="0.03" stop-color="#B26A09"/>
<stop offset="0.08" stop-color="#CE980D"/>
<stop offset="0.11" stop-color="#DBAF0F"/>
<stop offset="0.13" stop-color="#D7A70E"/>
<stop offset="0.21" stop-color="#CE910E"/>
<stop offset="0.3" stop-color="#C7800D"/>
<stop offset="0.41" stop-color="#C2740D"/>
<stop offset="0.57" stop-color="#BF6D0D"/>
<stop offset="1" stop-color="#BF6C0D"/>
</linearGradient>
<linearGradient id="paint6_linear_275_44" x1="94.5715" y1="43.4284" x2="213" y2="43.4284" gradientUnits="userSpaceOnUse">
<stop stop-color="#A85808"/>
<stop offset="0.03" stop-color="#B26A09"/>
<stop offset="0.08" stop-color="#CE980D"/>
<stop offset="0.11" stop-color="#DBAF0F"/>
<stop offset="0.13" stop-color="#D7A70E"/>
<stop offset="0.21" stop-color="#CE910E"/>
<stop offset="0.3" stop-color="#C7800D"/>
<stop offset="0.41" stop-color="#C2740D"/>
<stop offset="0.57" stop-color="#BF6D0D"/>
<stop offset="1" stop-color="#BF6C0D"/>
</linearGradient>
<linearGradient id="paint7_linear_275_44" x1="94.5715" y1="43.4275" x2="213" y2="43.4275" gradientUnits="userSpaceOnUse">
<stop stop-color="#A85808"/>
<stop offset="0.03" stop-color="#B26A09"/>
<stop offset="0.08" stop-color="#CE980D"/>
<stop offset="0.11" stop-color="#DBAF0F"/>
<stop offset="0.13" stop-color="#D7A70E"/>
<stop offset="0.21" stop-color="#CE910E"/>
<stop offset="0.3" stop-color="#C7800D"/>
<stop offset="0.41" stop-color="#C2740D"/>
<stop offset="0.57" stop-color="#BF6D0D"/>
<stop offset="1" stop-color="#BF6C0D"/>
</linearGradient>
<linearGradient id="paint8_linear_275_44" x1="94.5715" y1="43.4275" x2="213" y2="43.4275" gradientUnits="userSpaceOnUse">
<stop stop-color="#A85808"/>
<stop offset="0.03" stop-color="#B26A09"/>
<stop offset="0.08" stop-color="#CE980D"/>
<stop offset="0.11" stop-color="#DBAF0F"/>
<stop offset="0.13" stop-color="#D7A70E"/>
<stop offset="0.21" stop-color="#CE910E"/>
<stop offset="0.3" stop-color="#C7800D"/>
<stop offset="0.41" stop-color="#C2740D"/>
<stop offset="0.57" stop-color="#BF6D0D"/>
<stop offset="1" stop-color="#BF6C0D"/>
</linearGradient>
<linearGradient id="paint9_linear_275_44" x1="94.5715" y1="43.4275" x2="213" y2="43.4275" gradientUnits="userSpaceOnUse">
<stop stop-color="#A85808"/>
<stop offset="0.03" stop-color="#B26A09"/>
<stop offset="0.08" stop-color="#CE980D"/>
<stop offset="0.11" stop-color="#DBAF0F"/>
<stop offset="0.13" stop-color="#D7A70E"/>
<stop offset="0.21" stop-color="#CE910E"/>
<stop offset="0.3" stop-color="#C7800D"/>
<stop offset="0.41" stop-color="#C2740D"/>
<stop offset="0.57" stop-color="#BF6D0D"/>
<stop offset="1" stop-color="#BF6C0D"/>
</linearGradient>
<linearGradient id="paint10_linear_275_44" x1="94.5716" y1="43.4284" x2="213" y2="43.4284" gradientUnits="userSpaceOnUse">
<stop stop-color="#A85808"/>
<stop offset="0.03" stop-color="#B26A09"/>
<stop offset="0.08" stop-color="#CE980D"/>
<stop offset="0.11" stop-color="#DBAF0F"/>
<stop offset="0.13" stop-color="#D7A70E"/>
<stop offset="0.21" stop-color="#CE910E"/>
<stop offset="0.3" stop-color="#C7800D"/>
<stop offset="0.41" stop-color="#C2740D"/>
<stop offset="0.57" stop-color="#BF6D0D"/>
<stop offset="1" stop-color="#BF6C0D"/>
</linearGradient>
<linearGradient id="paint11_linear_275_44" x1="94.5715" y1="43.4284" x2="213" y2="43.4284" gradientUnits="userSpaceOnUse">
<stop stop-color="#A85808"/>
<stop offset="0.03" stop-color="#B26A09"/>
<stop offset="0.08" stop-color="#CE980D"/>
<stop offset="0.11" stop-color="#DBAF0F"/>
<stop offset="0.13" stop-color="#D7A70E"/>
<stop offset="0.21" stop-color="#CE910E"/>
<stop offset="0.3" stop-color="#C7800D"/>
<stop offset="0.41" stop-color="#C2740D"/>
<stop offset="0.57" stop-color="#BF6D0D"/>
<stop offset="1" stop-color="#BF6C0D"/>
</linearGradient>
<radialGradient id="paint12_radial_275_44" cx="0" cy="0" r="1" gradientUnits="userSpaceOnUse" gradientTransform="translate(24.6591 63.1681) scale(31.4024 32.0356)">
<stop stop-color="#AE610A"/>
<stop offset="0.25" stop-color="#71181C"/>
<stop offset="0.5" stop-color="#6F0002"/>
<stop offset="1" stop-color="#AF630A"/>
</radialGradient>
<linearGradient id="paint13_linear_275_44" x1="7.31692" y1="53.4703" x2="100.358" y2="11.9544" gradientUnits="userSpaceOnUse">
<stop stop-color="#A85808"/>
<stop offset="0.03" stop-color="#B26A09"/>
<stop offset="0.08" stop-color="#CE980D"/>
<stop offset="0.11" stop-color="#DBAF0F"/>
<stop offset="0.13" stop-color="#D7A70E"/>
<stop offset="0.21" stop-color="#CE910E"/>
<stop offset="0.3" stop-color="#C7800D"/>
<stop offset="0.41" stop-color="#C2740D"/>
<stop offset="0.57" stop-color="#BF6D0D"/>
<stop offset="1" stop-color="#BF6C0D"/>
</linearGradient>
</defs>
</svg>
