<svg width="23" height="19" viewBox="0 0 23 19" fill="none" xmlns="http://www.w3.org/2000/svg">
<path fill-rule="evenodd" clip-rule="evenodd" d="M13.9344 18.5047C13.6804 18.6909 13.4046 18.8453 13.1014 18.9248C12.2479 19.1519 11.3153 18.8135 10.5007 18.5865C5.03954 17.0616 1.38161 14.6739 0.332405 11.1111C-0.505132 8.26578 0.300368 5.41595 2.07155 3.64474C3.7123 2.00411 6.14482 1.33877 8.64026 2.4049C10.265 0.243121 12.7078 -0.388155 14.955 0.219278C17.3806 0.874397 19.5134 2.94308 20.2216 5.82242C20.3604 6.38709 20.4302 6.96197 20.431 7.54708C20.7239 7.69619 20.9985 7.87785 21.2548 8.09206C22.5786 9.20361 23.2857 11.0918 22.891 13.0548C22.3875 15.5595 20.0477 17.3182 16.701 18.574C16.1277 18.7897 15.5007 19.0565 14.8749 18.9475C14.527 18.8862 14.2158 18.7091 13.9344 18.5047ZM2.52922 10.4741C1.91709 8.39294 2.53266 6.40828 3.69628 5.24451C4.813 4.12729 6.46862 3.71173 8.2993 4.77446C8.93889 5.14573 9.76385 4.92546 10.13 4.28851C11.1803 2.4594 12.8234 1.9973 14.3531 2.41058C15.9481 2.84203 17.4813 4.25445 17.9985 6.36059C18.0618 6.61341 18.1037 6.87266 18.1243 7.13834C17.7051 7.19154 17.2963 7.30674 16.9115 7.48009C15.6827 6.29134 14.0556 6.05745 12.6209 6.58199C10.9938 7.1758 9.67803 8.71085 9.37139 10.6898C9.05903 12.7165 10.0236 14.6921 11.8188 16.5916C11.5922 16.5348 11.3577 16.4667 11.1208 16.4008C5.82216 14.9214 3.22603 12.8414 2.52922 10.4741ZM11.6346 11.0339C11.8176 9.8417 12.5945 9.01173 13.4115 8.71198C14.1666 8.43722 15.0053 8.58141 15.6426 9.4954C15.7376 9.63159 15.8589 9.74773 15.9995 9.83713C16.14 9.92652 16.297 9.98738 16.4614 10.0162C16.6257 10.045 16.7942 10.0412 16.9571 10.005C17.12 9.96886 17.2741 9.90099 17.4104 9.80536C18.3257 9.1616 19.1632 9.31147 19.7765 9.8258C20.4424 10.3844 20.8841 11.429 20.6461 12.6109C20.3887 13.8939 19.0809 15.2541 15.8921 16.4497C15.6895 16.5257 15.4882 16.6075 15.2799 16.6677C15.1049 16.5394 14.9435 16.3952 14.7788 16.2555C12.1952 14.0494 11.4343 12.3271 11.6346 11.0327V11.0339Z" fill="#F7004B"/>
</svg>
