<svg width="29" height="30" viewBox="0 0 29 30" fill="none" xmlns="http://www.w3.org/2000/svg">
<path d="M13.6536 0C14.1167 0.207064 14.2744 0.591611 14.3434 1.07476C14.7769 3.87505 15.2302 6.67535 15.6736 9.47564C15.7919 10.2152 15.92 10.9448 16.0185 11.6843C16.1466 12.6605 15.8017 13.4887 15.1711 14.2184C14.501 14.9875 13.6635 15.4608 12.6485 15.6284C12.2741 15.6876 12.0474 15.5692 12.008 15.303C11.9686 15.0368 12.1361 14.8987 12.4909 14.7903C12.9441 14.6522 13.427 14.5142 13.8211 14.2677C14.8656 13.6071 15.3287 12.6605 15.1218 11.3984C14.5601 7.95717 14.028 4.51597 13.4762 1.0649C13.4664 1.00574 13.4467 0.936718 13.4171 0.857837C9.91903 1.71567 6.44065 2.56365 2.92286 3.42149C2.99184 3.85533 3.05097 4.27932 3.11994 4.71317C3.54365 7.38528 3.96737 10.0475 4.39108 12.7196C4.47976 13.3113 4.18414 13.7057 3.59292 13.8141C2.35135 14.0409 1.41524 14.6818 0.971825 15.8946C0.567822 16.9792 1.1689 17.9357 2.30208 18.1132C3.74073 18.3301 5.33703 17.2455 5.67206 15.8355C5.81987 15.234 5.66221 14.6522 5.56367 14.0606C5.14981 11.3885 4.71625 8.72627 4.29253 6.05416C4.20385 5.48227 4.4699 5.078 5.01186 4.94982C7.27822 4.39764 9.54459 3.84547 11.811 3.2933C12.4219 3.1454 12.8653 3.44121 12.9737 4.07226C13.2496 5.81751 13.5354 7.56277 13.8113 9.30802C13.9295 10.0377 13.6635 10.4025 12.9441 10.5208C11.6829 10.7279 10.5792 11.704 10.3329 12.8281C10.2048 13.4 10.323 13.9127 10.7467 14.3466C10.9832 14.5832 11.0029 14.8297 10.8157 15.0171C10.6285 15.2143 10.392 15.1847 10.1457 14.948C9.37707 14.2184 9.20956 13.045 9.73181 11.9604C10.323 10.7476 11.3183 10.018 12.6288 9.71229C12.9638 9.63341 12.9835 9.61369 12.9343 9.27844C12.6781 7.66137 12.4219 6.05416 12.1657 4.43709C12.1164 4.1117 12.0967 4.09198 11.7715 4.17086C9.64312 4.69345 7.51471 5.21604 5.3863 5.72877C5.16952 5.77807 5.12025 5.85695 5.15967 6.07388C5.6228 8.97277 6.07606 11.8815 6.54904 14.7804C6.74612 15.9932 6.32241 16.9792 5.46513 17.7976C4.48961 18.7245 3.33672 19.1682 1.98676 18.902C0.420014 18.5963 -0.387995 17.1173 0.183522 15.5791C0.705771 14.1691 1.76997 13.3606 3.19877 13.0155C3.47467 12.9464 3.54365 12.8577 3.50424 12.5816C3.03126 9.62355 2.56813 6.66549 2.09515 3.70743C1.99661 3.10596 2.26266 2.71155 2.86374 2.56365C6.25343 1.73539 9.65298 0.907138 13.0427 0.0690213C13.0919 0.0591611 13.1412 0.0295806 13.2003 0.00986019C13.3481 0.00986019 13.5058 0.00986019 13.6536 0.00986019V0Z" fill="white"/>
<path d="M25.8525 0C26.089 0.118322 26.2073 0.315526 26.2861 0.562031C26.6408 1.57763 27.2222 2.38617 28.2667 2.80029C28.5032 2.88904 28.6214 3.07638 28.6214 3.33274C28.6214 3.57925 28.4736 3.74687 28.2569 3.85533C28.0302 3.9638 27.8036 4.09198 27.5868 4.22016C27.3306 4.36806 27.104 4.33848 26.966 4.13142C26.8281 3.92436 26.8773 3.69757 27.104 3.52009C27.1828 3.46093 27.2715 3.40177 27.3799 3.32288C26.631 2.84959 26.0989 2.20868 25.6949 1.38043C25.281 2.1791 24.7785 2.84959 24 3.32288C24.7588 3.80603 25.2909 4.44695 25.6653 5.24562C25.7343 5.18646 25.7934 5.11744 25.8525 5.10758C26.0102 5.09772 26.2073 5.05828 26.3255 5.13716C26.4241 5.20618 26.5029 5.4231 26.4733 5.54143C26.4044 5.82737 26.3058 6.13304 26.1482 6.37954C26.0595 6.51759 25.8131 6.64577 25.6555 6.62605C25.488 6.60633 25.281 6.44856 25.1825 6.30066C25.0347 6.06402 24.9657 5.77807 24.8475 5.52171C24.4829 4.76247 23.9409 4.18072 23.1428 3.86519C22.8964 3.76659 22.7585 3.58911 22.7683 3.32288C22.7683 3.08624 22.8866 2.8989 23.1132 2.81015C24.1478 2.39603 24.7194 1.57763 25.1135 0.581751C25.2022 0.364827 25.3894 0.197204 25.5274 0.00986019C25.6456 0.00986019 25.754 0.00986019 25.8723 0.00986019L25.8525 0Z" fill="white"/>
<path d="M25.8427 17.7779C25.2515 17.7188 24.6701 17.6695 24.0887 17.6202C22.4136 17.4821 20.7384 17.3441 19.0633 17.1962C18.7874 17.1666 18.6889 17.2455 18.6396 17.5216C18.1666 20.3712 17.6838 23.2208 17.1812 26.0704C16.8955 27.6973 15.7032 28.7819 14.0477 29.0186C13.3777 29.1172 12.7273 29.0777 12.0967 28.8509C10.1949 28.1607 9.70224 26.0999 11.1015 24.6308C11.9489 23.7335 13.023 23.3588 14.2448 23.3785C14.3729 23.3785 14.5109 23.3785 14.639 23.4081C14.8853 23.4673 14.974 23.3489 15.0134 23.1222C15.1514 22.2939 15.2893 21.4657 15.4273 20.6374C15.7919 18.4879 16.1466 16.3384 16.521 14.179C16.6196 13.6071 17.0137 13.331 17.5951 13.3803C19.6841 13.5676 21.7731 13.7451 23.8621 13.9226C25.2613 14.0409 26.6704 14.1592 28.0696 14.2776C28.7693 14.3367 29.0944 14.741 28.9762 15.4312C28.3652 19.0499 27.7346 22.6785 27.1237 26.2971C27.0448 26.7606 26.8379 27.155 26.5521 27.5099C25.4978 28.8115 23.5271 29.3144 21.9702 28.6833C20.226 27.9734 19.7432 26.0704 20.9848 24.6505C21.9505 23.5363 23.2117 23.132 24.6504 23.3095C24.8672 23.3391 24.9657 23.2898 24.9953 23.0729C25.281 21.3769 25.5668 19.681 25.8525 17.985C25.8525 17.9357 25.8525 17.8765 25.8525 17.7878L25.8427 17.7779ZM28.1485 15.1354C28.0007 15.1255 27.9021 15.1157 27.7937 15.1058C26.6014 15.0072 25.3993 14.9086 24.207 14.8002C22.0588 14.6128 19.9107 14.4255 17.7626 14.248C17.3488 14.2086 17.3586 14.2184 17.2896 14.6325C16.7969 17.5807 16.2944 20.5191 15.8017 23.4673C15.6933 24.0885 15.2795 24.3547 14.6587 24.2659C13.4565 24.0885 12.3923 24.3941 11.5942 25.3407C10.7763 26.3169 11.0916 27.5099 12.2642 27.9931C13.4467 28.4861 15.0528 28.1114 15.851 27.1057C16.0678 26.8395 16.2353 26.4845 16.3043 26.1492C16.5605 24.7984 16.7772 23.4278 17.0039 22.0671C17.2896 20.4106 17.5655 18.7541 17.8513 17.0976C17.94 16.575 18.3341 16.2792 18.8662 16.3186C19.0732 16.3384 19.2801 16.3482 19.487 16.3679C21.576 16.5454 23.665 16.7328 25.754 16.9102C26.4733 16.9694 26.8083 17.3934 26.6901 18.0935C26.3945 19.8486 26.089 21.5938 25.7934 23.3489C25.685 23.9603 25.281 24.2462 24.6602 24.1575C23.5172 23.98 22.4924 24.2561 21.6844 25.1139C20.7089 26.1492 21.0538 27.5001 22.4037 27.9339C23.5862 28.3185 24.6602 28.0523 25.6062 27.2536C26.0102 26.9085 26.227 26.4648 26.3157 25.9422C26.8084 22.994 27.3208 20.0556 27.8134 17.1074C27.9218 16.4665 28.0204 15.8256 28.1386 15.1354H28.1485Z" fill="white"/>
<path d="M7.30775 19.0105C7.54424 19.0105 7.69204 19.2077 7.81029 19.4739C8.01722 19.9274 8.21429 20.3909 8.48034 20.8149C8.83508 21.3769 9.34748 21.7812 9.97812 22.0277C10.2245 22.1263 10.3821 22.3038 10.3821 22.5897C10.3821 22.8559 10.2442 23.0334 9.99782 23.132C8.91391 23.5757 8.29312 24.4237 7.87926 25.4787C7.86941 25.5083 7.85956 25.528 7.8497 25.5576C7.69204 25.9915 7.52453 26.1591 7.22892 26.1492C6.84462 26.1394 6.72638 25.8633 6.60814 25.5478C6.21399 24.4533 5.57349 23.556 4.44031 23.1123C4.20382 23.0235 4.08557 22.8263 4.08557 22.5798C4.08557 22.3333 4.21367 22.146 4.45016 22.0474C5.60305 21.584 6.24355 20.6768 6.6377 19.5528C6.77565 19.1584 6.94316 19.0105 7.3176 19.0203L7.30775 19.0105ZM9.14055 22.57C8.24386 22.0474 7.67234 21.2783 7.21906 20.3712C6.77565 21.3079 6.19427 22.0474 5.31729 22.57C6.20413 23.1024 6.7855 23.8518 7.22892 24.7787C7.67234 23.8518 8.25371 23.0926 9.14055 22.57Z" fill="white"/>
<path d="M19.4771 5.33437C19.753 5.33437 19.9008 5.50199 19.9994 5.73864C20.1275 6.03444 20.2457 6.33025 20.4132 6.60633C20.6596 7.02046 21.0143 7.33599 21.4676 7.51347C21.7139 7.61207 21.8913 7.76984 21.8814 8.05578C21.8814 8.33187 21.7139 8.47977 21.4774 8.57837C20.9355 8.80516 20.561 9.19956 20.2851 9.70243C20.1866 9.88978 20.0881 10.087 20.0191 10.294C19.9304 10.5701 19.7727 10.7772 19.4673 10.7673C19.1618 10.7673 19.0042 10.5603 18.9253 10.2743C18.8761 10.1067 18.7972 9.93908 18.7085 9.78131C18.4228 9.22914 18.0286 8.78544 17.4275 8.55865C17.2009 8.46991 17.0531 8.29243 17.063 8.03606C17.063 7.80928 17.1812 7.63179 17.3881 7.55291C18.1961 7.22753 18.6494 6.58661 18.9253 5.7978C19.0239 5.52171 19.1618 5.32451 19.4771 5.32451V5.33437ZM18.4031 8.04592C18.7578 8.46005 19.1322 8.8939 19.4771 9.27845C19.8319 8.87418 20.2063 8.44033 20.5512 8.04592C20.1965 7.63179 19.8122 7.19794 19.4771 6.80354C19.1322 7.20781 18.7578 7.63179 18.4031 8.03606V8.04592Z" fill="white"/>
</svg>
