<svg width="34" height="34" viewBox="0 0 34 34" fill="none" xmlns="http://www.w3.org/2000/svg">
<path d="M17.8212 33.5631H15.7212C15.5112 33.5331 15.2912 33.5031 15.0812 33.4831C11.5612 33.0931 8.42116 31.7931 5.78116 29.4331C1.34116 25.4531 -0.578838 20.4531 0.151162 14.5431C0.701162 10.0831 2.84116 6.43309 6.36116 3.64309C9.90116 0.833091 13.9612 -0.336907 18.4512 0.0830928C21.7812 0.393093 24.7512 1.64314 27.3312 3.75314C30.5512 6.39314 32.5612 9.77308 33.2912 13.8831C33.4012 14.4931 33.4612 15.1131 33.5512 15.7231V17.8231C33.5012 18.2331 33.4512 18.6431 33.4012 19.0531C32.9212 22.4031 31.5712 25.3631 29.3212 27.8931C26.7312 30.7931 23.5212 32.6031 19.6912 33.3031C19.0712 33.4131 18.4412 33.4831 17.8212 33.5631ZM16.7712 31.4731C24.8612 31.4731 31.4412 24.8931 31.4612 16.7931C31.4712 8.69312 24.8712 2.0831 16.7712 2.0931C8.68116 2.0931 2.10116 8.6731 2.08116 16.7731C2.07116 24.8631 8.67116 31.4831 16.7712 31.4831V31.4731Z" fill="white"/>
</svg>
