<svg width="124" height="114" viewBox="0 0 124 114" fill="none" xmlns="http://www.w3.org/2000/svg">
<path d="M123.882 62.8676C123.019 71.9679 97.9882 72.1382 93.0352 79.0897C87.9263 86.2566 95.8386 109.909 87.8385 113.578C80.0927 117.136 67.4483 95.8245 58.3481 94.9607C49.2478 94.0969 32.8197 112.649 25.8816 107.697C18.7146 102.589 30.9356 80.8471 27.2664 72.847C23.7085 65.1011 -0.841569 60.2112 0.0222169 51.111C0.886003 42.0107 25.9163 41.8405 30.8693 34.889C35.9782 27.722 28.0659 4.06955 36.0661 0.400311C43.8119 -3.15764 56.4562 18.1541 65.5565 19.0179C74.6567 19.8817 91.0702 1.34161 98.023 6.28119C105.19 11.3901 92.9689 33.1315 96.6382 41.1317C100.196 48.8775 124.746 53.7674 123.882 62.8676Z" fill="#F7004B"/>
</svg>
