<svg width="46" height="52" viewBox="0 0 46 52" fill="none" xmlns="http://www.w3.org/2000/svg">
<path d="M45.967 17.477C45.967 20.0566 46.0506 22.639 45.9516 25.2145C45.5752 34.9806 41.2459 42.5904 33.1298 48.0562C30.2199 50.0156 26.9879 51.2742 23.5426 51.9541C23.0226 52.0568 22.4286 51.9735 21.9043 51.8389C10.81 48.9901 3.76604 42.0395 0.76414 31.0467C0.178539 28.9014 -0.00411293 26.6909 6.99344e-05 24.4651C0.00843567 19.324 6.99345e-05 14.1814 0.00285851 9.04022C0.00285851 7.39033 0.945397 6.47033 2.60878 6.51196C9.0978 6.67292 15.0486 4.99528 20.4236 1.35275C20.8112 1.09049 21.1751 0.793532 21.5516 0.513231C22.4453 -0.151444 23.5203 -0.186135 24.4001 0.500742C28.1047 3.38979 32.3155 5.12849 36.9055 6.02074C38.8226 6.39401 40.7593 6.56746 42.7141 6.52584C42.9748 6.52029 43.2356 6.51057 43.4963 6.5078C44.9882 6.49115 45.9684 7.42918 45.9726 8.90701C45.9809 11.7641 45.9753 14.6199 45.9753 17.477C45.9726 17.477 45.9684 17.477 45.9656 17.477H45.967ZM2.53349 9.02773C2.52373 9.23033 2.50979 9.39962 2.50979 9.56752C2.50979 14.5366 2.46378 19.5057 2.53349 24.4735C2.5572 26.2288 2.66734 28.0244 3.06611 29.7243C5.45034 39.8956 11.772 46.3883 21.8458 49.2732C22.3463 49.4161 22.9236 49.5202 23.4199 49.4203C26.1527 48.8749 28.7294 47.88 31.0816 46.3939C38.9021 41.4539 43.1352 34.3811 43.4336 25.1478C43.6023 19.9248 43.4698 14.692 43.4712 9.46345C43.4712 9.32885 43.4531 9.19564 43.4447 9.07491C43.3875 9.04577 43.3583 9.01941 43.3276 9.01802C43.1882 9.01247 43.0501 9.01108 42.9107 9.01247C35.6939 9.06242 29.1309 7.0684 23.3042 2.78895C23.0616 2.61133 22.9208 2.61133 22.681 2.78895C17.0452 6.94629 10.6831 8.92089 3.70051 9.02496C3.32266 9.03051 2.94481 9.02496 2.53489 9.02496L2.53349 9.02773Z" fill="white"/>
</svg>
