<svg width="32" height="31" viewBox="0 0 32 31" fill="none" xmlns="http://www.w3.org/2000/svg">
<path d="M21.5998 18.5761C22.8022 18.5029 23.9626 18.4296 25.1127 18.3459C25.9386 18.2936 26.7645 18.2413 27.5905 18.189C28.1237 18.1472 28.5941 18.3041 29.0123 18.6284C29.4096 18.9318 29.8173 19.2143 30.2146 19.5177C30.6642 19.8629 30.6537 20.3546 30.1728 20.6684C29.5978 21.0451 29.0123 21.4112 28.4791 21.7564C28.9182 22.2272 29.3469 22.6875 29.786 23.1583C29.8696 23.242 29.9533 23.3257 30.0369 23.3989C30.4446 23.8174 30.361 24.3091 29.8278 24.5497C29.0855 24.874 28.3432 25.1774 27.5696 25.5017C27.6323 25.6063 27.6846 25.69 27.7473 25.7737C28.0923 26.2654 28.4478 26.7571 28.7928 27.2593C29.0855 27.6882 28.9287 28.1381 28.4269 28.2845C27.8623 28.4519 27.2873 28.6088 26.7018 28.7448C26.2732 28.839 25.8341 28.7972 25.4368 28.5879C25.2904 28.5147 25.1336 28.431 25.0604 28.3891C24.4749 28.8076 23.9417 29.2261 23.3772 29.5922C22.7603 29.9898 22.1121 29.9898 21.4848 29.6132C20.7007 29.1424 20.6066 28.5565 21.2026 27.8242C20.6589 27.0396 20.1466 26.234 19.5716 25.4808C19.3102 25.1356 18.8816 24.9786 18.3275 24.9159C19.0593 25.4599 19.4984 26.098 19.6343 26.9141C19.7598 27.7301 19.5716 28.4728 19.0593 29.1319C18.2752 30.1467 16.8952 30.5129 15.7033 30.0107C14.386 29.4562 13.8215 28.2845 14.041 26.4956C12.3055 28.1799 10.2773 29.0378 7.87265 28.9645C6.18942 28.9122 4.66301 28.3787 3.31434 27.3744C0.554264 25.3239 -0.637587 21.7669 0.334712 18.5343C0.930638 16.5465 2.10158 14.9982 3.84754 13.8997C5.60395 12.8013 7.51718 12.4665 9.60815 12.7803C9.51406 12.6339 9.45133 12.5397 9.3886 12.4456C7.84128 10.2068 6.30442 7.97843 4.75711 5.72917C4.09845 4.7667 4.12982 3.59499 4.83029 2.73714C5.87578 1.46081 7.78901 1.54451 8.77176 2.93591C9.7127 4.275 10.6327 5.62456 11.5632 6.97411C13.3823 9.59999 15.1806 12.2363 17.0102 14.8622C17.4179 15.4481 17.6375 16.0653 17.5538 16.7767C17.4911 17.3102 17.7106 17.7496 18.0347 18.1472C18.087 18.2099 18.1916 18.2518 18.2752 18.2727C18.4425 18.3146 18.6098 18.325 18.798 18.3564C18.8293 18.2936 18.8816 18.2309 18.913 18.1576C19.3521 17.2161 19.7807 16.2745 20.2198 15.333C20.2825 15.197 20.3348 15.0819 20.178 14.9459C18.913 13.8265 18.2334 12.3828 18.087 10.7403C17.7316 6.71257 19.2371 3.49038 22.5617 1.17835C23.9522 0.215873 25.5518 -0.223517 27.2559 0.111257C29.4305 0.529724 30.8001 1.91066 31.5006 3.95069C32.3683 6.47195 31.992 8.91998 30.8106 11.2529C29.7546 13.3662 28.1759 14.9668 25.9386 15.8351C24.9977 16.2013 24.0149 16.3582 23.0008 16.2118C22.7917 16.1804 22.6767 16.2327 22.5826 16.4315C22.2794 17.1324 21.9553 17.8229 21.6103 18.5656L21.5998 18.5761ZM13.0478 15.3225C12.7446 14.9982 12.7028 14.7994 12.9014 14.6216C13.0896 14.4437 13.2673 14.4751 13.5914 14.7576C14.5637 15.6364 15.2956 16.6721 15.7556 17.8961C15.8811 18.2099 15.9751 18.5343 16.0797 18.8376C16.4456 18.6598 16.8011 18.4819 17.1775 18.2936C16.7593 17.7287 16.7593 17.0801 16.7593 16.421C16.7593 16.1176 16.6443 15.7619 16.4665 15.5004C13.696 11.4517 10.915 7.42396 8.12356 3.38576C7.559 2.55929 6.52398 2.37098 5.75032 2.91498C4.9662 3.45899 4.80938 4.47377 5.37394 5.31071C7.1199 7.84243 8.86586 10.3742 10.6223 12.9059C10.685 13 10.8 13.0942 10.9046 13.136C11.1555 13.2407 11.3123 13.3976 11.2077 13.6696C11.1032 13.9416 10.8732 13.9311 10.6223 13.8474C10.2145 13.7219 9.79634 13.6173 9.35724 13.4917C9.09586 15.1656 9.49315 16.5884 10.5386 17.8438C11.3959 16.9859 12.2219 16.149 13.0582 15.3016L13.0478 15.3225ZM31.2078 6.69165C31.1556 6.18949 31.1242 5.70825 31.0406 5.22701C30.7896 3.867 30.2251 2.64298 29.1064 1.77466C27.4441 0.487877 25.6354 0.487877 23.7954 1.34573C21.7985 2.27682 20.4603 3.85653 19.5821 5.84425C18.7666 7.6855 18.4739 9.61045 19.0175 11.5877C19.488 13.3453 20.4916 14.6948 22.2899 15.2702C23.7954 15.7619 25.2486 15.4794 26.5764 14.6948C29.6083 12.8954 30.9674 10.1126 31.2183 6.68119L31.2078 6.69165ZM2.60341 15.8875C1.26519 17.4358 0.637902 19.2038 0.731996 21.2648C1.66248 21.1287 2.53023 21.1706 3.38752 21.4112C4.25528 21.6518 5.02893 22.0912 5.69804 22.6457C6.32533 22.018 6.92126 21.4112 7.50673 20.8149C5.89668 19.1933 4.25528 17.5404 2.59296 15.877L2.60341 15.8875ZM7.68446 28.1695C9.30496 28.4205 11.7409 27.6568 13.0269 26.3491C11.3855 24.7066 9.75452 23.0537 8.14447 21.4426C7.53809 22.0494 6.93171 22.6666 6.31488 23.2839C7.47537 24.6857 7.93538 26.3177 7.68446 28.1695ZM8.75086 20.8463C10.3504 22.4574 11.9919 24.1103 13.6542 25.7737C14.9924 24.2359 15.6197 22.4574 15.5256 20.386C13.6333 20.658 11.9919 20.1872 10.5909 19.005C9.96362 19.6327 9.35723 20.25 8.76131 20.8463H8.75086ZM8.57312 13.4917C7.05717 13.1674 4.088 14.2031 3.24116 15.3016C4.88257 16.9545 6.52398 18.597 8.11311 20.2081C8.70904 19.6118 9.32587 18.9946 9.94271 18.3669C9.3886 17.7182 8.95995 16.9545 8.71949 16.0967C8.47903 15.2388 8.42675 14.3705 8.57312 13.4917ZM19.8121 22.3528C22.154 23.2106 24.4645 24.0476 26.775 24.8845C26.8377 24.9054 26.9214 24.9263 26.9841 24.895C27.7787 24.5602 28.5732 24.2254 29.2946 23.922C28.7614 23.3466 28.2178 22.7608 27.6741 22.1854C27.6323 22.1435 27.5382 22.1331 27.4755 22.1331C25.5622 21.9866 23.649 21.8506 21.7358 21.7146C21.1607 21.6728 20.5753 21.6414 19.9793 21.5995C19.9271 21.8611 19.8748 22.0912 19.8121 22.3632V22.3528ZM29.6919 20.0721C29.2214 19.7269 28.7928 19.3921 28.3432 19.0992C28.1759 18.9946 27.9459 18.9527 27.7368 18.9527C27.3814 18.9527 27.0155 18.9841 26.66 19.005C24.6631 19.1306 22.6558 19.2561 20.6589 19.3921C20.5753 19.3921 20.4498 19.4758 20.4394 19.549C20.3348 19.957 20.2616 20.3755 20.1675 20.8044C20.2721 20.8254 20.3557 20.8358 20.4394 20.8463C22.7081 21.0137 24.9663 21.1811 27.235 21.338C27.4232 21.3484 27.6427 21.338 27.7891 21.2543C28.4269 20.8777 29.0437 20.4697 29.7128 20.0617L29.6919 20.0721ZM28.0714 27.5941C27.695 27.0605 27.3396 26.5688 26.9945 26.0667C26.8168 25.8051 26.5868 25.6273 26.2836 25.5122C24.9454 25.0414 23.6176 24.5497 22.2794 24.058C21.4117 23.7442 20.5439 23.4303 19.6552 23.106C19.5612 23.5245 19.4671 23.9116 19.3939 24.3091C19.3834 24.3719 19.4671 24.4974 19.5402 24.5393C21.5998 25.6587 23.649 26.7781 25.7191 27.8765C25.9386 27.9916 26.2627 28.0335 26.5136 27.9811C27.0155 27.8974 27.5173 27.7301 28.0505 27.5836L28.0714 27.5941ZM16.7802 29.4667C17.9302 29.4667 18.8711 28.5356 18.8711 27.3848C18.8711 26.2131 17.9407 25.2716 16.7697 25.2716C15.6301 25.2716 14.6787 26.2131 14.6683 27.3534C14.6578 28.5147 15.6092 29.4667 16.7697 29.4667H16.7802ZM0.815635 22.0389C1.0561 23.4722 1.66248 24.7066 2.59296 25.7528C3.45025 24.8845 4.28664 24.0476 5.13348 23.1897C3.88936 22.1854 2.4675 21.7774 0.815635 22.0389ZM3.19934 26.3491C4.24482 27.2907 5.47849 27.8765 6.86898 28.1171C7.31854 27.0187 6.71216 24.7485 5.71895 23.8069C4.88257 24.6439 4.04618 25.4913 3.18888 26.3491H3.19934ZM11.1241 18.4296C12.2219 19.5177 14.3337 19.9466 15.421 19.549C15.1701 18.1576 14.5847 16.9336 13.6437 15.8979C12.7969 16.7453 11.9709 17.5822 11.1241 18.4296ZM18.1079 19.0678C17.7316 18.9841 17.2088 19.0678 16.8324 19.2875C16.4352 19.5177 16.2052 19.8106 16.2679 20.3232C16.362 21.1915 16.247 22.0598 16.0274 22.9072C15.8915 23.4303 15.9438 23.5454 16.4456 23.7337C16.6338 23.8069 16.8429 23.8383 17.0729 23.8906C17.4284 22.2481 17.7629 20.658 18.1079 19.0678ZM18.8711 19.1724C18.5261 20.8044 18.1811 22.4051 17.8361 24.0162C18.1288 24.0789 18.3693 24.1312 18.6411 24.1836C18.9861 22.562 19.3311 20.9614 19.6762 19.3503C19.3939 19.2875 19.1639 19.2352 18.8711 19.1724ZM21.9344 16.0025C21.5894 15.8456 21.2653 15.6991 20.9307 15.5527C20.4707 16.557 20.0212 17.5299 19.5298 18.5866C19.9166 18.6075 20.2512 18.6284 20.5753 18.6284C20.638 18.6284 20.7425 18.5656 20.7635 18.5029C21.1503 17.6764 21.5371 16.8395 21.9239 15.9921L21.9344 16.0025ZM24.2658 28.0648C24.2658 28.0648 24.2449 27.9916 24.2345 27.9498C23.9417 27.7928 23.649 27.6254 23.3458 27.4685C23.2831 27.4371 23.1785 27.4476 23.1263 27.4894C22.6453 27.8138 22.1644 28.1485 21.6835 28.4728C21.5371 28.567 21.5476 28.6612 21.6521 28.7762C21.8926 29.0587 22.3735 29.247 22.7185 29.0587C23.2622 28.7658 23.764 28.3996 24.2763 28.0648H24.2658ZM22.4676 26.9977C21.9762 26.7257 21.5267 26.4956 21.0876 26.255C21.0771 26.2759 21.0667 26.2864 21.0562 26.3073C21.3176 26.6734 21.5685 27.0501 21.8299 27.4371C22.0389 27.2907 22.2271 27.1651 22.4676 26.9977ZM16.2679 24.5183C16.0588 24.4033 15.8392 24.2882 15.5988 24.1626C15.4629 24.4242 15.3374 24.6753 15.2119 24.9263C15.5883 24.7799 15.9229 24.6543 16.2679 24.5183Z" fill="white"/>
<path d="M6.93174 5.04916C6.99447 5.10147 7.13038 5.16424 7.20356 5.27932C8.09222 6.60795 8.98088 7.93658 9.86954 9.27568C10.0055 9.48491 10.0055 9.68368 9.78591 9.83015C9.57681 9.97661 9.37817 9.91384 9.24225 9.70461C8.34314 8.36551 7.45448 7.02642 6.56582 5.67686C6.36718 5.38394 6.53445 5.04916 6.93174 5.04916Z" fill="white"/>
<path d="M6.10582 3.96115C6.36719 3.96115 6.58675 4.21223 6.58675 4.45285C6.58675 4.69347 6.44038 4.81901 6.21037 4.82947C6.00128 4.82947 5.75036 4.55747 5.76081 4.33777C5.77127 4.09715 5.90718 3.98207 6.10582 3.96115Z" fill="white"/>
<path d="M30.4655 6.92179C30.2146 10.0603 28.96 12.5816 26.064 14.0462C24.4331 14.8727 22.7708 14.8308 21.2757 13.6486C20.2721 12.864 19.7389 11.7655 19.5925 10.5311C19.1952 7.23564 20.3871 4.58884 23.074 2.66389C24.3285 1.77465 25.7609 1.41895 27.2768 1.90019C28.9914 2.44419 29.8801 3.7519 30.2669 5.44669C30.3819 5.92793 30.4028 6.43009 30.4655 6.93225V6.92179ZM22.3735 8.7212C22.9171 8.97228 23.419 9.20243 23.9417 9.43259C24.1404 8.9932 24.3285 8.58519 24.5272 8.15627C23.9835 7.90519 23.4922 7.68549 22.9694 7.44487C22.7708 7.8738 22.5826 8.28181 22.3735 8.7212ZM24.7886 3.50082C24.5899 3.94021 24.4017 4.34822 24.2031 4.77715C24.7258 5.01777 25.2381 5.24792 25.7609 5.499C25.9595 5.07007 26.1477 4.66207 26.3463 4.22268C25.8236 3.98206 25.3113 3.7519 24.7886 3.50082ZM24.6422 9.7569C25.1649 9.99752 25.6668 10.2277 26.2 10.4788C26.3986 10.0394 26.5972 9.63136 26.7959 9.20243C26.2522 8.95135 25.7504 8.7212 25.2277 8.49104C25.029 8.93043 24.8408 9.32797 24.6422 9.76736V9.7569ZM23.6176 10.1335C23.0844 9.8929 22.5826 9.66275 22.0598 9.41167C21.8612 9.85106 21.673 10.2591 21.4744 10.688C21.9971 10.9286 22.5094 11.1588 23.0321 11.4098C23.2308 10.9809 23.419 10.5729 23.6176 10.1335ZM28.0191 6.53471C28.2177 6.08486 28.4059 5.67685 28.6046 5.25838C28.0609 5.0073 27.5591 4.77715 27.0468 4.54699C26.8482 4.98638 26.66 5.39439 26.4613 5.82331C26.9945 6.06393 27.4964 6.29409 28.0191 6.54517V6.53471ZM25.4368 6.18947C24.8931 5.93839 24.4017 5.7187 23.8685 5.46762C23.6699 5.89655 23.4817 6.30455 23.2831 6.74394C23.8058 6.98456 24.3181 7.22518 24.8408 7.4658C25.0395 7.03687 25.2277 6.62886 25.4368 6.18947ZM27.1095 8.5015C27.3082 8.08303 27.4964 7.66457 27.7055 7.22518C27.1723 6.98456 26.6704 6.74394 26.1477 6.50332C25.949 6.93225 25.7608 7.35072 25.5622 7.77964C26.0849 8.02026 26.5763 8.25042 27.12 8.5015H27.1095ZM24.3181 10.4578C24.1194 10.8972 23.9313 11.3052 23.7326 11.7342C24.2554 11.9748 24.7676 12.2154 25.2904 12.456C25.489 12.0271 25.6772 11.6086 25.8759 11.1797C25.3427 10.9391 24.8513 10.7089 24.3181 10.4578ZM28.8973 10.1754C28.3955 9.94521 27.9459 9.74644 27.4859 9.52674C27.2873 9.96613 27.0991 10.3741 26.9004 10.8031C27.3291 11.0018 27.7264 11.1901 28.155 11.3785C28.4059 10.9705 28.6359 10.5834 28.8973 10.1649V10.1754ZM22.2689 7.12056C21.7985 6.90087 21.3489 6.70209 20.8575 6.47194C20.7007 6.94271 20.5648 7.3821 20.4184 7.82149C20.868 8.03073 21.2548 8.20857 21.673 8.39688C21.8717 7.95749 22.0598 7.54949 22.2585 7.12056H22.2689ZM27.7995 8.82581C28.27 9.04551 28.7091 9.24428 29.2005 9.47444C29.3155 9.04551 29.42 8.64796 29.5246 8.23996C29.535 8.17719 29.4932 8.07257 29.441 8.04119C29.1064 7.8738 28.7614 7.71688 28.3955 7.55995C28.1968 7.98888 28.0086 8.38642 27.81 8.83627L27.7995 8.82581ZM22.593 6.43009C22.7917 5.9907 22.9799 5.5827 23.1785 5.15377C22.7708 4.96546 22.4048 4.79807 21.9971 4.60976C21.7357 4.99684 21.4744 5.38392 21.1921 5.79193C21.6626 6.01162 22.1017 6.21039 22.5826 6.43009H22.593ZM22.708 12.1108C22.1748 11.8702 21.673 11.6295 21.1084 11.3785C21.0457 11.64 20.8784 11.9015 20.9516 12.0585C21.2025 12.592 21.6103 13 22.1539 13.3243C22.3421 12.9163 22.5199 12.5397 22.7185 12.1212L22.708 12.1108ZM22.8126 13.7114C23.304 13.7428 23.7326 13.8056 24.1613 13.7951C24.7572 13.7846 24.7572 13.7637 24.9349 13.136C24.4331 12.9059 23.9313 12.6757 23.4085 12.4351C23.2203 12.8431 23.0426 13.2197 22.8126 13.7114ZM27.0782 2.6325C26.4822 2.43373 25.9177 2.41281 25.3531 2.52789C25.259 2.54881 25.1858 2.67435 25.0708 2.77897C25.6354 3.04051 26.1477 3.27067 26.6704 3.51129C26.8063 3.21836 26.9318 2.93589 27.0782 2.6325ZM26.5763 11.4935C26.3777 11.9329 26.1895 12.3409 25.9595 12.8117C26.1895 12.8536 26.4195 12.9686 26.5345 12.8954C26.9213 12.6443 27.2559 12.3305 27.6636 11.9957C27.2663 11.8074 26.9422 11.6609 26.5763 11.4935ZM28.9496 4.56791C28.9705 4.43191 29.0332 4.29591 28.9809 4.21222C28.6987 3.68913 28.3014 3.28113 27.7682 2.94635C27.6218 3.2602 27.4964 3.53221 27.3604 3.82513C27.8832 4.06575 28.385 4.29591 28.9391 4.55745L28.9496 4.56791ZM20.2721 8.59566C20.2721 9.01412 20.2721 9.36982 20.2721 9.72552C20.2825 10.2068 20.293 10.2068 20.7843 10.3428C20.9725 9.93475 21.1607 9.52674 21.3594 9.09782C21.0039 8.93043 20.6693 8.78397 20.2721 8.59566ZM24.0776 3.2079C24.0776 3.2079 24.0253 3.11374 23.994 3.07189C23.419 3.18697 23.0426 3.63682 22.5617 4.01344C22.9067 4.17037 23.1994 4.30637 23.5026 4.44237C23.7012 4.00298 23.8894 3.60544 24.0776 3.19743V3.2079ZM29.6919 7.29841C29.65 6.74394 29.6187 6.2627 29.556 5.79193C29.556 5.7187 29.42 5.65593 29.3155 5.55131C29.0959 6.02209 28.9078 6.43009 28.7196 6.84856C29.0437 6.99502 29.3259 7.13102 29.7023 7.29841H29.6919Z" fill="white"/>
</svg>
