<svg width="130" height="84" viewBox="0 0 130 84" fill="none" xmlns="http://www.w3.org/2000/svg">
<path d="M68.8922 76.294C64.2977 75.0746 60.3993 72.2993 57.4175 68.4323C52.9158 70.3135 48.1589 70.8245 43.5528 69.6052C38.9467 68.3859 35.0599 65.6105 32.0781 61.7435C27.5764 63.6247 22.8195 64.1357 18.2134 62.9164C3.93092 59.1307 -3.50616 40.2256 1.62206 20.7747L2.72428 21.065C-2.2415 39.9121 4.8359 58.1785 18.5034 61.79C22.7731 62.9164 27.1819 62.4867 31.382 60.7913C25.6272 52.6161 23.62 40.1675 26.9615 27.4751C30.2681 14.9453 38.2853 4.5637 47.892 0.359987L48.7042 0V0.696749C53.6584 7.4436 55.8048 17.0936 54.7606 27.0803C58.8098 17.8019 65.5043 10.428 73.2315 7.04877L73.9392 6.74685L74.0204 7.36231C80.2277 15.7581 82.0492 28.6944 78.7542 41.1546C75.4127 53.847 67.5231 63.6828 58.4849 67.9446C61.3043 71.498 64.9242 74.0527 69.1939 75.1792C82.8614 78.7906 98.0256 66.4001 102.991 47.5531C106.205 35.36 104.43 22.7488 98.3505 14.6201L99.267 13.935C105.544 22.3308 107.389 35.3251 104.094 47.8434C98.9654 67.2943 83.1747 80.0564 68.8922 76.2823V76.294ZM33.1339 61.2558C35.9533 64.8092 39.5732 67.364 43.8428 68.4904C48.1125 69.6168 52.5214 69.1871 56.7214 67.4917C52.0921 60.919 49.8876 51.5942 50.9435 41.5959C46.9291 50.8162 40.4086 57.8417 33.1455 61.2674L33.1339 61.2558ZM73.2779 8.29131C64.1701 12.4718 56.5822 22.4469 53.4147 34.4542C50.1313 46.9144 52.1153 59.1307 57.7888 67.0156C66.6182 62.9628 74.3685 53.3245 77.652 40.8527C80.8194 28.8454 79.137 16.42 73.2779 8.27969V8.29131ZM47.9269 1.60252C38.819 5.78301 31.2311 15.7581 28.0637 27.7654C24.7803 40.2256 26.7643 52.4419 32.4378 60.3268C41.2671 56.2741 49.0175 46.6357 52.3009 34.1639C55.4683 22.1566 53.786 9.73125 47.9269 1.59091V1.60252Z" fill="#F7004B"/>
<path d="M94.2317 82.9827C79.9492 79.2087 72.5122 60.3152 77.6404 40.8643C80.947 28.3344 88.9642 17.9529 98.5709 13.7491L99.0234 14.7943C89.73 18.8586 81.9564 28.9499 78.7426 41.1546C73.7768 60.0016 80.8542 78.2681 94.5217 81.8795C108.189 85.491 123.353 73.1005 128.319 54.2535L129.421 54.5438C124.293 73.9947 108.503 86.7568 94.2201 82.9827H94.2317Z" fill="#F7004B"/>
</svg>
