<svg width="140" height="156" viewBox="0 0 140 156" fill="none" xmlns="http://www.w3.org/2000/svg">
<path opacity="0.56" d="M139.038 12.0711C137.948 16.9711 136.828 21.8611 135.788 26.7711C127.798 64.1411 119.828 101.511 111.848 138.881C111.248 141.671 110.708 144.471 109.988 147.231C107.298 157.481 99.8175 156.861 94.0175 152.701C82.0775 144.141 70.2875 135.371 58.4275 126.691C56.6675 125.401 54.8475 124.171 53.1575 122.801C52.1975 122.021 51.6075 122.111 50.7375 122.961C43.8775 129.581 36.9575 136.141 30.0675 142.741C28.0175 144.711 25.6875 145.911 22.5675 145.791C22.7475 143.111 22.9175 140.521 23.0975 137.941C23.9075 126.611 24.6875 115.281 25.5775 103.961C25.6475 103.061 26.1975 101.991 26.8675 101.391C52.6375 78.1811 78.4475 55.0111 104.248 31.8311C104.568 31.5511 104.988 31.3211 105.168 30.9611C105.578 30.1611 105.878 29.3011 106.218 28.4711C105.328 28.2411 104.358 27.6611 103.568 27.8511C102.128 28.1911 100.688 28.8111 99.4175 29.5911C67.2875 49.6511 35.1875 69.7311 3.09752 89.8611C1.89752 90.6111 0.907509 90.7011 -0.412491 90.2911C-13.8325 86.0711 -27.2825 81.9411 -40.6925 77.6911C-42.4525 77.1311 -44.2025 76.2811 -45.6925 75.1911C-48.1425 73.4111 -48.4525 70.8511 -46.2725 68.8011C-44.4525 67.1011 -42.2725 65.5611 -39.9625 64.6511C-26.6025 59.3711 -13.1625 54.2811 0.257507 49.1411C42.1575 33.1011 84.0675 17.0511 125.978 1.04107C127.318 0.531068 128.768 0.131068 130.188 0.0310678C134.598 -0.288932 137.468 1.87107 138.628 6.14107C138.738 6.54107 138.887 6.94107 139.018 7.34107V12.0811L139.038 12.0711Z" fill="#F7004B"/>
</svg>
