<svg width="50" height="51" viewBox="0 0 50 51" fill="none" xmlns="http://www.w3.org/2000/svg">
<path d="M26.5582 50.0177H23.4286C23.1157 49.973 22.7878 49.9283 22.4749 49.8985C17.2292 49.3173 12.5497 47.38 8.61544 43.863C1.99868 37.9317 -0.86262 30.4805 0.225271 21.673C1.04491 15.0265 4.23407 9.58699 9.47979 5.42916C14.7553 1.24152 20.8058 -0.50208 27.4971 0.12383C32.4596 0.585811 36.8857 2.44861 40.7306 5.59306C45.5292 9.52735 48.5246 14.5644 49.6125 20.6894C49.7765 21.5985 49.8659 22.5225 50 23.4315V26.5611C49.9255 27.1721 49.851 27.783 49.7765 28.394C49.0611 33.3864 47.0493 37.7976 43.6962 41.568C39.8364 45.8898 35.0527 48.5871 29.345 49.6303C28.421 49.7942 27.4822 49.8985 26.5582 50.0177ZM24.9934 46.8882C37.0496 46.8882 46.8555 37.0823 46.8854 25.0112C46.9003 12.9401 37.0645 3.08945 24.9934 3.10435C12.9372 3.10435 3.13128 12.9103 3.10148 24.9814C3.08657 37.0376 12.9223 46.9032 24.9934 46.9032V46.8882Z" fill="white"/>
<path d="M23.4435 9.37793H26.5581V9.97398C26.5581 14.5938 26.5581 19.2285 26.5581 23.8483C26.5581 24.2209 26.6773 24.4743 26.9307 24.7425C29.6728 27.4697 32.4 30.1969 35.1271 32.924C35.2464 33.0433 35.3507 33.1624 35.4252 33.2369C34.6801 33.9821 33.9647 34.6974 33.2047 35.4723C32.8768 35.1147 32.5192 34.7421 32.1615 34.3696C29.3598 31.5679 26.5581 28.781 23.7713 25.9645C23.6074 25.8005 23.4584 25.5323 23.4584 25.3087C23.4435 20.1077 23.4584 14.9217 23.4584 9.72066C23.4584 9.63125 23.4584 9.52688 23.4584 9.39276L23.4435 9.37793Z" fill="white"/>
</svg>
