<svg width="114" height="108" viewBox="0 0 114 108" fill="none" xmlns="http://www.w3.org/2000/svg">
<g clip-path="url(#clip0_214_280)">
<path d="M95.9 0C88.89 0 82.83 7.76 79.92 19.03C77.07 15.31 73.62 13.13 69.91 13.13C62.86 13.13 56.77 20.97 53.89 32.34C51.02 28.55 47.54 26.33 43.79 26.33C36.78 26.33 30.72 34.09 27.81 45.36C24.96 41.64 21.51 39.46 17.8 39.46C7.97 39.46 0 54.72 0 73.54C0 92.36 7.97 107.62 17.8 107.62C24.81 107.62 30.87 99.86 33.78 88.59C36.63 92.31 40.08 94.49 43.79 94.49C50.84 94.49 56.93 86.65 59.81 75.28C62.68 79.07 66.16 81.29 69.91 81.29C76.92 81.29 82.98 73.53 85.89 62.26C88.74 65.98 92.19 68.16 95.9 68.16C105.73 68.16 113.7 52.9 113.7 34.08C113.7 15.26 105.74 0 95.9 0Z" fill="#F7004B"/>
</g>
<defs>
<clipPath id="clip0_214_280">
<rect width="113.71" height="107.62" fill="white"/>
</clipPath>
</defs>
</svg>
