<svg width="80" height="76" viewBox="0 0 80 76" fill="none" xmlns="http://www.w3.org/2000/svg">
<g clip-path="url(#clip0_284_90)">
<path d="M67.4699 0C62.538 0 58.2746 5.48002 56.2272 13.4388C54.2221 10.8117 51.7949 9.27225 49.1848 9.27225C44.2248 9.27225 39.9402 14.8088 37.914 22.8381C35.8948 20.1617 33.4465 18.5939 30.8082 18.5939C25.8764 18.5939 21.6129 24.074 19.5656 32.0327C17.5605 29.4057 15.1332 27.8662 12.5231 27.8662C5.60725 27.8662 0 38.6426 0 51.9331C0 65.2236 5.60725 76 12.5231 76C17.4549 76 21.7184 70.52 23.7657 62.5612C25.7708 65.1883 28.198 66.7277 30.8082 66.7277C35.7682 66.7277 40.0528 61.1912 42.079 53.1619C44.0981 55.8383 46.5465 57.4061 49.1848 57.4061C54.1166 57.4061 58.3801 51.926 60.4274 43.9673C62.4325 46.5943 64.8597 48.1338 67.4699 48.1338C74.3857 48.1338 79.993 37.3574 79.993 24.0669C79.993 10.7764 74.3928 0 67.4699 0Z" fill="#5EDCAA"/>
</g>
<defs>
<clipPath id="clip0_284_90">
<rect width="80" height="76" fill="white"/>
</clipPath>
</defs>
</svg>
