<svg width="136" height="129" viewBox="0 0 136 129" fill="none" xmlns="http://www.w3.org/2000/svg">
<path d="M114.699 0C106.315 0 99.0667 9.30162 95.5863 22.8105C92.1776 18.3515 88.0514 15.7384 83.6141 15.7384C75.1821 15.7384 67.8983 25.1359 64.4538 38.7647C61.0212 34.2218 56.859 31.5608 52.3739 31.5608C43.9898 31.5608 36.7419 40.8624 33.2615 54.3713C29.8528 49.9123 25.7265 47.2992 21.2892 47.2992C9.53232 47.2992 0 65.5908 0 88.1496C0 110.708 9.53232 129 21.2892 129C29.6734 129 36.9213 119.698 40.4017 106.189C43.8104 110.648 47.9367 113.262 52.3739 113.262C60.8059 113.262 68.0897 103.864 71.5343 90.2353C74.9669 94.7782 79.129 97.4392 83.6141 97.4392C91.9982 97.4392 99.2462 88.1376 102.727 74.6287C106.135 79.0877 110.262 81.7008 114.699 81.7008C126.456 81.7008 135.988 63.4092 135.988 40.8504C135.988 18.2916 126.468 0 114.699 0Z" fill="#F9FEC4"/>
</svg>
