<svg width="114" height="114" viewBox="0 0 114 114" fill="none" xmlns="http://www.w3.org/2000/svg">
<g clip-path="url(#clip0_214_274)">
<path d="M57 70.9309C64.6939 70.9309 70.9311 64.6938 70.9311 56.9999C70.9311 49.306 64.6939 43.0688 57 43.0688C49.3061 43.0688 43.069 49.306 43.069 56.9999C43.069 64.6938 49.3061 70.9309 57 70.9309Z" stroke="#FDCCDB" stroke-width="7.11" stroke-miterlimit="10"/>
<path d="M57.0001 84.6908C72.2933 84.6908 84.6909 72.2932 84.6909 56.9999C84.6909 41.7067 72.2933 29.3091 57.0001 29.3091C41.7068 29.3091 29.3092 41.7067 29.3092 56.9999C29.3092 72.2932 41.7068 84.6908 57.0001 84.6908Z" stroke="#FDCCDB" stroke-width="7.11" stroke-miterlimit="10"/>
<path d="M57 98.1079C79.7034 98.1079 98.1082 79.7032 98.1082 56.9998C98.1082 34.2964 79.7034 15.8916 57 15.8916C34.2966 15.8916 15.8918 34.2964 15.8918 56.9998C15.8918 79.7032 34.2966 98.1079 57 98.1079Z" stroke="#FDCCDB" stroke-width="7.11" stroke-miterlimit="10"/>
<path d="M57 110.96C86.8015 110.96 110.96 86.8014 110.96 56.9999C110.96 27.1984 86.8015 3.03955 57 3.03955C27.1985 3.03955 3.03967 27.1984 3.03967 56.9999C3.03967 86.8014 27.1985 110.96 57 110.96Z" stroke="#FDCCDB" stroke-width="7.11" stroke-miterlimit="10"/>
</g>
<defs>
<clipPath id="clip0_214_274">
<rect width="114" height="114" fill="white"/>
</clipPath>
</defs>
</svg>
