<svg width="116" height="116" viewBox="0 0 116 116" fill="none" xmlns="http://www.w3.org/2000/svg">
<path opacity="0.56" d="M57.895 72.0049C65.6878 72.0049 72.005 65.6877 72.005 57.895C72.005 50.1022 65.6878 43.7849 57.895 43.7849C50.1023 43.7849 43.785 50.1022 43.785 57.895C43.785 65.6877 50.1023 72.0049 57.895 72.0049Z" stroke="#F7004B" stroke-width="6.51" stroke-miterlimit="10"/>
<path opacity="0.56" d="M57.895 85.9348C73.3811 85.9348 85.935 73.3808 85.935 57.8948C85.935 42.4087 73.3811 29.8547 57.895 29.8547C42.409 29.8547 29.855 42.4087 29.855 57.8948C29.855 73.3808 42.409 85.9348 57.895 85.9348Z" stroke="#F7004B" stroke-width="6.51" stroke-miterlimit="10"/>
<path opacity="0.56" d="M57.895 99.5149C80.8811 99.5149 99.515 80.881 99.515 57.8949C99.515 34.9088 80.8811 16.2749 57.895 16.2749C34.9089 16.2749 16.275 34.9088 16.275 57.8949C16.275 80.881 34.9089 99.5149 57.895 99.5149Z" stroke="#F7004B" stroke-width="6.51" stroke-miterlimit="10"/>
<path opacity="0.56" d="M57.895 112.535C88.0719 112.535 112.535 88.0717 112.535 57.8949C112.535 27.7181 88.0719 3.25488 57.895 3.25488C27.7182 3.25488 3.255 27.7181 3.255 57.8949C3.255 88.0717 27.7182 112.535 57.895 112.535Z" stroke="#F7004B" stroke-width="6.51" stroke-miterlimit="10"/>
</svg>
