<svg width="112" height="73" viewBox="0 0 112 73" fill="none" xmlns="http://www.w3.org/2000/svg">
<path d="M59.3781 65.69C55.4181 64.64 52.0581 62.25 49.4881 58.92C45.6081 60.54 41.5081 60.98 37.5381 59.93C33.5681 58.88 30.2181 56.49 27.6481 53.16C23.7681 54.78 19.6681 55.22 15.6981 54.17C3.38805 50.91 -3.02195 34.64 1.39805 17.89L2.34805 18.14C-1.93195 34.37 4.16805 50.1 15.9481 53.21C19.6281 54.18 23.4281 53.81 27.0481 52.35C22.0881 45.31 20.3581 34.59 23.2381 23.66C26.0881 12.87 32.9981 3.92 41.278 0.31L41.9781 0V0.6C46.2481 6.41 48.0981 14.72 47.1981 23.32C50.6881 15.33 56.458 8.98 63.118 6.07L63.7281 5.81L63.798 6.34C69.148 13.57 70.718 24.71 67.8781 35.44C64.9981 46.37 58.1981 54.84 50.4081 58.51C52.8381 61.57 55.958 63.77 59.6381 64.74C71.4181 67.85 84.4881 57.18 88.7681 40.95C91.538 30.45 90.008 19.59 84.7681 12.59L85.5581 12C90.968 19.23 92.5581 30.42 89.7181 41.2C85.2981 57.95 71.688 68.94 59.3781 65.69ZM28.5581 52.74C30.9881 55.8 34.1081 58 37.7881 58.97C41.4681 59.94 45.2681 59.57 48.8881 58.11C44.898 52.45 42.9981 44.42 43.9081 35.81C40.4481 43.75 34.8281 49.8 28.5681 52.75L28.5581 52.74ZM63.1581 7.14C55.3081 10.74 48.7681 19.33 46.0381 29.67C43.2081 40.4 44.9181 50.92 49.8081 57.71C57.4181 54.22 64.0981 45.92 66.9281 35.18C69.6581 24.84 68.2081 14.14 63.1581 7.13V7.14ZM41.3081 1.37C33.4581 4.97 26.9181 13.56 24.1881 23.9C21.3581 34.63 23.0681 45.15 27.9581 51.94C35.5681 48.45 42.2481 40.15 45.0781 29.41C47.8081 19.07 46.3581 8.37 41.3081 1.36V1.37Z" fill="#19CC85"/>
<path d="M81.2181 71.4598C68.9081 68.2098 62.4981 51.9398 66.9181 35.1898C69.7681 24.3998 76.6781 15.4598 84.9581 11.8398L85.3481 12.7398C77.3381 16.2398 70.6381 24.9298 67.8681 35.4398C63.5881 51.6698 69.6881 67.3998 81.4681 70.5098C93.2481 73.6198 106.318 62.9498 110.598 46.7198L111.548 46.9698C107.128 63.7198 93.5181 74.7098 81.2081 71.4598H81.2181Z" fill="#19CC85"/>
</svg>
